<svg width="2423" height="560" viewBox="0 0 2423 560" fill="none" xmlns="http://www.w3.org/2000/svg">
<path fill-rule="evenodd" clip-rule="evenodd" d="M459.591 559.743L384.976 443.495H195.981L325.134 153.971L529.252 559.354H651.829C710.271 559.354 770.593 556.63 826.441 517.449C882.289 478.267 932.78 412.692 949.615 344.29C966.437 275.887 949.576 204.631 918.163 148.783C886.751 92.9225 840.76 52.4698 793.939 29.1891C747.118 5.90837 700.31 8.73573 654.488 8.73573H446.245L510.355 129.173H680.194C704.37 129.173 728.545 135.204 750.062 146.228C771.579 157.266 790.437 173.478 805.08 193.101C819.723 212.724 830.151 235.772 832.407 269.13C834.664 302.488 828.776 346.183 803.355 379.373C777.921 412.562 733.137 439.306 687.717 439.306H606.681L381.384 10.8109H262.827L0.65625 559.743H459.591ZM992.895 193.075C984.504 220.276 980.22 248.576 980.185 277.041C980.159 305.445 984.413 333.888 993.038 361.137C1001.73 388.636 1014.74 414.579 1031.57 437.996C1048.58 461.572 1069.26 482.263 1092.83 499.278C1116.23 516.129 1142.16 529.145 1169.66 537.837C1196.92 546.475 1225.34 550.729 1253.77 550.729C1282.2 550.729 1310.62 546.475 1337.86 537.837C1365.36 529.143 1391.3 516.127 1414.7 499.278C1438.19 482.353 1459.03 461.497 1475.95 438.009C1492.88 414.521 1505.88 388.413 1514.49 361.137C1523.13 333.875 1527.38 305.445 1527.38 277.015C1527.38 248.586 1523.13 220.156 1514.49 192.893C1505.88 165.618 1492.88 139.523 1475.95 116.035C1459.03 92.5464 1438.19 71.691 1414.7 54.7525C1391.28 37.9158 1365.35 24.8928 1337.86 16.1674C1310.66 7.59299 1282.29 3.25791 1253.77 3.31438H901.16L968.862 121.819H1255.16C1271.11 121.819 1287.1 124.18 1302.43 129.043C1325.73 136.403 1346.92 149.27 1364.19 166.555C1381.46 183.84 1394.31 205.033 1401.65 228.34C1406.51 243.657 1408.9 259.636 1408.9 275.615C1408.9 291.593 1406.51 307.559 1401.65 322.889C1391.79 354.107 1372.13 381.318 1345.59 400.487C1332.44 409.947 1317.87 417.262 1302.43 422.16C1287.14 426.977 1271.19 429.418 1255.16 429.397C1239.13 429.416 1223.2 426.975 1207.92 422.16C1176.7 412.289 1149.49 392.618 1130.34 366.066C1120.87 352.914 1113.57 338.339 1108.69 322.889C1103.84 307.559 1101.45 291.593 1101.45 275.615C1101.45 259.636 1103.86 243.657 1108.26 229.741C1112.3 216.615 1118.8 204.378 1127.42 193.685L992.895 193.075ZM1726.37 125.477C1745.83 135.269 1755.53 151.403 1756.01 168.627C1756.19 177.786 1753.98 186.833 1749.59 194.872C1745.2 202.912 1738.78 209.665 1730.98 214.462C1714.21 224.734 1690.32 220.597 1668.41 220.597H1561.2L1614.81 327.818H1716.36C1740.98 327.818 1767.92 324.692 1785.44 334.225C1803 343.771 1810.47 360.19 1810.98 376.688C1811.46 393.186 1804.97 409.813 1784.08 419.955C1763.18 430.11 1728.4 428.152 1696.69 428.152H1524.81L1481.47 553.933H1714.47C1770.78 553.933 1830.34 545.502 1872.13 513.61C1913.93 481.73 1937.56 432.821 1939.96 389.321C1942.36 345.82 1923.51 307.767 1902.14 282.631C1880.74 257.509 1856.77 245.343 1831.57 243.333C1847.63 233.761 1859.41 217.873 1865.24 193.049C1871.04 168.225 1870.92 134.478 1857.95 102.183C1844.98 69.8882 1819.2 39.0461 1784.52 20.5901C1749.81 2.12117 1706.85 3.32734 1665.59 3.32734H1440.24L1513.62 116.787L1651.47 117.124C1678.22 117.202 1706.95 115.697 1726.37 125.477ZM1837.65 0.5L1908.18 119.005H2211.43L2152.81 0.5H1837.65ZM1947.68 209.3L2018.18 327.805H2314.66L2256.06 209.3H1947.68ZM1981.52 426.583L1910.99 545.1H2422.1L2363.48 426.583H1981.52Z" fill="black"/>
</svg>
