<svg width="964" height="964" viewBox="0 0 964 964" fill="none" xmlns="http://www.w3.org/2000/svg">
<g clip-path="url(#clip0_47_1856)">
<path d="M562.686 765.982L561.741 778.454C564.538 773.556 568.518 771.942 572.902 770.563L583.106 801.872L580.842 807.428L596.709 802.443L591.67 799.177L582.131 767.664C586.693 766.217 591.217 765.461 595.794 767.751L587.887 758.064L562.686 765.982ZM133.627 299.518L125.932 316.579L124.477 312.489L103.527 310.834L100.107 318.204L118.165 326.349L122.285 324.652L115.028 340.741L113.573 336.527L66.194 315.146L59.648 316.998L68.1517 298.15C71.6855 290.323 75.6275 285.111 79.9814 282.518C84.3316 279.925 89.6455 280.046 95.9194 282.877C99.6006 284.54 102.171 287.008 103.626 290.285C105.1 293.509 105.776 296.997 105.644 300.746L128.974 301.536L133.627 299.518ZM91.4256 292.832C85.3067 290.073 80.4123 292.76 76.7387 300.901C75.896 302.775 75.1033 304.67 74.3614 306.586L91.9396 314.519C92.5103 313.529 93.2813 311.956 94.8725 308.43C96.5128 304.802 96.9965 301.589 96.3238 298.785C95.651 295.988 94.0183 294.004 91.4256 292.832ZM632.19 55.1008C626.075 52.9768 622.227 54.5037 618.939 57.342C612.208 62.5274 614.438 69.6631 616.309 76.398C608.466 77.4601 603.965 79.7731 600.42 86.6252C599.366 88.6883 598.761 90.951 598.643 93.2648C598.526 95.5785 598.9 97.8908 599.74 100.05C602.873 108.055 613.002 114.423 624.763 109.026L625.878 114.907L643.377 120.459C638.324 116.766 634.034 112.295 632.572 105.447L641.491 102.745L639.261 91.2929C636.34 94.6377 633.131 96.1608 629.907 97.6613L625.863 82.7097L633.573 80.7671C641.745 78.7035 648.177 60.6491 632.19 55.1008ZM630.232 62.055C634.564 63.5592 634.163 70.6873 629.344 72.9436L624.593 74.4252L623.274 69.6706C621.683 63.941 626.763 60.8494 630.232 62.055ZM617.957 84.5919L622.265 100.243C617.904 103.213 609.457 102.85 607.733 96.1192C606.286 90.4841 609.782 86.1566 617.957 84.5919ZM223.586 832.009C216.455 840.941 208.577 841.963 199.953 835.075C199.063 834.366 197.73 832.982 195.954 830.921C194.132 828.918 192.666 827.519 191.555 826.726C190.887 826.192 190.175 825.759 189.419 825.429L198.384 810.924L200.051 811.706C197.551 816.66 199.325 821.55 205.372 826.378C209.817 829.928 213.332 830.084 215.917 826.847C217.031 825.451 217.633 824.149 217.724 822.942C217.86 821.771 217.572 820.124 216.862 818.003L213.408 807.428C211.412 801.355 212.599 795.585 216.968 790.118C220.132 786.152 223.806 784.103 227.989 783.972C232.262 783.819 236.199 785.179 239.799 788.054C240.598 788.694 241.62 789.74 242.865 791.191C244.155 792.678 245.176 793.722 245.93 794.324L248.333 795.829L239.905 808.845L238.235 808.199C239.084 805.951 239.154 803.904 238.446 802.057C237.736 800.21 236.159 798.31 233.715 796.358C229.713 793.163 226.62 792.934 224.436 795.67C223.01 797.454 222.851 800.024 223.96 803.38L226.817 812.243C228.147 816.229 228.566 819.716 228.072 822.704C227.669 825.672 226.173 828.775 223.586 832.013V832.009ZM29.4766 461.283L33.8305 456.494L84.4487 474.386L87.9825 479.299L89.4187 459.646L85.575 463.565L71.9992 459.128L73.031 444.978L87.1095 442.559L90.3409 447L91.7771 427.347L87.5668 431.693L34.8812 442.034L31.2718 436.663L29.4766 461.283ZM43.9821 449.967L64.0246 446.528L63.314 456.29L43.9821 449.967ZM128.702 198.452L135.044 197.148L165.378 241.443L165.337 247.498L178.081 232.471L172.665 233.37L164.32 221.782L173.496 210.962L186.294 217.311L186.286 222.803L199.038 207.776L193.074 208.804L144.425 186.093L144.674 179.626L128.702 198.452ZM147.089 197.862L165.306 206.903L158.976 214.367L147.089 197.862ZM875.852 258.269L874.721 264.641L822.353 276.486L816.745 274.215L826.004 291.608L827.168 286.241L841.02 282.76L847.691 295.281L837.071 304.832L831.968 302.802L841.228 320.196L842.475 314.273L881.536 277.439L887.454 280.058L875.852 258.269ZM869.615 275.575L854.486 289.174L849.887 280.53L869.615 275.575Z" fill="black"/>
<path d="M32.3594 419.784L37.6166 413.786L88.3369 424.399L91.3113 429.754L94.4861 412.459L89.9318 415.687L60.0703 409.436L93.2162 404.772L64.1673 387.092L94.0325 393.343L97.109 398.165L100.284 380.871L95.6312 384.627L44.9109 374.011L42.1633 366.339L38.244 387.711L42.8927 385.039L64.8324 398.834L39.6386 402.758L36.2824 398.407L32.3594 419.784ZM44.6993 362.639L51.5363 358.406L99.131 373.724L101.758 380.874L112.249 348.269L99.5052 337.471L101.954 344.955L96.2851 362.567L78.4385 356.822L81.6548 346.829L86.4056 343.499L69.8251 341.969L72.7995 346.602L70.3467 354.218L58.2146 350.314L63.0372 335.321L69.4358 330.944L54.8093 331.228L44.6993 362.639ZM819.045 279.472L808.482 264.018L812.73 264.906L825.047 247.875L820.534 241.122L804.181 252.301L803.485 256.704L793.523 242.134L797.88 243.083L840.792 213.755L842.622 207.201L854.285 224.269C859.134 231.359 861.53 237.44 861.481 242.505C861.432 247.569 858.56 252.044 852.879 255.929C849.542 258.208 846.099 259.116 842.542 258.651C838.969 258.216 835.549 256.943 832.561 254.935L819.745 274.445L819.045 279.472ZM846.715 246.912C852.255 243.125 852.509 237.546 847.471 230.169C846.309 228.475 845.103 226.813 843.854 225.184L827.931 236.068C828.479 237.07 829.42 238.544 831.601 241.738C833.849 245.026 836.344 247.112 839.084 247.996C841.824 248.881 844.364 248.518 846.715 246.912ZM242.777 96.9618L250.668 98.5114L275.118 142.126L272.177 149.152L302.054 132.406L300.062 115.818L296.762 122.968L280.624 132.016L271.459 115.659L280.617 110.526L286.361 111.32L275.254 98.9158L274.279 104.336L267.302 108.243L261.066 97.1243L274.804 89.4218L282.469 90.5708L271.561 80.8235L242.777 96.9618ZM318.963 59.035L326.424 62.0359L342.29 109.449L338.091 115.799L370.568 104.933L371.713 88.2653L367.14 94.6752L349.592 100.549L343.643 82.7662L353.602 79.4327L359.097 81.2846L350.503 67.0247L348.533 72.1648L340.948 74.7046L336.904 62.6141L351.837 57.6177L359.154 60.1764L350.257 48.5659L318.963 59.035ZM552.821 34.2871L557.775 40.6177L547.745 89.5994L540.927 92.9934L574.481 99.8644L583.823 86.0165L576.65 89.2668L558.528 85.5554L562.288 67.1873L572.572 69.2962L576.401 73.6501L576.11 57.0054L571.831 60.4674L563.993 58.8611L566.551 46.37L581.979 49.5297L587.028 55.4105L585.15 40.9049L552.821 34.2871ZM707.476 88.8057L709.853 96.4856L683.049 138.695L675.471 139.439L704.384 157.8L718.043 148.181L710.182 148.669L694.565 138.751L704.619 122.923L713.478 128.554L715.507 133.985L721.157 118.323L715.927 120.035L709.173 115.749L716.006 104.986L729.302 113.429L731.925 120.723L735.334 106.494L707.476 88.8057ZM776.262 137.243L777.18 145.229L743.041 181.761L735.451 181.092L760.475 204.476L775.676 197.548L767.86 196.573L754.345 183.942L767.146 170.245L774.818 177.411L775.808 183.13L784.256 168.779L778.794 169.497L772.951 164.032L781.655 154.719L793.164 165.472L794.396 173.125L800.371 159.773L776.262 137.243ZM83.0608 267.51L87.9552 265.643L133.713 291.524L134.847 297.617L144.987 279.68L139.186 281.849L93.4278 255.967L92.5018 250.812L83.0608 267.51ZM117.083 212.137L131.457 226.268C115.557 222.338 105.821 234.953 127.167 250.306C146.246 264.033 153.427 252.313 148.128 240.328L156.775 238.506C160.986 246.795 161.031 254.369 156.155 260.986C148.665 271.153 133.577 268.375 121.169 259.728C106.588 249.561 104.101 237.04 106.433 228.785C107.495 225.021 110.9 219.93 113.829 219.31C117.873 218.456 118.641 217.53 117.083 212.137ZM933.979 441.743L913.849 440.707C928.355 433.099 927.266 417.199 901.105 419.875C877.729 422.267 880.129 435.797 892.046 441.251L886.785 448.349C878.137 444.944 873.073 439.305 872.332 431.115C871.194 418.544 884.324 410.611 899.344 408.85C916.997 406.779 927.168 414.5 930.902 422.222C932.603 425.744 933.434 431.81 931.654 434.218C929.198 437.54 929.235 438.734 933.979 441.743ZM200.284 207.137L200.87 200.802L165.789 162.407L160.487 162.358L173.496 150.471L173.269 155.574L204.51 166.621L184.796 145.04L179.494 144.991L193.413 132.273L192.196 138.283L227.273 176.674L232.81 177.415L218.649 190.352L219.416 183.851L186.641 170.544L208.18 194.12L214.265 194.358L200.284 207.137Z" fill="black"/>
<path d="M496.753 873.549L501.504 887.382L495.378 882.635H479.629V895.383H487.63L491.13 891.131L494.754 907.383L490.128 903.883H479.629V922.633H498.129L504.505 918.007L498.129 933.45H463.88L469.878 928.755V878.761L463.755 873.545L496.753 873.549ZM526.12 870.643C534.14 869.649 540.568 871.489 545.459 876.123C550.308 880.711 553.332 887.635 554.484 896.94C555.645 906.313 554.523 913.94 551.125 919.821C547.773 925.622 541.808 929.058 533.226 930.12L517.219 932.1L519.441 927.845L512.99 875.711L509.195 872.737L526.12 870.643ZM459.711 872.745L463.619 884.62C460.002 880.761 455.191 879.679 450.059 879.214L445.231 926.972L448.909 931.9L431.085 930.237L435.605 926.073L439.688 878.247C434.763 877.789 430.14 877.707 425.359 881.055L431.396 870.106L459.711 872.745ZM422.045 868.84L416.3 871.826L420.661 925.339L424.509 930.01L405.14 926.375L409.913 923.661L409.093 909.401L395.146 906.786L389.213 919.776L392.675 924.035L373.309 920.403L378.589 917.444L402.052 869.154L397.781 864.286L422.045 868.84ZM544.854 898.346C543.233 885.25 537.371 879.328 527.265 880.579C525.232 880.828 523.773 881.078 522.889 881.332L527.752 920.619C529.347 920.558 530.825 920.445 532.178 920.279C542.284 919.028 546.51 911.718 544.854 898.346ZM384.175 860.812L379.379 862.921L364.979 913.483L368.452 918.616L348.637 912.973L354.291 910.441L368.69 859.879L365.728 855.555L384.175 860.812ZM618.97 869.671C608.792 856.836 593.376 860.862 600.874 886.067C607.575 908.592 620.421 903.717 623.558 890.992L631.514 894.839C629.775 903.97 625.179 909.994 617.272 912.247C605.129 915.705 594.895 904.28 590.363 889.85C585.046 872.892 590.741 861.463 597.631 856.357C600.775 854.029 606.581 852.086 609.279 853.386C612.998 855.181 614.17 854.912 616.241 849.697L618.97 869.671ZM342.057 847.997C345.968 848.102 351.735 850.15 353.055 852.841C354.876 856.549 355.965 857.059 360.811 854.232L350.64 871.637C350.545 855.257 335.926 848.915 326.281 873.379C317.664 895.243 330.779 899.329 341.101 891.249L344.989 899.185C337.99 905.3 330.654 907.205 323.042 904.098C311.352 899.336 310.339 884.029 315.68 869.875C321.954 853.246 333.481 847.762 342.057 847.997ZM398.945 898.471L408.567 900.278L407.396 879.97L398.945 898.471ZM635.592 841.647C638.014 840.611 640.717 840.298 643.547 840.725C646.377 841.152 649.278 842.312 652.084 844.137C654.89 845.962 657.547 848.417 659.902 851.362C662.258 854.307 664.266 857.684 665.812 861.3C667.359 864.917 668.413 868.702 668.915 872.44C669.417 876.178 669.357 879.795 668.737 883.084C668.118 886.374 666.951 889.273 665.305 891.614C663.658 893.955 661.564 895.693 659.142 896.729C656.719 897.765 654.015 898.077 651.186 897.65C648.356 897.223 645.455 896.064 642.648 894.239C639.842 892.414 637.185 889.959 634.83 887.014C632.475 884.069 630.467 880.692 628.921 877.076C627.374 873.459 626.319 869.674 625.817 865.936C625.315 862.198 625.377 858.58 625.996 855.291C626.616 852.001 627.781 849.102 629.428 846.761C631.074 844.42 633.169 842.683 635.592 841.647ZM647.771 853.83C644.752 851.093 641.814 850.085 639.602 851.028C638.506 851.496 637.622 852.426 637 853.771C636.378 855.117 636.031 856.848 635.978 858.866C635.924 860.884 636.166 863.149 636.689 865.533C637.213 867.916 638.007 870.37 639.027 872.755C640.047 875.141 641.273 877.411 642.635 879.435C643.996 881.459 645.467 883.198 646.963 884.553C648.459 885.908 649.95 886.853 651.353 887.333C652.755 887.812 654.04 887.817 655.135 887.348C657.343 886.398 658.645 883.577 658.751 879.503C658.857 875.43 657.761 870.437 655.702 865.624C653.643 860.809 650.791 856.567 647.771 853.83ZM298.81 830.234C301.66 829.977 304.34 830.452 306.696 831.631V831.635C311.453 834.018 314.603 839.124 315.452 845.831C316.301 852.537 314.78 860.294 311.224 867.396C307.667 874.498 302.367 880.363 296.488 883.701C290.61 887.038 284.635 887.576 279.877 885.194C275.12 882.811 271.97 877.705 271.121 870.999C270.272 864.292 271.792 856.534 275.349 849.432C277.109 845.915 279.318 842.666 281.846 839.868C284.374 837.07 287.173 834.778 290.084 833.125C292.995 831.473 295.96 830.49 298.81 830.234ZM697.518 813.944L723.441 858.655L729.363 859.712L714.283 868.455L715.845 863.057L700.579 836.73L706.732 869.789L681.093 848.027L696.361 874.354L701.819 875.681L686.739 884.426L688.765 878.761L662.842 834.05L654.829 833.974L673.473 823.169L672.453 828.475L692.227 844.772L687.907 819.514L682.797 817.76L701.438 806.952L697.518 813.944ZM302.13 840.754C301.065 840.221 299.782 840.15 298.354 840.544C296.925 840.939 295.379 841.792 293.805 843.055C292.23 844.318 290.658 845.965 289.178 847.904C287.697 849.842 286.337 852.034 285.176 854.353C282.831 859.036 281.436 863.957 281.299 868.03C281.161 872.103 282.292 874.996 284.442 876.074C286.594 877.149 289.588 876.321 292.767 873.771C295.945 871.221 299.048 867.158 301.394 862.475C303.738 857.793 305.133 852.874 305.271 848.801C305.41 844.728 304.279 841.833 302.13 840.754ZM262.23 809.741C266.463 809.126 270.526 810.053 274.416 812.522C275.28 813.069 276.408 813.997 277.802 815.304C279.243 816.642 280.372 817.57 281.188 818.089L283.739 819.326L276.774 833.177L275.043 832.716C275.643 830.388 275.492 828.344 274.59 826.585C273.683 824.827 271.908 823.11 269.265 821.434C264.941 818.693 261.841 818.8 259.967 821.755C258.742 823.685 258.863 826.257 260.329 829.469L264.132 837.973C265.885 841.793 266.679 845.214 266.513 848.238C266.432 851.231 265.282 854.478 263.062 857.978V857.974C256.94 867.624 249.219 869.495 239.901 863.586C238.939 862.977 237.462 861.744 235.472 859.89C233.446 858.096 231.837 856.863 230.646 856.19C229.925 855.736 229.17 855.386 228.382 855.139L235.722 839.746L237.464 840.343C235.516 845.536 237.809 850.204 244.343 854.349C249.148 857.398 252.66 857.173 254.88 853.673C255.837 852.167 256.295 850.807 256.252 849.595C256.26 848.416 255.795 846.811 254.86 844.78L250.276 834.64C247.636 828.82 248.19 822.954 251.939 817.042C254.656 812.759 258.086 810.325 262.23 809.741ZM719.004 792.858C730.743 783.802 741.742 785.477 748.45 794.177C754.814 802.424 752.645 814.382 743.986 820.898L738.223 825.237L750.32 840.921L754.471 841.586L742.059 851.16L742.471 846.98L710.724 805.822L704.469 804.072L719.004 792.858ZM757.139 765.808L802.832 793.996L808.876 793.663L794.473 807.114L795.115 801.664L783.142 793.878L772.771 803.561L779.725 816.038L785.205 815.769L770.806 829.224L771.55 823.214L746.545 775.703L740.094 776.262L758.133 759.414L757.139 765.808ZM214.927 768.197L208.502 767.437L182.023 814.144L182.579 820.172L168.606 806.275L174.079 806.713L181.415 794.46L171.346 784.457L159.139 791.864L159.607 797.333L145.635 783.439L151.663 783.961L198.218 757.213L197.421 750.789L214.927 768.197ZM740.771 800.099C736.67 794.789 731.48 794.551 725.199 799.396C723.638 800.602 722.584 801.487 720.974 802.874L732.75 818.142C733.619 817.613 734.886 816.714 737.606 814.613C743.684 809.926 743.945 804.219 740.771 800.099ZM768.322 795.576L775.477 788.893L758.424 777.808L768.322 795.576ZM795.028 723.093L834.772 756.635L840.358 756.655L827.984 771.315L827.909 764.769L793.687 755.804L818.09 776.402L824.156 775.854L811.941 790.322L811.703 783.972L771.958 750.426L766.693 751.061L778.059 737.598L778.489 742.686L810.897 749.606L788.562 730.753L783.297 731.389L795.459 716.982L795.028 723.093ZM179.166 779.712L186.108 786.618L196.555 769.168L179.166 779.712ZM159.985 704.12C164.642 710.722 166.047 717.261 164.271 723.758C162.505 730.198 157.823 736.132 150.162 741.533V741.529C142.441 746.971 135.188 749.58 128.4 749.353C121.703 749.13 115.864 745.49 110.883 738.422L101.589 725.24L106.393 725.191L149.327 694.928L150.158 690.181L159.985 704.12ZM808.687 703.133L851.795 733.226L857.782 731.616L845.99 748.509L845.435 742.337L802.326 712.246L797.276 713.636L808.256 697.915L808.687 703.133ZM116.684 729.114C117.489 730.493 118.282 731.744 119.068 732.855C124.934 741.181 133.371 741.461 144.388 733.702C155.174 726.098 157.63 718.134 151.765 709.816C150.585 708.138 149.679 706.969 149.04 706.304L116.684 729.114ZM446.029 685.899C470.313 686.688 494.617 686.691 518.901 685.907C518.827 693.489 516.389 700.859 511.928 706.99C507.467 713.121 501.205 717.707 494.014 720.111L501.213 728.702L463.532 728.486L470.898 720.04C463.72 717.636 457.468 713.057 453.012 706.938C448.556 700.82 446.116 693.467 446.029 685.899ZM841.5 669.213L834.323 672.15L826.458 685.793L837.502 692.162L841.5 685.23L839.565 680.075L855.454 685.052L850.109 687.309L844.867 696.406L861.108 705.772L870.349 689.747L869.528 681.912L879.722 695.148L862.612 724.82L861.543 717.276L818.23 692.301L810.656 695.004L827.139 666.417L841.5 669.213ZM135.245 663.083L130.354 661.609L111.986 689.191L137.739 675.37L139.085 670.241L148.004 686.855L142.482 684.203L96.6602 708.799L94.582 713.985L85.5107 697.083L91.626 699.418L112.564 670.903L84.4258 686.009L82.7031 691.848L73.7451 675.162L79.7432 677.282L125.565 652.685L126.911 647.557L135.245 663.083ZM446.029 685.899C446.028 685.899 446.027 685.899 446.025 685.899L446.029 685.895C446.029 685.896 446.029 685.898 446.029 685.899ZM492.963 269.097L510.521 287L526.233 286.085L525.013 281.815L531.619 285.383L547.023 284.038L545.788 281.831C544.613 279.741 543.656 277.484 542.787 275.16C568.034 279.933 590.752 287.613 610.617 297.829C627.874 306.707 633.763 321.016 632.924 339.498C629.643 412.04 637.278 468.498 660.748 502.38C692.745 548.584 714.246 575.059 720.471 584.875C730.532 600.752 733.891 615.942 730.149 631.596C727.855 641.203 723.377 649.529 714.155 652.22C640.127 673.831 563.763 682.524 482.463 682.524C401.167 682.524 324.8 673.835 250.775 652.22C241.557 649.529 237.078 641.204 234.784 631.596C231.046 615.942 234.399 600.748 244.464 584.875C250.689 575.059 272.186 548.584 304.187 502.38C327.649 468.498 335.291 412.04 332.007 339.498C331.172 321.016 337.056 306.703 354.313 297.829C374.178 287.617 396.889 279.937 422.132 275.164C421.255 277.518 420.283 279.801 419.097 281.917L417.857 284.125L433.263 285.466L439.869 281.898L438.651 286.169L454.359 287.083L471.923 269.18L471.926 269.048H492.963V269.097ZM859.547 633.24L859.343 635.016C856.954 634.764 854.956 635.217 853.349 636.374C851.744 637.528 850.307 639.534 849.04 642.394C846.961 647.073 847.522 650.122 850.722 651.541C852.813 652.47 855.339 651.974 858.3 650.051L866.149 645.04C869.669 642.742 872.938 641.453 875.954 641.173C878.927 640.813 882.307 641.473 886.094 643.154V643.15C896.54 647.786 899.526 655.148 895.051 665.237C894.59 666.277 893.589 667.918 892.047 670.158C890.57 672.428 889.587 674.202 889.099 675.479C888.753 676.26 888.516 677.058 888.388 677.872L872.083 672.879L872.42 671.065C877.842 672.226 882.123 669.272 885.263 662.202C887.568 657.001 886.827 653.561 883.04 651.88C881.41 651.155 879.999 650.903 878.808 651.125C877.639 651.288 876.119 651.982 874.249 653.204L864.895 659.232C859.528 662.701 853.645 663.016 847.245 660.176C842.609 658.12 839.696 655.084 838.507 651.068C837.275 646.976 837.593 642.825 839.463 638.615C839.879 637.677 840.63 636.422 841.716 634.85C842.827 633.228 843.579 631.974 843.972 631.089L844.818 628.387L859.547 633.24ZM123.68 639.71L118.071 636.475L75.3174 668.953L73.4502 674.708L66.0879 656.431L70.9482 658.994L82.5215 650.625L77.2227 637.461L63.0801 639.45L61.3525 644.666L53.9902 626.388L59.3271 629.246L112.655 623.028L114.454 616.807L123.68 639.71ZM726.842 615.09C726.627 615.098 726.417 615.149 726.222 615.239C726.027 615.328 725.851 615.455 725.705 615.613C719 622.82 708.678 627.759 694.902 631.459C562.746 666.949 406.277 665.895 269.979 631.453C256.172 627.964 245.91 622.835 239.194 615.613C239.049 615.455 238.874 615.328 238.679 615.239C238.484 615.149 238.272 615.098 238.058 615.09C237.843 615.082 237.63 615.116 237.429 615.191C237.228 615.266 237.043 615.38 236.886 615.526L236.912 615.522C236.755 615.668 236.627 615.845 236.538 616.041C236.449 616.236 236.399 616.447 236.392 616.662C236.384 616.877 236.419 617.091 236.495 617.292C236.571 617.494 236.685 617.679 236.832 617.835C244.149 625.7 255.031 631.04 269.2 634.62C406.05 669.202 562.973 670.283 695.749 634.62C709.835 630.84 720.766 625.716 728.098 617.835C728.244 617.678 728.358 617.494 728.433 617.292C728.508 617.092 728.542 616.878 728.534 616.664C728.526 616.449 728.477 616.238 728.388 616.042C728.298 615.847 728.172 615.672 728.015 615.526C727.857 615.38 727.673 615.266 727.472 615.191C727.271 615.116 727.056 615.082 726.842 615.09ZM86.2705 636.188L89.9287 645.27L106.411 633.354L86.2705 636.188ZM457.474 580.592V627.971L450.984 635.424C460.108 635.693 466.193 635.821 476.42 635.946L468.74 628.395V614.577L478.688 614.675C488.801 614.774 498.405 607.411 498.484 594.878C498.567 582.323 488.113 574.288 477.98 574.012C468.922 573.77 459.859 573.52 450.801 573.271L457.474 580.592ZM548.324 571.227C538.725 571.938 532.84 572.387 523.814 572.844L528.766 580.501V592.384L516.569 593.045V580.524L521.169 572.844C513.093 573.284 505.009 573.576 496.923 573.721L503.983 580.853V628.369L498.038 635.792L521.278 635.073L516.569 628.508V603.507L528.766 602.849V628.486L524.91 634.903L547.296 633.429L541.351 626.754V579.239L548.324 571.227ZM412.543 577.5V625.303L403.442 632.469C416.806 633.452 429.335 634.688 442.442 635.058L447.896 617.076C441.415 624.997 432.412 626.917 423.292 623.432V602.321C427.51 601.111 432.438 601.942 439.411 608.681L434.037 589.319C431.89 593.302 428.084 595.253 423.288 595.986V581.949L429.793 582.002C434.177 582.04 439.997 583.556 446.195 587.297L439.544 572.735C429.642 572.328 407.356 570.439 407.237 570.429L412.543 577.5ZM374.575 573.759V621.558L366.607 628.47C378.38 629.986 388.668 631.146 399.205 632.106L405.26 614.626C398.778 621.845 394.16 623.621 385.607 619.578V574.98L393.449 569.083C393.384 569.076 375.433 567.003 369.37 565.86L374.575 573.759ZM571.114 569.337C558.521 569.572 548.313 583.706 548.312 600.907C548.312 618.107 558.517 631.861 571.114 631.63C583.707 631.396 593.919 617.26 593.919 600.06C593.919 582.86 583.707 569.107 571.114 569.341V569.337ZM620.678 562.323L627.118 568.332V592.524L611.705 568.891L615.878 563.109L592.906 566.491L600.147 572.659V622.298L596.433 628.648L614.253 626.162L610.001 621.217V593.023L627.02 618.232L624.608 624.57L641.223 621.83L636.967 616.886V566.918L641.185 558.641L620.678 562.323ZM330.623 566.88V614.679L320.815 621.346C334.179 623.773 347.415 625.882 360.519 627.669L364.843 610.152C358.361 617.37 350.492 618.439 341.372 613.968V592.861C345.59 592.105 350.518 593.473 357.491 600.963L352.117 581.019C349.97 584.768 346.164 586.31 341.368 586.526V572.486L347.869 573.242C352.253 573.752 358.073 575.902 364.279 580.313L357.612 564.465C346.849 562.842 336.117 561.014 325.422 558.985L330.623 566.88ZM572.032 579.024C576.522 579.1 579.519 583.027 579.387 600.484C579.247 619.105 576.25 621.483 571.114 621.91C565.978 622.333 562.561 618.821 562.841 600.48C563.124 582.146 566.122 579.485 571.114 579.062C571.419 579.035 571.726 579.022 572.032 579.024ZM676.285 551.18C666.357 553.505 645.18 558.286 645.18 558.286L650.482 563.895V611.697L646.915 620.752C660.279 618.058 667.275 616.463 680.382 613.232L685.836 593.749C679.354 603.45 670.351 607.846 661.231 606.871V585.758C665.453 583.385 670.382 582.867 677.351 587.686L671.98 569.802C669.834 574.375 666.027 577.372 661.231 579.424V565.383L667.732 563.653C672.117 562.481 677.937 562.402 684.139 564.435L676.285 551.18ZM283.527 568.422C290.504 561.994 295.358 561.268 297.671 564.972V608.871L291.004 615.409L316.852 620.605L310.68 612.264V567.062C315.113 565.581 319.92 569.005 325.105 577.334L321.953 558.308C310.698 556.116 300.713 554 290.188 551.54V551.536L283.527 568.422ZM474.87 583.563C480.804 583.563 485.691 586.337 485.332 594.452C484.973 602.577 479.232 604.633 474.587 604.633H468.74V583.563H474.87ZM450.799 573.271H450.801L450.799 573.268V573.271ZM325.419 558.985H325.422L325.419 558.981V558.985ZM498.976 478.46C490.321 478.604 483.624 478.649 474.096 478.819L479.217 482.784L465.372 534.657L461.85 538.561L479.977 538.878L476.246 534.925L479.599 521.043L493.786 520.957L497.309 534.796L493.137 538.871L512.608 538.493L508.179 534.396L493.711 482.693L498.976 478.46ZM432.188 494.368C438.368 487.107 442.669 485.599 444.714 488.721V530.655L439.332 537.658L460.595 538.535L456.241 531.3V488.506C460.164 486.363 464.424 488.797 469.016 495.808L466.238 478.505C456.825 478.347 447.415 477.985 438.017 477.42L432.188 494.368ZM537.84 476.646L543.607 483.26V506.315L528.855 482.531L532.519 477.012L510.749 478.135L517.801 485.172V532.464L514.388 538.466L531.403 537.733L527.227 532.242V505.377L543.509 530.794L540.946 537.17L556.847 535.991L553.029 530.333V482.723L557.243 475.001L537.84 476.646ZM419.523 476.147C411.696 474.352 404.104 476.488 401.349 482.969C397.407 492.251 402.91 499.625 409.939 506.137C418.874 514.414 423.054 520.972 418.927 524.127C411.292 529.978 404.875 519.864 398.952 509.444L403.941 534.883L408.741 531.989C410.155 534.283 414.626 536.305 417.128 536.127C425.533 535.523 432.903 531.357 434.056 520.926C434.861 513.64 430.019 506.976 423.719 500.555C418.484 495.215 408.431 487.493 417.328 484.212C421.909 482.523 427.079 487.867 430.511 492.69L428.516 476.351L423.719 479.247C423.276 478.465 422.674 477.784 421.951 477.25C421.228 476.717 420.401 476.341 419.523 476.147ZM383.256 478.245V525.563L376.631 532.189C384.798 533.168 392.523 534.003 399.799 534.699L393.85 527.113V479.801L399.421 474.253C392.253 473.483 385.101 472.613 377.968 471.646L383.256 478.245ZM581.508 476.139C567.131 469.502 558.385 486.718 558.249 505.355C558.098 527.011 568.895 535.137 579.168 533.792C586.334 532.854 591.625 526.977 594.721 516.519L588.409 510.098C588.403 510.135 587.532 515.52 585.589 518.273C576.836 530.669 571.084 519.596 571.45 504.425C571.775 490.895 572.83 483.955 581.047 483.396C585.038 483.124 587.921 486.858 589.323 491.306L593.791 490.837L587.252 471.502L581.508 476.139ZM623.184 466.037C613.755 467.666 593.704 470.617 593.617 470.629L598.629 476.854V523.871L595.477 531.932C608.198 530.156 614.242 529.29 626.714 526.969L632.27 508.53C626.105 517.653 617.537 521.383 608.855 519.83V499.062C612.873 497.006 617.567 496.817 624.2 502.01L619.087 484.069C617.046 488.427 613.421 491.125 608.855 492.83L608.98 477.424L615.167 476.143C619.339 475.281 623.161 477.67 629.061 480.078L623.184 466.037ZM342.639 472.689V520.627L335.669 526.403L349.09 528.493C367.307 531.327 377.685 517.241 377.783 500.124C377.874 484.639 370.984 471.007 356.274 468.403L337.411 465.062L342.639 472.689ZM352.824 476.929C362.159 478.086 365.621 484.942 365.621 498.994C365.621 515.634 361.165 522.373 352.824 520.915V476.929ZM491.534 512.097L481.745 512.158L486.522 492.387L491.534 512.097ZM902.905 450.511C910.839 450.159 918.542 451.932 924.319 455.44C930.097 458.948 933.477 463.905 933.715 469.219C933.949 474.534 931.022 479.774 925.578 483.781C920.134 487.787 912.619 490.236 904.686 490.588C900.756 490.763 896.842 490.418 893.167 489.572C889.492 488.726 886.127 487.396 883.266 485.659C880.404 483.921 878.102 481.81 876.49 479.445C874.878 477.08 873.988 474.508 873.871 471.876C873.637 466.561 876.564 461.325 882.009 457.318C887.454 453.311 894.971 450.863 902.905 450.511ZM917.462 463.522C913.686 461.987 908.626 461.255 903.393 461.487C900.801 461.602 898.244 461.949 895.87 462.511C893.496 463.073 891.35 463.837 889.555 464.76C887.759 465.683 886.35 466.747 885.407 467.891C884.465 469.035 884.007 470.236 884.061 471.426C884.169 473.829 886.352 476.041 890.128 477.576C893.904 479.11 898.965 479.841 904.197 479.609C909.43 479.376 914.406 478.2 918.03 476.336C921.655 474.473 923.631 472.075 923.525 469.672C923.419 467.269 921.237 465.057 917.462 463.522ZM377.961 471.646C377.963 471.646 377.966 471.646 377.968 471.646L377.961 471.638V471.646ZM525.345 389.888C518.893 390.304 511.992 390.622 504.641 390.83L510.616 396.472V415.831L495.336 395.633L499.131 391.056C491.615 391.177 484.098 391.228 476.582 391.208L483.884 397.678V437.392L480.12 442.113L497.978 442.03L493.65 437.355V414.792L510.518 436.387L507.861 441.705L524.332 440.957L520.379 436.145V396.167L525.345 389.888ZM450.474 390.078C436.524 389.594 425.216 400.66 425.216 414.792C425.216 428.927 436.524 440.778 450.474 441.266C464.424 441.754 475.735 430.687 475.735 416.552C475.735 402.417 464.423 390.561 450.474 390.078ZM391.11 391.181V430.461L383.249 435.575C395.018 436.822 404.595 438.081 415.74 439.127L421.795 424.765C415.313 430.699 410.699 432.157 402.143 428.835V392.186L409.78 387.273C403.374 386.562 389.348 384.975 384.945 384.181L391.11 391.181ZM563.502 385.973C561.892 388.003 560.089 390.727 557.353 389.692C548.339 386.283 540.836 388.657 535.67 394.386C522.998 408.446 527.424 424.864 536.642 432.895C547.284 442.17 564.946 438.984 569.977 432.086C571.345 430.204 573.046 430.106 574.346 429.819C569.538 422.986 569.251 415.834 576.935 408.139L553.634 411.049C558.15 413.555 561.548 416.598 560.588 420.763C557.715 433.243 546.937 431.825 543.438 423.51C540.728 417.07 540.697 408.718 544.311 402.24C550.535 391.075 560.184 393.517 570.623 402.474L563.502 385.973ZM450.474 398.067C450.817 398.063 451.158 398.071 451.49 398.09C456.464 398.393 459.786 401.779 459.639 416.118C459.48 431.409 456.162 433.205 450.474 433.277C444.786 433.352 440.999 430.279 441.312 415.226C441.626 400.173 444.941 398.146 450.474 398.067ZM917.403 357.662L913.283 355.284L895.78 360.077L900.139 375.984L917.641 371.188L919.973 367.045L924.221 382.552L920.102 380.171L869.396 394.061L866.6 398.948L862.041 382.295L866.936 385.078L892.138 378.176L887.779 362.268L862.578 369.169L859.785 374.06L855.224 357.404L860.118 360.19L910.823 346.3L913.155 342.154L917.403 357.662ZM337.74 352.774C337.531 352.725 337.314 352.718 337.102 352.752C336.89 352.787 336.686 352.863 336.504 352.976C336.321 353.089 336.163 353.238 336.038 353.413C335.913 353.587 335.823 353.785 335.774 353.995C335.674 354.416 335.746 354.86 335.973 355.228C336.199 355.597 336.564 355.86 336.984 355.96C433.466 378.913 530.436 379.374 627.852 355.96C628.061 355.911 628.258 355.82 628.432 355.694C628.606 355.568 628.753 355.408 628.865 355.225C628.978 355.042 629.053 354.838 629.087 354.625C629.12 354.413 629.111 354.197 629.061 353.988C629.011 353.779 628.921 353.582 628.795 353.408C628.669 353.234 628.51 353.086 628.327 352.974C628.144 352.862 627.94 352.787 627.729 352.753C627.517 352.72 627.3 352.728 627.092 352.778C530.164 376.074 433.75 375.621 337.736 352.778L337.74 352.774ZM501.459 347.294C496.773 347.378 493 347.536 487.664 347.521L491.519 349.736V357.48L480.418 349.195L482.127 347.543C476.889 347.494 473.457 347.566 467.776 347.457L472.096 349.86V365.75L469.677 367.537L481.873 367.639L479.19 365.863V356.837L491.443 365.7L489.572 367.597L501.084 367.382L498.609 365.734V349.74L501.459 347.294ZM446.312 349.108L437.922 364.766L435.749 366.15L447.688 366.823L445.863 364.97L447.715 361.452L456.536 361.765L458.482 365.432L456.227 367.181L468.486 367.514L466.968 365.443L457.658 349.494L460.55 347.328C454.911 347.214 449.034 347.037 443.149 346.81L446.312 349.108ZM533.758 355.53C533.508 348.364 526.18 346.576 514.381 347.01L502.555 347.332L505.945 349.619V365.315L502.181 367.378L511.357 367.064C525.972 366.399 534.056 363.977 533.758 355.53ZM514.112 350.874C521.599 350.439 523.625 351.622 523.625 356.221C523.625 361.671 520.806 363.512 514.116 363.761L514.112 350.874ZM454.446 357.824L449.707 357.658L452.02 353.262L454.446 357.824ZM628.374 325.351C628.005 325.126 627.561 325.056 627.141 325.158C530.213 348.454 433.802 348.001 337.789 325.158C337.58 325.108 337.364 325.1 337.152 325.133C336.94 325.167 336.737 325.242 336.554 325.354C336.371 325.466 336.212 325.614 336.086 325.788C335.96 325.961 335.87 326.159 335.82 326.368C335.771 326.576 335.763 326.793 335.798 327.004C335.832 327.216 335.908 327.419 336.021 327.602C336.135 327.785 336.282 327.944 336.456 328.069C336.63 328.194 336.828 328.284 337.037 328.333C433.515 351.285 530.485 351.746 627.9 328.333C628.109 328.283 628.306 328.192 628.48 328.066C628.655 327.94 628.803 327.78 628.915 327.597C629.027 327.414 629.102 327.21 629.136 326.998C629.169 326.785 629.16 326.569 629.109 326.36C629.007 325.94 628.743 325.576 628.374 325.351ZM903.124 315.195C908.521 329.001 903.831 339.085 893.6 343.087C883.898 346.882 873.029 341.447 869.2 331.307L866.652 324.557L848.205 331.772L846.402 335.567L840.695 320.966L844.592 322.535L893.007 303.607L896.438 298.089L903.124 315.195ZM495.146 301.181C492.286 303.932 490.007 303.116 487.766 302.262C486.666 301.843 483.004 301.536 481.862 301.604C474.046 302.088 463.589 308.097 462.36 321.106C463.271 333.503 470.354 341.84 482.505 341.67C492.214 341.534 500.086 337.127 501.787 326.25C496.386 331.273 491.054 334.935 485.933 334.606C474.485 333.861 469.806 313.702 485.074 309.749C490.411 308.369 494.932 311.125 499.86 317.894L495.146 301.181ZM570.102 295.145C563.438 296.218 550.788 297.504 545.111 298.124L551.529 303.093V333.336L548.387 338.172L544.026 335.626L529.559 302.398L533.44 299.178C524.785 299.832 509.849 300.648 509.849 300.648L515.064 303.392L501.221 338.564L497.698 341.372L515.699 340.786L512.094 338.039L515.231 329.398L530.065 328.529L533.157 336.594L529.491 339.894L548.403 338.182L548.399 338.179C559.241 337.042 567.499 335.736 577.263 334.369L580.128 322.07C573.646 328.279 568.298 329.792 562.523 329.334V301.117L570.102 295.145ZM440.114 300.126C429.199 299.749 420.348 308.404 420.348 319.466C420.348 330.529 429.199 339.799 440.114 340.177C451.029 340.559 459.881 331.9 459.881 320.841C459.881 309.783 451.029 300.504 440.114 300.126ZM392.176 299.979V330.222L384.821 333.714C395.668 335.321 406.878 336.78 416.644 337.887L419.86 326.049C413.379 330.622 408.975 330.887 403.204 328.967V300.75L410.847 296.97C404.441 296.422 392.134 294.68 386.117 293.773L392.176 299.979ZM874.997 321.295C875.262 322.278 875.772 323.745 877.023 326.946C879.82 334.096 885.225 335.945 890.062 334.051C896.317 331.61 898 326.692 895.108 319.303C894.39 317.466 893.838 316.204 892.957 314.273L874.997 321.295ZM440.114 306.377C440.383 306.377 440.651 306.382 440.908 306.397C444.801 306.631 447.401 309.284 447.284 320.501C447.163 332.467 444.563 333.873 440.114 333.93C435.662 333.987 432.699 331.583 432.944 319.806C433.19 308.026 435.787 306.442 440.114 306.377ZM527.382 321.964L517.593 322.637L522.37 309.265L527.382 321.964ZM384.235 287.231C384.025 287.19 383.808 287.192 383.598 287.235C383.387 287.278 383.187 287.363 383.01 287.483C382.832 287.603 382.68 287.758 382.562 287.937C382.445 288.116 382.363 288.316 382.322 288.527C382.282 288.738 382.284 288.955 382.327 289.166C382.371 289.376 382.455 289.576 382.576 289.753C382.697 289.931 382.852 290.083 383.031 290.201C383.211 290.318 383.412 290.4 383.623 290.44C448.21 302.697 514.127 302.508 581.288 290.448C581.5 290.41 581.703 290.33 581.885 290.214C582.066 290.098 582.224 289.948 582.347 289.771C582.47 289.594 582.556 289.394 582.602 289.183C582.647 288.972 582.651 288.754 582.611 288.542C582.533 288.118 582.289 287.741 581.935 287.496C581.58 287.25 581.142 287.155 580.718 287.231C513.92 299.223 448.414 299.408 384.235 287.231ZM475.974 201.048C475.773 205.705 475.566 210.421 475.112 214.692C474.47 220.675 473.275 225.751 471.574 228.094L464.753 237.498L469.307 247.071L468.694 267.801L453.066 283.735L451.842 283.66C456.388 277.065 458.482 268.961 458.891 259.762C459.597 243.976 461.593 231.488 463.098 224.25C464.606 217.017 466.62 211.411 468.918 207.53C471.129 203.792 473.555 201.729 475.974 201.048ZM488.911 200.962C491.332 201.648 493.754 203.707 495.964 207.447C498.262 211.328 500.28 216.934 501.784 224.164C503.292 231.409 505.287 243.893 505.99 259.679C506.402 268.878 508.496 276.981 513.043 283.573L511.814 283.648L496.187 267.717L495.574 246.988L500.129 237.414L493.311 228.01C491.61 225.667 490.415 220.591 489.772 214.605C489.315 210.338 489.108 205.622 488.911 200.962ZM467.065 196.584C470.098 196.645 473.128 196.817 476.147 197.102L476.103 198.161C475.931 198.124 475.754 198.118 475.581 198.145C472.032 198.988 468.967 201.766 466.431 206.056C463.891 210.346 461.82 216.219 460.271 223.657C458.732 231.046 456.711 243.665 456 259.625C455.569 269.184 453.289 277.197 448.402 283.459L442.919 283.142L443.78 280.118C444.091 279.651 444.352 279.152 444.556 278.629C445.172 277.163 445.753 275.148 446.312 272.858C447.446 268.175 448.292 263.426 448.845 258.639L451.649 231.839C453.494 214.246 461.869 203.546 467.247 200.738C467.502 200.606 467.713 200.402 467.852 200.151C467.99 199.899 468.05 199.612 468.024 199.326C467.999 199.04 467.889 198.767 467.708 198.544C467.527 198.321 467.283 198.158 467.009 198.074C466.644 197.962 466.251 197.998 465.913 198.175C459.065 201.754 450.705 213.184 448.777 231.534L445.965 258.337C445.568 262.124 444.593 267.74 443.509 272.169C443.124 273.803 442.647 275.414 442.08 276.993L432.567 282.122L432.483 282.114C437.136 275.458 439.007 267.249 439.71 257.997C440.912 242.085 442.976 229.182 444.812 222.107C445.939 217.787 448.191 213.01 450.837 209.038C453.482 205.066 456.593 201.918 458.978 200.761C459.157 200.684 459.319 200.571 459.454 200.429C459.589 200.288 459.693 200.12 459.762 199.937C459.83 199.754 459.861 199.559 459.852 199.364C459.842 199.169 459.794 198.977 459.709 198.801C459.624 198.625 459.505 198.468 459.357 198.339C459.21 198.211 459.038 198.114 458.852 198.054C458.666 197.994 458.47 197.972 458.275 197.99C458.081 198.007 457.891 198.064 457.719 198.157C454.442 199.74 451.26 203.206 448.44 207.431C445.621 211.656 443.244 216.653 442.016 221.377C440.096 228.766 438.043 241.738 436.83 257.778C436.101 267.393 434.086 275.45 429.195 281.694C429.167 281.735 429.14 281.779 429.116 281.823L422.816 281.275C426.762 273.376 428.953 264.331 429.482 254.138C430.25 239.383 432.359 224.961 439.011 211.68C442.699 204.318 447.375 200.387 453.638 198.331C456.767 197.303 460.32 196.77 464.326 196.619C465.21 196.585 466.121 196.577 467.065 196.584ZM497.815 196.501C498.73 196.488 499.645 196.503 500.56 196.536C504.562 196.687 508.115 197.22 511.244 198.248C517.506 200.304 522.181 204.234 525.87 211.596C532.522 224.877 534.631 239.304 535.402 254.055C535.931 264.248 538.123 273.293 542.065 281.192L535.765 281.74C535.742 281.694 535.716 281.653 535.689 281.615C530.799 275.367 528.784 267.313 528.055 257.691C526.838 241.655 524.785 228.683 522.865 221.294C521.637 216.57 519.26 211.573 516.444 207.348C513.629 203.123 510.439 199.657 507.166 198.07C506.82 197.902 506.421 197.879 506.059 198.005C505.696 198.132 505.398 198.397 505.23 198.743C505.063 199.088 505.04 199.486 505.166 199.849C505.292 200.212 505.558 200.51 505.903 200.677C508.292 201.834 511.398 204.982 514.044 208.951C516.693 212.923 518.946 217.704 520.068 222.024C521.905 229.099 523.969 242.006 525.179 257.917C525.878 267.166 527.749 275.371 532.397 282.031L532.314 282.038L522.802 276.91C522.352 275.712 521.849 274.025 521.373 272.086C520.292 267.661 519.313 262.041 518.916 258.254L516.104 231.454C514.181 213.097 505.816 201.671 498.972 198.092C498.636 197.947 498.258 197.934 497.913 198.056C497.569 198.178 497.283 198.427 497.113 198.75C496.944 199.074 496.904 199.451 497 199.803C497.097 200.156 497.323 200.458 497.634 200.651C503.012 203.467 511.387 214.163 513.231 231.756L516.036 258.556C516.589 263.343 517.435 268.092 518.568 272.775C519.131 275.069 519.71 277.079 520.326 278.545C520.53 279.068 520.789 279.568 521.101 280.035L521.966 283.058L516.479 283.375C511.592 277.117 509.313 269.105 508.882 259.546C508.171 243.582 506.15 230.966 504.611 223.578C503.062 216.136 500.994 210.266 498.454 205.976C495.914 201.687 492.852 198.905 489.3 198.066C489.127 198.039 488.95 198.044 488.778 198.082L488.733 197.023C491.923 196.747 494.992 196.535 497.815 196.501ZM422.957 272.945C422.721 273.692 422.502 274.449 422.192 275.148L422.132 275.164C422.407 274.424 422.695 273.695 422.957 272.945ZM541.877 272.677C542.163 273.517 542.48 274.335 542.787 275.16L542.742 275.148C542.395 274.365 542.139 273.519 541.877 272.677ZM541.578 271.747C541.682 272.054 541.78 272.365 541.877 272.677C541.773 272.371 541.672 272.061 541.578 271.747ZM539.456 262.036C539.484 262.179 539.514 262.323 539.529 262.472C539.507 262.327 539.481 262.182 539.456 262.037V262.036ZM539.455 262.03C539.427 261.888 539.401 261.746 539.39 261.599C539.408 261.744 539.431 261.887 539.455 262.03ZM538.638 253.496C538.891 256.141 539.155 258.56 539.382 261.531C539.042 259.063 538.8 256.516 538.664 253.885L538.638 253.496ZM426.101 255.665C426.002 257.074 425.874 258.454 425.715 259.815C425.836 258.318 425.972 257.074 426.101 255.665ZM471.907 171.965C479.508 171.909 486.023 178.874 486.023 187.915V197.246C486.023 197.246 485.929 209.042 486.522 214.953C487.184 221.124 488.185 226.507 490.668 229.931L496.342 237.762L494.081 242.508L488.602 252.002H476.416L470.569 242.116L468.54 237.845L474.217 230.014C476.696 226.59 477.697 221.211 478.358 215.036C478.944 209.17 478.896 197.246 478.896 197.246V187.915C478.896 181.97 474.965 179.184 471.65 179.108C469.84 179.066 469.027 179.252 468.377 179.732C467.991 180.015 467.439 180.488 467.439 180.488L461.736 176.682C461.736 176.682 463.165 174.645 464.424 173.798C466.661 172.305 469.776 171.984 471.907 171.965ZM474.001 238.828L478.234 246.16H486.7L490.93 238.828L486.696 231.496H478.234L474.001 238.828ZM486.507 238.48L484.516 241.93H480.536L478.544 238.484L480.532 235.033H484.516L486.507 238.48ZM787.178 188.761C800.663 177.185 813.408 177.906 820.819 182.222C824.198 184.195 828.276 188.765 828.144 191.754C827.962 195.881 828.669 196.857 834.277 196.702L817.002 207.083C824.78 192.669 814.764 179.834 794.303 196.35C776.15 211.007 783.312 229.829 803.989 213.962C802.75 211.808 800.652 209.215 798.331 207.991L803.963 203.078L818.468 219.953L812.867 224.916C809.5 218.679 808.838 220.493 803.853 223.982C791.94 232.319 782.401 228.698 777.208 222.319C769.241 212.53 775.7 198.614 787.178 188.761ZM759.705 124.336L754.471 124.541L726.246 161.39C733.499 167.142 737.433 170.498 742.463 169.542L730.157 177.158L707.492 159.799L713.683 159.519L745.649 117.779L744.478 112.677L759.705 124.336ZM247.283 107.71C242.03 107.068 237.645 109.329 233.412 112.265L260.349 151.995L266.331 153.416L251.592 163.575L252.389 157.479L224.837 118.172C220.763 120.98 217.165 123.879 215.646 129.518L213.253 117.25L236.666 101.108L247.283 107.71ZM701.078 85.4644L700.296 97.937C698.368 93.0088 694.306 90.2236 689.714 87.8804L667.49 130.429L669.077 136.375L653.147 128.21L658.892 126.022L680.442 83.1333C676.039 80.8808 671.78 79.0853 666.096 80.4194L675.768 72.4976L701.078 85.4644ZM298.566 71.6284L317.414 114.049C325.937 110.436 330.768 108.588 332.34 103.712L333.133 118.161L307.04 129.752L309.757 124.181L288.411 76.145L283.369 74.7271L300.895 66.9341L298.566 71.6284ZM381.948 40.1753C396.424 36.9628 405.665 43.1504 408.046 53.8765C410.302 64.043 403.261 73.9491 392.652 76.1753L385.592 77.6489L389.882 96.9917L393.358 99.354L378.052 102.749L380.202 99.1392L368.939 48.3921L364.022 44.1519L381.948 40.1753ZM449.586 33.3384L455.414 85.5854L459.81 89.1079L442.646 91.0239L446.158 86.6216L443.263 60.6489L426.871 62.4819L429.767 88.4468L434.162 91.9692L417.003 93.8853L420.511 89.4819L414.683 37.2349L410.952 34.2876L426.928 32.5034L423.938 36.2036L425.953 54.2388L442.341 52.4097L440.33 34.3745L436.6 31.4263L452.575 29.6421L449.586 33.3384ZM521.679 30.8892L517.737 34.1401L530.451 64.7417L533.278 35.6479L529.763 31.6792L548.536 33.5054L543.256 36.6196L538.226 88.3823L541.381 92.9937L522.291 91.1343L527.632 87.355L515.571 54.0952L512.479 85.8804L516.376 90.5591L497.528 88.73L502.623 84.9243L507.657 33.1606L504.143 29.189L521.679 30.8892ZM479.168 28.9888C481.803 28.9705 484.417 29.7271 486.861 31.2153C489.306 32.7037 491.533 34.8943 493.415 37.6626C495.297 40.4309 496.798 43.7224 497.831 47.3491C498.864 50.9759 499.41 54.8673 499.437 58.8003C499.491 66.7426 497.43 74.3742 493.707 80.0161C489.984 85.658 484.903 88.8485 479.583 88.8853C476.948 88.9036 474.334 88.147 471.89 86.6587C469.445 85.1704 467.218 82.9797 465.336 80.2114C463.454 77.443 461.953 74.1508 460.92 70.5239C459.887 66.8971 459.341 63.0058 459.314 59.0728C459.26 51.1305 461.321 43.4988 465.044 37.8569C468.767 32.2153 473.848 29.0255 479.168 28.9888ZM479.239 39.1851C478.048 39.193 476.872 39.7125 475.778 40.7124C474.685 41.7123 473.695 43.1737 472.865 45.0132C472.036 46.8529 471.383 49.0347 470.943 51.4341C470.504 53.8335 470.287 56.4038 470.305 58.9976C470.323 61.5912 470.575 64.158 471.047 66.5513C471.519 68.9445 472.203 71.1174 473.058 72.9458C473.913 74.7743 474.923 76.2233 476.03 77.2085C477.138 78.1935 478.321 78.696 479.512 78.688C481.917 78.6697 484.208 76.5728 485.883 72.8579C487.558 69.1427 488.479 64.1134 488.442 58.8765C488.406 53.6394 487.416 48.6227 485.69 44.9302C483.965 41.2379 481.644 39.1711 479.239 39.1851ZM398.574 55.981C397.119 49.4277 392.519 47.0093 384.779 48.7251L384.775 48.729C382.852 49.156 381.521 49.507 379.473 50.0776L383.653 68.9067C384.662 68.7971 386.193 68.5174 389.549 67.7729C397.043 66.11 399.7 61.053 398.574 55.981Z" fill="black"/>
<path d="M454.77 167.985C453.988 167.985 453.221 168.197 452.541 168.59C450.779 169.614 449.222 171.066 448.345 173.477C447.468 175.888 448.232 179.634 450.553 181.678C459.098 189.199 467.73 193.655 476.631 194.634L476.706 189.876C476.729 188.292 476.57 186.826 476.124 185.53C470.247 184.498 464.257 181.327 457.654 175.771C459.268 174.388 459.684 172.063 458.652 170.208C458.257 169.529 457.691 168.966 457.009 168.576C456.328 168.186 455.556 167.982 454.77 167.985ZM508.828 167.702C508.004 167.717 507.2 167.96 506.505 168.403C505.81 168.847 505.252 169.474 504.892 170.216C504.531 170.957 504.383 171.784 504.464 172.604C504.544 173.424 504.85 174.207 505.347 174.864C505.506 175.076 505.51 175.132 505.627 175.344C504.387 176.266 503.17 177.124 501.972 177.925C503.747 180.432 505.07 183.229 505.884 186.191C507.981 184.834 510.023 183.394 512.006 181.875C514.425 180.027 515.295 176.474 514.811 174.229C514.327 171.98 513.273 170.525 512.479 169.474C512.054 168.911 511.501 168.457 510.867 168.148C510.232 167.839 509.534 167.685 508.828 167.698V167.702ZM487.916 184.811C488.158 186.055 488.287 187.344 488.287 188.666V193.965C490.161 193.55 492.04 192.994 493.918 192.302C493.8 191.299 493.606 190.306 493.336 189.332C492.648 186.924 491.586 184.793 489.606 184.354C488.975 184.214 488.442 184.664 487.916 184.811ZM462.666 195.413C459.869 195.564 457.208 195.844 454.355 196.505L454.362 192.624C454.347 191.055 455.111 189.052 455.783 188.289C457.658 189.698 460.039 190.979 462.669 192.196L462.666 195.413Z" fill="black"/>
<path d="M504.898 195.59C504.709 181.387 496.413 173.964 490.486 173.008C487.244 172.487 485.384 172.483 482.281 173.84C485.097 175.686 487.068 178.572 487.761 181.867C488.774 181.542 489.424 181.546 490.573 181.969C496.375 184.09 496.681 193.115 496.681 195.39C499.308 195.224 502.275 195.405 504.898 195.59Z" fill="black"/>
<path d="M481.956 0.0112305C215.826 0.0112305 0 215.848 0 481.967C0 748.098 215.837 963.923 481.956 963.923C748.086 963.923 963.912 748.086 963.912 481.967C963.912 215.848 748.083 0.0112305 481.956 0.0112305ZM481.956 8.70398C743.389 8.70398 955.219 220.542 955.219 481.967C955.219 743.404 743.381 955.231 481.956 955.231C220.524 955.231 8.69275 743.392 8.69275 481.967C8.69275 220.539 220.539 8.70398 481.956 8.70398Z" fill="black"/>
<path d="M481.955 106.18C274.467 106.18 106.164 274.472 106.164 481.964C106.164 689.452 274.463 857.755 481.955 857.755C689.443 857.755 857.739 689.456 857.739 481.964C857.739 274.476 689.447 106.18 481.955 106.18ZM481.955 114.869C684.746 114.869 849.05 279.173 849.05 481.964C849.05 684.754 684.746 849.058 481.955 849.058C279.165 849.058 114.861 684.754 114.861 481.96C114.861 279.173 279.165 114.869 481.955 114.869Z" fill="black"/>
<path d="M283.452 693.795L281.736 694.6C282.368 696.663 282.81 698.281 282.923 699.464C283.037 700.643 282.867 701.282 282.364 701.822L258.342 727.844L258.319 727.866C257.597 728.773 256.732 729.114 255.484 729.114C254.237 729.114 252.65 728.69 250.896 727.968L250.012 729.65C251.864 730.86 255.254 733.634 262.178 740.059C267.673 745.154 272.704 747.629 277.054 748.185C281.4 748.748 285.047 747.331 287.523 744.813C289.915 742.383 290.905 739.443 290.743 736.438C290.618 734.08 289.382 731.714 288.101 729.386C289.666 730.04 291.204 730.822 293.014 730.739C295.547 730.625 298.219 729.378 300.838 726.392C303.162 723.743 303.877 720.391 303.257 717.118C302.633 713.845 300.724 710.628 297.856 707.979L291.053 701.697C289.589 700.342 288.158 698.952 286.759 697.529C285.27 696.009 283.917 694.498 283.452 693.795ZM288.09 708.754L291.555 711.951C293.438 713.69 294.349 715.315 294.568 716.664C294.787 718.017 294.39 719.166 293.381 720.251C291.465 722.307 289.866 722.749 288.328 722.518C286.79 722.284 285.206 721.233 283.751 719.888L280.538 716.929L288.09 708.754ZM275.221 722.692L277.859 725.13C283.048 729.919 283.441 735.633 281.298 738.048C279.567 740.006 277.632 740.516 275.58 740.225C273.524 739.93 271.362 738.729 269.608 737.111L265.451 733.271L275.221 722.692ZM313.79 721.914L316.322 728.339L295.46 761.983L288.895 762.286L315.207 778.598L326.546 771.243L319.72 771.319L305.509 762.505L313.329 749.889L321.394 754.893L323.488 759.451L327.483 746.79L323.023 747.981L316.874 744.171L322.196 735.592L334.294 743.094L337.015 749.209L339.143 737.636L313.79 721.914ZM350.795 744.855L353.1 748.786L335.888 785.393L330.582 786.289L354.669 797.616L363.437 790.235C359.306 791.539 355.035 789.298 347.28 785.518L362.481 753.192L366.978 752.467L350.795 744.855ZM472.799 810.013C471.822 818.544 466.008 822.173 455.357 820.898C454.259 820.767 452.441 820.36 449.903 819.677C447.358 819.047 445.425 818.682 444.102 818.581C443.278 818.48 442.472 818.464 441.683 818.532L441.158 805.663L442.923 805.549C443.558 809.732 447.608 812.27 455.074 813.165C460.566 813.82 463.489 812.602 463.842 809.51C463.993 808.177 463.783 807.099 463.211 806.275C462.692 805.456 461.578 804.485 459.87 803.361L451.415 797.73C446.555 794.497 444.424 790.269 445.024 785.046C445.457 781.259 447.327 778.537 450.633 776.882C454.002 775.176 457.909 774.589 462.357 775.121C463.344 775.239 464.729 775.54 466.51 776.024C468.345 776.513 469.729 776.814 470.664 776.927L473.408 777.011L473.57 788.704L471.877 788.908C471.361 787.117 470.321 785.749 468.759 784.804C467.197 783.861 464.906 783.209 461.888 782.846C456.947 782.256 454.327 783.268 454.027 785.881C453.83 787.587 455.077 789.33 457.768 791.112L464.821 795.847C468.031 797.959 470.236 800.088 471.435 802.235C472.7 804.328 473.155 806.919 472.799 810.013ZM633.4 737.145L640.014 736.011L662.721 766.749L661.213 771.436L673.413 762.429L668.866 762.214L655.494 744.11L677.294 757.138L671.255 732.474L684.623 750.573L683.489 754.984L695.689 745.974L690.768 746.034L668.061 715.296L671.092 709.305L656.016 720.44L660.287 721.037L664.591 739.938L647.792 730.266L648.476 726.011L633.4 737.145ZM524.703 774.788L519.336 779.358L504.834 801.161L505.779 817.545L511.047 821.185L492.539 822.247L497.362 818.033L496.417 801.645L481.148 781.553L476.137 777.585L495.65 776.463L491.126 780.979L500.537 794.086L510.205 779.883L506.062 775.862L524.703 774.788ZM385.611 759.708L388.483 763.246L376.986 802.031L371.873 803.716L397.395 811.279L404.947 802.662C401.061 804.574 396.503 803.002 388.264 800.436L398.42 766.19L402.755 764.792L385.611 759.708ZM559.133 801.358C560.517 809.834 555.911 814.908 545.316 816.581C544.222 816.755 542.361 816.86 539.733 816.895C537.113 816.981 535.153 817.155 533.853 817.417C533.034 817.545 532.255 817.749 531.517 818.029L527.503 805.784L529.17 805.198C530.918 809.05 535.507 810.389 542.935 809.215C548.397 808.354 550.878 806.387 550.376 803.316C550.16 801.99 549.663 801.008 548.887 800.368C548.167 799.723 546.831 799.093 544.881 798.478L535.213 795.36C529.655 793.576 526.452 790.089 525.606 784.898C524.994 781.137 526.052 778.008 528.781 775.514C531.557 772.957 535.158 771.328 539.582 770.627C540.565 770.473 541.978 770.385 543.823 770.363C545.725 770.337 547.14 770.25 548.067 770.102L550.732 769.437L554.073 780.646L552.5 781.3C551.513 779.718 550.139 778.685 548.381 778.201C546.622 777.717 544.241 777.714 541.238 778.19C536.322 778.968 534.076 780.655 534.499 783.25C534.776 784.944 536.452 786.282 539.526 787.264L547.598 789.899C551.262 791.058 553.964 792.505 555.705 794.241C557.489 795.914 558.632 798.288 559.133 801.362V801.358ZM596.285 754.001L602.782 755.286L619.128 789.547L615.969 795.001L642.765 782.215L642.701 769.251L639.224 774.803L624.752 781.708L618.622 768.862L626.835 764.943L631.597 765.616L623.448 755.834L622.103 760.052L615.844 763.038L611.675 754.304L623.996 748.423L630.342 749.39L622.103 741.684L596.285 754.001ZM890.705 501.723C890.705 503.502 889.998 505.208 888.74 506.466C887.482 507.724 885.776 508.431 883.996 508.431C882.218 508.43 880.512 507.723 879.255 506.465C877.998 505.207 877.292 503.501 877.292 501.723C877.292 499.944 877.998 498.238 879.255 496.98C880.512 495.722 882.218 495.015 883.996 495.014C885.776 495.014 887.482 495.721 888.74 496.979C889.998 498.237 890.705 499.943 890.705 501.723Z" fill="black"/>
</g>
<defs>
<clipPath id="clip0_47_1856">
<rect width="963.95" height="963.95" fill="white"/>
</clipPath>
</defs>
</svg>
