<svg width="1001" height="564" viewBox="0 0 1001 564" fill="none" xmlns="http://www.w3.org/2000/svg">
<g clip-path="url(#clip0_47_1905)">
<mask id="mask0_47_1905" style="mask-type:luminance" maskUnits="userSpaceOnUse" x="0" y="166" width="1000" height="408">
<path d="M0.5 166.532H999.921V573.822H0.5V166.532Z" fill="white"/>
</mask>
<g mask="url(#mask0_47_1905)">
<path d="M0.644531 563.698V182.659H999.777V563.698H975.551V521.681H951.18V563.698H926.809V494.78H902.438V563.698H877.995V455.077H853.696V563.698H829.253V392.74H804.882V563.698H780.512V312.541H756.141V563.698H731.77V392.74H707.399V563.698H683.028V455.077H658.657V563.698H634.286V494.78H609.916V563.698H585.545V521.681H561.174V563.698H536.803V533.975H512.432V563.698H488.061V533.975H463.691V563.698H439.32V521.681H414.949V563.698H390.578V494.78H366.207V563.698H341.836V455.077H317.465V563.698H293.095V392.74H268.724V563.698H244.353V312.541H219.982V563.698H195.611V392.74H171.24V563.698H146.87V455.077H122.499V563.698H98.1279V494.78H73.7571V563.698H49.3862V521.681H25.0154V563.698H0.644531Z" fill="#004A63"/>
</g>
<mask id="mask1_47_1905" style="mask-type:luminance" maskUnits="userSpaceOnUse" x="0" y="0" width="75" height="167">
<path d="M0.5 0.203125H74.2634V166.532H0.5V0.203125Z" fill="white"/>
</mask>
<g mask="url(#mask1_47_1905)">
<path d="M0.5 76.0637C0.5 37.1571 0.499996 0.203125 33.4043 0.203125C53.7253 0.203125 61.9695 17.4869 61.174 49.0171H41.5761C41.5761 29.4915 39.3342 22.1152 33.4043 22.1152C22.1951 22.1152 20.6765 38.3865 20.6765 76.0637C20.6765 113.669 22.1951 129.868 33.4043 129.868C42.6608 129.868 42.2269 111.644 42.5162 100.001H62.1864C62.1864 139.269 51.9897 151.852 33.4043 151.852C0.499996 151.852 0.5 114.464 0.5 76.0637Z" fill="#B82830"/>
</g>
<path d="M109.699 39.6885H90.1016V150.551H110.857V39.6885H109.699Z" fill="#B82830"/>
<path d="M136.891 69.5555C136.891 88.1409 148.678 96.602 159.236 103.978C167.119 109.619 173.989 114.464 173.989 122.636C173.989 129.94 170.807 134.207 165.456 134.207C156.416 134.207 155.693 126.903 155.693 115.838V115.115H135.806L135.733 115.838C135.01 129.579 137.397 139.052 142.965 144.91C147.376 149.61 154.03 151.997 162.635 151.997C177.316 151.997 194.166 148.309 194.166 119.743C194.166 100.146 182.306 92.263 171.747 85.2483C163.865 79.9691 157.067 75.4131 157.067 66.8797C157.067 59.865 160.177 56.0322 165.817 56.0322C171.241 56.0322 173.555 60.7328 173.555 71.6527V72.3758H193.009V71.725C193.732 59.3588 191.49 50.6807 186.211 45.1846C181.799 40.484 175.435 38.2422 166.685 38.2422C146.87 38.2422 136.891 48.8005 136.891 69.5555Z" fill="#B82830"/>
<path d="M215.645 95.0834C215.645 123.07 215.645 151.997 246.813 151.997C265.977 151.997 274.149 140.282 274.149 112.873V112.078H254.479L254.406 114.754C254.19 122.998 253.973 134.207 246.813 134.207C237.484 134.207 235.893 123.938 235.893 95.0834C235.893 66.3012 237.484 56.0322 246.813 56.0322C251.008 56.0322 253.539 59.2141 253.539 75.1239V75.847H273.137V75.1239C273.643 60.8051 270.967 50.97 265.182 44.9677C260.843 40.484 254.623 38.2422 246.813 38.2422C215.645 38.2422 215.645 65.8673 215.645 95.0834Z" fill="#B82830"/>
<path d="M316.237 95.0834C316.237 66.3012 317.9 56.0322 327.157 56.0322C336.413 56.0322 338.077 66.3012 338.077 95.0834C338.077 123.938 336.413 134.207 327.157 134.207C317.9 134.207 316.237 123.938 316.237 95.0834ZM296.061 95.0834C296.061 123.07 296.061 151.997 327.157 151.997C358.326 151.997 358.326 123.07 358.326 95.0834C358.326 65.8673 358.326 38.2422 327.157 38.2422C296.061 38.2422 296.061 65.8673 296.061 95.0834Z" fill="#B82830"/>
<mask id="mask2_47_1905" style="mask-type:luminance" maskUnits="userSpaceOnUse" x="407" y="0" width="75" height="167">
<path d="M407.5 0.203125H481.553V166.532H407.5V0.203125Z" fill="white"/>
</mask>
<g mask="url(#mask2_47_1905)">
<path d="M443.658 151.852C418.998 151.852 414.37 129.506 415.455 104.123H435.342C435.342 118.08 435.776 129.868 446.768 129.868C453.493 129.868 456.748 123.214 456.748 113.235C456.748 86.8389 416.612 85.1756 416.612 41.4238C416.612 18.4993 423.771 0.203125 448.07 0.203125C467.451 0.203125 477.141 13.5818 475.767 44.3165H456.386C456.386 33.3243 455.157 22.1152 447.129 22.1152C440.621 22.1152 436.86 27.6113 436.86 37.8803C436.86 65.65 476.996 63.2636 476.996 109.33C476.996 147.368 458.917 151.852 443.658 151.852Z" fill="#B82830"/>
</g>
<path d="M561.608 40.0498H542.3C542.3 40.0498 530.223 79.5349 528.849 83.9462C527.547 79.4626 516.265 40.0498 516.265 40.0498H494.498C494.498 40.0498 517.712 111.644 517.856 111.933V150.189H537.744V111.788C537.816 111.788 562.404 41.0622 562.404 41.0622L562.765 40.0498H561.608Z" fill="#B82830"/>
<path d="M581.568 69.5555C581.568 88.1409 593.501 96.602 603.914 103.978C611.797 109.619 618.667 114.464 618.667 122.636C618.667 129.94 615.557 134.207 610.206 134.207C601.166 134.207 600.443 126.903 600.443 115.838V115.115H580.556L580.484 115.838C579.76 129.579 582.147 139.052 587.643 144.91C592.127 149.61 598.707 151.997 607.385 151.997C622.066 151.997 638.843 148.309 638.843 119.743C638.843 100.146 626.983 92.263 616.497 85.2483C608.615 79.9691 601.817 75.4131 601.817 66.8797C601.817 59.865 604.854 56.0322 610.567 56.0322C615.991 56.0322 618.305 60.7328 618.305 71.6527V72.3758H637.759L637.831 71.725C638.482 59.3588 636.24 50.6807 630.961 45.1846C626.622 40.484 620.186 38.2422 611.435 38.2422C591.62 38.2422 581.568 48.8005 581.568 69.5555Z" fill="#B82830"/>
<path d="M721.935 40.0498H661.768V59.6477H682.233V150.189H702.12V59.6477H722.659V40.0498H721.935Z" fill="#B82830"/>
<path d="M799.097 40.0498H750.283V150.189H800.833V131.965H770.243V101.736H797.579V83.5123H770.243V58.2737H799.82V40.0498H799.097Z" fill="#B82830"/>
<path d="M916.758 40.0498H887.542C887.542 40.0498 874.597 105.207 873.367 111.21C872.21 105.135 860.133 40.0498 860.133 40.0498H829.109V150.189H848.563V72.5202C850.732 83.8016 863.46 150.189 863.46 150.189H882.335C882.335 150.189 895.93 83.0061 898.1 72.1586V150.189H917.553V40.0498H916.758Z" fill="#B82830"/>
<path d="M943.225 69.5555C943.225 88.1409 955.085 96.602 965.571 103.978C973.453 109.619 980.323 114.464 980.323 122.636C980.323 129.94 977.214 134.207 971.79 134.207C962.75 134.207 962.099 126.903 962.099 115.838V115.115H942.14V115.838C941.417 129.579 943.803 139.052 949.299 144.91C953.783 149.61 960.364 151.997 968.969 151.997C983.65 151.997 1000.5 148.309 1000.5 119.743C1000.5 100.146 988.64 92.263 978.154 85.2483C970.271 79.9691 963.401 75.4131 963.401 66.8797C963.401 59.865 966.511 56.0322 972.151 56.0322C977.647 56.0322 979.889 60.7328 979.889 71.6527V72.3758H999.415V71.725C1000.07 59.3588 997.824 50.6807 992.617 45.1846C988.133 40.484 981.77 38.2422 973.019 38.2422C953.204 38.2422 943.225 48.8005 943.225 69.5555Z" fill="#B82830"/>
</g>
<defs>
<clipPath id="clip0_47_1905">
<rect width="1000" height="563.494" fill="white" transform="translate(0.5 0.203125)"/>
</clipPath>
</defs>
</svg>
