<svg width="977" height="294" viewBox="0 0 977 294" fill="none" xmlns="http://www.w3.org/2000/svg">
<path d="M292.187 71.5492C289.369 70.1685 288.156 72.7997 286.508 74.1364C285.945 74.5675 285.468 75.128 284.991 75.6453C280.872 80.0434 276.061 82.9334 269.775 82.5879C260.584 82.0701 252.738 84.9602 245.801 91.9894C244.327 83.3216 239.429 78.1458 231.972 74.826C228.071 73.1007 224.126 71.3755 221.394 67.6235C219.487 64.9507 218.967 61.9749 218.013 59.0423C217.406 57.2744 216.799 55.4626 214.761 55.1611C212.55 54.816 211.683 56.6695 210.816 58.2234C207.348 64.5626 206.005 71.5487 206.134 78.621C206.438 94.5345 213.157 107.212 226.509 116.226C228.027 117.261 228.417 118.295 227.94 119.805C227.029 122.91 225.945 125.929 224.992 129.034C224.385 131.018 223.474 131.449 221.35 130.586C214.024 127.525 207.694 122.996 202.102 117.52C192.608 108.334 184.025 98.1998 173.317 90.2647C170.839 88.4323 168.293 86.6917 165.687 85.0463C154.762 74.4383 167.118 65.7264 169.979 64.6922C172.97 63.614 171.019 59.9046 161.352 59.9487C151.684 59.9913 142.841 63.2259 131.57 67.5383C129.922 68.1853 128.188 68.6591 126.41 69.0472C116.18 67.1071 105.558 66.675 94.4606 67.9264C73.565 70.2552 56.8754 80.1305 44.607 96.9929C29.8679 117.261 26.3999 140.288 30.6484 164.309C35.1136 189.623 48.0319 210.581 67.8871 226.969C88.4793 243.959 112.192 252.283 139.244 250.687C155.674 249.739 173.968 247.54 194.603 230.074C199.805 232.662 205.268 233.696 214.328 234.472C221.308 235.119 228.028 234.128 233.229 233.05C241.379 231.325 240.816 223.778 237.868 222.398C213.982 211.272 219.227 215.8 214.458 212.134C226.597 197.774 244.891 182.852 252.044 134.51C252.607 130.672 252.131 128.256 252.044 125.151C252.001 123.254 252.434 122.522 254.602 122.305C260.584 121.615 266.393 119.977 271.726 117.044C287.202 108.592 293.444 94.7063 294.918 78.0602C295.135 75.5156 294.875 72.8849 292.187 71.5492ZM157.321 221.363C134.171 203.165 122.944 197.17 118.305 197.429C113.97 197.688 114.75 202.647 115.704 205.882C116.701 209.073 118.002 211.273 119.822 214.076C121.079 215.93 121.947 218.689 118.565 220.76C111.109 225.375 98.1463 219.207 97.539 218.905C82.4535 210.021 69.8381 198.291 60.9506 182.25C52.367 166.81 47.382 150.251 46.558 132.57C46.3412 128.301 47.5983 126.791 51.8468 126.015C57.4391 124.98 63.205 124.764 68.7973 125.583C92.4244 129.034 112.539 139.599 129.402 156.331C139.026 165.862 146.309 177.247 153.809 188.373C161.786 200.188 170.369 211.445 181.294 220.673C185.152 223.907 188.23 226.365 191.178 228.177C182.291 229.169 167.465 229.385 157.321 221.363ZM168.419 149.992C168.419 148.095 169.936 146.586 171.844 146.586C172.278 146.586 172.668 146.671 173.015 146.8C173.492 146.973 173.925 147.232 174.272 147.619C174.879 148.224 175.226 149.086 175.226 149.992C175.226 151.89 173.709 153.398 171.802 153.398C169.895 153.398 168.419 151.89 168.419 149.992ZM202.883 167.673C200.673 168.579 198.462 169.355 196.337 169.441C193.043 169.614 189.445 168.277 187.494 166.638C184.46 164.093 182.292 162.671 181.382 158.229C180.991 156.331 181.208 153.399 181.555 151.717C182.335 148.095 181.468 145.766 178.911 143.653C176.83 141.927 174.185 141.453 171.281 141.453C170.197 141.453 169.2 140.979 168.463 140.591C167.249 139.987 166.252 138.478 167.206 136.623C167.509 136.02 168.983 134.553 169.33 134.295C173.276 132.052 177.827 132.786 182.032 134.467C185.934 136.063 188.882 138.996 193.13 143.135C197.465 148.137 198.245 149.518 200.717 153.269C202.668 156.202 204.445 159.22 205.659 162.671C206.396 164.827 205.441 166.595 202.883 167.673Z" fill="#4D6BFE"/>
<path d="M594.383 125.301C588.25 125.301 582.067 126.647 578.053 130.436C577.704 130.76 577.38 131.109 577.056 131.459H574.114V125.301H557.984V222.231H574.114V161.999C574.114 155.791 575.461 149.559 579.2 145.495C582.94 141.406 588.674 139.96 594.383 139.96C600.067 139.96 605.826 141.406 609.565 145.495C613.305 149.559 614.651 155.791 614.651 161.999C614.651 168.182 613.305 174.414 609.565 178.478C605.826 182.566 600.067 184.012 594.383 184.012H585.208V198.672H594.383C603.881 198.672 613.43 196.253 619.663 189.472C625.895 182.691 628.114 172.32 628.114 161.998C628.114 151.677 625.895 141.281 619.663 134.5C613.43 127.719 603.881 125.301 594.383 125.301ZM369.059 164.542C369.059 170.749 367.713 176.982 363.974 181.046C360.234 185.11 354.5 186.58 348.791 186.58C343.082 186.58 337.348 185.109 333.608 181.046C329.869 176.982 328.523 170.749 328.523 164.542C328.523 158.359 329.869 152.101 333.608 148.037C337.348 143.974 343.082 142.528 348.791 142.528H357.965V127.868H348.791C339.292 127.868 329.744 130.287 323.511 137.067C317.278 143.849 315.06 154.219 315.06 164.541C315.06 174.863 317.278 185.259 323.511 192.039C329.744 198.821 339.292 201.239 348.791 201.239C354.924 201.239 361.082 199.868 365.12 196.103C365.464 195.781 365.788 195.44 366.093 195.081H369.059V201.239H385.19V104.284H369.059V164.542ZM431.087 125.301C421.214 125.301 411.292 127.819 404.81 134.824C398.353 141.83 396.034 152.575 396.034 163.271C396.034 173.941 398.353 184.711 404.81 191.716C411.292 198.722 421.214 201.24 431.087 201.24C440.96 201.24 450.882 198.722 457.364 191.717C460.68 188.101 462.924 183.514 464.32 178.428H448.364C447.916 179.105 447.415 179.747 446.869 180.348C442.979 184.561 437.021 186.057 431.088 186.057C425.179 186.057 419.221 184.561 415.331 180.348C411.442 176.135 410.046 169.678 410.046 163.271C410.046 156.864 411.442 150.406 415.331 146.193C419.221 141.98 425.179 140.484 431.088 140.484C437.021 140.484 442.98 141.98 446.869 146.193C449.561 149.11 451.057 153.074 451.73 157.387H423.209V169.154H466.165V163.271C466.165 152.576 463.846 141.83 457.364 134.825C450.907 127.82 440.96 125.301 431.087 125.301ZM512.061 125.301C502.214 125.301 492.266 127.819 485.809 134.824C479.327 141.83 477.009 152.575 477.009 163.271C477.009 173.941 479.328 184.711 485.809 191.716C492.266 198.722 502.214 201.24 512.061 201.24C521.934 201.24 531.857 198.722 538.339 191.717C541.679 188.101 543.898 183.514 545.295 178.428H529.339C528.89 179.105 528.39 179.747 527.843 180.348C523.954 184.561 517.995 186.057 512.087 186.057C506.154 186.057 500.195 184.561 496.306 180.348C492.416 176.135 491.021 169.678 491.021 163.271C491.021 156.864 492.417 150.406 496.306 146.193C500.195 141.98 506.154 140.484 512.087 140.484C517.995 140.484 523.954 141.98 527.843 146.193C530.536 149.11 532.032 153.074 532.705 157.387H504.184V169.154H547.14V163.271C547.14 152.576 544.821 141.83 538.339 134.825C531.882 127.82 521.934 125.301 512.061 125.301ZM700.289 162.023C693.832 157.885 683.884 156.415 674.036 156.415H674.385C670.172 156.415 665.934 155.841 663.167 154.22C660.399 152.625 659.427 150.156 659.427 147.714C659.427 145.271 660.399 142.803 663.167 141.207C665.934 139.586 670.172 139.013 674.385 139.013C678.598 139.013 682.837 139.611 685.579 141.207C688.347 142.803 689.344 145.271 689.344 147.714H705.773C705.773 141.406 703.654 135.074 697.796 130.936C691.937 126.797 682.962 125.301 674.036 125.301C665.111 125.301 656.136 126.797 650.277 130.936C644.419 135.074 642.325 141.406 642.325 147.714C642.325 154.021 644.419 160.378 650.277 164.492C656.136 168.631 665.111 170.126 674.036 170.126C678.674 170.126 683.759 170.699 686.801 172.295C689.868 173.916 690.964 176.383 690.964 178.827C690.964 181.27 689.867 183.738 686.801 185.333C683.759 186.929 679.073 187.502 674.41 187.502C669.773 187.502 665.087 186.929 662.02 185.333C658.978 183.713 657.881 181.27 657.881 178.827H638.959C638.959 185.109 641.278 191.467 647.759 195.605C654.241 199.744 664.164 201.214 674.036 201.214C683.884 201.214 693.832 199.743 700.289 195.605C706.771 191.466 709.089 185.109 709.089 178.827C709.089 172.519 706.77 166.162 700.289 162.023ZM755.011 125.301C745.139 125.301 735.216 127.819 728.734 134.824C722.277 141.83 719.934 152.575 719.934 163.271C719.934 173.941 722.277 184.711 728.734 191.716C735.216 198.722 745.138 201.24 755.011 201.24C764.884 201.24 774.806 198.722 781.288 191.717C784.603 188.101 786.848 183.514 788.219 178.428H772.288C771.839 179.106 771.339 179.747 770.792 180.348C766.903 184.561 760.944 186.057 755.011 186.057C749.102 186.057 743.119 184.561 739.254 180.348C735.365 176.135 733.969 169.678 733.969 163.271C733.969 156.864 735.366 150.406 739.254 146.193C743.119 141.98 749.102 140.484 755.011 140.484C760.944 140.484 766.903 141.98 770.792 146.193C773.485 149.11 774.98 153.074 775.654 157.387H747.108V169.154H790.088V163.271C790.088 152.576 787.77 141.83 781.288 134.825C774.806 127.82 764.884 125.301 755.011 125.301ZM835.986 125.301C826.113 125.301 816.191 127.819 809.709 134.824C803.252 141.83 800.909 152.575 800.909 163.271C800.909 173.941 803.252 184.711 809.709 191.716C816.191 198.722 826.113 201.24 835.986 201.24C845.858 201.24 855.781 198.722 862.263 191.717C865.579 188.101 867.823 183.514 869.219 178.428H853.263C852.815 179.105 852.315 179.747 851.768 180.348C847.879 184.561 841.92 186.057 835.986 186.057C830.078 186.057 824.094 184.561 820.23 180.348C816.341 176.135 814.945 169.678 814.945 163.271C814.945 156.864 816.341 150.406 820.23 146.193C824.094 141.98 830.078 140.484 835.986 140.484C841.92 140.484 847.879 141.98 851.768 146.193C854.46 149.11 855.956 153.074 856.629 157.387H828.108V169.154H871.064V163.271C871.064 152.576 868.745 141.83 862.264 134.825C855.781 127.82 845.859 125.301 835.986 125.301ZM881.884 100.894H898.014V201.24H881.884V100.894ZM932.044 128.666L905.567 161.002L932.044 201.24H952.038L925.562 161.002L952.038 128.666H932.044Z" fill="#4D6BFE"/>
</svg>
