<svg width="858" height="217" viewBox="0 0 858 217" fill="none" xmlns="http://www.w3.org/2000/svg">
<path fill-rule="evenodd" clip-rule="evenodd" d="M290.805 156.401L292.605 161.801C292.605 159.401 292.605 157.301 292.905 154.901H278.205V156.401H271.305V121.001H277.305C277.905 119.201 278.505 117.701 278.805 116.501L287.505 116.801L285.405 121.001H297.405V141.401H278.505V143.201H301.305V148.301H278.505V150.101H300.105C299.805 156.701 299.505 161.801 299.505 165.401C298.905 171.101 296.505 174.101 292.605 174.101H286.005C285.705 172.001 285.105 169.901 284.505 167.801C286.305 167.801 288.105 168.101 290.205 168.101C291.705 168.101 292.905 166.901 292.905 164.501L290.205 165.101C289.605 162.401 288.705 160.001 288.105 157.601L290.805 156.401ZM267.405 171.401L272.805 172.301C273.405 168.101 274.005 163.301 274.605 157.901L270.105 157.301C269.805 155.501 269.805 153.401 269.505 151.001C268.005 151.601 266.805 151.901 265.605 152.501V130.901H270.105V124.301H255.405V130.901H259.005V154.601C257.205 155.201 255.105 155.801 253.605 156.401L256.005 163.301C260.205 161.501 264.705 159.701 269.805 157.901C268.905 163.001 268.305 167.501 267.405 171.401ZM247.605 148.001C249.705 148.901 251.805 149.801 253.905 150.701C252.405 159.401 251.505 167.201 250.605 173.801C247.905 172.901 245.805 172.001 243.705 171.401C244.905 164.501 246.405 156.701 247.605 148.001ZM247.905 132.701C251.505 136.001 253.905 138.401 255.405 139.901L249.705 145.301C248.205 143.201 245.805 140.801 243.105 137.801C243.105 137.801 247.905 132.701 247.905 132.701ZM248.505 117.101C250.905 119.201 253.005 121.601 255.105 124.001L249.405 128.801C248.205 127.601 246.405 125.201 243.405 121.601C243.405 121.601 248.505 117.101 248.505 117.101ZM280.905 157.601L276.705 157.901C277.005 162.101 277.005 166.301 276.705 170.501L281.505 170.201C281.505 166.901 281.205 162.401 280.905 157.601ZM290.205 136.301V133.001H277.905V136.301H290.205ZM290.205 125.801H277.905V129.101H290.205V125.801ZM282.405 157.901C282.705 160.301 283.305 163.301 283.605 166.901L287.805 166.301C287.505 163.301 286.905 160.301 286.305 157.301L282.405 157.901ZM349.005 145.301H354.405L355.305 136.001L352.605 138.701C351.105 136.601 349.605 134.501 347.805 132.701C352.605 127.901 356.505 122.501 359.505 116.501L367.605 117.401C367.005 118.601 366.405 119.501 365.805 120.701H392.505V127.001H361.905C361.005 128.501 360.105 129.701 358.905 130.901H388.905L388.605 145.001H393.105V151.001H388.305L388.005 159.101H392.505V165.101H388.005C388.305 167.201 387.405 169.301 386.205 171.101C385.005 172.301 383.205 173.201 381.405 173.201C379.305 173.501 375.105 173.501 368.805 173.801C368.205 171.701 367.605 169.601 367.005 167.801C370.605 167.801 373.605 168.101 375.705 168.101C376.605 168.101 377.805 168.101 378.705 167.801C379.605 167.501 379.905 166.901 380.205 165.401H351.705L352.905 151.601H348.105V145.301H349.005ZM377.205 141.701L373.305 145.301H381.105V137.201H370.605C373.005 138.401 375.105 139.901 377.205 141.701ZM365.505 140.501L369.105 137.201H362.805L361.905 145.301H371.805C371.805 145.301 365.505 140.501 365.505 140.501ZM365.205 154.601L368.805 151.301H361.005L360.105 159.401H370.905C369.105 157.601 367.305 156.101 365.205 154.601ZM377.205 155.801L373.605 159.401H380.805L381.105 151.301H370.605C372.105 152.201 374.205 153.701 377.205 155.801ZM342.405 116.801L337.305 122.201C340.605 124.901 343.605 127.601 346.305 130.301L351.705 124.301C348.405 121.601 345.405 118.901 342.405 116.801ZM340.605 132.101L335.805 137.501C340.305 141.701 343.305 144.401 344.505 145.601L349.605 139.301L340.605 132.101ZM342.705 149.501C340.905 157.601 339.105 165.101 337.005 171.401C339.705 172.001 342.105 172.901 344.805 173.801C346.605 166.001 348.405 158.801 350.205 152.201C347.505 151.601 345.105 150.701 342.705 149.501ZM450.705 154.001L469.605 152.201V116.801H477.705V151.601L485.505 151.001L486.105 158.501L477.405 159.401V174.401H469.305V160.001L451.305 161.501L450.705 154.001ZM428.205 155.801C429.405 158.801 430.305 162.101 430.905 165.101C433.305 161.501 435.405 157.901 437.205 154.301V174.101H444.705V148.901C446.205 150.401 447.705 152.201 449.805 154.601L454.605 150.101C452.205 147.701 449.805 145.301 447.405 143.201L444.705 145.901V140.801H452.205V133.301H444.705V126.101C447.405 125.801 450.405 125.501 453.105 124.901L451.005 118.001C444.105 118.901 436.905 119.801 428.805 120.401C429.405 122.801 429.705 124.901 430.005 127.301L436.905 126.701V133.301H428.505V140.801H436.605C434.805 146.201 432.105 151.301 428.205 155.801ZM459.405 121.001L454.605 125.801C457.905 128.501 460.905 131.501 463.905 134.501L469.305 129.101C466.305 126.101 463.005 123.401 459.405 121.001ZM457.305 135.701L452.505 140.801C455.805 143.201 459.105 146.201 461.805 149.201L467.205 143.801C464.205 140.801 460.905 138.101 457.305 135.701ZM577.605 132.101H563.505V138.401H576.105V145.301C573.705 151.001 570.105 156.101 565.605 160.301C569.805 162.701 574.305 164.501 578.805 165.701C577.005 169.001 575.205 171.701 574.005 173.501C568.605 171.401 563.505 168.701 559.005 165.401C553.905 169.001 548.505 171.701 542.805 173.801C541.605 171.701 540.105 169.001 538.305 166.301C543.105 164.801 547.905 162.701 552.405 160.001C549.105 157.001 546.105 153.401 543.405 149.501L550.005 145.601C552.405 149.201 555.405 152.501 558.705 155.501C562.005 152.801 565.005 149.201 566.805 145.301H541.905V138.101H554.805V131.801H541.905V124.901H554.805V116.501H563.205V124.901H577.305V132.101H577.605ZM521.805 127.001V134.501H528.405V144.701L521.205 145.901L522.105 154.301L528.405 152.801V163.301C528.405 164.201 528.405 164.801 527.805 165.401C527.205 165.701 526.305 166.001 525.705 166.001C524.505 166.001 523.005 166.001 521.805 165.701C522.705 169.001 523.305 171.701 523.905 173.501C529.305 173.501 532.905 172.901 534.105 171.701C535.305 170.201 535.905 168.101 535.905 166.001V150.701L541.005 149.501C541.005 147.701 541.005 145.301 541.305 142.001L536.205 143.201V134.501H541.005V127.001H536.205V116.801H528.705V127.001H521.805ZM646.305 116.201C647.205 118.001 648.405 120.101 649.305 121.901H668.205V127.001H648.705V130.001H666.105V134.801H648.705V137.801H666.105V142.601H648.705V145.601H668.805V150.701H627.405V152.801H619.605V136.001C618.405 136.901 617.505 138.101 616.305 139.001C615.405 136.001 614.205 133.301 613.005 130.601C617.805 127.001 621.705 122.201 624.405 116.801L632.505 118.601C631.905 119.801 631.305 121.001 630.405 122.201H640.305C639.705 120.701 638.805 119.201 638.205 117.701L646.305 116.201ZM627.705 127.301V130.301H641.205V127.301H627.705ZM627.705 137.801H641.205V134.801H627.705V137.801ZM627.705 145.601H641.205V142.601H627.705V145.601ZM638.505 152.201V154.901H614.805V160.601H631.305C625.605 163.601 619.605 166.001 613.305 167.201C614.805 169.301 616.005 171.401 617.205 173.801C625.005 171.401 631.905 167.801 638.205 162.701V174.101H646.005V162.101C652.005 167.501 659.205 171.401 667.005 173.201C668.205 171.101 669.405 169.001 671.205 166.301C664.905 165.401 658.905 163.301 653.205 160.301H670.305V154.601H646.005V151.901L638.505 152.201ZM709.005 174.101V118.901H761.505V173.801H754.005V172.001H716.205V173.801L709.005 174.101ZM754.005 124.901H716.205V166.301H754.005V124.901ZM718.005 149.201L718.605 152.801C728.805 152.501 738.705 152.201 748.305 152.201C748.905 152.801 749.505 153.401 750.105 154.001L754.005 151.301C752.505 149.801 751.005 148.301 749.205 146.801H751.005V133.301H738.405V131.501H751.905V127.601H738.405V126.101H732.405V127.601H718.905V131.501H732.405V133.301H719.805V148.301H725.805V146.801H732.405V149.201H718.005ZM718.005 154.301V158.501H723.705L721.605 160.301C723.705 161.801 725.805 163.301 727.905 165.101L731.805 161.501C730.305 160.601 728.805 159.701 727.305 158.501H741.105V159.101C741.105 160.301 740.205 160.901 738.705 160.901H733.305C733.905 163.001 734.205 164.501 734.505 165.401C736.905 165.401 739.605 165.401 742.005 165.101C745.605 164.801 747.405 163.001 747.405 160.001V158.501H752.505V154.601H747.405V153.101H741.405V154.601L718.005 154.301ZM745.005 148.901L743.805 147.701L745.905 146.501H738.105V148.901H745.005ZM744.705 143.501V141.401H738.105V143.501H744.705ZM725.805 143.501H732.405V141.401H725.805V143.501ZM744.705 136.601H738.105V138.401H744.705V136.601ZM725.805 138.401H732.405V136.601H725.805V138.401Z" fill="#1D1D1B"/>
<path d="M464.807 59.8023V77.8023C464.807 88.6023 473.207 97.3023 484.007 97.3023H524.507V85.3023H486.107C485.207 85.3023 484.307 84.7023 484.307 83.5023V55.6023C484.307 54.4023 484.907 53.5023 486.107 53.5023H524.507V40.9023H484.007C473.507 40.9023 464.807 49.0023 464.807 59.5023V59.8023Z" fill="#1D1D1B"/>
<path d="M460.307 40.6006H437.507L428.507 51.1006C426.107 53.5006 422.207 53.5006 419.807 51.1006L410.807 40.6006H388.307L409.307 64.6006C411.707 67.0006 411.707 70.9006 409.307 73.0006C409.307 73.0006 409.007 73.0006 409.007 73.3006L388.307 97.6006H410.807L419.807 87.1006C422.207 85.0006 426.107 85.0006 428.507 87.4006L437.507 97.9006H460.307L439.307 73.6006C436.907 71.2006 436.907 67.3006 439.307 64.9006L460.307 40.6006Z" fill="#1D1D1B"/>
<path d="M363.704 40.6006H333.704C322.004 40.6006 312.404 49.3006 312.404 60.1006V78.1006C312.404 88.9006 322.004 97.6006 333.704 97.6006H363.104C373.604 97.9006 382.604 89.5006 382.904 79.0006C382.904 78.7006 382.904 78.4006 382.904 78.1006V60.1006C383.204 49.6006 375.404 40.9006 364.904 40.6006C364.604 40.6006 364.004 40.6006 363.704 40.6006ZM363.104 83.2006C363.104 84.4006 362.204 85.0006 361.004 85.0006H333.704C332.504 85.0006 331.604 84.4006 331.604 83.2006V55.0006C331.604 53.8006 332.504 52.9006 333.704 52.9006H361.304C362.504 52.9006 363.404 53.5006 363.404 54.7006L363.104 83.2006Z" fill="#1D1D1B"/>
<path d="M244.303 59.8006V97.6006H263.503V79.9006C263.503 77.5006 265.303 75.4006 267.403 75.4006C267.703 75.4006 267.703 75.4006 268.003 75.4006H301.003V65.5006H265.303C264.103 65.5006 263.503 64.6006 263.503 63.4006V55.3006C263.503 54.1006 264.103 53.2006 265.303 53.2006H304.003V40.6006H262.303C252.103 40.9006 244.003 49.3006 244.303 59.8006Z" fill="#1D1D1B"/>
<path d="M663.404 40.6006H612.404V97.6006H631.604V55.0006C631.604 54.1006 632.204 53.2006 633.404 53.2006H661.604C662.504 53.2006 663.404 54.1006 663.404 55.0006V97.6006H682.604V59.8006C682.004 49.3006 673.904 40.9006 663.404 40.6006Z" fill="#1D1D1B"/>
<path d="M742.904 40.0029H691.904V97.0029H711.104V55.0029C711.104 54.1029 712.004 53.2029 712.904 53.2029H741.104C742.004 53.2029 742.904 54.1029 742.904 55.0029V97.6029H762.104V59.2029C761.804 49.0029 753.404 40.3029 742.904 40.0029Z" fill="#1D1D1B"/>
<path d="M584.204 40.6006H554.204C542.504 40.6006 532.904 49.3006 532.904 60.1006V78.1006C532.904 88.9006 542.504 97.6006 554.204 97.6006H583.604C594.104 97.9006 603.104 89.5006 603.404 79.0006C603.404 78.7006 603.404 78.4006 603.404 78.1006V60.1006C603.704 49.9006 595.904 41.2006 585.704 40.6006C585.104 40.6006 584.504 40.6006 584.204 40.6006ZM581.804 52.9006C583.004 52.9006 583.904 53.5006 583.904 54.7006L583.604 83.2006C583.604 84.4006 582.704 85.0006 581.504 85.0006H554.204C553.004 85.0006 552.104 84.4006 552.104 83.2006V55.0006C552.104 53.8006 553.004 52.9006 554.204 52.9006H581.804Z" fill="#1D1D1B"/>
<path fill-rule="evenodd" clip-rule="evenodd" d="M146.804 41.8018V81.4018H120.104V41.8018H66.4043V173.802H119.804V134.202H146.204L146.504 173.802H199.904V41.8018H146.804ZM186.404 160.602H160.004V133.902C159.704 127.002 154.004 121.602 147.104 121.302H120.104C112.904 121.302 107.204 126.702 106.604 133.902V160.902H79.9043V55.0018H106.604V94.6018H166.304C175.904 94.6018 186.404 105.402 186.404 115.002V160.602Z" fill="#E83434"/>
<path d="M216.402 30.7018C222.102 30.7018 226.902 35.5018 226.902 41.2018C226.902 46.9018 222.102 51.7018 216.402 51.7018C210.702 51.7018 205.902 46.9018 205.902 41.2018C205.902 35.5018 210.702 30.7018 216.402 30.7018ZM216.402 29.8018C210.102 29.8018 205.002 34.9018 205.002 41.2018C205.002 47.5018 210.102 52.6018 216.402 52.6018C222.702 52.6018 227.802 47.5018 227.802 41.2018C227.802 34.9018 222.702 29.8018 216.402 29.8018Z" fill="#E83434"/>
<path d="M216.402 29.8018C210.102 29.8018 205.002 34.9018 205.002 41.2018C205.002 47.5018 210.102 52.6018 216.402 52.6018C222.702 52.6018 227.802 47.5018 227.802 41.2018C227.802 34.9018 222.702 29.8018 216.402 29.8018ZM205.302 41.2018C205.302 35.5018 210.702 30.4018 216.702 30.4018C222.402 30.4018 227.202 35.2018 227.202 41.2018C227.502 43.9018 225.702 46.9018 223.902 48.7018C223.602 48.4018 223.302 48.1018 223.302 47.8018C223.302 47.5018 223.302 46.9018 223.302 46.6018V44.5018C223.302 43.9018 223.002 43.0018 222.702 42.4018C222.402 42.1018 221.802 41.5018 221.202 41.5018C221.802 41.2018 222.402 40.6018 223.002 40.0018C223.302 39.4018 223.602 38.5018 223.602 37.6018C223.602 36.1018 222.702 34.6018 221.202 34.0018C220.302 33.7018 219.102 33.4018 218.202 33.4018H210.702V49.3018H212.802V42.4018H217.602C218.202 42.4018 218.802 42.4018 219.402 42.7018C220.302 43.0018 220.602 43.9018 220.602 44.8018V47.5018C220.602 47.8018 220.602 48.4018 220.602 48.7018C220.602 49.0018 220.602 49.0018 220.602 49.3018H222.702H223.902L222.702 50.5018L218.802 52.3018H214.602L210.402 50.5018L207.402 47.8018L205.602 42.7018L205.302 41.2018ZM220.302 40.0018C219.702 40.3018 218.802 40.6018 217.902 40.6018H213.102V35.2018H218.202C218.802 35.2018 219.402 35.2018 220.002 35.5018C220.902 35.8018 221.202 36.7018 221.202 37.9018C221.202 38.5018 220.902 39.4018 220.302 40.0018Z" fill="#E83434"/>
<path d="M781.002 38.8023C786.402 38.8023 790.602 43.0023 790.602 48.4023C790.602 53.8023 786.402 58.0023 781.002 58.0023C775.602 58.0023 771.402 53.8023 771.402 48.4023C771.402 43.0023 775.602 38.8023 781.002 38.8023ZM781.002 37.9023C775.302 37.9023 770.502 42.7023 770.502 48.4023C770.502 54.1023 775.302 58.9023 781.002 58.9023C786.702 58.9023 791.502 54.1023 791.502 48.4023C791.502 42.7023 786.702 37.9023 781.002 37.9023Z" fill="#1D1D1B"/>
<path d="M781.002 37.9023C775.302 37.9023 770.502 42.7023 770.502 48.4023C770.502 54.1023 775.302 58.9023 781.002 58.9023C786.702 58.9023 791.502 54.1023 791.502 48.4023C791.502 42.7023 786.702 37.9023 781.002 37.9023ZM770.802 48.4023C770.802 43.0023 775.902 38.5023 781.302 38.5023C786.702 38.5023 790.902 43.0023 790.902 48.4023C791.202 50.8023 789.402 53.8023 787.902 55.3023C787.602 55.0023 787.302 54.7023 787.302 54.4023C787.302 54.1023 787.302 53.5023 787.302 53.2023V51.4023C787.302 50.8023 787.002 49.9023 786.702 49.6023C786.402 49.3023 785.802 48.7023 785.202 48.7023C785.802 48.4023 786.402 47.8023 787.002 47.2023C787.302 46.6023 787.602 45.7023 787.602 45.1023C787.602 43.6023 786.702 42.4023 785.502 41.8023C784.602 41.5023 783.702 41.2023 782.802 41.2023H775.902V55.9023H777.702V49.6023H782.202C782.802 49.6023 783.402 49.6023 784.002 49.9023C784.902 50.2023 785.202 51.1023 785.202 51.7023V54.1023C785.202 54.4023 785.202 55.0023 785.202 55.3023C785.202 55.6023 785.202 55.6023 785.202 55.9023H787.002H788.202L787.002 57.1023L783.402 58.6023H779.502L775.602 57.1023L772.902 54.7023L771.102 49.9023L770.802 48.4023ZM784.602 47.2023C784.002 47.5023 783.102 47.8023 782.502 47.8023H778.002V43.0023H782.802C783.402 43.0023 784.002 43.0023 784.602 43.3023C785.502 43.6023 785.802 44.5023 785.802 45.4023C785.502 46.0023 785.202 46.6023 784.602 47.2023Z" fill="#1D1D1B"/>
</svg>
