<svg width="2500" height="2501" viewBox="0 0 2500 2501" fill="none" xmlns="http://www.w3.org/2000/svg">
<path fill-rule="evenodd" clip-rule="evenodd" d="M1820.42 211.362C1847.71 211.376 1873.88 222.224 1893.18 241.522C1912.47 260.819 1923.31 286.988 1923.33 314.278C1923.33 371.059 1877.22 417.193 1820.42 417.193C1763.63 417.193 1717.5 371.072 1717.5 314.278C1717.51 286.986 1728.36 260.817 1747.66 241.52C1766.96 222.223 1793.13 211.376 1820.42 211.362ZM1820.42 950.95C1847.71 950.964 1873.88 961.812 1893.18 981.109C1912.47 1000.41 1923.31 1026.58 1923.33 1053.87C1923.33 1110.65 1877.22 1156.77 1820.42 1156.77C1763.63 1156.77 1717.5 1110.65 1717.5 1053.87C1717.51 1026.57 1728.36 1000.4 1747.66 981.108C1766.96 961.811 1793.13 950.964 1820.42 950.95ZM1820.42 1189.23C1847.71 1189.24 1873.88 1200.09 1893.17 1219.39C1912.47 1238.68 1923.31 1264.85 1923.33 1292.13C1923.33 1348.93 1877.22 1395.06 1820.42 1395.06C1763.63 1395.06 1717.5 1348.93 1717.5 1292.13C1717.52 1264.84 1728.37 1238.68 1747.67 1219.38C1766.97 1200.09 1793.13 1189.24 1820.42 1189.23ZM1826.4 1420.24C1883.2 1420.24 1929.33 1466.37 1929.33 1523.16C1929.33 1579.96 1883.2 1626.07 1826.4 1626.07C1769.61 1626.07 1723.47 1579.96 1723.47 1523.16C1723.47 1466.37 1769.61 1420.24 1826.4 1420.24ZM1826.4 1664.51C1883.2 1664.51 1929.33 1710.62 1929.33 1767.41C1929.33 1824.2 1883.2 1870.34 1826.4 1870.34C1769.61 1870.34 1723.47 1824.2 1723.47 1767.41C1723.47 1710.62 1769.61 1664.51 1826.4 1664.51ZM1579.17 211.362C1633.81 211.362 1678.65 256.199 1678.65 310.854C1678.65 365.508 1633.81 410.345 1579.17 410.345C1524.51 410.345 1479.67 365.508 1479.67 310.854C1479.67 256.199 1524.51 211.362 1579.17 211.362ZM1579.17 950.95C1633.81 950.95 1678.65 995.8 1678.65 1050.44C1678.65 1105.1 1633.81 1149.93 1579.17 1149.93C1524.51 1149.93 1479.67 1105.1 1479.67 1050.44C1479.67 995.787 1524.51 950.95 1579.17 950.95ZM1579.17 1189.23C1633.81 1189.23 1678.65 1234.07 1678.65 1288.71C1678.65 1343.38 1633.81 1388.21 1579.17 1388.21C1524.51 1388.21 1479.67 1343.38 1479.67 1288.71C1479.67 1234.07 1524.51 1189.23 1579.17 1189.23ZM1585.15 1423.66C1639.79 1423.66 1684.63 1468.5 1684.63 1523.16C1684.63 1577.81 1639.79 1622.67 1585.15 1622.67C1530.48 1622.67 1485.65 1577.81 1485.65 1523.16C1485.65 1468.5 1530.48 1423.66 1585.15 1423.66ZM1585.15 1667.91C1639.79 1667.91 1684.63 1712.74 1684.63 1767.41C1684.63 1822.08 1639.79 1866.91 1585.15 1866.91C1530.48 1866.91 1485.65 1822.08 1485.65 1767.41C1485.65 1712.74 1530.48 1667.91 1585.15 1667.91ZM1579.17 459.033C1633.81 459.033 1678.65 503.87 1678.65 558.524C1678.65 613.179 1633.81 658.015 1579.17 658.015C1524.51 658.015 1479.67 613.179 1479.67 558.524C1479.67 503.87 1524.51 459.033 1579.17 459.033ZM1579.17 702.437C1633.81 702.437 1678.65 747.273 1678.65 801.928C1678.65 856.582 1633.81 901.419 1579.17 901.419C1524.51 901.419 1479.67 856.582 1479.67 801.928C1479.67 747.273 1524.51 702.437 1579.17 702.437ZM1339.61 215.629C1390.42 215.629 1431.84 257.042 1431.84 307.857C1431.84 359.101 1390.42 400.526 1339.61 400.526C1327.44 400.537 1315.38 398.147 1304.13 393.493C1292.89 388.84 1282.67 382.014 1274.06 373.407C1265.45 364.8 1258.63 354.58 1253.97 343.332C1249.32 332.085 1246.93 320.03 1246.94 307.857C1246.94 257.055 1288.36 215.629 1339.61 215.629ZM1339.61 955.217C1390.42 955.217 1431.84 996.643 1431.84 1047.46C1431.84 1098.69 1390.42 1140.11 1339.61 1140.11C1327.44 1140.13 1315.38 1137.74 1304.13 1133.09C1292.89 1128.43 1282.67 1121.61 1274.06 1113C1265.45 1104.4 1258.63 1094.18 1253.97 1082.93C1249.32 1071.68 1246.93 1059.63 1246.94 1047.46C1246.94 996.643 1288.36 955.217 1339.61 955.217ZM1339.61 1193.5C1390.42 1193.5 1431.84 1234.91 1431.84 1285.73C1431.84 1336.97 1390.42 1378.39 1339.61 1378.39C1327.44 1378.41 1315.38 1376.02 1304.13 1371.37C1292.88 1366.71 1282.66 1359.89 1274.05 1351.28C1265.45 1342.67 1258.62 1332.45 1253.97 1321.2C1249.32 1309.95 1246.93 1297.9 1246.94 1285.73C1246.94 1234.91 1288.36 1193.5 1339.61 1193.5ZM1345.59 1430.92C1396.4 1430.92 1437.82 1472.33 1437.82 1523.59C1437.82 1574.41 1396.4 1615.82 1345.59 1615.82C1294.34 1615.82 1252.92 1574.41 1252.92 1523.59C1252.91 1511.42 1255.29 1499.36 1259.95 1488.11C1264.6 1476.87 1271.43 1466.65 1280.03 1458.04C1288.64 1449.43 1298.86 1442.6 1310.11 1437.95C1321.36 1433.3 1333.41 1430.91 1345.59 1430.92ZM1345.59 1675.17C1396.4 1675.17 1437.82 1716.58 1437.82 1767.84C1437.82 1818.65 1396.4 1860.07 1345.59 1860.07C1294.34 1860.07 1252.92 1818.65 1252.92 1767.84C1252.91 1755.67 1255.29 1743.61 1259.95 1732.36C1264.6 1721.11 1271.43 1710.89 1280.03 1702.28C1288.64 1693.68 1298.86 1686.85 1310.11 1682.2C1321.36 1677.55 1333.41 1675.16 1345.59 1675.17ZM1339.61 463.3C1390.42 463.3 1431.84 504.726 1431.84 555.541C1431.84 606.785 1390.42 648.21 1339.61 648.21C1327.44 648.222 1315.38 645.833 1304.13 641.18C1292.88 636.528 1282.66 629.702 1274.05 621.095C1265.45 612.487 1258.62 602.267 1253.97 591.018C1249.32 579.77 1246.93 567.714 1246.94 555.541C1246.94 504.713 1288.36 463.3 1339.61 463.3ZM1339.61 706.704C1390.42 706.704 1431.84 748.116 1431.84 799.36C1431.84 850.175 1390.42 891.601 1339.61 891.601C1288.36 891.601 1246.94 850.188 1246.94 799.36C1246.93 787.188 1249.32 775.134 1253.97 763.887C1258.63 752.64 1265.45 742.421 1274.06 733.815C1282.67 725.208 1292.89 718.384 1304.13 713.732C1315.38 709.08 1327.44 706.692 1339.61 706.704ZM1097.92 222.465C1119.66 222.471 1140.51 231.111 1155.88 246.484C1171.25 261.857 1179.89 282.706 1179.9 304.446C1179.89 326.187 1171.25 347.036 1155.88 362.409C1140.51 377.782 1119.66 386.421 1097.92 386.428C1076.17 386.425 1055.32 377.786 1039.95 362.413C1024.58 347.039 1015.94 326.188 1015.93 304.446C1015.94 282.705 1024.58 261.854 1039.95 246.48C1055.32 231.106 1076.17 222.468 1097.92 222.465ZM1097.92 962.052C1119.66 962.056 1140.51 970.694 1155.88 986.068C1171.26 1001.44 1179.89 1022.29 1179.9 1044.03C1179.89 1065.78 1171.25 1086.62 1155.88 1102C1140.51 1117.37 1119.66 1126.01 1097.92 1126.02C1076.18 1126.01 1055.33 1117.37 1039.95 1102C1024.58 1086.62 1015.94 1065.78 1015.93 1044.03C1015.94 1022.29 1024.58 1001.44 1039.95 986.068C1055.32 970.694 1076.17 962.056 1097.92 962.052ZM1097.92 1200.33C1119.41 1200.72 1139.89 1209.52 1154.95 1224.85C1170.01 1240.19 1178.45 1260.82 1178.45 1282.31C1178.45 1303.81 1170.01 1324.44 1154.95 1339.78C1139.89 1355.11 1119.41 1363.91 1097.92 1364.3C1076.43 1363.91 1055.95 1355.11 1040.88 1339.78C1025.82 1324.44 1017.38 1303.81 1017.38 1282.31C1017.38 1260.82 1025.82 1240.19 1040.88 1224.85C1055.95 1209.52 1076.43 1200.72 1097.92 1200.33ZM1103.9 1441.16C1120.11 1441.15 1135.97 1445.96 1149.45 1454.97C1162.94 1463.98 1173.45 1476.78 1179.66 1491.76C1185.87 1506.75 1187.49 1523.23 1184.33 1539.14C1181.17 1555.05 1173.36 1569.66 1161.89 1581.12C1150.43 1592.59 1135.82 1600.4 1119.91 1603.57C1104 1606.73 1087.52 1605.11 1072.53 1598.91C1057.55 1592.7 1044.74 1582.19 1035.73 1568.71C1026.72 1555.22 1021.91 1539.37 1021.91 1523.15C1021.92 1501.41 1030.56 1480.56 1045.93 1465.18C1061.3 1449.8 1082.15 1441.16 1103.9 1441.16ZM1103.9 1685.43C1125.64 1685.43 1146.49 1694.07 1161.87 1709.44C1177.25 1724.82 1185.88 1745.67 1185.88 1767.42C1185.88 1789.16 1177.25 1810.02 1161.87 1825.39C1146.49 1840.77 1125.64 1849.4 1103.9 1849.4C1082.15 1849.4 1061.3 1840.77 1045.92 1825.39C1030.55 1810.02 1021.91 1789.16 1021.91 1767.42C1021.91 1745.67 1030.55 1724.82 1045.92 1709.44C1061.3 1694.07 1082.15 1685.43 1103.9 1685.43ZM1097.92 470.122C1119.66 470.129 1140.51 478.769 1155.88 494.142C1171.25 509.515 1179.89 530.363 1179.9 552.104C1179.89 573.846 1171.25 594.696 1155.88 610.071C1140.51 625.446 1119.66 634.089 1097.92 634.099C1076.17 634.092 1055.32 625.451 1039.95 610.075C1024.58 594.699 1015.94 573.847 1015.93 552.104C1015.94 530.363 1024.58 509.515 1039.95 494.142C1055.33 478.769 1076.18 470.129 1097.92 470.122ZM1097.92 713.526C1119.66 713.533 1140.51 722.172 1155.88 737.545C1171.25 752.918 1179.89 773.767 1179.9 795.508C1179.89 817.249 1171.25 838.097 1155.88 853.47C1140.51 868.843 1119.66 877.483 1097.92 877.49C1076.17 877.486 1055.32 868.848 1039.95 853.474C1024.58 838.1 1015.94 817.25 1015.93 795.508C1015.94 773.767 1024.58 752.918 1039.95 737.545C1055.33 722.172 1076.18 713.533 1097.92 713.526ZM858.78 230.571C877.24 230.574 894.944 237.909 907.997 250.962C921.05 264.016 928.385 281.719 928.389 300.179C928.389 339.037 897.222 370.203 858.78 370.203C849.575 370.236 840.455 368.447 831.945 364.939C823.434 361.432 815.702 356.275 809.193 349.766C802.684 343.257 797.528 335.525 794.02 327.015C790.513 318.504 788.724 309.384 788.756 300.179C788.756 261.75 819.922 230.571 858.78 230.571ZM858.78 970.159C897.209 970.159 928.389 1001.34 928.389 1040.2C928.385 1058.66 921.05 1076.36 907.997 1089.41C894.944 1102.47 877.24 1109.8 858.78 1109.8C819.922 1109.8 788.756 1078.62 788.756 1040.2C788.756 1001.34 819.922 970.159 858.78 970.159ZM858.78 1208.44C877.24 1208.44 894.944 1215.78 907.997 1228.83C921.05 1241.88 928.385 1259.59 928.389 1278.05C928.389 1316.91 897.222 1348.06 858.78 1348.06C849.576 1348.09 840.457 1346.3 831.948 1342.8C823.438 1339.29 815.706 1334.13 809.198 1327.63C802.689 1321.12 797.532 1313.39 794.024 1304.88C790.516 1296.37 788.725 1287.25 788.756 1278.05C788.756 1239.62 819.922 1208.44 858.78 1208.44ZM864.759 1453.54C903.188 1453.54 934.355 1484.72 934.355 1523.58C934.351 1542.03 927.017 1559.73 913.966 1572.78C900.915 1585.83 883.215 1593.16 864.759 1593.16C825.902 1593.16 794.735 1562.01 794.735 1523.58C794.735 1484.73 825.902 1453.54 864.759 1453.54ZM864.759 1697.79C903.188 1697.79 934.355 1728.97 934.355 1767.83C934.351 1786.28 927.018 1803.98 913.968 1817.04C900.917 1830.09 883.217 1837.43 864.759 1837.43C825.902 1837.43 794.735 1806.25 794.735 1767.83C794.735 1728.98 825.902 1697.79 864.759 1697.79ZM858.78 478.241C897.209 478.241 928.389 509.408 928.389 548.265C928.385 566.724 921.05 584.426 907.996 597.477C894.942 610.529 877.239 617.861 858.78 617.861C819.922 617.861 788.756 586.694 788.756 548.265C788.727 539.061 790.518 529.942 794.027 521.434C797.536 512.925 802.693 505.194 809.201 498.686C815.709 492.178 823.44 487.021 831.949 483.512C840.457 480.004 849.576 478.212 858.78 478.241ZM858.78 721.645C897.209 721.645 928.389 752.824 928.389 791.682C928.385 810.141 921.05 827.843 907.996 840.894C894.942 853.945 877.239 861.277 858.78 861.277C819.922 861.277 788.756 830.111 788.756 791.682C788.756 752.811 819.922 721.645 858.78 721.645ZM617.516 247.224C645.7 247.224 668.76 270.284 668.76 298.895C668.719 312.473 663.307 325.484 653.706 335.085C644.105 344.686 631.094 350.098 617.516 350.139C588.905 350.139 565.845 327.079 565.845 298.895C565.833 292.106 567.161 285.382 569.754 279.107C572.346 272.833 576.152 267.132 580.952 262.331C585.753 257.531 591.454 253.725 597.728 251.133C604.003 248.54 610.727 247.212 617.516 247.224ZM617.516 986.825C645.7 986.825 668.76 1009.88 668.76 1038.5C668.719 1052.07 663.306 1065.08 653.705 1074.68C644.103 1084.28 631.093 1089.69 617.516 1089.73C588.905 1089.73 565.845 1066.68 565.845 1038.5C565.833 1031.71 567.161 1024.98 569.754 1018.71C572.346 1012.43 576.152 1006.73 580.952 1001.93C585.753 997.132 591.454 993.326 597.728 990.734C604.003 988.141 610.727 986.813 617.516 986.825ZM617.516 1225.09C645.7 1225.09 668.76 1248.15 668.76 1276.75C668.722 1290.33 663.311 1303.34 653.709 1312.94C644.108 1322.55 631.095 1327.96 617.516 1327.99C588.905 1327.99 565.845 1304.95 565.845 1276.75C565.835 1269.96 567.164 1263.24 569.757 1256.97C572.351 1250.69 576.157 1244.99 580.957 1240.2C585.757 1235.4 591.458 1231.59 597.731 1229C604.005 1226.41 610.728 1225.08 617.516 1225.09ZM623.495 1471.91C651.679 1471.91 674.739 1494.95 674.739 1523.58C674.698 1537.16 669.286 1550.17 659.685 1559.77C650.084 1569.37 637.073 1574.78 623.495 1574.82C594.884 1574.82 571.824 1551.75 571.824 1523.58C571.812 1516.79 573.14 1510.06 575.733 1503.79C578.325 1497.52 582.131 1491.81 586.931 1487.01C591.732 1482.21 597.433 1478.41 603.707 1475.82C609.982 1473.22 616.706 1471.89 623.495 1471.91ZM623.495 1716.15C651.679 1716.15 674.739 1739.23 674.739 1767.83C674.701 1781.4 669.29 1794.42 659.688 1804.02C650.087 1813.62 637.075 1819.03 623.495 1819.07C594.884 1819.07 571.824 1796.02 571.824 1767.83C571.814 1761.04 573.143 1754.31 575.736 1748.04C578.329 1741.77 582.135 1736.07 586.935 1731.26C591.735 1726.46 597.436 1722.66 603.709 1720.07C609.983 1717.47 616.707 1716.14 623.495 1716.15ZM617.516 494.894C645.7 494.894 668.76 517.955 668.76 546.566C668.719 560.144 663.307 573.154 653.706 582.755C644.105 592.356 631.094 597.769 617.516 597.81C588.905 597.81 565.845 574.749 565.845 546.566C565.833 539.777 567.161 533.052 569.754 526.778C572.346 520.504 576.152 514.803 580.952 510.002C585.753 505.201 591.454 501.396 597.728 498.803C604.003 496.211 610.727 494.882 617.516 494.894ZM617.516 738.298C645.7 738.298 668.76 761.358 668.76 789.97C668.719 803.548 663.307 816.558 653.706 826.159C644.105 835.76 631.094 841.172 617.516 841.213C588.905 841.213 565.845 818.153 565.845 789.97C565.833 783.181 567.161 776.456 569.754 770.182C572.346 763.907 576.152 758.206 580.952 753.406C585.753 748.605 591.454 744.799 597.728 742.207C604.003 739.614 610.727 738.286 617.516 738.298ZM2065.54 1177.69C2123.6 1177.69 2171.42 1225.52 2171.42 1284.03C2171.42 1342.09 2123.59 1389.91 2065.54 1389.91C2007.02 1389.91 1959.2 1342.08 1959.2 1284.03C1959.2 1225.52 2007.02 1177.69 2065.54 1177.69ZM2065.54 1417.24C2123.6 1417.24 2171.42 1465.07 2171.42 1523.58C2171.42 1581.64 2123.59 1629.46 2065.54 1629.46C2007.02 1629.46 1959.2 1581.63 1959.2 1523.58C1959.2 1465.07 2007.02 1417.24 2065.54 1417.24ZM613.249 2217.9V1937.35H641.861V2217.9H613.249ZM741.78 2219.19C738.784 2219.61 735.801 2220.04 732.39 2220.46C729.394 2220.88 725.555 2220.88 721.715 2220.88C706.333 2220.88 696.087 2217.9 690.536 2211.92C684.985 2205.94 682.43 2191.43 682.43 2168.38V2029.59H657.243V2011.25H682.43V1952.74H708.473V2011.25H741.78V2029.59H708.473V2172.66C708.473 2186.32 709.757 2195.28 712.753 2198.28C715.308 2201.7 720.859 2203.4 728.979 2203.4C730.691 2203.4 732.403 2202.97 734.53 2202.97C736.67 2202.97 739.225 2202.55 741.793 2202.14L741.78 2219.19ZM766.552 1954.02V2056.05H747.331V1954.02H766.552ZM778.938 2161.96H804.553C804.553 2175.62 808.405 2185.88 816.096 2193.56C823.775 2200.83 835.305 2204.24 849.831 2204.24C863.916 2204.24 875.018 2200.82 883.137 2193.99C891.671 2187.18 895.523 2178.2 895.523 2166.24C895.523 2148.71 877.158 2131.64 840.428 2115.86C837.679 2114.83 834.974 2113.69 832.322 2112.43C812.672 2103.9 799.871 2095.77 793.451 2088.09C787.485 2079.96 784.489 2069.29 784.489 2056.04C784.489 2041.12 790.04 2028.74 801.142 2019.76C812.244 2010.36 827.186 2005.65 845.551 2005.65C867.755 2005.65 884.408 2010.79 895.938 2020.19C907.468 2029.57 913.447 2043.68 914.719 2062.87H889.959C887.819 2050.06 883.552 2040.26 876.717 2034.28C869.882 2027.87 860.492 2024.44 848.534 2024.44C836.589 2024.44 826.758 2027.43 819.922 2032.98C812.659 2038.53 809.248 2045.79 809.248 2055.62C809.248 2071.41 829.326 2088.07 869.467 2105.14C874.162 2107.27 878.001 2108.57 880.141 2109.82C893.798 2115.83 904.472 2123.51 911.735 2132.9C918.999 2142.7 922.838 2153.39 922.838 2165.78C922.838 2183.29 916.003 2197.37 902.773 2208.06C889.531 2218.72 872.022 2223.84 850.246 2223.84C827.614 2223.84 809.689 2218.72 797.731 2208.46C785.345 2197.8 778.938 2182.84 778.938 2163.62V2161.96ZM1182.89 2218.76C1178.63 2219.61 1175.2 2220.05 1172.22 2220.05C1169.67 2220.46 1166.67 2220.46 1164.11 2220.46C1157.71 2220.46 1152.16 2219.19 1147.46 2216.2C1143.19 2213.22 1139.78 2208.93 1137.21 2202.96C1129.95 2209.8 1121.85 2215.35 1112.88 2218.77C1103.92 2222.19 1093.68 2223.89 1082.56 2223.89C1064.2 2223.89 1050.11 2218.77 1039.44 2208.95C1029.19 2198.72 1024.07 2184.61 1024.07 2166.67C1024.07 2150.89 1028.76 2138.07 1038.15 2128.24C1047.11 2118.86 1062.91 2110.3 1085.54 2103.07C1090.24 2101.34 1096.65 2099.64 1104.75 2097.52C1126.53 2091.11 1137.63 2082.58 1137.63 2072.32V2055.25C1137.63 2044.16 1134.65 2036.03 1129.1 2030.9C1123.12 2026.2 1113.73 2023.63 1100.91 2023.63C1087.24 2023.63 1077 2026.61 1069.73 2033.03C1062.47 2039.87 1058.63 2049.7 1058.2 2062.49H1032.59V2057.8C1032.59 2041.99 1038.99 2029.61 1051.37 2020.24C1064.17 2010.84 1080.84 2006.13 1101.76 2006.13C1114.14 2006.13 1124.82 2007.43 1133.35 2009.98C1141.88 2012.54 1148.73 2016.82 1153.86 2021.94C1157.27 2025.79 1159.82 2030.05 1161.53 2035.17C1162.82 2039.88 1163.67 2047.13 1163.67 2056.52V2179.5C1163.67 2189.76 1164.96 2196.57 1167.08 2198.72C1169.22 2201.27 1173.49 2202.55 1179.9 2202.55H1182.88L1182.89 2218.76ZM1136.77 2107.3C1098.34 2119.68 1074.86 2129.51 1065.45 2137.19C1056.49 2144.9 1051.78 2154.7 1051.78 2166.65C1051.78 2178.2 1054.78 2187.57 1061.6 2194.41C1068.01 2200.82 1076.54 2204.24 1088.09 2204.24C1104.74 2204.24 1117.12 2199.12 1124.82 2189.3C1132.51 2179.04 1136.77 2163.26 1136.77 2141.47V2107.3ZM1286.67 2138.06H1315.26C1316.12 2158.12 1322.1 2173.93 1333.2 2185.02C1344.29 2196.14 1359.67 2201.69 1378.47 2201.69C1399.81 2201.69 1416.89 2196.55 1428.85 2186.75C1441.24 2176.49 1447.22 2162.83 1447.22 2145.34C1447.22 2136.78 1445.49 2129.1 1442.1 2123.12C1438.67 2116.71 1433.13 2111.16 1425.43 2106.05C1418.59 2101.34 1405.36 2095.79 1385.72 2089.38C1379.07 2087.57 1372.51 2085.44 1366.08 2082.98C1340.04 2074.02 1321.24 2063.34 1310.15 2051.38C1299.04 2039 1293.49 2023.61 1293.49 2004.42C1293.49 1983.07 1302.02 1965.99 1318.69 1952.31C1335.33 1938.65 1356.69 1931.81 1382.73 1931.81C1409.2 1931.81 1429.72 1937.79 1445.1 1950.61C1460.46 1962.99 1467.72 1980.5 1467.72 2002.69V2004.42H1441.25C1439.96 1988.18 1434.42 1975.39 1424.59 1966.83C1414.78 1957.87 1401.54 1953.6 1384.46 1953.6C1366.52 1953.6 1352.01 1958.29 1340.05 1968.12C1328.52 1977.95 1322.54 1990.31 1322.54 2005.25C1322.54 2012.53 1323.81 2018.49 1326.37 2024.47C1328.52 2030.45 1332.34 2035.56 1337.05 2040.28C1344.73 2047.96 1362.23 2056.07 1389.14 2064.63C1394.28 2066.32 1397.67 2067.61 1400.23 2068.45C1427.56 2077.41 1446.79 2087.67 1458.32 2099.63C1469.85 2111.16 1475.83 2126.53 1475.83 2145.32C1475.83 2169.67 1467.3 2188.86 1450.21 2202.95C1433.55 2217.06 1410.06 2223.87 1380.61 2223.87C1351.58 2223.87 1328.52 2216.62 1312.28 2201.68C1296.04 2186.74 1287.94 2165.82 1286.67 2138.06ZM1519.82 2115C1519.82 2144.45 1524.08 2166.24 1532.61 2181.2C1541.15 2196.15 1553.96 2203.39 1571.04 2203.39C1587.71 2203.39 1600.52 2196.14 1609.07 2181.2C1618.03 2166.26 1622.3 2144.04 1622.3 2115C1622.3 2085.96 1618.04 2064.18 1609.07 2049.24C1600.53 2034.3 1587.72 2026.6 1571.04 2026.6C1553.97 2026.6 1541.15 2034.3 1532.61 2048.81C1524.08 2063.76 1519.82 2085.97 1519.82 2115ZM1491.2 2115C1491.2 2078.7 1497.61 2051.8 1511.26 2033.43C1524.51 2015.5 1544.14 2006.11 1570.61 2006.11C1597.11 2006.11 1617.17 2015.51 1630.42 2033.43C1643.65 2051.8 1650.05 2078.7 1650.05 2115C1650.05 2151.3 1643.65 2178.6 1630.42 2196.54C1617.17 2214.48 1597.51 2223.44 1570.61 2223.44C1544.14 2223.44 1524.08 2214.48 1510.86 2196.54C1497.61 2178.62 1491.2 2151.3 1491.2 2115ZM1790.1 2217.9V2078.27C1790.1 2056.48 1787.12 2042.4 1781.99 2035.56C1776.44 2029.18 1766.61 2025.75 1752.54 2025.75C1739.85 2025.62 1727.45 2029.5 1717.11 2036.84C1706.42 2044.12 1700.87 2051.79 1700.87 2059.89V2217.89H1673.97V2011.23H1698.31V2033.85C1705.73 2024.8 1715.07 2017.51 1725.64 2012.5C1735.04 2008.22 1746.56 2005.66 1758.92 2005.66C1779.01 2005.66 1793.95 2010.8 1802.93 2021.47C1812.33 2031.73 1817.01 2048.37 1817.01 2071.43V2217.9H1790.1ZM1913.52 2235.84C1906.69 2256.76 1898.58 2271.27 1889.18 2278.55C1879.77 2286.23 1866.56 2289.64 1849.46 2289.64H1842.63C1840.07 2289.21 1836.65 2288.81 1832.39 2287.94V2268.72C1834.52 2269.15 1836.65 2269.57 1839.23 2270.01C1841.36 2270.01 1843.48 2270.44 1845.64 2270.44C1859.72 2270.44 1870.38 2265.73 1878.49 2256.33C1886.62 2246.95 1890.45 2234.57 1890.45 2218.77C1890.45 2213.65 1889.18 2206.38 1886.19 2196.98C1885.76 2195.71 1885.76 2194.85 1885.76 2194.43L1828.11 2011.25H1855.01L1906.26 2177.79L1960.92 2011.25H1988.25L1913.52 2235.84Z" fill="black"/>
</svg>
