<svg width="2501" height="2500" viewBox="0 0 2501 2500" fill="none" xmlns="http://www.w3.org/2000/svg">
<path fill-rule="evenodd" clip-rule="evenodd" d="M572.674 1652.02H38.2156V1633.1C131.857 1623.65 140.365 1615.37 140.365 1533.78V982.784C140.365 901.192 130.911 891.737 37.2559 883.462V864.539H344.691V883.462C242.541 891.737 232.127 901.192 232.127 982.784V1539.71C232.127 1616.56 244.422 1629.56 321.047 1629.56C462.924 1629.56 543.336 1530.24 556.591 1336.33H572.674V1652.02Z" fill="black"/>
<path fill-rule="evenodd" clip-rule="evenodd" d="M825.598 974.497C794.38 974.497 768.842 942.578 768.842 903.552C768.842 864.539 794.393 832.607 825.598 832.607C856.803 832.607 882.341 864.526 882.341 903.552C882.354 942.578 856.803 974.497 825.598 974.497ZM902.224 1443.92C866.271 1578.72 805.741 1660.31 743.292 1660.31C690.336 1660.31 655.318 1611.83 655.318 1536.17C655.318 1505.41 660.999 1472.3 674.241 1422.63L721.542 1239.37C722.476 1235.82 726.263 1224 731.943 1201.53C737.624 1181.43 740.465 1167.24 740.465 1157.77C740.465 1134.13 729.116 1118.76 712.087 1118.76C668.573 1118.76 628.847 1179.06 581.559 1317.39L565.477 1309.13C591.961 1221.62 622.232 1160.13 656.278 1122.3C675.201 1102.18 696.004 1092.74 719.661 1092.74C773.576 1092.74 811.422 1143.58 811.422 1214.53C811.422 1246.46 800.074 1307.94 783.991 1365.87L760.347 1449.83L742.371 1519.59L732.916 1552.7C729.129 1568.08 726.289 1584.62 726.289 1595.26C726.289 1618.91 737.65 1634.29 753.72 1634.29C798.18 1634.29 847.374 1562.16 886.154 1438L902.224 1443.92Z" fill="#CC2229"/>
<path fill-rule="evenodd" clip-rule="evenodd" d="M1202.55 1084.47C1244.17 1084.47 1285.79 1104.56 1308.49 1136.49C1332.14 1170.78 1335.92 1192.06 1335.92 1294.93V1542.07C1335.92 1611.83 1350.11 1624.85 1426.73 1633.11V1652.04H1157.14V1633.11C1234.7 1624.85 1247.94 1611.83 1247.94 1543.23V1300.85C1247.94 1147.14 1239.44 1124.67 1180.79 1124.67C1126.87 1124.67 1075.78 1169.6 1052.14 1238.17C1029.44 1303.2 1023.76 1349.34 1023.76 1464.01V1543.22C1023.76 1611.82 1037 1624.84 1114.58 1633.1V1652.02H844.974V1633.1C922.546 1624.84 935.788 1611.82 935.788 1543.22V1209.81C935.788 1148.32 932.948 1138.85 910.251 1129.41C897.009 1123.49 883.766 1122.31 842.146 1118.77V1098.67C897.009 1097.49 976.474 1091.57 1023.76 1084.48V1258.27C1054.03 1148.32 1120.24 1084.47 1202.55 1084.47ZM1658.18 1098.66C1720.61 1097.48 1795.32 1091.56 1840.74 1084.47V1542.05C1840.74 1611.82 1853.98 1624.84 1931.55 1633.1V1652.02H1918.31L1836.01 1656.76C1813.57 1657.45 1791.17 1659.03 1768.85 1661.47C1765.05 1661.47 1759.38 1662.66 1751.83 1663.85V1494.77C1731.95 1551.51 1722.5 1569.26 1699.8 1599.99C1667.63 1643.74 1621.29 1667.39 1573.98 1667.39C1532.36 1667.39 1494.54 1647.28 1474.66 1613.01C1451.96 1576.36 1445.34 1536.15 1445.34 1455.73V1209.81C1445.34 1148.32 1441.57 1138.85 1418.85 1129.41C1404.66 1124.67 1385.74 1121.12 1347.92 1118.77V1098.67C1404.66 1097.49 1491.7 1091.57 1533.32 1084.48V1482.95C1533.32 1585.83 1554.12 1633.11 1600.48 1633.11C1653.44 1633.11 1709.28 1570.44 1733.84 1481.76C1747.09 1436.84 1751.83 1391.9 1751.83 1323.33V1209.82C1751.83 1148.33 1748.97 1138.86 1726.27 1129.42C1713.99 1124.69 1695.06 1121.13 1658.18 1118.78V1098.66Z" fill="black"/>
<path fill-rule="evenodd" clip-rule="evenodd" d="M2359.67 1552.7C2397.52 1618.91 2409.8 1628.39 2463.73 1633.1V1652.02H2205.49V1633.1C2260.35 1627.2 2275.5 1620.11 2275.5 1598.82C2275.5 1592.89 2270.77 1581.07 2265.09 1570.43L2249 1540.87L2165.76 1397.8L2103.33 1505.41C2079.7 1547.99 2068.35 1573.98 2068.35 1590.55C2068.35 1617.76 2084.4 1627.2 2141.17 1633.1V1652.02H1924.56V1633.1C1981.31 1624.84 2004 1609.47 2045.62 1550.34C2068.35 1517.23 2071.19 1512.49 2109.97 1446.28L2151.59 1372.98L2052.26 1199.17C2017.26 1137.68 2003.07 1127.03 1945.37 1119.95V1101.04H2197.93V1119.95C2151.6 1124.69 2134.54 1132.96 2134.54 1150.69C2134.54 1155.42 2137.41 1163.7 2142.12 1173.15L2156.33 1199.17L2227.27 1322.14L2283.07 1227.55C2299.16 1199.17 2307.67 1176.71 2307.67 1160.16C2307.67 1136.5 2290.65 1127.05 2238.61 1119.95V1101.04H2442.01V1119.95C2382.4 1129.41 2356.87 1149.51 2319.96 1212.18L2294.42 1254.73L2241.45 1345.79L2359.67 1552.7Z" fill="black"/>
</svg>
