<svg width="2501" height="2500" viewBox="0 0 2501 2500" fill="none" xmlns="http://www.w3.org/2000/svg">
<g clip-path="url(#clip0_47_2075)">
<path d="M336.507 8.00098H2168.52C2211.1 7.89606 2253.28 16.2044 2292.63 32.4492C2331.99 48.6942 2367.75 72.5558 2397.85 102.662C2427.96 132.768 2451.82 168.527 2468.06 207.883C2484.31 247.238 2492.62 289.416 2492.51 331.992V2168.02C2492.62 2210.6 2484.31 2252.78 2468.06 2292.13C2451.82 2331.49 2427.96 2367.24 2397.85 2397.35C2367.75 2427.45 2331.99 2451.31 2292.63 2467.56C2253.28 2483.8 2211.1 2492.11 2168.52 2492H336.507C156.794 2492 8.5 2347.47 8.5 2168V332.013L8.50684 329.911C9.65893 151.422 157.497 8.00098 336.507 8.00098Z" stroke="black" stroke-width="16"/>
<path fill-rule="evenodd" clip-rule="evenodd" d="M492.504 2224.01L476.508 2187.99H376.501V2168H468.504V2132H376.501V2112H472.499L484.499 2076H320.498V2224.01H492.504ZM692.504 2224.01V2076H636.501V2144L640.51 2160.01L628.51 2148L568.498 2076H508.499V2224.01H560.507V2139.99L572.506 2156L632.505 2224.01H692.504ZM912.509 2224.01L840.51 2076.01H776.502L704.504 2224.01H760.507L772.507 2196H840.51L852.51 2224.01H912.509ZM828.497 2163.99H788.502L804.497 2127.99L808.506 2116.01L812.502 2127.99L828.497 2163.99ZM1112.5 2176.01C1112.5 2160.01 1100.5 2144 1084.5 2140.01C1096.5 2136 1104.5 2124.01 1104.5 2112C1104.5 2080 1072.5 2076.01 1048.5 2076.01H920.5V2224.01H1044.51C1096.5 2224.01 1112.5 2200.01 1112.5 2176.01ZM1044.51 2119.99C1044.51 2127.99 1040.5 2127.99 1028.5 2127.99H976.503V2112H1028.5C1040.5 2112 1044.51 2112 1044.51 2119.99ZM1056.49 2176.01C1056.49 2184.01 1052.5 2187.99 1032.49 2187.99H976.503V2163.99H1028.5C1048.5 2163.99 1056.49 2168 1056.49 2176.01ZM1304.51 2224.01L1288.51 2187.99H1192.5V2076H1136.51V2224.01H1304.51ZM1484.5 2224.01L1468.49 2187.99H1364.5V2168H1456.51V2132H1364.5V2112H1464.5L1476.5 2076H1312.51V2224.01H1484.5ZM1692.49 2151.99C1692.49 2092.01 1652.5 2076 1604.5 2076H1500.5V2223.99H1600.49C1668.49 2224.01 1692.49 2196 1692.49 2151.99ZM1632.49 2151.99C1632.49 2180 1616.5 2187.99 1592.5 2187.99H1556.51V2111.99H1596.51C1612.5 2111.99 1632.49 2119.99 1632.49 2151.99ZM484.499 1867.99H320.498V2016H376.501V1960.01H468.504V1924H376.501V1903.99H472.499L484.499 1867.99ZM668.505 2016L652.496 1980H556.498V1867.99H504.503V2016H668.505ZM876.509 2016L804.497 1867.99H744.499L672.5 2016H728.503L740.503 1987.99H808.506L820.506 2016H876.509ZM792.511 1951.99H752.503L768.498 1919.99L772.494 1908L780.498 1919.99L792.511 1951.99ZM1080.51 1964.01C1080.51 1936 1052.51 1924.01 1004.5 1920H984.494C956.486 1920 948.495 1916.01 948.495 1908.02C948.495 1904.01 960.494 1900.01 976.503 1900.01C988.503 1900.01 996.507 1904.01 1000.5 1908.02C1004.5 1908.02 1004.5 1912.01 1004.5 1912.01L1068.51 1908.02V1900.01C1056.51 1880.01 1032.51 1864.01 976.503 1864.01C924.495 1864.01 888.496 1880.01 888.496 1912.01C888.496 1940.02 912.495 1952.01 964.503 1956.02H988.503C1012.5 1960.02 1020.51 1960.02 1020.51 1972.01C1020.51 1976.02 1008.51 1984.01 988.503 1984.01C972.494 1984.01 960.508 1980 956.499 1972.01L952.503 1968L884.514 1972.01V1976.02C892.518 2004.01 920.513 2020.01 984.507 2020.01C1052.51 2020 1080.51 2000.01 1080.51 1964.01ZM1284.5 2016V1867.99H1228.5V1920H1156.5V1867.99H1100.5V2016H1156.5V1956H1228.5V2016H1284.5ZM564.502 1808.01V1724.01C564.502 1696 552.502 1664.01 508.499 1664.01C476.495 1664.01 460.5 1676 452.495 1692.01C444.491 1672.02 424.5 1664.01 400.501 1664.01C372.506 1664.01 356.511 1680.01 348.506 1688.01V1664.01H324.507V1808.01H348.506V1716.01C356.511 1704.01 368.51 1683.99 396.505 1683.99C416.51 1683.99 432.505 1700 432.505 1724V1808H456.504V1724C456.504 1707.99 468.504 1683.99 500.495 1683.99C528.49 1683.99 536.494 1703.99 536.494 1727.99V1808H564.502V1808.01ZM760.507 1808.01V1792.01H752.503C744.499 1788.01 740.503 1784 740.503 1772.01V1712.01C740.503 1680.01 720.499 1664.01 676.496 1664.01C644.492 1664.01 620.492 1676 608.506 1692.01L620.492 1704.01C632.492 1688.01 656.491 1684 676.496 1684C704.491 1684 712.495 1692.01 712.495 1704.01C712.495 1712.01 708.499 1716.01 668.505 1720C632.505 1724.01 596.506 1732 596.506 1768C596.506 1792.01 616.51 1808.01 652.509 1808.01C676.509 1808.01 700.508 1804 716.517 1788.01C720.512 1799.99 724.521 1808.01 740.517 1808.01H760.507ZM712.495 1760C712.495 1775.99 692.491 1792.01 660.5 1792.01C636.501 1792.01 624.501 1784 624.501 1768C624.501 1744 648.501 1736 676.496 1736C696.5 1732 708.499 1727.99 716.504 1724.01C716.504 1732 716.504 1748.01 712.495 1760ZM940.504 1768L916.504 1764.01C904.504 1784 888.496 1792.01 864.496 1792.01C840.497 1792.01 812.502 1776.01 812.502 1736.01C812.502 1700.02 836.501 1684 864.496 1684C888.496 1684 908.5 1692.01 912.495 1708L940.49 1704.01C932.486 1680.01 904.491 1664.01 864.483 1664.01C816.484 1664.01 784.493 1692.01 784.493 1736.01C784.493 1784.01 820.493 1808.02 864.483 1808.02C904.504 1808.01 928.504 1796 940.504 1768ZM1064.5 1688V1664H1060.5C1032.49 1664 1016.5 1675.99 1004.5 1691.99V1664H976.503V1808H1004.5V1715.99C1012.5 1700 1028.5 1683.98 1056.49 1683.98C1056.49 1683.99 1060.5 1683.99 1064.5 1688ZM1248.5 1736C1248.5 1688 1212.5 1664 1164.5 1664C1116.5 1664 1080.51 1691.99 1080.51 1736C1080.51 1784 1116.5 1808.01 1164.5 1808.01C1212.5 1808.01 1248.5 1780 1248.5 1736ZM1220.49 1736C1220.49 1768 1200.49 1792 1164.5 1792C1136.51 1792 1108.5 1772 1108.5 1736C1108.5 1700.01 1136.51 1683.99 1164.5 1683.99C1192.5 1683.99 1220.49 1700.01 1220.49 1736ZM1528.51 1808.01V1724.01C1528.51 1696 1516.51 1664.01 1472.52 1664.01C1440.51 1664.01 1424.5 1676 1416.51 1692.01C1408.51 1672.02 1388.52 1664.01 1368.51 1664.01C1336.51 1664.01 1324.51 1680.01 1316.51 1688.01V1664.01H1288.51V1808.01H1316.51V1716.01C1320.51 1704.01 1332.5 1683.99 1360.51 1683.99C1380.51 1683.99 1396.51 1700 1396.51 1724V1808H1424.5V1724C1424.5 1707.99 1436.5 1683.99 1464.5 1683.99C1492.51 1683.99 1500.5 1703.99 1500.5 1727.99V1808H1528.51V1808.01ZM1728.49 1740.01C1728.49 1691.99 1696.49 1664 1648.5 1664C1604.5 1664 1568.5 1691.99 1568.5 1736C1568.5 1784 1600.5 1808.01 1648.5 1808.01C1688.5 1808.01 1712.5 1792.01 1724.5 1768L1700.5 1764.01C1692.49 1780 1672.5 1792.01 1648.5 1792.01C1620.49 1792.01 1596.5 1772.01 1596.5 1740.01H1728.49ZM1700.5 1724.01H1596.51C1596.51 1700.01 1624.52 1680.01 1648.52 1680.01C1676.5 1680.01 1696.5 1691.99 1700.5 1724.01ZM1912.5 1808.01V1604H1888.5V1688C1876.5 1676 1856.49 1664 1828.5 1664C1788.51 1664 1756.5 1688 1756.5 1736C1756.5 1784 1788.51 1808.01 1832.51 1808.01C1860.5 1808.01 1880.51 1796.01 1888.5 1784V1808.01H1912.5ZM1888.5 1751.99C1884.5 1772 1864.5 1792 1836.49 1792C1808.5 1792 1780.5 1775.99 1780.5 1736C1780.5 1703.99 1800.49 1680.01 1836.49 1680.01C1864.5 1680.01 1884.5 1700.01 1888.5 1720V1751.99ZM1992.5 1643.99V1615.99H1964.49V1643.99H1992.5ZM1988.49 1808.01V1664.01H1964.49V1808.01H1988.49ZM2188.49 1808.01V1792.01H2176.51C2172.5 1788.01 2168.49 1784 2168.49 1772.01V1712.01C2168.49 1680.01 2144.5 1664.01 2104.49 1664.01C2068.51 1664.01 2048.5 1676 2032.5 1692.01L2048.49 1704.01C2060.48 1688.01 2080.49 1684 2104.48 1684C2132.49 1684 2140.48 1692.01 2140.48 1704.01C2140.48 1712.01 2136.47 1716.01 2096.48 1720C2060.48 1724.01 2024.48 1732 2024.48 1768C2024.48 1792.01 2044.47 1808.01 2080.47 1808.01C2100.47 1808.01 2124.47 1804 2144.48 1788.01C2144.48 1799.99 2148.47 1808.01 2168.46 1808.01H2188.49ZM2140.49 1760C2140.49 1775.99 2120.49 1792.01 2088.49 1792.01C2064.49 1792.01 2052.49 1784 2052.49 1768C2052.49 1744 2072.49 1736 2100.5 1736C2124.5 1732 2136.48 1727.99 2140.49 1724.01V1760ZM1392.5 1903.99V1867.99H1384.5L1368.5 1896L1348.5 1867.99H1340.49V1903.99H1348.5V1879.99L1364.5 1903.99H1368.5L1384.5 1879.99V1903.99H1392.5ZM1340.49 1876V1867.99H1300.5V1876H1316.49V1904.01H1324.5V1876H1340.49ZM2260.49 1700.01C2260.49 1680.01 2248.5 1660 2224.51 1660C2200.51 1660 2188.51 1680.01 2188.51 1700.01C2188.51 1724.01 2200.51 1744 2224.51 1744C2248.5 1744 2260.49 1724.01 2260.49 1700.01ZM2256.5 1700.01C2256.5 1720 2244.5 1736 2224.49 1736C2204.49 1736 2192.49 1720 2192.49 1700.01C2192.49 1680.01 2204.47 1664.01 2224.49 1664.01C2244.5 1664 2256.5 1680.01 2256.5 1700.01ZM2244.5 1688C2244.5 1679.99 2240.5 1676 2228.5 1676H2208.51V1728.01H2216.51V1700.01H2224.52L2236.52 1728.01H2244.51L2232.52 1700.01C2240.5 1700.01 2244.5 1696 2244.5 1688ZM2236.5 1688C2236.5 1696 2232.5 1696 2228.49 1696H2216.5V1680.01H2228.49C2232.5 1680.01 2236.5 1683.99 2236.5 1688Z" fill="black"/>
<path fill-rule="evenodd" clip-rule="evenodd" d="M1108.5 964.003L872.501 1508C836.502 1576 688.496 1488.01 724.508 1416L968.513 955.999C984.508 960.008 1000.52 964.003 1020.51 967.999C1052.51 972.008 1080.51 967.999 1108.5 964.003Z" fill="#B81F25"/>
<path fill-rule="evenodd" clip-rule="evenodd" d="M1232.49 872.001L1556.5 1491.99C1584.5 1564.01 1432.49 1620 1404.5 1548L1144.5 952.004C1184.49 935.995 1216.5 908 1232.49 872.001Z" fill="#CC2229"/>
<path fill-rule="evenodd" clip-rule="evenodd" d="M940.504 944.013L444.505 1136.01C360.506 1172.01 316.503 1032.01 404.51 1000L832.506 851.997C856.506 892.005 892.505 923.996 940.504 944.013Z" fill="#A81C22"/>
<path fill-rule="evenodd" clip-rule="evenodd" d="M812.502 808.007L332.498 511.995C304.503 500.008 328.502 468.005 356.497 484L808.493 747.995L804.484 751.99C804.497 771.994 808.506 792.012 812.502 808.007Z" fill="#EFC031"/>
<path fill-rule="evenodd" clip-rule="evenodd" d="M812.502 719.999L656.505 324.007C644.505 292.003 700.509 284.012 712.495 312.007L856.492 652.009C836.501 672 820.506 692.004 812.502 719.999Z" fill="#E7AA30"/>
<path fill-rule="evenodd" clip-rule="evenodd" d="M884.5 632.005L1056.49 240.008C1068.49 212 1124.5 232.004 1112.5 259.999L984.494 600.001C948.494 603.997 912.508 616.01 884.5 632.005Z" fill="#E0922F"/>
<path fill-rule="evenodd" clip-rule="evenodd" d="M1768.5 1164C1820.51 1212 1752.51 1280.01 1696.5 1231.99L1240.5 856.005C1244.51 844.005 1248.5 828.01 1248.5 812.015C1248.5 788.015 1244.51 764.016 1232.49 744.012L1248.5 748.007L1768.5 1164Z" fill="#D04A2A"/>
<path fill-rule="evenodd" clip-rule="evenodd" d="M1232.49 743.999C1204.5 672 1132.5 636.001 1132.5 636.001L1788.5 808.006C1852.5 824.002 1824.5 912.009 1760.5 896L1248.5 748.008L1232.49 743.999Z" fill="#D5652C"/>
<path fill-rule="evenodd" clip-rule="evenodd" d="M1556.5 480.004L1132.5 636.001C1104.5 620.005 1072.5 608.006 1036.5 603.997C1028.5 603.997 1016.5 600.001 1008.51 600.001L1512.51 419.991C1560.5 400.001 1604.5 464.008 1556.5 480.004Z" fill="#DA7D2D"/>
</g>
<defs>
<clipPath id="clip0_47_2075">
<rect width="2500" height="2500" fill="white" transform="translate(0.5)"/>
</clipPath>
</defs>
</svg>
