<svg width="561" height="173" viewBox="0 0 561 173" fill="none" xmlns="http://www.w3.org/2000/svg">
<path d="M119.805 28.6377C150.329 28.6379 175.261 53.5702 175.261 84.0947C175.261 114.619 150.329 139.551 119.805 139.551C89.2802 139.551 64.3478 114.619 64.3477 84.0947C64.3477 53.5701 89.2801 28.6377 119.805 28.6377Z" stroke="black" stroke-width="9"/>
<path fill-rule="evenodd" clip-rule="evenodd" d="M81.4043 55.1268L86.12 55.8004L88.141 56.4741L127.888 101.61L140.014 102.957L135.298 95.547L98.2461 54.4531H82.078L81.4043 55.1268Z" fill="white"/>
<path fill-rule="evenodd" clip-rule="evenodd" d="M81.4043 55.1268L86.12 55.8004L88.141 56.4741L127.888 101.61L140.014 102.957L135.298 95.547L98.2461 54.4531H82.078L81.4043 55.1268Z" fill="url(#paint0_linear_47_2114)"/>
<path d="M167.636 108.347C158.878 125.862 140.689 137.988 119.131 137.988C98.2476 137.988 80.7322 126.536 71.3008 109.02C121.152 94.1997 137.994 103.631 167.636 108.347Z" fill="black"/>
<path fill-rule="evenodd" clip-rule="evenodd" d="M136.646 104.978H140.015V55.7998H136.646V104.978Z" fill="white"/>
<path fill-rule="evenodd" clip-rule="evenodd" d="M127.215 55.1266C133.278 55.1266 135.973 57.8213 137.32 61.1897L140.689 60.516C142.036 57.8213 142.71 55.8003 149.446 55.1266V53.7793H126.542L127.215 55.1266ZM70.627 106.326C103.637 97.5679 138.668 98.9152 168.309 108.347L167.636 109.02C146.078 106.999 110.374 99.5889 73.9953 111.715C72.648 110.368 71.3006 108.347 70.627 106.326Z" fill="white"/>
<path fill-rule="evenodd" clip-rule="evenodd" d="M81.4043 111.715C87.4673 111.715 90.162 109.021 91.5094 105.652L94.8777 106.326C96.2251 109.021 96.8987 111.042 103.635 111.715V113.063H81.4043V111.715Z" fill="#C3DCDA"/>
<path d="M90.8359 59.8418L94.2043 63.8839V110.367H90.8359V59.8418Z" fill="#C3DCDA"/>
<path fill-rule="evenodd" clip-rule="evenodd" d="M81.4041 111.715C88.1409 112.389 90.1619 109.694 91.5092 105.652L94.8776 106.326C96.2249 109.021 96.8986 111.042 103.635 111.715V113.063H80.7305L81.4041 111.715Z" fill="white"/>
<path d="M91.5098 60.5156L94.8781 64.5576V110.367H91.5098V60.5156Z" fill="white"/>
<path d="M198.4 115.5V92.4996C198.4 81.8996 198.2 73.3996 197.8 65.0996L198.1 64.9996C200.9 72.1996 204.7 80.0996 208.4 87.0996L223.5 115.4H234.5V51.0996H224.7V73.4996C224.7 83.2996 224.9 91.5996 225.6 100.2H225.5C222.8 93.1996 219.4 85.7996 215.6 78.6996L200.7 51.0996H188.6V115.4L198.4 115.5ZM278.3 95.5996C278.5 94.5996 278.6 92.7996 278.6 90.5996C278.6 80.3996 274.1 67.9996 260.6 67.9996C247.2 67.9996 240.2 80.0996 240.2 92.9996C240.2 107.2 248.2 116.5 261.7 116.5C267.7 116.5 272.7 115.3 276.3 113.5L274.8 105.5C271.5 106.7 268.1 107.6 263.2 107.6C256.4 107.6 250.6 104 250.3 95.5996H278.3ZM250.4 87.3996C250.8 82.5996 253.6 76.0996 260.1 76.0996C267.1 76.0996 268.8 83.1996 268.8 87.3996H250.4ZM285.5 60.3996V69.0996H279.6V77.8996H285.5V99.6996C285.5 105.8 286.5 110.1 288.8 112.8C290.8 115.2 293.9 116.6 297.9 116.6C301.2 116.6 304 116 305.5 115.4L305.3 106.5C304.1 106.9 303.1 107 301.2 107C297.2 107 295.8 104.1 295.8 98.3996V77.8996H305.8V69.0996H295.8V57.1996L285.5 60.3996ZM308.8 113.2C311.9 115.1 316.4 116.4 321.5 116.4C332.6 116.4 338.5 110.3 338.5 101.8C338.4 94.8996 335 90.5996 327.4 87.6996C322.1 85.4996 320.1 84.1996 320.1 81.1996C320.1 78.2996 322.2 76.1996 325.9 76.1996C329.6 76.1996 333 77.6996 334.7 78.8996L336.8 70.6996C334.3 69.1996 330.3 67.8996 325.7 67.8996C316 67.8996 309.9 74.1996 309.9 82.3996C309.9 87.8996 313.2 92.8996 321.4 95.8996C326.5 97.9996 328.3 99.4996 328.3 102.7C328.3 105.7 326.2 107.9 321.6 107.9C317.8 107.9 313.3 106.1 311 104.5L308.8 113.2ZM374 105.4C371.9 106.4 369.3 107.2 365.7 107.2C358.5 107.2 352.9 101.8 352.9 92.1996C352.8 83.6996 357.6 77.0996 365.7 77.0996C369.5 77.0996 372 77.9996 373.7 78.8996L375.6 69.9996C373.2 68.8996 369.3 67.8996 365.4 67.8996C350.7 67.8996 342.2 78.6996 342.2 92.5996C342.2 107 350.7 116.3 363.7 116.3C368.9 116.3 373.3 115.1 375.5 113.9L374 105.4ZM414.2 87.6996C414.2 77.4996 410.3 68.0996 397 68.0996C390.4 68.0996 385 70.0996 381.9 72.1996L384 79.7996C386.8 77.7996 391.1 76.3996 395.2 76.3996C402.6 76.3996 403.7 81.4996 403.7 84.4996V85.2996C388.3 85.1996 378.9 91.1996 378.9 102.8C378.9 109.9 383.6 116.6 392 116.6C397.5 116.6 401.9 114 404.3 110.4H404.6L405.4 115.5H414.9C414.4 112.6 414.2 108.5 414.2 104.3V87.6996ZM403.9 99.1996C403.9 100.1 403.9 100.9 403.6 101.8C402.6 105.1 399.6 108.2 395.3 108.2C392 108.2 389.3 106.1 389.3 101.5C389.3 94.3996 396.4 92.6996 403.9 92.7996V99.1996ZM420.1 134.4H430.6V110.4H430.8C432.9 114.1 437.3 116.6 442.5 116.6C452 116.6 461.5 108.5 461.5 91.6996C461.5 77.1996 453.5 68.0996 443.9 68.0996C437.6 68.0996 432.7 71.0996 429.6 76.2996H429.5L429 69.0996H419.7C419.9 73.4996 420 78.3996 420 84.4996L420.1 134.4ZM430.6 88.8996C430.6 87.8996 430.8 86.8996 430.9 85.8996C432 80.7996 436 77.1996 440.4 77.1996C447.2 77.1996 450.8 83.8996 450.8 92.0996C450.8 101.3 446.9 107.5 440.2 107.5C435.7 107.5 432 104.1 430.9 99.2996C430.7 98.2996 430.6 97.1996 430.6 96.0996V88.8996ZM503.2 95.5996C503.4 94.5996 503.5 92.7996 503.5 90.5996C503.5 80.3996 499 67.9996 485.5 67.9996C472.1 67.9996 465.1 80.0996 465.1 92.9996C465.1 107.2 473.1 116.5 486.6 116.5C492.6 116.5 497.6 115.3 501.2 113.5L499.7 105.5C496.4 106.7 493 107.6 488.1 107.6C481.3 107.6 475.5 104 475.2 95.5996H503.2ZM475.2 87.3996C475.6 82.5996 478.4 76.0996 484.9 76.0996C491.9 76.0996 493.6 83.1996 493.6 87.3996H475.2Z" fill="black"/>
<defs>
<linearGradient id="paint0_linear_47_2114" x1="110.793" y1="78.5639" x2="120.827" y2="68.9337" gradientUnits="userSpaceOnUse">
<stop stop-color="#C3DCDA"/>
<stop offset="1" stop-color="#C3DCDA" stop-opacity="0"/>
</linearGradient>
</defs>
</svg>
