<svg width="1216" height="540" viewBox="0 0 1216 540" fill="none" xmlns="http://www.w3.org/2000/svg">
<path d="M251.414 91.4371L253.087 121.532C272.313 87.6727 307.414 87.2681 317.452 87.2681C372.205 87.2681 405.221 128.224 405.221 192.583C405.221 252.355 374.289 305.42 313.27 305.42C275.234 305.42 259.772 285.364 254.341 278.26V383.589H191.23V91.4371H251.414ZM342.528 195.093C342.528 170.01 336.261 126.963 299.899 126.963C279.835 126.963 251.414 142 251.414 198.837C251.414 211.378 251.832 264.882 297.389 264.882C326.647 264.889 342.528 236.879 342.528 195.093ZM565.275 302.499C563.176 289.547 563.176 279.933 563.176 273.659C539.767 307.519 511.77 307.519 500.065 307.519C469.559 307.519 455.77 298.749 447.404 290.802C434.863 278.26 429.014 261.125 429.014 244.401C429.014 227.684 434.863 196.759 473.735 178.787C499.647 167.082 536.846 167.082 557.327 167.082C557.327 153.293 556.902 146.608 554.406 139.079C548.969 123.617 532.67 121.525 526.828 121.525C518.044 121.525 508.849 125.29 503.412 133.23C498.811 140.334 498.811 147.026 498.811 152.038H438.216C438.634 140.752 439.889 118.179 462.044 102.298C481.264 88.5092 505.921 85.1768 525.991 85.1768C543.545 85.1768 580.325 88.0978 601.218 112.344C615.44 129.479 615.858 154.548 615.858 164.168L616.276 249.016C616.276 266.981 617.531 284.953 621.282 302.506L565.275 302.499ZM489.211 237.304C489.211 251.518 498.817 267.406 519.299 267.406C530.585 267.406 539.767 261.961 545.636 255.276C556.505 241.905 557.334 225.606 557.334 203.033C517.633 199.687 489.211 212.221 489.211 237.304ZM658.816 143.268C658.816 133.237 657.143 102.73 655.888 90.6006H713.98L715.249 131.139C723.182 113.18 736.978 87.6727 787.13 90.1823V145.771C724.43 139.915 720.679 172.102 720.679 198.432V302.499H658.823L658.816 143.268ZM929.897 166.246C929.061 158.724 926.558 127.381 902.73 127.381C873.465 127.381 870.132 171.683 870.132 194.668C870.132 206.373 871.394 243.983 885.595 259.445C891.444 265.719 897.725 266.556 902.312 266.556C908.997 266.556 928.224 263.628 930.734 226.004H991.746C990.917 242.323 988.825 267.81 964.586 288.278C949.542 301.251 930.727 307.93 904.403 307.93C876.4 307.93 851.728 301.656 832.515 279.927C814.125 258.622 805.774 230.612 805.774 196.752C805.774 100.625 876.406 87.2544 904.41 87.2544C943.693 87.2544 990.087 108.977 990.512 166.239H929.897V166.246ZM1008.04 90.6006C1016.88 90.6006 1024.25 97.5672 1024.25 106.68C1024.25 115.971 1016.88 122.917 1008.04 122.917C999.2 122.917 991.753 115.971 991.753 106.68C991.753 97.5672 999.2 90.6006 1008.04 90.6006ZM1008.04 120.558C1015.55 120.558 1021.33 114.579 1021.33 106.68C1021.33 98.9386 1015.55 92.9799 1008.04 92.9799C1000.47 92.9799 994.688 98.9386 994.688 106.68C994.681 114.579 1000.46 120.558 1008.04 120.558ZM1001.74 97.3135H1009.05C1013.54 97.3135 1015.66 99.0894 1015.66 102.717C1015.66 106.125 1013.5 107.551 1010.69 107.839L1016.08 116.211H1012.92L1007.79 108.072H1004.65V116.211H1001.74L1001.74 97.3135ZM1004.65 105.672H1007.72C1010.34 105.672 1012.71 105.555 1012.71 102.593C1012.71 100.077 1010.56 99.6585 1008.56 99.6585H1004.66L1004.65 105.672ZM467.262 436.271L461.379 419.89H440.753L434.616 436.374C434.225 437.382 433.999 437.464 432.984 437.464H429.618C428.987 437.464 428.987 436.758 429.227 436.12L449.235 384.364C449.386 383.898 449.777 383.589 450.25 383.589H453.068C453.534 383.589 453.781 383.74 454.008 384.289L473.515 436.202C473.831 437.073 473.673 437.471 472.734 437.471H469.058C467.879 437.471 467.653 437.388 467.262 436.271ZM459.952 415.823L451.347 391.523L442.241 415.823H459.952ZM500.388 436.202C499.901 437.073 499.277 437.471 498.331 437.471H495.286C494.107 437.471 493.963 437.004 494.58 435.9L510.803 409.474L496.068 384.858C495.752 384.378 495.821 383.596 496.609 383.596H500.299C501.025 383.596 501.567 383.905 501.882 384.467L513.813 404.544L525.306 384.631C525.696 383.98 526.183 383.603 526.979 383.603H530.339C531.209 383.603 531.353 384.22 530.969 384.865L516.392 408.85L532.375 435.434C532.924 436.394 533.239 437.484 531.827 437.484H528.467C527.452 437.484 526.896 437.087 526.259 436.065L513.409 413.876L500.388 436.202ZM566.344 418.731H559.432H541.488C541.488 427.034 545.629 433.939 554.653 433.939C558.027 433.939 562.1 433.151 564.445 432.143C565.083 431.827 565.645 431.903 565.796 432.685L566.186 434.481C566.344 435.194 566.269 435.66 565.473 435.976C562.326 437.478 557.478 438.177 554.187 438.177C542.187 438.177 536.29 430.1 536.29 418.498C536.29 407.588 542.976 398.901 553.954 398.901C563.183 398.901 568.538 405.95 568.538 415.117V416.605C568.538 418.34 568.298 418.731 566.344 418.731ZM553.789 402.727C546.411 402.727 542.338 408.685 541.639 415.193H563.423C563.505 414.651 563.505 414.178 563.505 413.622C563.505 407.657 560.365 402.727 553.789 402.727ZM593.326 399.12C593.888 399.195 594.039 399.586 593.971 399.977L593.566 402.569C593.498 403.035 593.175 403.275 592.791 403.193C592.003 403.042 591.132 402.884 590.247 402.884C587.436 402.884 584.316 405.01 582.28 408.137V436.051C582.28 437.004 581.889 437.471 581.018 437.471H578.515C577.624 437.471 577.24 437.004 577.24 436.051V401.074C577.24 400.135 577.624 399.669 578.515 399.669H580.943C581.8 399.669 582.19 400.135 582.19 401.074L582.28 403.817C583.843 401.465 587.127 398.887 591.043 398.887C591.612 398.894 592.551 398.962 593.326 399.12ZM614.274 438.17C602.514 438.17 597.337 429.53 597.337 418.491C597.337 407.581 603.454 398.894 614.74 398.894C626.514 398.894 631.855 407.204 631.855 418.491C631.855 429.462 625.643 438.17 614.274 438.17ZM614.74 402.727C605.435 402.727 602.514 411.051 602.514 418.34C602.514 426.013 605.195 434.406 614.356 434.406C623.462 434.406 626.671 426.493 626.671 418.655C626.664 410.893 623.688 402.727 614.74 402.727ZM640.831 436.764C640.522 437.231 640.124 437.471 639.343 437.471H635.825C635.277 437.471 635.187 436.929 635.592 436.38L648.531 418.018L637.162 400.759C636.84 400.293 636.922 399.669 637.697 399.669H641.537C642.319 399.669 642.806 399.977 643.121 400.519L651.582 413.622L660.455 400.615C660.915 399.977 661.456 399.669 662.094 399.669H665.214C665.845 399.669 666.229 400.135 665.762 400.759L654.003 417.318L666.62 436.12C667.024 436.689 667.168 437.464 666.229 437.464H662.094C661.305 437.464 660.915 437.066 660.524 436.524L650.945 421.686L640.831 436.764ZM730.265 432.918C730.663 433.782 730.423 434.248 729.49 434.714C724.869 437.08 719.836 438.177 714.68 438.177C698.285 438.177 690.824 425.238 690.824 410.496C690.824 396.22 699.382 382.732 715.057 382.732C720.055 382.732 724.944 383.747 729.168 386.346C730.039 386.805 730.19 387.285 729.806 388.074L728.777 389.939C728.393 390.645 727.92 390.72 727.296 390.343C723.772 388.142 719.754 387.052 715.454 387.052C710.14 387.052 705.327 389.397 702.118 393.319C698.285 398.037 696.817 404.228 696.817 410.091C696.817 421.624 701.885 433.939 715.379 433.939C719.287 433.939 724.403 432.842 728.092 430.895C728.709 430.573 729.257 430.497 729.573 431.279L730.265 432.918ZM752.633 438.17C740.873 438.17 735.703 429.53 735.703 418.491C735.703 407.581 741.812 398.894 753.099 398.894C764.872 398.894 770.179 407.204 770.179 418.491C770.179 429.462 764.001 438.17 752.633 438.17ZM753.099 402.727C743.767 402.727 740.873 411.051 740.873 418.34C740.873 426.013 743.527 434.406 752.715 434.406C761.814 434.406 765.023 426.493 765.023 418.655C765.016 410.893 762.047 402.727 753.099 402.727ZM831.034 436.051C831.034 437.004 830.637 437.471 829.793 437.471H827.29C826.433 437.471 826.029 437.004 826.029 436.051V413.698C826.029 407.204 824.205 402.795 817.005 402.795C813.645 402.795 809.627 404.455 806.651 406.649C807.2 408.521 807.426 410.571 807.426 413.005V436.051C807.426 437.004 807.035 437.471 806.178 437.471H803.675C802.818 437.471 802.42 437.004 802.42 436.051V413.698C802.42 407.581 800.939 402.795 793.863 402.795C789.948 402.795 785.882 405.003 782.81 407.821V436.044C782.81 436.998 782.405 437.464 781.548 437.464H779.045C778.181 437.464 777.797 436.998 777.797 436.044V401.074C777.797 400.135 778.181 399.669 779.045 399.669H781.473C782.343 399.669 782.734 400.135 782.734 401.074L782.817 403.742C786.197 400.615 790.668 398.894 794.967 398.894C798.985 398.894 803.127 400.142 805.321 403.659C808.914 400.519 813.803 398.894 818.253 398.894C827.441 398.894 831.034 404.304 831.034 413.005V436.051ZM855.507 438.17C851.523 438.17 847.189 436.531 844.68 433.309V453.063C844.68 454.078 844.056 454.325 843.198 454.325H840.922C840.065 454.325 839.674 453.859 839.674 452.919V408.37V400.841C839.674 399.902 840.065 399.669 840.922 399.669H842.876C843.973 399.669 844.446 399.977 844.446 401.074V404.139C847.114 400.923 851.989 398.887 856.528 398.887C865.717 398.887 872.436 405.387 872.436 418.333C872.436 428.92 866.649 438.17 855.507 438.17ZM855.753 402.795C851.605 402.795 846.874 405.319 844.686 408.61V427.823C846.49 431.43 850.906 434.255 855.205 434.255C863.029 434.255 867.287 427.748 867.287 418.347C867.28 407.657 862.391 402.795 855.753 402.795ZM914.462 436.696C914.462 437.313 914.222 437.471 913.516 437.471H910.547C907.496 437.471 906.159 434.865 906.159 431.827V430.813C904.588 434.646 899.247 438.177 894.077 438.177C883.407 438.177 878.8 428.92 878.8 419.204C878.8 406.34 886.232 398.894 895.331 398.894C899.089 398.894 903.498 400.457 906.076 403.824L906.152 400.93C906.152 399.977 906.693 399.669 907.551 399.669H909.909C910.76 399.669 911.089 400.135 911.089 401.074V428.612C911.089 430.806 911.089 432.294 911.411 432.918C911.72 433.624 912.254 433.864 913.036 433.864H913.585C914.209 433.864 914.449 434.008 914.449 434.714V436.696H914.462ZM906.09 409.385C904.053 405.161 899.795 402.795 895.661 402.795C888.9 402.795 883.97 408.836 883.97 418.888C883.97 428.831 888.9 433.933 894.474 433.933C900.186 433.933 904.527 429.222 906.09 424.449V409.385ZM952.696 436.051C952.696 437.004 952.306 437.471 951.448 437.471H948.946C948.089 437.471 947.684 437.004 947.684 436.051V413.698C947.684 407.431 946.196 402.795 938.969 402.795C935.067 402.795 930.206 405.086 927.202 407.821V436.044C927.202 436.998 926.798 437.464 925.954 437.464H923.452C922.581 437.464 922.183 436.998 922.183 436.044V401.074C922.183 400.135 922.581 399.669 923.452 399.669H925.872C926.736 399.669 927.127 400.135 927.127 401.074L927.209 403.742C930.837 400.519 935.849 398.894 940.306 398.894C949.48 398.894 952.696 404.462 952.696 413.005V436.051ZM991.609 400.93L976.325 442.168C972.883 451.349 969.297 454.716 961.432 454.716C960.493 454.716 959.32 454.558 958.312 454.4C957.839 454.325 957.53 454.085 957.53 453.536V453.31L957.921 450.801C957.997 450.101 958.237 449.943 958.785 449.943H959.018C959.8 450.019 961.048 450.177 961.912 450.177C965.82 450.177 968.748 448.442 970.469 444.142L972.89 438.177L959.025 400.766C958.874 400.299 958.95 399.675 959.663 399.675H963.325C964.017 399.675 964.415 400.073 964.579 400.526L975.64 431.903L986.542 400.526C986.782 399.909 987.008 399.675 987.79 399.675H990.841C991.5 399.675 991.767 399.833 991.767 400.299C991.753 400.45 991.685 400.697 991.609 400.93Z" fill="#215469"/>
</svg>
