<svg width="1201" height="424" viewBox="0 0 1201 424" fill="none" xmlns="http://www.w3.org/2000/svg">
<path d="M284.159 104.711L225.658 163.268H284.159V104.711ZM284.159 104.711V120.743M225.522 96.0977V317.904M284.159 221.812L225.658 163.256M284.159 221.812V305.76L225.658 247.203M284.159 221.812L225.652 163.256M284.159 221.812L284.153 246.864H309.26V163.256H225.652M225.658 163.256V247.203M225.658 163.256L167.15 221.812M225.658 247.203L167.15 305.76V221.812M167.15 221.812L167.144 246.864H142.043V163.256H225.652M167.15 221.812L225.652 163.256M225.652 163.268L167.144 104.711V163.268H225.652Z" stroke="#20808D" stroke-width="6.16128" stroke-miterlimit="10"/>
<path d="M480.666 176.365C484.32 169.533 489.427 164.271 496.014 160.568C502.588 156.877 510.302 155.029 519.149 155.029C527.997 155.029 535.323 156.846 541.453 160.488C547.59 164.129 552.18 168.953 555.218 174.961C558.255 180.974 559.777 187.56 559.777 194.72V204.64H490.949C491.504 213.241 494.406 220.08 499.655 225.15C504.905 230.227 511.953 232.76 520.807 232.76C527.991 232.76 533.499 231.299 537.307 228.379C541.127 225.458 543.912 221.411 545.686 216.223H561.447C559.346 224.269 555.064 231.25 548.594 237.146C542.131 243.049 532.864 245.994 520.813 245.994C511.744 245.994 503.752 244.146 496.839 240.455C489.933 236.764 484.591 231.497 480.832 224.657C477.074 217.818 475.195 209.772 475.195 200.505C475.195 191.239 477.019 183.198 480.672 176.359L480.666 176.365ZM543.197 192.237C543.197 184.739 541.262 178.873 537.393 174.622C533.524 170.377 527.443 168.257 519.143 168.257C511.405 168.257 505.071 170.321 500.154 174.455C495.231 178.59 492.218 184.523 491.116 192.237H543.197ZM580.454 157.506V171.233C580.454 172.009 580.842 172.391 581.619 172.391C582.062 172.391 582.389 172.28 582.617 172.059C582.845 171.837 583.06 171.399 583.276 170.74C586.147 161.702 593.282 157.179 604.674 157.179H611.969V172.059H602.512C595.1 172.059 589.573 173.821 585.919 177.351C582.266 180.882 580.442 186.667 580.442 194.72V243.511H565.513V157.5H580.454V157.506ZM699.626 225.397C695.701 232.285 690.612 237.442 684.364 240.856C678.117 244.269 671.395 245.982 664.211 245.982C650.058 245.982 640.102 240.363 634.353 229.112C633.909 228.237 633.355 227.794 632.696 227.794C632.036 227.794 631.698 228.126 631.698 228.786V274.927H616.769V157.512H631.698V172.231C631.698 172.89 632.03 173.223 632.696 173.223C633.361 173.223 633.909 172.78 634.353 171.905C640.102 160.654 650.058 155.035 664.211 155.035C671.395 155.035 678.117 156.748 684.364 160.161C690.612 163.575 695.695 168.732 699.626 175.626C703.55 182.514 705.516 190.82 705.516 200.511C705.516 210.203 703.55 218.502 699.626 225.397ZM682.374 176.772C676.897 171.091 669.682 168.251 660.73 168.251C651.777 168.251 644.556 171.091 639.085 176.772C633.608 182.453 631.599 190.364 631.599 200.505C631.599 210.647 633.608 218.564 639.085 224.239C644.562 229.919 651.777 232.76 660.73 232.76C669.682 232.76 676.903 229.925 682.374 224.239C687.851 218.558 690.587 210.647 690.587 200.505C690.587 190.364 687.851 182.453 682.374 176.772ZM727.179 124.426V243.505H712.25V124.438H727.179V124.426ZM739.471 176.359C743.118 169.526 748.232 164.265 754.818 160.562C761.393 156.871 769.106 155.023 777.948 155.023C786.789 155.023 794.127 156.84 800.258 160.482C806.395 164.123 810.985 168.947 814.022 174.954C817.066 180.968 818.582 187.554 818.582 194.714V204.633H749.754C750.308 213.234 753.21 220.074 758.46 225.144C763.709 230.221 770.758 232.753 779.611 232.753C786.796 232.753 792.297 231.293 796.111 228.373C799.931 225.452 802.716 221.404 804.491 216.217H820.251C818.15 224.263 813.862 231.244 807.399 237.14C800.936 243.043 791.669 245.988 779.618 245.988C770.548 245.988 762.557 244.139 755.644 240.449C748.737 236.758 743.395 231.49 739.637 224.651C735.879 217.812 734 209.766 734 200.499C734 191.233 735.823 183.192 739.477 176.353H739.471V176.359ZM802.002 192.231C802.002 184.732 800.067 178.867 796.198 174.616C792.328 170.37 786.247 168.251 777.948 168.251C770.215 168.251 763.876 170.315 758.959 174.449C754.036 178.583 751.029 184.517 749.92 192.231H802.002ZM811.94 240.196L846.104 198.016L818.076 160.808V157.5H834.496L857.89 189.581L883.102 157.5H899.849V160.974L867.675 200.505L897.366 240.196V243.505H881.279L855.9 208.94L828.705 243.505H811.952V240.196H811.94ZM921.524 129.509V148.122H904.088V129.509H921.524ZM920.618 243.511H905.684V157.506H920.618V243.511ZM925.326 157.506H941.567V134.352H956.502V157.506H973.593L977.789 170.112H956.502V211.257C956.502 216.876 956.36 221.041 956.083 223.746C955.806 226.45 955.67 228.077 955.67 228.625C955.67 229.402 955.886 230.005 956.329 230.443C956.773 230.887 957.377 231.102 958.159 231.102C958.708 231.102 960.34 230.967 963.051 230.689C965.756 230.412 969.933 230.277 975.577 230.277H981.381V243.505H969.773C960.26 243.505 953.181 241.194 948.541 236.555C943.902 231.922 941.573 224.873 941.573 215.385V170.106H925.338V157.5H925.326V157.506ZM978.091 157.506H993.309L1018.02 229.66C1018.36 230.548 1018.88 231.712 1020.58 231.712C1022.27 231.712 1022.8 230.542 1023.13 229.66L1047.84 157.506H1062.04V160.814L1031.12 253.597C1028.47 261.539 1024.74 267.078 1019.93 270.22C1015.12 273.362 1009.53 274.934 1000.23 274.934H984.314V261.705H996.427C1000.3 261.705 1003.44 261.841 1005.88 262.118C1008.31 262.395 1009.86 262.531 1010.52 262.531C1012.4 262.531 1013.67 261.705 1014.34 260.054L1018.99 247.485C1019.54 246.167 1019.59 245.175 1019.16 244.503C1018.93 244.059 1018.66 243.782 1018.33 243.677C1018 243.566 1017.5 243.511 1016.84 243.511H1006.72L978.103 157.512H978.091V157.506ZM465.707 225.539C461.782 232.427 456.693 237.584 450.445 240.997C444.197 244.411 437.476 246.123 430.291 246.123C416.139 246.123 406.182 240.504 400.434 229.254C399.99 228.379 399.436 227.935 398.777 227.935C398.117 227.935 397.778 228.268 397.778 228.927V275.069H382.85V157.654H397.778V172.373C397.778 173.032 398.111 173.365 398.777 173.365C399.442 173.365 399.99 172.921 400.434 172.046C406.176 160.796 416.139 155.177 430.291 155.177C437.476 155.177 444.197 156.89 450.445 160.303C456.693 163.716 461.776 168.873 465.707 175.762C469.631 182.65 471.597 190.955 471.597 200.653C471.597 210.351 469.631 218.65 465.707 225.539ZM448.455 176.914C442.978 171.233 435.763 168.393 426.81 168.393C417.858 168.393 410.637 171.233 405.166 176.914C399.688 182.594 397.68 190.506 397.68 200.647C397.68 210.788 399.688 218.706 405.166 224.38C410.643 230.061 417.858 232.901 426.81 232.901C435.763 232.901 442.984 230.067 448.455 224.38C453.932 218.7 456.668 210.788 456.668 200.647C456.668 190.506 453.932 182.594 448.455 176.914Z" fill="#13343B"/>
</svg>
