<svg width="1014" height="227" viewBox="0 0 1014 227" fill="none" xmlns="http://www.w3.org/2000/svg">
<g clip-path="url(#clip0_47_2298)">
<path fill-rule="evenodd" clip-rule="evenodd" d="M105.604 84.5864C109.914 58.8372 108.562 10.704 108.562 0.277339H96.6561C96.6561 20.6186 95.9121 60.5598 77.0604 77.4291C58.206 94.2957 20.9979 96.2814 0.65625 96.2814V108.19C11.1562 108.19 60.0625 109.406 85.7329 104.917C93.927 103.475 102.645 99.6813 105.604 84.5864Z" fill="white"/>
<path fill-rule="evenodd" clip-rule="evenodd" d="M121.627 84.5864C117.316 58.8372 118.67 10.704 118.67 0.277339H130.576C130.576 20.6186 131.32 60.5598 150.173 77.4291C169.024 94.2957 206.235 96.2814 226.576 96.2814V108.19C216.074 108.19 167.171 109.406 141.498 104.917C133.304 103.475 124.585 99.6813 121.627 84.5864Z" fill="white"/>
<path fill-rule="evenodd" clip-rule="evenodd" d="M105.604 141.901C109.914 167.651 108.562 215.784 108.562 226.207H96.6561C96.6561 205.868 95.9121 165.928 77.0604 149.059C58.206 132.193 20.9979 130.207 0.65625 130.207V118.299C11.1562 118.299 60.0625 117.08 85.7329 121.572C93.927 123.012 102.645 126.807 105.604 141.901Z" fill="white"/>
<path fill-rule="evenodd" clip-rule="evenodd" d="M121.627 141.901C117.316 167.651 118.67 215.784 118.67 226.207H130.576C130.576 205.868 131.32 165.928 150.173 149.059C169.024 132.193 206.235 130.207 226.576 130.207V118.299C216.074 118.299 167.171 117.08 141.498 121.572C133.304 123.012 124.585 126.807 121.627 141.901Z" fill="white"/>
<path fill-rule="evenodd" clip-rule="evenodd" d="M564.355 54.4568V172.035H659.609V147.725H581.715V125.4H659.609V101.091H581.715V78.7661H659.609V54.4568H564.355Z" fill="white"/>
<path fill-rule="evenodd" clip-rule="evenodd" d="M336.51 54.4707C316.943 54.4707 301.079 70.3373 301.079 89.9053C301.079 109.473 316.943 125.335 336.51 125.335L403.239 125.437C409.439 125.437 414.464 130.339 414.464 136.539C414.464 142.739 409.439 147.764 403.239 147.764H297.566V172.012L390.091 171.972C409.66 171.972 425.522 156.108 425.522 136.539C425.522 116.97 409.66 101.233 390.091 101.233L323.364 101.132C317.164 101.132 312.137 96.1026 312.137 89.9053C312.137 83.7026 317.164 78.6786 323.364 78.6786L437.966 78.6146V172.012H455.331V78.6786H531.236C537.433 78.6786 542.462 83.7026 542.462 89.9053C542.462 96.1026 537.433 101.132 531.236 101.132L472.199 101.191V125.335H518.089C537.657 125.335 553.518 109.473 553.518 89.9053C553.518 70.3373 537.657 54.4707 518.089 54.4707H336.51Z" fill="white"/>
<path fill-rule="evenodd" clip-rule="evenodd" d="M949.321 101.091C938.655 100.841 935.679 99.598 933.945 94.3927L918.319 54.4568H902.441L926.255 114.981C930.223 124.902 942.623 125.4 949.321 125.4V172.035H966.687V125.4C973.385 125.4 985.785 124.902 989.753 114.981L1013.57 54.4568H997.694L982.068 94.3927C980.329 99.598 977.353 100.841 966.687 101.091H949.321Z" fill="white"/>
<path fill-rule="evenodd" clip-rule="evenodd" d="M680.738 54.4568V172.035H698.104V78.7021H774.007C780.205 78.7021 785.234 83.7261 785.234 89.9287C785.234 96.126 780.205 101.155 774.007 101.155L717.448 101.214V125.358L736.797 125.4L779.463 172.035H805.015V147.725H779.714C779.714 147.725 759.869 125.319 759.618 125.358H760.861C780.429 125.358 796.29 109.494 796.29 89.9287C796.29 85.9821 795.645 82.1901 794.455 78.6434L869.261 78.7021C875.458 78.7021 880.487 83.7261 880.487 89.9287C880.487 96.126 875.458 101.155 869.261 101.155L812.706 101.214V125.358L832.05 125.4L874.717 172.035H900.268V147.725H874.967C874.967 147.725 855.122 125.319 854.877 125.358H856.114C875.682 125.358 891.543 109.494 891.543 89.9287C891.543 70.3608 875.682 54.4941 856.114 54.4941L680.738 54.4568Z" fill="white"/>
</g>
<defs>
<clipPath id="clip0_47_2298">
<rect width="1012.92" height="225.927" fill="white" transform="translate(0.65625 0.277344)"/>
</clipPath>
</defs>
</svg>
