<svg width="1201" height="800" viewBox="0 0 1201 800" fill="none" xmlns="http://www.w3.org/2000/svg">
<path d="M657.226 173.147L643.034 229.513C663.137 189.703 695.065 159.746 731.726 133.334C704.921 164.474 680.483 195.617 665.504 226.757C690.732 191.279 724.632 171.571 762.866 158.563C712.016 203.895 671.654 252.54 640.907 301.416L616.469 290.774C620.798 251.752 635.544 211.78 657.226 173.147Z" fill="#ABCD03"/>
<path d="M638.49 299.014L655.254 307.566C653.678 318.6 656.042 343.044 667.076 349.347C715.958 379.699 762.074 412.811 780.209 445.922C844.856 562.602 734.877 670.606 639.878 660.357C691.517 622.12 706.496 543.68 687.182 458.139C679.299 424.633 667.076 394.281 645.394 359.986C636.002 343.153 639.281 322.274 638.49 299.014Z" fill="#7D4698"/>
<path d="M630.421 296.134L665.108 300.864C654.859 334.764 685.214 358.414 695.067 363.935C717.142 376.156 738.428 388.769 755.379 404.141C771.169 418.534 783.779 436.067 792.399 455.617C801.02 475.166 805.462 496.301 805.441 517.666C805.441 560.631 785.731 602.021 752.62 629.613C721.48 655.63 678.515 666.667 636.73 666.667C610.713 666.667 587.456 665.487 562.23 657.206C504.68 637.891 461.713 588.62 458.165 529.489C455.011 483.369 465.26 448.286 501.133 411.628C519.657 392.313 557.107 370.239 582.731 352.5C595.347 343.827 608.748 319.386 583.123 273.269L588.249 269.326L626.224 294.76L594.163 281.547C596.923 285.489 604.413 303.228 605.991 308.351C609.539 322.936 607.963 337.13 604.808 343.434C588.648 372.606 561.055 380.488 540.952 397.044C505.474 426.212 466.844 449.47 471.18 529.489C473.151 568.906 503.898 616.997 550.015 639.467C576.032 652.083 605.991 657.206 636.343 658.782C663.541 659.965 715.574 643.802 743.955 620.152C774.307 594.926 791.258 556.689 791.258 517.666C791.258 478.246 775.49 440.799 745.926 414.387C728.975 399.015 700.99 380.488 683.646 370.631C666.303 360.778 644.621 333.185 651.716 306.775L630.421 296.134Z" fill="black"/>
<path d="M619.779 354.473C616.232 372.607 612.289 405.323 596.521 417.543C589.819 422.271 583.118 427.005 576.023 431.732C547.642 451.05 519.259 469.179 506.253 515.694C503.494 525.55 505.861 536.192 508.228 546.046C515.322 574.427 535.425 605.174 551.193 623.308C551.193 624.096 554.347 626.068 554.347 626.856C567.356 642.231 571.298 646.566 620.57 657.6L619.386 663.122C589.822 655.239 565.384 648.145 550.009 630.403C550.009 630.01 547.25 627.248 547.25 627.248C530.694 608.326 510.589 576.793 503.102 547.229C500.342 535.401 497.978 526.338 501.13 514.115C514.531 466.027 543.703 447.105 573.267 427.002C579.969 422.667 587.851 418.721 594.158 413.598C606.375 404.535 613.074 376.939 619.779 354.473Z" fill="black"/>
<path d="M632.383 429.367C632.779 449.865 630.778 460.146 635.902 474.734C639.053 483.404 649.704 495.232 652.858 506.664C657.194 522.039 661.916 538.988 661.517 549.237C661.517 561.065 660.778 583.127 655.655 606.78C651.747 626.326 642.745 643.095 627.604 652.6C612.096 649.408 593.886 643.955 583.138 634.742C562.247 616.611 543.743 586.291 541.376 559.878C539.408 538.203 559.482 506.229 587.467 490.068C611.117 476.272 616.618 460.548 621.742 435.319C614.647 457.393 607.983 475.9 585.121 487.722C552.009 505.068 535.021 534.182 536.597 561.775C538.96 597.247 553.167 621.29 581.152 640.605C592.977 648.882 615.068 657.631 628.865 659.997V658.193C639.328 656.234 652.876 639.049 659.624 615.8C665.538 594.909 667.867 568.171 667.469 551.22C667.073 541.366 662.727 520.025 654.841 500.71C650.506 490.068 643.847 479.43 639.509 471.94C634.785 464.444 634.75 448.287 632.383 429.367Z" fill="black"/>
<path d="M630.039 506.664C630.431 520.46 635.973 538.136 638.337 556.27C640.311 569.674 639.454 583.139 639.058 594.967C638.668 608.656 634.108 633.187 627.874 645.115C621.995 642.42 619.697 639.343 615.876 634.381C611.148 627.68 607.938 620.978 604.784 613.095C602.417 607.181 599.655 600.413 598.469 592.531C596.893 580.706 597.334 562.205 610.735 543.282C620.984 528.302 623.334 527.165 626.881 509.822C622.148 525.194 618.618 526.761 607.578 539.767C595.36 553.958 593.328 574.861 593.328 591.809C593.328 598.906 596.157 606.78 598.919 614.267C602.071 622.152 604.778 630.003 609.113 635.914C615.63 645.499 623.972 650.951 628.053 651.97C628.082 651.976 628.116 651.965 628.142 651.97C628.229 651.991 628.33 652.042 628.414 652.057V651.61C636.062 643.081 640.666 634.609 642.213 626.083C644.184 615.834 644.637 605.562 645.821 593.342C647.004 583.095 646.147 569.287 643.388 555.099C639.448 537.36 632.795 519.274 630.039 506.664Z" fill="black"/>
<path d="M631.209 337.918C631.604 358.413 633.18 396.654 638.699 411.63C640.274 416.753 654.859 439.223 665.105 466.42C672.202 485.343 673.778 502.686 674.962 507.809C679.692 530.279 673.778 568.121 665.893 603.991C661.953 623.306 648.549 647.352 633.177 656.813L630.025 662.332C638.699 661.936 659.982 641.045 667.472 615.029C680.088 570.88 685.211 550.382 679.3 501.503C678.512 496.77 676.54 480.612 669.051 463.266C658.014 436.853 642.246 411.627 640.277 406.501C636.727 398.227 631.997 362.356 631.209 337.918Z" fill="black"/>
<path d="M638.606 309.887C637.434 330.948 637.122 338.706 641.062 354.078C645.397 371.029 667.474 395.467 676.54 423.456C693.884 477.065 689.548 547.23 676.933 602.02C672.205 621.332 649.732 649.323 627.266 658.386L643.821 662.329C652.887 661.934 676.142 640.255 685.21 615.421C699.792 576.396 702.554 529.884 696.64 481.005C696.245 476.274 688.359 434.097 680.872 416.358C670.228 389.949 651.305 366.296 649.337 361.176C645.793 352.502 638.003 334.495 638.606 309.887Z" fill="black"/>
<path d="M626.074 295.061H627.662V658.788H626.074V295.061Z" fill="black"/>
<path d="M182.232 184.971H498.764C510.586 184.971 520.835 194.824 520.835 207.045V300.465C520.835 312.685 510.586 322.542 498.764 322.542H433.725C419.137 322.542 412.831 330.817 412.831 340.278V646.165C412.831 656.414 404.553 664.296 394.699 664.296H287.088C277.231 664.296 269.349 656.414 269.349 646.165V337.522C269.349 328.06 260.675 322.545 253.976 322.545H182.232C179.332 322.549 176.459 321.981 173.779 320.873C171.099 319.766 168.663 318.139 166.612 316.088C164.562 314.038 162.936 311.602 161.828 308.921C160.721 306.241 160.153 303.368 160.158 300.468V207.045C160.153 204.145 160.72 201.272 161.828 198.591C162.935 195.911 164.561 193.475 166.612 191.424C168.663 189.373 171.098 187.748 173.779 186.64C176.459 185.533 179.332 184.965 182.232 184.971ZM994.324 308.745H1022.31C1032.56 308.745 1040.84 317.023 1040.84 326.877V427.002C1040.84 440.01 1041.62 445.133 1025.86 445.133C994.714 445.133 980.528 461.689 980.528 479.82V648.924C980.528 656.809 973.038 663.508 963.972 663.508H863.452C854.387 663.508 846.897 656.809 846.897 648.924V456.167C846.787 452.779 846.853 447.774 847.292 445.133C852.811 373.785 908.79 316.7 979.737 309.533C982.116 309.294 990.532 308.745 994.324 308.745Z" fill="#7D4698"/>
</svg>
