<svg width="860" height="548" viewBox="0 0 860 548" fill="none" xmlns="http://www.w3.org/2000/svg">
<path fill-rule="evenodd" clip-rule="evenodd" d="M735.735 101.926L743.906 146.827L717.383 197.837C717.383 197.837 707.176 176.411 689.822 164.168C675.542 153.961 666.347 151.924 652.067 154.985C633.702 159.058 612.276 181.508 603.093 209.056C591.874 241.714 591.874 257.018 591.874 272.323C590.85 295.798 594.935 309.053 594.935 309.053C594.935 309.053 578.606 279.469 578.606 235.592C578.606 204.984 583.716 176.411 597.996 148.863C611.251 124.376 629.616 110.084 645.945 108.048C663.286 106.011 677.579 114.169 687.786 123.352C699.005 132.534 710.236 153.96 710.236 153.96L735.735 101.926ZM739.82 359.051C739.82 359.051 727.577 379.466 720.431 387.624C713.284 395.782 700.029 410.061 683.7 417.208C667.371 424.354 659.213 425.366 643.909 424.354C627.58 422.305 612.276 413.135 607.179 410.061C602.069 405.989 588.813 394.757 581.667 383.538C574.521 373.331 562.277 351.905 562.277 351.905C562.277 351.905 569.424 373.331 573.496 382.501C578.723 394.719 585.222 406.352 592.886 417.208C602.069 430.476 621.458 451.915 649.006 456.999C677.579 462.096 696.955 449.853 702.065 446.792C706.138 443.731 716.345 434.561 722.467 428.427C729.613 421.28 735.722 412.111 739.82 405.989L745.942 393.758L739.82 359.051Z" fill="black"/>
<path fill-rule="evenodd" clip-rule="evenodd" d="M252.093 103.977L316.371 320.299L379.638 103.977H425.551L320.457 460.087H316.371L250.057 238.655L183.729 460.087H179.644L73.5254 103.977H120.476L183.729 320.299L227.606 174.376L206.18 103.977H252.093Z" fill="#236BB3"/>
<path fill-rule="evenodd" clip-rule="evenodd" d="M557.168 345.785C557.168 377.418 549.01 404.979 531.669 427.43C514.329 448.856 491.878 460.087 464.33 460.087C443.916 460.087 426.575 452.941 411.271 440.711C395.967 427.443 384.748 410.089 377.602 387.638L413.307 372.334C418.404 385.576 425.551 396.808 433.722 403.954C442.904 412.138 453.099 416.211 464.33 416.211C476.574 416.211 487.793 409.064 495.964 394.785C504.122 381.517 509.219 365.201 509.219 345.798C509.219 324.398 504.122 308.056 494.926 295.812C484.719 282.544 468.403 275.398 444.928 275.398H427.587V253.972L489.829 147.853H415.344L393.918 182.547H380.662V103.977H553.095V125.403L487.793 237.643C510.243 244.789 527.584 258.044 539.84 277.447C551.059 296.824 557.168 319.262 557.168 345.785Z" fill="#236BB3"/>
</svg>
