<svg width="806" height="167" viewBox="0 0 806 167" fill="none" xmlns="http://www.w3.org/2000/svg">
<path fill-rule="evenodd" clip-rule="evenodd" d="M224.98 41.3432C221.167 41.7265 205.288 45.2806 199.955 46.4223C194.242 47.9431 142.034 88.2723 138.605 98.1849C137.842 101.61 137.463 106.881 137.463 111.839L137.08 119.839C137.08 125.56 138.667 134.764 139.43 139.718C142.859 140.477 167.696 139.818 172.271 140.572L171.705 150.81C167.242 150.493 135.696 150.568 117.675 150.568C108.53 150.568 79.1212 151.577 70.0878 151.302L71.7961 141.56C76.7462 141.177 97.2628 142.447 101.775 137.685C104.013 135.327 103.296 132.793 103.296 119.072V112.597C103.296 109.552 103.296 103.839 102.538 98.5015C100.63 92.7807 54.6461 35.3723 42.8336 26.2264C39.4044 25.0848 17.9086 22.9348 12.5753 21.7931L12.3086 13.0098C14.9711 11.6806 38.8711 13.339 62.067 12.4765C77.3086 11.914 112.088 12.4765 116.384 12.989L115.28 20.7264C110.709 21.8723 88.6837 22.289 82.9712 23.814C97.8295 45.914 121.334 74.3723 128.955 85.4265C133.146 79.3223 169.984 53.9807 171.125 45.2182C165.409 44.0723 146.484 41.3432 143.434 41.3432L141.621 31.3681C146.813 30.5556 174.092 31.3681 187.655 31.3681C199.359 31.3681 224.371 31.3681 231.484 31.9556L224.98 41.3432Z" fill="#EF3D42"/>
<path fill-rule="evenodd" clip-rule="evenodd" d="M240.909 70.151L240.672 68.6385C236.347 78.726 229.005 94.5761 227.563 98.4177L251.218 98.4094C248.338 90.9677 243.072 76.3969 240.909 70.151ZM303.726 146.547C302.047 146.301 282.955 146.309 275.988 146.309C271.905 146.309 251.109 146.189 247.505 146.189L248.584 137.259C253.388 137.026 262.326 135.089 266.409 134.601C263.772 128.601 255.055 109.534 253.13 105.939C248.088 105.939 229.947 106.509 224.905 107.459C223.942 109.143 217.059 115.901 215.859 125.022C219.222 125.747 225.672 127.139 229.513 127.618L228.097 136.734C224.013 136.497 207.726 136.976 203.884 136.734C200.28 136.734 183.547 136.772 180.426 137.255L183.397 127.618C187.238 127.139 196.092 124.389 199.455 123.664C204.501 116.459 227.855 70.8011 229.78 66.476C226.655 65.7552 221.347 63.2469 217.984 62.7677L217.522 56.1719C221.605 56.4094 241.905 57.0219 244.063 56.9135C248.888 56.676 266.818 56.7677 270.901 56.526L269.388 63.0052C265.784 63.2469 259.922 65.001 256.559 65.7219C258.238 70.7636 264.93 87.0261 269.972 99.0303C273.818 107.68 280.197 124.622 286.197 134.472C290.28 135.193 299.651 137.947 303.976 138.18L304.213 140.58L303.726 146.547Z" fill="#EF3D42"/>
<path fill-rule="evenodd" clip-rule="evenodd" d="M444.418 121.831C441.105 121.581 425.163 121.606 417.009 121.831C410.476 122.018 394.951 121.239 387.559 121.564L386.988 112.506C389.538 112.256 405.438 111.164 408.493 110.66C409.518 105.818 409.026 98.9472 409.026 93.0972L408.634 82.4389C400.48 82.4389 346.584 85.2389 344.293 85.4889L340.355 86.0013C340.355 100.526 341.117 105.118 342.138 110.464C346.472 111.226 362.018 112.256 365.33 112.76L365.126 122.631C361.305 122.376 337.392 122.631 330.005 122.631C321.084 122.631 299.401 122.443 294.305 122.693L294.992 112.506C299.067 112.256 314.484 110.731 317.797 110.218C318.305 103.593 318.563 93.1472 318.563 82.1847V68.6805C318.563 64.0972 318.305 50.843 318.051 46.2597C314.738 45.7513 299.322 44.718 294.738 44.4638L293.926 36.7513C296.98 37.0055 318.259 36.4222 329.472 36.4222C339.922 36.4222 363.613 36.6305 366.413 36.3722L365.584 44.4638C360.743 44.718 344.684 45.993 341.884 46.5013C341.117 50.3263 340.355 53.6388 340.355 65.8722L339.976 72.2514C344.563 72.2514 401.418 72.0263 408.493 71.0138V62.2347C408.493 51.0222 410.234 38.8971 408.963 35.5846C406.159 34.8221 390.968 32.6847 386.126 32.4305L386.801 24.293C389.859 24.5471 404.176 24.4638 414.884 24.718C426.097 24.718 442.388 25.1805 445.705 24.668L444.951 31.368C441.638 31.6263 426.855 35.3596 426.855 35.3596C426.855 35.3596 425.851 42.343 426.593 52.3888C427.201 60.7305 427.388 77.1305 427.388 77.1305C427.813 95.4014 428.943 110.164 427.922 110.926C426.693 111.839 439.622 112.626 443.188 113.131L444.584 115.556L444.418 121.831Z" fill="#EF3D42"/>
<path fill-rule="evenodd" clip-rule="evenodd" d="M555.37 81.3889C556.291 55.6388 536.133 48.7805 510.666 50.5263C497.345 51.443 470.224 58.4888 470.224 81.3889C470.224 104.026 491.029 116.281 518.787 113.864C540.262 111.993 551.541 104.085 554.304 93.0972L555.37 81.3889ZM575.858 79.2638C577.066 110.381 548.65 125.826 511.733 125.826C496.375 125.826 477.675 122.897 461.712 113.318C449.254 105.839 447.195 96.1472 447.195 84.0263C447.195 58.9638 474.479 38.1888 516.245 38.4596C532.145 38.4596 547.466 40.8763 559.858 50.5388C570.908 59.1597 572.779 63.443 574.795 72.8764L575.858 79.2638Z" fill="#EF3D42"/>
<path fill-rule="evenodd" clip-rule="evenodd" d="M750.76 131.689L741.914 130.923L741.822 111.773L753.018 113.173L763.047 113.639L760.264 132.389L750.76 131.689ZM762.147 97.8476L745.651 96.2559C747.381 87.9143 745.872 23.8642 745.735 17.0267L744.889 3.56836C749.485 4.48086 748.789 4.00587 768.185 6.04337C779.989 7.28504 781.526 7.8142 785.414 7.9642L780.343 23.9184C776.018 36.6809 763.476 93.5934 762.147 97.8476Z" fill="#EF3D42"/>
<path fill-rule="evenodd" clip-rule="evenodd" d="M708.631 70.7463C710.381 42.7629 683.422 32.5671 654.351 34.5587C639.139 35.6046 610.714 44.6004 610.714 70.7463C610.714 96.588 634.501 109.617 666.197 106.85C690.71 104.717 700.918 95.4879 706.501 82.9921C706.501 82.9921 708.097 79.263 708.631 70.7463ZM730.618 66.6129C732.793 95.7588 699.16 119.967 657.014 119.967C639.476 119.967 624.547 117.842 607.255 106.4C593.03 96.9838 586.235 88.8421 584.455 72.7838C581.314 44.3504 615.614 20.4546 663.293 20.7587C681.447 20.7587 698.939 23.5254 713.085 34.5587C725.701 44.3962 727.906 53.7296 730.21 64.5046L730.618 66.6129Z" fill="#EF3D42"/>
<path fill-rule="evenodd" clip-rule="evenodd" d="M780.584 122.546H782.293C783.772 122.546 785.205 122.475 785.205 120.717C785.205 119.209 783.901 119.029 782.768 119.029H780.584V122.546ZM778.922 117.671H783.047C785.634 117.671 786.868 118.704 786.868 120.788C786.868 122.775 785.609 123.604 783.976 123.784L787.118 128.609H785.33L782.363 123.904H780.584V128.609H778.922V117.671ZM782.493 131.15C786.763 131.15 790.18 127.675 790.18 123.15C790.18 118.634 786.763 115.167 782.493 115.167C778.193 115.167 774.801 118.634 774.801 123.15C774.801 127.675 778.193 131.15 782.493 131.15ZM782.493 113.809C787.568 113.809 791.838 117.825 791.838 123.15C791.838 128.479 787.568 132.5 782.493 132.5C777.388 132.5 773.143 128.479 773.143 123.15C773.143 117.825 777.388 113.809 782.493 113.809Z" fill="#EF3D42"/>
</svg>
