<svg width="1201" height="800" viewBox="0 0 1201 800" fill="none" xmlns="http://www.w3.org/2000/svg">
<path d="M286.023 297.031C286.14 297.031 378.104 297.035 401.105 303.33C413.704 306.722 423.636 316.656 427.028 329.254C433.32 352.242 433.087 400.125 433.086 400.241C433.086 400.241 433.085 447.97 427.028 470.986C423.636 483.585 413.704 493.518 401.105 496.91C378.104 502.963 286.14 502.967 286.023 502.967C286.023 502.967 194.2 502.967 170.941 496.668C158.343 493.276 148.409 483.343 145.018 470.744C138.961 447.97 138.961 399.999 138.961 399.999C138.961 399.91 138.966 352.249 145.018 329.254C148.409 316.656 158.585 306.48 170.941 303.088C193.958 297.031 286.023 297.031 286.023 297.031ZM256.707 444.094L333.267 399.999L256.707 355.904V444.094Z" fill="#FF0000"/>
<path d="M566.098 484.555C560.283 480.679 556.164 474.622 553.742 466.142C551.319 457.905 550.107 446.76 550.107 433.192V414.537C550.107 400.727 551.561 389.582 554.226 381.103C557.133 372.623 561.494 366.566 567.309 362.69C573.366 358.813 581.119 356.875 590.81 356.875C600.259 356.875 608.012 358.813 613.826 362.69C619.641 366.566 623.76 372.865 626.425 381.103C629.09 389.34 630.544 400.485 630.544 414.537V433.192C630.544 447.002 629.332 457.905 626.667 466.384C624.002 474.622 619.883 480.921 614.069 484.797C608.254 488.674 600.259 490.612 590.325 490.612C580.15 490.37 571.912 488.432 566.098 484.555ZM598.805 464.204C600.501 460.085 601.228 453.059 601.228 443.61V403.392C601.228 394.186 600.501 387.402 598.805 383.041C597.109 378.68 594.444 376.742 590.325 376.742C586.449 376.742 583.542 378.922 582.088 383.041C580.392 387.402 579.665 394.186 579.665 403.392V443.61C579.665 453.059 580.392 460.085 582.088 464.204C583.542 468.323 586.449 470.503 590.568 470.503C594.444 470.503 597.109 468.565 598.805 464.204Z" fill="#282828"/>
<path d="M1013.34 433.435V439.976C1013.34 448.214 1013.58 454.513 1014.07 458.632C1014.55 462.75 1015.52 465.9 1017.22 467.596C1018.67 469.534 1021.09 470.503 1024.49 470.503C1028.85 470.503 1031.75 468.807 1033.45 465.415C1035.15 462.024 1035.87 456.451 1036.11 448.456L1061.07 449.91C1061.31 451.121 1061.31 452.575 1061.31 454.513C1061.31 466.385 1058.16 475.349 1051.62 481.163C1045.08 486.978 1035.87 489.885 1024 489.885C1009.71 489.885 999.773 485.282 993.958 476.318C988.144 467.354 985.236 453.544 985.236 434.646V412.114C985.236 392.732 988.144 378.68 994.201 369.716C1000.26 360.752 1010.43 356.391 1024.73 356.391C1034.66 356.391 1042.41 358.329 1047.74 361.963C1053.07 365.597 1056.71 371.412 1058.89 378.922C1061.07 386.675 1062.04 397.336 1062.04 410.903V432.95H1013.34V433.435ZM1016.97 379.165C1015.52 381.103 1014.55 384.01 1014.07 388.129C1013.58 392.248 1013.34 398.547 1013.34 407.027V416.233H1034.66V407.027C1034.66 398.789 1034.42 392.49 1033.93 388.129C1033.45 383.768 1032.24 380.861 1030.78 379.165C1029.33 377.469 1026.91 376.5 1024 376.5C1020.61 376.257 1018.43 377.226 1016.97 379.165Z" fill="#282828"/>
<path d="M495.352 431.011L462.402 311.568H491.233L502.863 365.596C505.77 378.921 507.95 390.309 509.404 399.757H510.131C511.1 392.974 513.281 381.829 516.672 365.838L528.786 311.568H557.617L524.183 431.011V488.189H495.594V431.011H495.352Z" fill="#282828"/>
<path d="M724.305 359.297V488.431H701.531L699.108 472.683H698.381C692.324 484.554 682.875 490.611 670.519 490.611C662.039 490.611 655.74 487.704 651.621 482.132C647.503 476.559 645.564 467.837 645.564 455.723V359.297H674.638V454.027C674.638 459.842 675.365 463.961 676.576 466.383C677.787 468.806 679.968 470.018 682.875 470.018C685.298 470.018 687.721 469.291 690.143 467.595C692.566 466.141 694.262 464.203 695.231 461.78V359.297H724.305Z" fill="#282828"/>
<path d="M873.305 359.297V488.431H850.531L848.108 472.683H847.381C841.324 484.554 831.875 490.611 819.519 490.611C811.039 490.611 804.74 487.704 800.621 482.132C796.503 476.559 794.564 467.837 794.564 455.723V359.297H823.638V454.027C823.638 459.842 824.365 463.961 825.576 466.383C826.787 468.806 828.968 470.018 831.875 470.018C834.298 470.018 836.721 469.291 839.143 467.595C841.566 466.141 843.262 464.203 844.231 461.78V359.297H873.305Z" fill="#282828"/>
<path d="M803.286 335.069H774.455V488.189H746.108V335.069H717.277V311.568H803.286V335.069Z" fill="#282828"/>
<path d="M969.488 379.891C967.792 371.654 964.885 365.839 961.008 362.205C957.132 358.571 951.56 356.632 944.776 356.632C939.446 356.632 934.358 358.086 929.755 361.236C925.151 364.143 921.517 368.262 919.095 373.107H918.852V305.027H890.748V488.189H914.734L917.641 476.075H918.368C920.548 480.436 923.94 483.828 928.543 486.493C933.147 488.916 937.992 490.37 943.565 490.37C953.498 490.37 960.524 485.766 965.127 476.802C969.731 467.838 972.153 453.543 972.153 434.403V414.052C971.911 399.273 971.184 387.886 969.488 379.891ZM942.838 432.465C942.838 441.914 942.353 449.182 941.626 454.513C940.899 459.843 939.446 463.719 937.75 465.9C935.812 468.08 933.389 469.291 930.482 469.291C928.059 469.291 925.878 468.807 923.94 467.595C922.002 466.384 920.306 464.688 919.095 462.508V389.34C920.064 385.948 921.76 383.041 924.182 380.618C926.605 378.437 929.27 377.226 931.935 377.226C934.843 377.226 937.265 378.437 938.719 380.618C940.415 383.041 941.384 386.917 942.111 392.247C942.838 397.82 943.08 405.572 943.08 415.506V432.465H942.838Z" fill="#282828"/>
</svg>
