<svg width="177" height="250" viewBox="0 0 177 250" fill="none" xmlns="http://www.w3.org/2000/svg">
<path fill-rule="evenodd" clip-rule="evenodd" d="M88.5409 65.6627C89.7338 67.3378 90.9081 68.9565 92.0544 70.5092L95.6985 75.4405C107.833 91.8813 130.434 122.485 136.119 132.762C143.481 146.06 147.442 173.285 133.239 192.126C122.232 206.694 105.941 215.06 88.5502 215.06C71.1594 215.06 54.8683 206.694 43.8802 192.145C29.6581 173.295 33.6283 146.069 41.0003 132.743C46.5363 122.711 68.6337 92.7377 80.4978 76.6357C82.1009 74.4712 83.62 72.4008 85.0086 70.5187C86.1643 68.9659 87.3386 67.3378 88.5409 65.6627ZM88.2507 0C84.4637 9.24108 71.5954 30.4134 57.378 49.764C43.1885 69.1429 18.3452 102.624 10.9946 116C-1.89227 139.419 -7.27963 181.678 16.5215 213.385C35.4099 238.512 62.5142 250 88.2507 250C114.015 250 141.091 238.512 159.98 213.385C183.772 181.678 178.412 139.419 165.516 116C158.147 102.624 133.322 69.1429 119.105 49.764C104.897 30.4134 92.0283 9.24108 88.2507 0Z" fill="white"/>
</svg>
