<svg width="446" height="60" viewBox="0 0 446 60" fill="none" xmlns="http://www.w3.org/2000/svg">
<g clip-path="url(#clip0_47_1830)">
<path d="M30.5 54C24.1348 54 18.0303 51.4714 13.5294 46.9706C9.02856 42.4697 6.5 36.3652 6.5 30C6.5 23.6348 9.02856 17.5303 13.5294 13.0294C18.0303 8.52856 24.1348 6 30.5 6H54.5V54" stroke="#0268AA" stroke-width="12" stroke-linecap="square"/>
<path d="M78.5 54V30C78.5 23.6348 81.0286 17.5303 85.5294 13.0294C90.0303 8.52856 96.1348 6 102.5 6C108.865 6 114.97 8.52856 119.471 13.0294C123.971 17.5303 126.5 23.6348 126.5 30V54" stroke="#0268AA" stroke-width="12" stroke-linecap="square"/>
<path d="M150.5 54H174.5C180.865 54 186.97 51.4714 191.471 46.9706C195.971 42.4697 198.5 36.3652 198.5 30C198.5 23.6348 195.971 17.5303 191.471 13.0294C186.97 8.52856 180.865 6 174.5 6H150.5" stroke="#0268AA" stroke-width="12" stroke-linecap="square"/>
<path d="M270.5 54C270.5 49.2261 268.604 44.6477 265.228 41.2721C261.852 37.8964 257.274 36 252.5 36M222.5 36H255.5C259.478 36 263.294 34.4196 266.107 31.6066C268.92 28.7936 270.5 24.9782 270.5 21C270.5 17.0218 268.92 13.2064 266.107 10.3934C263.294 7.58035 259.478 6 255.5 6H222.5" stroke="#0268AA" stroke-width="12" stroke-linecap="square"/>
<path d="M318.5 54C331.755 54 342.5 43.2548 342.5 30C342.5 16.7452 331.755 6 318.5 6C305.245 6 294.5 16.7452 294.5 30C294.5 43.2548 305.245 54 318.5 54Z" stroke="#0268AA" stroke-width="12" stroke-linecap="square"/>
<path d="M366.5 54V6" stroke="#0268AA" stroke-width="12" stroke-linecap="square"/>
<path d="M390.5 54H414.5C420.865 54 426.97 51.4714 431.471 46.9706C435.971 42.4697 438.5 36.3652 438.5 30C438.5 23.6348 435.971 17.5303 431.471 13.0294C426.97 8.52856 420.865 6 414.5 6H390.5" stroke="#0268AA" stroke-width="12" stroke-linecap="square"/>
</g>
<defs>
<clipPath id="clip0_47_1830">
<rect width="445" height="60" fill="white" transform="translate(0.5)"/>
</clipPath>
</defs>
</svg>
