<?xml version="1.0" encoding="utf-8"?>
<!-- Generator: Adobe Illustrator 25.0.1, SVG Export Plug-In . SVG Version: 6.00 Build 0)  -->
<svg version="1.0" id="katman_1" xmlns="http://www.w3.org/2000/svg" xmlns:xlink="http://www.w3.org/1999/xlink" x="0px" y="0px"
	 viewBox="0 0 968.2 683.6" style="enable-background:new 0 0 968.2 683.6;" xml:space="preserve">
<style type="text/css">
	.st0{fill:url(#SVGID_1_);}
	.st1{fill:url(#SVGID_2_);}
	.st2{fill:url(#SVGID_3_);}
	.st3{fill:url(#SVGID_4_);}
	.st4{fill:#0861A8;}
	.st5{fill:none;stroke:#0861A8;stroke-width:34.3;stroke-linecap:round;stroke-linejoin:round;}
</style>
<linearGradient id="SVGID_1_" gradientUnits="userSpaceOnUse" x1="697.4664" y1="1488.9486" x2="721.9969" y2="1563.7" gradientTransform="matrix(0.8555 0 0 -0.8555 74.3527 1567.6075)">
	<stop  offset="0" style="stop-color:#1977B6"/>
	<stop  offset="0.7074" style="stop-color:#80B4D7"/>
	<stop  offset="1" style="stop-color:#E8F1F8"/>
</linearGradient>
<path class="st0" d="M659.7,211c-4.6,0-9.1,1.7-12.4,4.9c-3.3,3.2-5.2,7.6-5.2,12.2l0,73.3c0.3,1.1,0.7,2.2,1.1,3.1
	c14.1-30.5,44.9-51.7,80.8-51.7c3.9,0,7.8,0.2,11.6,0.7c-0.8-1-1.8-2-2.9-2.9l-64.8-37.4C665.4,211.9,662.6,211.1,659.7,211z"/>
<linearGradient id="SVGID_2_" gradientUnits="userSpaceOnUse" x1="827.7969" y1="1386.3646" x2="904.2981" y2="1482.329" gradientTransform="matrix(0.8555 0 0 -0.8555 74.3527 1567.6075)">
	<stop  offset="0" style="stop-color:#1974B4"/>
	<stop  offset="0.7949" style="stop-color:#E0EBF5"/>
	<stop  offset="1" style="stop-color:#176DA8"/>
</linearGradient>
<path class="st1" d="M794,287.1c11.8,15.1,18.8,34.1,18.8,54.7c0,20.6-7,39.5-18.7,54.5c1.4-0.4,2.8-0.8,4.3-1.4l66.2-38.2
	c5.3-3.1,8.5-8.7,8.5-14.8s-3.2-11.8-8.5-14.8l-66.1-38.2C797.2,288.1,795.6,287.5,794,287.1z"/>
<radialGradient id="SVGID_3_" cx="718.5876" cy="1713.9457" r="56.4199" gradientTransform="matrix(-1.3592 0 0 1.4106 1660.9939 -2028.406)" gradientUnits="userSpaceOnUse">
	<stop  offset="0" style="stop-color:#3081BC"/>
	<stop  offset="0.4809" style="stop-color:#D2E3EF"/>
	<stop  offset="0.6222" style="stop-color:#75ACD2"/>
	<stop  offset="0.8111" style="stop-color:#4691C4"/>
	<stop  offset="1" style="stop-color:#1876B6"/>
</radialGradient>
<path class="st2" d="M644.3,381.3c-0.8,0.2-1.5,0.5-2.2,0.8l0,73.4c0,6.1,3.3,11.8,8.6,14.8c5.3,3.1,11.8,3.1,17.1,0l64.9-37.4
	c0.7-0.9,1.3-1.9,1.8-2.8c-3.4,0.4-7,0.6-10.5,0.6C689.1,430.7,658.9,410.5,644.3,381.3z"/>
<radialGradient id="SVGID_4_" cx="763.978" cy="1511.5504" r="71.6193" gradientTransform="matrix(0.9488 -1.062530e-02 -1.365850e-02 -1.2197 28.9077 2169.2715)" gradientUnits="userSpaceOnUse">
	<stop  offset="0" style="stop-color:#FFFFFF"/>
	<stop  offset="0.186" style="stop-color:#FFFFFF"/>
	<stop  offset="1" style="stop-color:#0861A8"/>
</radialGradient>
<path class="st3" d="M790.7,341.8c0,36.8-29.9,66.7-66.7,66.7s-66.7-29.9-66.7-66.7s29.9-66.7,66.7-66.7S790.7,304.9,790.7,341.8
	L790.7,341.8z"/>
<path class="st4" d="M170.2,251.3c-3.8,0-7.6,6.3-14,19.2l-60,138.3c-3.3,7.6,0.2,16.5,7.8,19.8c7.6,3.3,16.4-0.2,19.8-7.8
	l10.1-23.2h72.3l10.1,23.2c3.3,7.6,12.2,11.1,19.8,7.8c7.6-3.3,11.1-12.2,7.8-19.8l-60-138.3C177.7,257.8,174,251.4,170.2,251.3z
	 M170,314.3l23.8,54.8h-47.5L170,314.3z"/>
<path class="st5" d="M477.3,268.5v144.2h77.3 M412.5,340.6c0,40.1-32.5,72.6-72.6,72.6s-72.6-32.5-72.6-72.6s32.5-72.6,72.6-72.6
	S412.5,300.5,412.5,340.6z"/>
<path class="st4" d="M707.8,458.5h-9.5v2.3h3.4v11.6h2.7v-11.6h3.4V458.5z M722.1,458.5h-3.3l-1.6,5.2c-0.2,0.8-0.5,1.7-0.7,2.5
	c-0.2,0.8-0.4,1.6-0.6,2.4h-0.1c-0.2-0.8-0.3-1.6-0.5-2.4c-0.2-0.8-0.4-1.6-0.6-2.5l-1.5-5.2H710l-0.9,13.9h2.4l0.3-5.4
	c0-0.9,0.1-1.8,0.1-2.8c0-1,0.1-1.9,0.1-2.8h0.1c0.2,0.9,0.4,1.7,0.6,2.6c0.2,0.9,0.4,1.7,0.7,2.5l1.5,5.5h2l1.7-5.6
	c0.2-0.8,0.5-1.6,0.7-2.5s0.5-1.7,0.7-2.6h0.1c0,0.9,0,1.8,0,2.7c0,0.9,0.1,1.8,0.1,2.8l0.3,5.4h2.5L722.1,458.5z M590,413.4h-2.2
	v4.4h2.2c1.2,0,2.1-0.2,2.6-0.5c0.5-0.3,0.8-0.9,0.8-1.6c0-0.8-0.3-1.4-0.8-1.7C592.1,413.6,591.3,413.4,590,413.4L590,413.4z
	 M590.4,412c1.8,0,3.1,0.3,4,0.9c0.9,0.6,1.3,1.4,1.3,2.6c0,0.9-0.3,1.6-0.8,2.2s-1.3,1-2.2,1.1l2.8,5.8h-2.4l-2.6-5.5h-2.7v5.5
	h-2.1V412H590.4z M599.9,418.6c0-1.3-0.2-2.6-0.7-3.8c-0.5-1.2-1.2-2.2-2.1-3.2c-0.9-0.9-2-1.6-3.2-2.1c-1.2-0.5-2.4-0.7-3.8-0.7
	c-1.3,0-2.6,0.2-3.7,0.7c-1.2,0.5-2.2,1.2-3.1,2.1c-0.9,1-1.7,2-2.2,3.2c-0.5,1.2-0.8,2.4-0.8,3.7c0,1.3,0.2,2.5,0.7,3.7
	c0.5,1.2,1.2,2.2,2.1,3.2c0.9,0.9,2,1.6,3.1,2.1c1.2,0.5,2.4,0.7,3.7,0.7c1.3,0,2.6-0.2,3.8-0.7c1.2-0.5,2.3-1.2,3.2-2.1
	c0.9-0.9,1.6-1.9,2.1-3.1C599.6,421.1,599.9,419.9,599.9,418.6L599.9,418.6z M590.1,407.5c1.5,0,2.9,0.3,4.3,0.8
	c1.3,0.6,2.5,1.4,3.6,2.4c1,1,1.8,2.2,2.4,3.5c0.5,1.3,0.8,2.8,0.8,4.2c0,1.5-0.3,2.9-0.8,4.3c-0.5,1.3-1.3,2.5-2.4,3.5
	c-1.1,1.1-2.3,1.9-3.7,2.4c-1.3,0.6-2.7,0.8-4.2,0.8c-1.5,0-2.8-0.3-4.2-0.8c-1.3-0.6-2.5-1.4-3.6-2.5c-1.1-1-1.9-2.2-2.4-3.6
	c-0.6-1.3-0.8-2.7-0.8-4.2c0-1.5,0.3-2.9,0.9-4.2c0.6-1.4,1.4-2.6,2.5-3.6c1-1,2.2-1.8,3.5-2.4C587.2,407.8,588.6,407.5,590.1,407.5
	L590.1,407.5z"/>
</svg>
