<svg width="970" height="311" viewBox="0 0 970 311" fill="none" xmlns="http://www.w3.org/2000/svg">
<path d="M660.498 26C655.898 26 651.398 27.7 648.098 30.9C644.798 34.1 642.898 38.5 642.898 43.1V116.4C643.198 117.5 643.598 118.6 643.998 119.5C658.098 89 688.898 67.8 724.798 67.8C728.698 67.8 732.598 68 736.398 68.5C735.598 67.5 734.598 66.5 733.498 65.6L668.698 28.2C666.198 26.9 663.398 26.1 660.498 26Z" fill="url(#paint0_linear_47_1822)"/>
<path d="M794.799 102.1C806.599 117.2 813.599 136.2 813.599 156.8C813.599 177.4 806.599 196.3 794.899 211.3C796.299 210.9 797.699 210.5 799.199 209.9L865.399 171.7C870.699 168.6 873.899 163 873.899 156.9C873.899 150.8 870.699 145.1 865.399 142.1L799.299 103.9C797.999 103.1 796.399 102.5 794.799 102.1Z" fill="url(#paint1_linear_47_1822)"/>
<path d="M645.098 196.3C644.298 196.5 643.598 196.8 642.898 197.1V270.5C642.898 276.6 646.198 282.3 651.498 285.3C656.798 288.4 663.298 288.4 668.598 285.3L733.498 247.9C734.198 247 734.798 246 735.298 245.1C731.898 245.5 728.298 245.7 724.798 245.7C689.898 245.7 659.698 225.5 645.098 196.3Z" fill="url(#paint2_radial_47_1822)"/>
<path d="M791.5 156.8C791.5 193.6 761.6 223.5 724.8 223.5C688 223.5 658.1 193.6 658.1 156.8C658.1 120 688 90.1001 724.8 90.1001C761.6 90.1001 791.5 119.9 791.5 156.8Z" fill="url(#paint3_radial_47_1822)"/>
<path d="M170.999 66.2998C167.199 66.2998 163.399 72.5998 156.999 85.4998L96.9986 223.8C93.6986 231.4 97.1986 240.3 104.799 243.6C112.399 246.9 121.199 243.4 124.599 235.8L134.699 212.6H206.999L217.099 235.8C220.399 243.4 229.299 246.9 236.899 243.6C244.499 240.3 247.999 231.4 244.699 223.8L184.699 85.4998C178.499 72.7998 174.799 66.3998 170.999 66.2998ZM170.799 129.3L194.599 184.1H147.099L170.799 129.3Z" fill="#0861A8"/>
<path d="M478.1 83.5V227.7H555.4M413.3 155.6C413.3 195.7 380.8 228.2 340.7 228.2C300.6 228.2 268.1 195.7 268.1 155.6C268.1 115.5 300.6 83 340.7 83C380.8 83 413.3 115.5 413.3 155.6Z" stroke="#0861A8" stroke-width="34.3" stroke-linecap="round" stroke-linejoin="round"/>
<path d="M708.598 273.5H699.098V275.8H702.498V287.4H705.198V275.8H708.598V273.5ZM722.898 273.5H719.598L717.998 278.7C717.798 279.5 717.498 280.4 717.298 281.2C717.098 282 716.898 282.8 716.698 283.6H716.598C716.398 282.8 716.298 282 716.098 281.2C715.898 280.4 715.698 279.6 715.498 278.7L713.998 273.5H710.798L709.898 287.4H712.298L712.598 282C712.598 281.1 712.698 280.2 712.698 279.2C712.698 278.2 712.798 277.3 712.798 276.4H712.898C713.098 277.3 713.298 278.1 713.498 279C713.698 279.9 713.898 280.7 714.198 281.5L715.698 287H717.698L719.398 281.4C719.598 280.6 719.898 279.8 720.098 278.9C720.298 278 720.598 277.2 720.798 276.3H720.898C720.898 277.2 720.898 278.1 720.898 279C720.898 279.9 720.998 280.8 720.998 281.8L721.298 287.2H723.798L722.898 273.5ZM590.798 228.4H588.598V232.8H590.798C591.998 232.8 592.898 232.6 593.398 232.3C593.898 232 594.198 231.4 594.198 230.7C594.198 229.9 593.898 229.3 593.398 229C592.898 228.6 592.098 228.4 590.798 228.4ZM591.198 227C592.998 227 594.298 227.3 595.198 227.9C596.098 228.5 596.498 229.3 596.498 230.5C596.498 231.4 596.198 232.1 595.698 232.7C595.198 233.3 594.398 233.7 593.498 233.8L596.298 239.6H593.898L591.298 234.1H588.598V239.6H586.498V227H591.198ZM600.698 233.6C600.698 232.3 600.498 231 599.998 229.8C599.498 228.6 598.798 227.6 597.898 226.6C596.998 225.7 595.898 225 594.698 224.5C593.498 224 592.298 223.8 590.898 223.8C589.598 223.8 588.298 224 587.198 224.5C585.998 225 584.998 225.7 584.098 226.6C583.198 227.6 582.398 228.6 581.898 229.8C581.398 231 581.098 232.2 581.098 233.5C581.098 234.8 581.298 236 581.798 237.2C582.298 238.4 582.998 239.4 583.898 240.4C584.798 241.3 585.898 242 586.998 242.5C588.198 243 589.398 243.2 590.698 243.2C591.998 243.2 593.298 243 594.498 242.5C595.698 242 596.798 241.3 597.698 240.4C598.598 239.5 599.298 238.5 599.798 237.3C600.398 236.1 600.698 234.9 600.698 233.6ZM590.898 222.5C592.398 222.5 593.798 222.8 595.198 223.3C596.498 223.9 597.698 224.7 598.798 225.7C599.798 226.7 600.598 227.9 601.198 229.2C601.698 230.5 601.998 232 601.998 233.4C601.998 234.9 601.698 236.3 601.198 237.7C600.698 239 599.898 240.2 598.798 241.2C597.698 242.3 596.498 243.1 595.098 243.6C593.798 244.2 592.398 244.4 590.898 244.4C589.398 244.4 588.098 244.1 586.698 243.6C585.398 243 584.198 242.2 583.098 241.1C581.998 240.1 581.198 238.9 580.698 237.5C580.098 236.2 579.898 234.8 579.898 233.3C579.898 231.8 580.198 230.4 580.798 229.1C581.398 227.7 582.198 226.5 583.298 225.5C584.298 224.5 585.498 223.7 586.798 223.1C587.998 222.8 589.398 222.5 590.898 222.5Z" fill="#0861A8"/>
<defs>
<linearGradient id="paint0_linear_47_1822" x1="671.834" y1="108.812" x2="692.819" y2="44.8621" gradientUnits="userSpaceOnUse">
<stop stop-color="#1977B6"/>
<stop offset="0.7074" stop-color="#80B4D7"/>
<stop offset="1" stop-color="#E8F1F8"/>
</linearGradient>
<linearGradient id="paint1_linear_47_1822" x1="783.332" y1="196.573" x2="848.779" y2="114.475" gradientUnits="userSpaceOnUse">
<stop stop-color="#1974B4"/>
<stop offset="0.7949" stop-color="#E0EBF5"/>
<stop offset="1" stop-color="#176DA8"/>
</linearGradient>
<radialGradient id="paint2_radial_47_1822" cx="0" cy="0" r="1" gradientUnits="userSpaceOnUse" gradientTransform="translate(685.088 204.286) rotate(180) scale(76.6859 79.5859)">
<stop stop-color="#3081BC"/>
<stop offset="0.4809" stop-color="#D2E3EF"/>
<stop offset="0.6222" stop-color="#75ACD2"/>
<stop offset="0.8111" stop-color="#4691C4"/>
<stop offset="1" stop-color="#1876B6"/>
</radialGradient>
<radialGradient id="paint3_radial_47_1822" cx="0" cy="0" r="1" gradientUnits="userSpaceOnUse" gradientTransform="translate(733.924 132.516) rotate(-0.64161) scale(67.9567 87.3595)">
<stop stop-color="white"/>
<stop offset="0.186" stop-color="white"/>
<stop offset="1" stop-color="#0861A8"/>
</radialGradient>
</defs>
</svg>
