<svg width="2419" height="602" viewBox="0 0 2419 602" fill="none" xmlns="http://www.w3.org/2000/svg">
<g clip-path="url(#clip0_47_1849)">
<path d="M203.678 85.8067C203.678 85.8067 233.338 23.6651 286.237 23.6651C339.135 23.6651 367.316 85.8067 367.316 85.8067L570.993 602.073H452.841L396.977 465.232H173.032L118.156 602.073H0.00390625L203.678 85.8067ZM211.587 371.947H356.441L298.592 204.008C298.592 204.008 296.611 189.228 283.762 189.228C270.912 189.228 269.422 204.008 269.422 204.008L211.584 371.943M675.304 602.073V116.805H494.366V54.862C494.366 54.862 497.827 44.3314 508.208 33.9501C518.593 23.6187 538.366 23.6651 538.366 23.6651H926.441C926.441 23.6651 946.215 24.3585 957.091 32.0723C967.966 39.8325 972.913 54.862 972.913 54.862V116.805H788.512V602.073H675.304ZM863.158 602.073V513.184C863.158 513.184 984.771 488.566 1045.58 399.584C1066.84 369.027 1091.06 335.657 1100.45 300.263C1135.56 167.377 1122.7 23.6684 1122.7 23.6684H1169.17V226.655C1169.17 226.655 1162.74 399.776 1082.65 489.21C973.899 610.872 863.158 602.073 863.158 602.073ZM1599.77 602.073V513.184C1599.77 513.184 1478.15 488.566 1417.35 399.584C1396.58 369.027 1372.36 335.657 1362.97 300.263C1327.86 167.377 1340.72 23.6684 1340.72 23.6684H1294.24V226.655C1294.24 226.655 1300.67 399.776 1380.76 489.21C1489.52 610.872 1599.76 602.073 1599.76 602.073M1189.94 602.073H1272.99V23.6187H1189.94V602.073ZM1677.88 602.073V95.4481C1677.88 95.4481 1685.29 70.5815 1703.58 52.1912C1721.88 33.7511 1767.85 23.6651 1767.85 23.6651H1923.08C1923.08 23.6651 2108.47 45.8111 2108.47 193.083C2108.47 322.708 1964.61 356.323 1964.61 356.323C1964.61 356.323 1952.25 363.39 1952.25 377.039C1952.25 390.682 1964.61 398.89 1964.61 398.89L2127.75 602.07H1998.72L1835.58 398.89C1835.58 398.89 1823.22 379.113 1823.22 362.013C1823.22 307.924 1921.1 280.934 1921.1 280.934C1921.1 280.934 1998.72 257.156 1998.72 201.636C1998.72 134.206 1912.21 114.28 1912.21 114.28H1813.33C1813.33 114.28 1799.99 115.617 1792.57 123.281C1784.66 130.945 1784.66 152.102 1784.66 152.102V602.073H1677.88ZM2213.77 602.073H2329.94V23.6187H2213.77V602.073Z" fill="#CA0D07"/>
</g>
<defs>
<clipPath id="clip0_47_1849">
<rect width="2419" height="602" fill="white"/>
</clipPath>
</defs>
</svg>
