<?xml version="1.0" encoding="UTF-8"?>
<svg width="963.95" height="963.95" version="1.1" viewBox="0 0 255.05 255.05" xml:space="preserve" xmlns="http://www.w3.org/2000/svg" xmlns:cc="http://creativecommons.org/ns#" xmlns:dc="http://purl.org/dc/elements/1.1/" xmlns:rdf="http://www.w3.org/1999/02/22-rdf-syntax-ns#"><title>P-241229</title><path d="m148.88 202.67-.25 3.3c.74-1.296 1.793-1.723 2.953-2.088l2.7 8.284-.599 1.47 4.198-1.319-1.333-.864-2.524-8.338c1.207-.383 2.404-.583 3.615.023l-2.092-2.563zM35.356 79.249l-2.036 4.514-.385-1.082-5.543-.438-.905 1.95 4.778 2.155 1.09-.449-1.92 4.257-.385-1.115-12.536-5.657-1.732.49 2.25-4.987c.935-2.071 1.978-3.45 3.13-4.136 1.151-.686 2.557-.654 4.217.095.974.44 1.654 1.093 2.039 1.96.39.853.569 1.776.534 2.768l6.173.209zM24.19 77.48c-1.619-.73-2.914-.019-3.886 2.135a30.69 30.69 0 0 0-.629 1.504l4.651 2.099c.151-.262.355-.678.776-1.611.434-.96.562-1.81.384-2.552-.178-.74-.61-1.265-1.296-1.575zM167.27 14.579c-1.618-.562-2.636-.158-3.506.593-1.781 1.372-1.191 3.26-.696 5.042-2.075.281-3.266.893-4.204 2.706a4.345 4.345 0 0 0-.18 3.552c.829 2.118 3.509 3.803 6.621 2.375l.295 1.556 4.63 1.469c-1.337-.977-2.472-2.16-2.859-3.972l2.36-.715-.59-3.03c-.773.885-1.622 1.288-2.475 1.685l-1.07-3.956 2.04-.514c2.162-.546 3.864-5.323-.366-6.791zm-.518 1.84c1.146.398 1.04 2.284-.235 2.881l-1.257.392-.349-1.258c-.421-1.516.923-2.334 1.841-2.015zm-3.248 5.963 1.14 4.141c-1.154.786-3.389.69-3.845-1.091-.383-1.491.542-2.636 2.705-3.05zM59.158 220.14q-2.83 3.545-6.253.811-.353-.281-1.058-1.099-.723-.795-1.164-1.11-.265-.212-.565-.343l2.372-3.838.441.207q-.992 1.966 1.408 3.882 1.764 1.409 2.79.124.442-.554.478-1.033.054-.465-.228-1.307l-.914-2.798q-.792-2.41.942-4.58 1.256-1.574 2.916-1.626 1.696-.061 3.125 1.08.317.254.811.83.512.59.811.829l.636.398-2.23 3.444-.442-.171q.337-.892.056-1.625-.282-.733-1.252-1.508-1.588-1.268-2.455-.182-.566.708-.126 2.04l.756 2.345q.528 1.582.332 2.768-.16 1.178-1.187 2.463zM7.799 122.05l1.152-1.267 13.393 4.734.935 1.3.38-5.2-1.017 1.037-3.592-1.174.273-3.744 3.725-.64.855 1.175.38-5.2-1.114 1.15-13.94 2.736-.955-1.421zm3.838-2.994 5.303-.91-.188 2.583zm22.416-66.548 1.678-.345 8.026 11.72-.011 1.602 3.372-3.976-1.433.238-2.208-3.066 2.428-2.863 3.386 1.68-.002 1.453 3.374-3.976-1.578.272-12.872-6.009.066-1.711zm4.865-.156 4.82 2.392-1.675 1.975zM231.74 68.335l-.299 1.686-13.856 3.134-1.484-.601 2.45 4.602.308-1.42 3.665-.921 1.765 3.313-2.81 2.527-1.35-.537 2.45 4.602.33-1.567 10.335-9.746 1.566.693zm-1.65 4.579-4.003 3.598-1.217-2.287z"/><path d="m8.562 111.07 1.391-1.587 13.42 2.808.787 1.417.84-4.576-1.205.854-7.901-1.654 8.77-1.234-7.686-4.678 7.902 1.654.814 1.276.84-4.576-1.231.994-13.42-2.809-.727-2.03-1.037 5.655 1.23-.707 5.805 3.65-6.666 1.038-.888-1.151zm3.265-15.12 1.809-1.12 12.593 4.053.695 1.892 2.776-8.627-3.372-2.857.648 1.98-1.5 4.66-4.722-1.52.851-2.644 1.257-.881-4.387-.405.787 1.226-.649 2.015-3.21-1.033 1.276-3.967 1.693-1.158-3.87.075zM216.71 73.945l-2.795-4.089 1.124.235 3.259-4.506-1.194-1.787-4.327 2.958-.184 1.165-2.636-3.855 1.153.251 11.354-7.76.484-1.734 3.086 4.516c1.283 1.876 1.917 3.485 1.904 4.825s-.773 2.524-2.276 3.552c-.883.603-1.794.843-2.735.72a6.046 6.046 0 0 1-2.641-.983l-3.391 5.162zm7.321-8.615c1.466-1.002 1.533-2.478.2-4.43a30.714 30.714 0 0 0-.957-1.319l-4.213 2.88c.145.265.394.655.971 1.5.595.87 1.255 1.422 1.98 1.656.725.234 1.398.138 2.02-.287zM64.236 25.655l2.088.41 6.469 11.54-.778 1.859 7.905-4.431-.527-4.389-.873 1.892-4.27 2.394-2.425-4.328 2.423-1.358 1.52.21-2.939-3.282-.258 1.434-1.846 1.034-1.65-2.942 3.635-2.038 2.028.304-2.886-2.579zM84.394 15.62l1.974.794 4.198 12.545-1.111 1.68 8.593-2.875.303-4.41-1.21 1.696-4.643 1.554-1.574-4.705 2.635-.882 1.454.49-2.274-3.773-.521 1.36-2.007.672-1.07-3.199 3.951-1.322 1.936.677-2.354-3.072zm61.876-6.548 1.311 1.675-2.654 12.96-1.804.898 8.878 1.818 2.472-3.664-1.898.86-4.795-.982.995-4.86 2.721.558 1.013 1.152-.077-4.404-1.132.916-2.074-.425.677-3.305 4.082.836 1.336 1.556-.497-3.838zm40.92 14.425.629 2.032-7.092 11.168-2.005.197 7.65 4.858 3.614-2.545-2.08.129-4.132-2.624 2.66-4.188 2.344 1.49.537 1.437 1.495-4.144-1.384.453-1.787-1.134 1.808-2.848 3.518 2.234.694 1.93.902-3.765zm18.2 12.816.243 2.113-9.033 9.666-2.008-.177 6.621 6.187 4.022-1.833-2.068-.258-3.576-3.342 3.387-3.624 2.03 1.896.262 1.513 2.235-3.797-1.445.19-1.546-1.446 2.303-2.464 3.045 2.845.326 2.025 1.581-3.533zM21.977 70.78l1.295-.494 12.107 6.848.3 1.612L38.362 74l-1.535.574-12.107-6.848-.245-1.364zm9.002-14.651 3.803 3.739c-4.207-1.04-6.783 2.298-1.135 6.36 5.048 3.632 6.948.531 5.546-2.64l2.288-.482c1.114 2.193 1.126 4.197-.164 5.948-1.982 2.69-5.974 1.955-9.257-.333-3.858-2.69-4.516-6.003-3.899-8.187.281-.996 1.182-2.343 1.957-2.507 1.07-.226 1.272-.471.86-1.898zM247.12 116.88l-5.326-.274c3.838-2.013 3.55-6.22-3.372-5.512-6.185.633-5.55 4.213-2.397 5.656l-1.392 1.878c-2.288-.901-3.628-2.393-3.824-4.56-.301-3.326 3.173-5.425 7.147-5.891 4.671-.548 7.362 1.495 8.35 3.538.45.932.67 2.537.199 3.174-.65.879-.64 1.196.615 1.992zM52.993 54.806l.155-1.676-9.282-10.159-1.403-.013 3.442-3.145-.06 1.35 8.266 2.923-5.216-5.71-1.403-.013 3.683-3.365-.322 1.59 9.281 10.158 1.465.196-3.747 3.423.203-1.72-8.672-3.521 5.699 6.238 1.61.063z"/><path d="m131.64 23.477 1.348-1.007 1.332-13.696-.93-1.051 4.64.45-1.043.86 3.364 8.097.748-7.698-.93-1.05 4.967.483-1.397.824-1.331 13.696.835 1.22-5.051-.492 1.413-1-3.191-8.8-.818 8.41 1.031 1.238zm-75.216 7.546.633 3.246c.402-1.492 1.354-2.259 2.432-3.002l7.29 10.4-.211 1.613 3.9-2.688-1.583-.376-7.127-10.512c1.12-.777 2.28-1.375 3.67-1.205l-2.809-1.747zM178.8 19.182l-2.559 2.096c1.504-.353 2.631.122 3.796.718l-5.702 11.348-1.52.579 4.215 2.16-.42-1.573 5.88-11.258c1.215.62 2.29 1.357 2.8 2.661l.207-3.3zm-103.824.59 1.334.375 5.648 12.71-.719 1.474 6.904-3.067-.21-3.823c-.416 1.29-1.694 1.779-3.949 2.735l-4.987-11.224.616-1.242zM196.98 29.813l.31 1.35-8.458 11.044-1.638.074 5.997 4.593 3.256-2.015c-1.331.253-2.372-.635-4.291-2.157l7.468-9.75 1.385-.054zM103.891 20.155l-1.868.39 1.135 5.118.92.625-4.05.898.569-.955-2.98-13.427-1.301-1.122 4.743-1.052c3.83-.85 6.275.787 6.905 3.625.597 2.69-1.266 5.311-4.073 5.9zm-2.084-7.262c-.509.113-.861.206-1.403.357l1.106 4.982c.267-.029.672-.103 1.56-.3 1.983-.44 2.686-1.778 2.388-3.12-.385-1.734-1.602-2.374-3.65-1.92zM108.733 9.072l.987.78 1.542 13.824-.928 1.165 4.54-.507-1.163-.932-.766-6.87 4.337-.485.766 6.872-.929 1.165 4.541-.507-1.163-.932-1.542-13.824.791-.978-4.227.472.987.78.532 4.772-4.336.484-.533-4.772.791-.979zM241.61 90.53l-.617 1.097-13.416 3.675-1.295-.737 1.207 4.407.739-1.294 6.668-1.826 1.153 4.209-6.668 1.826-1.295-.736 1.206 4.406.74-1.293 13.416-3.675 1.09.63-1.124-4.103-.617 1.096-4.631 1.269-1.153-4.209 4.631-1.268 1.09.629zM229.98 87.66l-.674-1.786-4.881 1.909-.477 1.004-1.51-3.863 1.031.415 12.81-5.008.908-1.46 1.769 4.526c1.428 3.653.187 6.321-2.52 7.38-2.567 1.004-5.443-.434-6.456-3.117zm6.855-3.176c-.19-.486-.336-.82-.569-1.331l-4.752 1.858c.07.26.205.648.536 1.495.74 1.892 2.17 2.381 3.45 1.88 1.655-.646 2.1-1.947 1.335-3.902zM220.74 52.045l-4.571 2.747c2.058-3.814-.592-7.21-6.006-2.84-4.803 3.878-2.908 8.858 2.563 4.66-.328-.57-.883-1.256-1.497-1.58l1.49-1.3 3.838 4.465-1.482 1.313c-.891-1.65-1.066-1.17-2.385-.247-3.152 2.206-5.676 1.248-7.05-.44-2.108-2.59-.399-6.272 2.638-8.879 3.568-3.063 6.94-2.872 8.901-1.73.894.522 1.973 1.731 1.938 2.522-.048 1.092.139 1.35 1.623 1.309zM247.05 124.15a5.308 7.924 87.459 0 0-8.152-4.95 5.308 7.924 87.459 0 0-7.682 5.653 5.308 7.924 87.459 0 0 8.153 4.951 5.308 7.924 87.459 0 0 7.681-5.653zm-2.696.12a2.4 5.226 87.459 0 1-5.114 2.629 2.4 5.226 87.459 0 1-5.328-2.165 2.4 5.226 87.459 0 1 5.115-2.63 2.4 5.226 87.459 0 1 5.327 2.166zM126.782 7.67a5.308 7.924-.398 0 0-5.253 7.96 5.308 7.924-.398 0 0 5.363 7.888 5.308 7.924-.398 0 0 5.253-7.96 5.308 7.924-.398 0 0-5.363-7.888zm.019 2.698a2.4 5.226-.398 0 1 2.435 5.21 2.4 5.226-.398 0 1-2.363 5.242 2.4 5.226-.398 0 1-2.436-5.21 2.4 5.226-.398 0 1 2.364-5.242zM52.235 198.65l.211 1.7-12.318 7.077-1.595-.138 3.697 3.676-.124-1.447 3.23-1.96L48 210.205l-1.941 3.242-1.448-.116 3.697 3.677-.147-1.595 7.006-12.358 1.7.201zm-.229 4.863-2.764 4.617-1.837-1.827zM30.283 163.2l-.476 1.646-14.11 1.645-1.412-.756 1.948 4.836.457-1.38 3.742-.526 1.402 3.483-3.062 2.214-1.286-.678 1.948 4.836.494-1.523 11.312-8.593 1.484.856zm-2.128 4.378-4.361 3.153-.968-2.403zm77.093 61.102 1.13 1.288-6.208 12.777-1.397.783 5.124.961-.916-1.127 1.57-3.437 3.69.692.217 3.773-1.263.718 5.125.962-1.018-1.236-1.154-14.159 1.52-.79zm2.544 4.15.31 5.373-2.546-.478zm88.028-27.44 1.707-.148 6.616 12.571-.197 1.59 3.81-3.56-1.45.071-1.84-3.301 2.744-2.562 3.168 2.06-.17 1.442 3.811-3.559-1.599.088-12.09-7.458.263-1.692zm4.85.409 4.512 2.933-1.893 1.768zM19.512 178.64l1.587.561 12.124-6.508.356-1.357 2.205 4.108-1.294-.39-4.86 7.298 6.814-3.657.356-1.357 2.36 4.396-1.461-.702-12.124 6.508-.55 1.372-2.4-4.472 1.618.618 5.54-7.545-7.445 3.997-.456 1.545zm195.318 30.47-.063-1.68-10.516-8.876-1.393.168 3.007-3.562.114 1.346 8.575 1.831-5.91-4.988-1.393.168 3.218-3.812-.114 1.617 10.516 8.875 1.478.005-3.274 3.879-.02-1.732-9.055-2.372 6.457 5.45 1.605-.145zM39.731 196.2c-2.043 1.44-3.962 2.13-5.758 2.07-1.772-.059-3.317-1.022-4.635-2.892l-2.459-3.488 1.271-.013 11.36-8.007.22-1.256 2.6 3.688c1.232 1.747 1.604 3.477 1.134 5.196-.467 1.704-1.706 3.274-3.733 4.703zm-1.528-2.071c2.854-2.012 3.504-4.119 1.952-6.32-.312-.444-.552-.753-.721-.929l-8.561 6.035c.213.365.423.696.631.99 1.552 2.203 3.785 2.277 6.7.224zM146.71 237.32c.307 2.48.01 4.498-.889 6.054-.887 1.535-2.465 2.444-4.736 2.725l-4.235.524.588-1.126-1.707-13.794-1.004-.787 4.478-.554c2.122-.263 3.823.224 5.117 1.45 1.283 1.214 2.083 3.046 2.388 5.508zm-2.548.372c-.429-3.465-1.98-5.032-4.654-4.701-.538.066-.924.132-1.158.199l1.287 10.395c.422-.016.813-.046 1.171-.09 2.674-.331 3.792-2.265 3.354-5.803zM69.603 227.01q-2.43 3.83-6.128 1.485-.382-.242-1.172-.978-.804-.712-1.277-.979-.286-.18-.599-.278l1.942-4.073.461.158q-.773 2.061 1.82 3.706 1.907 1.21 2.788-.179.38-.598.363-1.079.003-.468-.368-1.274l-1.213-2.683q-1.048-2.31.44-4.656 1.078-1.7 2.723-1.932 1.68-.244 3.224.736.343.217.896.736.572.531.896.737l.675.327-1.843 3.665-.458-.122q.238-.924-.12-1.622-.36-.698-1.409-1.363-1.716-1.088-2.46.085-.486.766.096 2.041l1.006 2.25q.696 1.516.63 2.716-.032 1.188-.913 2.577zm164.847-56.84q4.146 1.84 2.37 5.844-.183.413-.795 1.302-.586.901-.78 1.408-.137.31-.188.633l-4.314-1.321.089-.48q2.152.461 3.398-2.345.915-2.064-.588-2.731-.647-.288-1.12-.2-.464.065-1.206.55l-2.475 1.595q-2.13 1.377-4.67.25-1.84-.816-2.312-2.41-.489-1.624.253-3.295.165-.372.596-.996.441-.644.597-.995l.224-.715 3.897 1.284-.054.47q-.948-.1-1.586.359-.637.458-1.14 1.593-.825 1.857.445 2.42.83.369 2.005-.394l2.077-1.326q1.397-.912 2.594-1.023 1.18-.143 2.683.524zM81.148 220.04a5.308 7.924 26.599 0 0-8.294 4.71 5.308 7.924 26.599 0 0 1.198 9.462 5.308 7.924 26.599 0 0 8.294-4.709 5.308 7.924 26.599 0 0-1.198-9.462zm-1.208 2.414a2.4 5.226 26.599 0 1-.195 5.747 2.4 5.226 26.599 0 1-4.485 3.598 2.4 5.226 26.599 0 1 .194-5.747 2.4 5.226 26.599 0 1 4.486-3.598zm88.23.236a7.924 5.308 66.849 0 0-1.765 9.374 7.924 5.308 66.849 0 0 7.996 5.2 7.924 5.308 66.849 0 0 1.765-9.374 7.924 5.308 66.849 0 0-7.996-5.2zm1.061 2.482a5.226 2.4 66.849 0 1 4.26 3.862 5.226 2.4 66.849 0 1-.15 5.748 5.226 2.4 66.849 0 1-4.262-3.861 5.226 2.4 66.849 0 1 .152-5.75zM95.466 226.02l-2.691 4.605c-.025-4.334-3.893-6.012-6.445.461-2.28 5.785 1.19 6.866 3.921 4.728l1.029 2.1c-1.852 1.618-3.793 2.122-5.807 1.3-3.093-1.26-3.361-5.31-1.948-9.055 1.66-4.4 4.71-5.851 6.979-5.789 1.035.028 2.561.57 2.91 1.282.482.981.77 1.117 2.052.369zm1.301.35.784 1.144-3.81 13.378-1.496.67 5.243 1.493-.919-1.358 3.81-13.378 1.269-.558zm17.375 3.85-1.597 2.897c1.265-.886 2.488-.864 3.791-.743l-1.08 12.654-1.196 1.102 4.716.44-.973-1.304 1.277-12.636c1.358.123 2.631.409 3.588 1.43l-1.034-3.142zm48.908-5.4.722 5.285c-2.693-3.396-6.772-2.331-4.788 4.338 1.773 5.96 5.172 4.67 6.002 1.303l2.105 1.018c-.46 2.416-1.676 4.01-3.768 4.606-3.213.915-5.921-2.108-7.12-5.926-1.407-4.487.1-7.511 1.923-8.862.832-.616 2.368-1.13 3.082-.786.984.475 1.294.405 1.842-.975zm10.21-4.16 2.12.02 6.859 11.83-.536 1.499 3.99-2.314-1.444-.351-4.04-6.966 6.784 5.758-1.628-8.747 4.039 6.966-.413 1.428 3.99-2.313-1.567-.28-6.859-11.83 1.037-1.85-4.932 2.86 1.352.464 1.143 6.683-5.232-4.312.27-1.404zm41.23-36.77 2.004-.715 11.46 6.608.283 1.996 4.527-7.851-2.697-3.502.217 2.073-2.445 4.24-4.297-2.478 1.387-2.407 1.414-.597-4.204-1.317.512 1.364-1.058 1.834-2.922-1.685 2.081-3.61 1.899-.777-3.8-.74zm-3.54 4.93 1.336-.368 11.406 7.962.147 1.633 3.12-4.47-1.584.426-11.406-7.962-.114-1.381zM196.85 217.2l-1.525 1.148 3.201 4.15 1.098.176-3.284 2.533.109-1.106-8.4-10.89-1.655-.463 3.846-2.967c3.106-2.396 6.016-1.953 7.791.349 1.684 2.182 1.11 5.346-1.181 7.07zm-4.971-5.689c-.413.319-.692.553-1.118.92l3.116 4.04c.23-.14.565-.378 1.285-.934 1.608-1.24 1.677-2.75.837-3.84-1.085-1.405-2.458-1.468-4.12-.186zM122.704 231.13l1.62 1.38v13.228l-1.587 1.242h9.062l1.687-4.086-1.687 1.224h-4.895v-4.961h2.778l1.224.926-.959-4.3-.926 1.125h-2.117v-3.373h4.167l1.621 1.256-1.257-3.66zm2.157-185.63c-.564.005-1.388.09-1.98.485-.333.224-.711.763-.711.763l1.509 1.007s.146-.125.248-.2c.172-.127.387-.176.866-.165.877.02 1.917.757 1.917 2.33v2.469s.013 3.155-.142 4.707c-.175 1.634-.44 3.057-1.096 3.963l-1.502 2.072.537 1.13 1.547 2.616h3.224l1.45-2.512.598-1.256-1.501-2.072c-.657-.906-.922-2.33-1.097-3.963-.157-1.564-.132-4.685-.132-4.685V49.72c0-2.392-1.724-4.235-3.735-4.22zm6.855 6.492c-.747.009-1.559.065-2.403.138l.012.28a.374.374 0 0 1 .138-.004c.94.222 1.75.958 2.422 2.093.672 1.135 1.219 2.688 1.629 4.657.407 1.955.942 5.293 1.13 9.517.114 2.529.717 4.649 2.01 6.305l1.452-.084-.229-.8a2.058 2.058 0 0 1-.205-.394c-.163-.388-.316-.92-.465-1.527a31.218 31.218 0 0 1-.67-3.762l-.742-7.091c-.488-4.655-2.704-7.485-4.127-8.23a.383.383 0 0 1 .354-.677c1.811.947 4.024 3.97 4.533 8.827l.744 7.091c.105 1.002.364 2.489.65 3.66.126.513.259.959.378 1.276l2.517 1.357.022-.002c-1.23-1.762-1.725-3.933-1.91-6.38-.32-4.21-.866-7.625-1.352-9.497-.297-1.143-.893-2.408-1.594-3.459-.7-1.05-1.522-1.883-2.154-2.189a.382.382 0 1 1 .334-.69c.866.42 1.71 1.337 2.455 2.455.745 1.118 1.374 2.44 1.699 3.69.508 1.955 1.051 5.387 1.373 9.63.193 2.546.726 4.677 2.02 6.33.007.01.014.021.02.033l1.667-.145c-1.043-2.09-1.623-4.483-1.763-7.18-.204-3.903-.762-7.72-2.522-11.234-.976-1.948-2.213-2.988-3.87-3.532-.828-.272-1.768-.413-2.827-.453a14.4 14.4 0 0 0-.726-.008zm-8.136.022c-.25-.002-.491 0-.725.009-1.06.04-2 .181-2.828.453-1.657.544-2.894 1.584-3.87 3.532-1.76 3.514-2.318 7.33-2.521 11.234-.14 2.697-.72 5.09-1.764 7.18l1.667.145a.383.383 0 0 1 .021-.034c1.294-1.652 1.827-3.784 2.02-6.328.321-4.244.864-7.676 1.372-9.631.325-1.25.954-2.572 1.7-3.69s1.588-2.035 2.455-2.454a.383.383 0 1 1 .333.689c-.631.306-1.454 1.139-2.154 2.19s-1.296 2.315-1.594 3.458c-.486 1.872-1.032 5.286-1.35 9.496-.186 2.448-.681 4.62-1.912 6.381l.022.002 2.517-1.357a11.7 11.7 0 0 0 .378-1.276c.287-1.172.545-2.658.65-3.66l.744-7.092c.51-4.855 2.722-7.879 4.534-8.826a.383.383 0 0 1 .29-.027.382.382 0 0 1 .063.705c-1.423.743-3.639 3.574-4.127 8.229l-.742 7.091a31.217 31.217 0 0 1-.67 3.762c-.148.606-.302 1.139-.465 1.527a2.06 2.06 0 0 1-.205.394l-.228.8 1.451.084c1.293-1.657 1.896-3.777 2.01-6.306.188-4.223.723-7.562 1.13-9.517.41-1.968.958-3.522 1.63-4.657.671-1.135 1.482-1.87 2.421-2.093a.377.377 0 0 1 .138.004l.012-.28a32.48 32.48 0 0 0-2.403-.137zm5.78 1.158c.052 1.233.107 2.481.228 3.61.17 1.584.486 2.927.936 3.547l1.804 2.488-1.205 2.533.162 5.485 4.135 4.215.325-.02c-1.203-1.744-1.757-3.888-1.866-6.322-.186-4.177-.714-7.48-1.113-9.397-.398-1.913-.932-3.396-1.54-4.423-.585-.99-1.226-1.535-1.867-1.716zm-3.423.023c-.64.18-1.282.726-1.867 1.715-.608 1.027-1.141 2.51-1.54 4.424-.398 1.915-.926 5.219-1.113 9.396-.108 2.434-.662 4.578-1.865 6.323l.324.02 4.135-4.216.162-5.485-1.205-2.533 1.805-2.488c.45-.62.766-1.963.936-3.546.12-1.13.175-2.378.228-3.61zm2.837 8.056 1.12 1.94-1.119 1.94h-2.24l-1.12-1.94 1.12-1.94zm-.577.936h-1.054l-.526.913.527.912h1.053l.527-.913zm14.32 4.885.007.103c.036.696.1 1.37.19 2.023-.06-.786-.13-1.426-.197-2.126zm-29.776.574c-.034.373-.07.702-.102 1.098.042-.36.076-.725.102-1.098zm29.975 1.57c.01.078.025.154.037.231-.008-.079-.031-.151-.037-.23zm-17.85 1.971-.001.035-4.647 4.737-4.156-.242.322-1.13-1.748.944-4.076-.355.328-.584c.314-.56.571-1.164.803-1.787-6.679 1.263-12.688 3.295-17.944 5.997-4.566 2.348-6.123 6.135-5.902 11.025.869 19.194-1.153 34.132-7.361 43.097-8.467 12.225-14.155 19.23-15.802 21.827-2.663 4.2-3.55 8.22-2.561 12.362.607 2.542 1.792 4.745 4.231 5.457 19.586 5.719 39.792 8.018 61.302 8.018 21.511 0 41.716-2.3 61.303-8.018 2.44-.712 3.625-2.915 4.232-5.457.99-4.142.101-8.161-2.561-12.362-1.647-2.597-7.336-9.602-15.802-21.827-6.21-8.965-8.23-23.903-7.362-43.097.222-4.89-1.336-8.676-5.902-11.025-5.256-2.703-11.267-4.735-17.947-5.998.23.615.483 1.212.794 1.765l.327.584-4.076.356-1.748-.944.323 1.13-4.157.242-4.646-4.737v-.013zm18.75 1.617c-.111-.298-.228-.592-.321-.903.102.301.182.616.308.9l.013.003zm-31.925 0 .016-.003c.11-.248.177-.524.269-.784-.084.271-.188.526-.285.787zM118.014 181.48a9.642 9.642 0 0 0 6.58 9.034l-1.949 2.235 9.97.057-1.905-2.273a9.642 9.642 0 0 0 6.585-9.05 297.86 297.86 0 0 1-19.282-.002z"/><g fill="#fff"><path d="m76.78 145.93-1.762 4.468c1.846-1.701 3.13-1.893 3.742-.913V161.1l-1.764 1.73 6.839 1.375-1.633-2.207v-11.96c1.173-.392 2.445.514 3.817 2.718l-.834-5.034c-2.978-.58-5.62-1.14-8.405-1.791z"/><path d="m86.102 147.9 1.377 2.09v12.647l-2.595 1.764c3.536.642 7.038 1.2 10.505 1.673l1.144-4.635c-1.715 1.91-3.797 2.193-6.21 1.01v-5.585c1.116-.2 2.42.162 4.265 2.144l-1.422-5.277c-.568.992-1.575 1.4-2.844 1.457v-3.715l1.72.2c1.16.135 2.7.704 4.342 1.871l-1.764-4.193a228.572 228.572 0 0 1-8.518-1.45zm23.052 4.9v12.648l-2.408 1.896c3.536.26 6.851.587 10.319.685l1.443-4.758c-1.715 2.096-4.097 2.604-6.51 1.682v-5.586c1.116-.32 2.42-.1 4.265 1.683l-1.422-5.123c-.568 1.054-1.575 1.57-2.844 1.764v-3.714l1.721.014c1.16.01 2.7.411 4.34 1.401l-1.76-3.853c-2.627-.108-8.548-.61-8.548-.61z"/><path d="m97.731 149.72 1.377 2.09v12.647L97 166.286c3.115.401 5.837.708 8.625.962l1.602-4.625c-1.715 1.91-2.937 2.38-5.2 1.31v-11.8l2.075-1.56s-4.763-.55-6.37-.853zm4.121-48.07 1.631 1.852v10.393l-2.08 1.353c3.114.33 5.648.663 8.597.94l1.602-3.8c-1.715 1.57-2.936 1.956-5.2 1.077v-9.697l2.021-1.3c-1.695-.188-5.406-.608-6.571-.818zm17.424 50.03 1.766 1.938v12.536l-1.717 1.972c2.414.071 4.024.105 6.73.138l-2.032-1.998v-3.656l2.632.026c2.676.026 5.217-1.922 5.238-5.238.022-3.322-2.744-5.448-5.425-5.521-2.397-.064-4.795-.13-7.192-.196zm4.747 2.724h1.622c1.57 0 2.863.734 2.768 2.881-.095 2.15-1.614 2.694-2.843 2.694h-1.547z"/><path d="M145.08 151.14c-2.54.188-4.097.307-6.485.428l1.31 2.026v3.144l-3.227.175V153.6l1.217-2.032a176.1 176.1 0 0 1-6.415.232l1.868 1.887v12.572l-1.573 1.964 6.149-.19-1.246-1.737v-6.615l3.227-.174v6.783l-1.02 1.698 5.923-.39-1.573-1.766V153.26zM151.11 150.64c-3.332.062-6.033 3.802-6.033 8.353s2.7 8.19 6.033 8.129c3.332-.062 6.034-3.802 6.034-8.353s-2.702-8.19-6.034-8.128zm.243 2.563c1.188.02 1.981 1.059 1.946 5.678-.037 4.927-.83 5.556-2.189 5.669-1.359.112-2.263-.817-2.189-5.67.075-4.851.868-5.555 2.189-5.667a2.52 2.52 0 0 1 .243-.01zM169.65 147.81l-5.426.974 1.704 1.59v6.401l-4.078-6.253 1.104-1.53-6.078.895 1.916 1.632v13.134l-.983 1.68 4.715-.658-1.125-1.308v-7.46l4.503 6.67-.638 1.677 4.396-.725-1.126-1.308V150zm2.46 1.39v12.648l-.944 2.396c3.536-.713 5.387-1.135 8.855-1.99l1.443-5.155c-1.715 2.567-4.097 3.73-6.51 3.472v-5.586c1.117-.628 2.421-.765 4.265.51l-1.421-4.732c-.568 1.21-1.575 2.003-2.844 2.546v-3.715l1.72-.458c1.16-.31 2.7-.331 4.341.207l-2.078-3.507c-2.627.615-8.23 1.88-8.23 1.88zm-82.835-26.15 1.383 2.018v12.684l-1.844 1.528 3.551.553c4.82.75 7.566-2.977 7.592-7.506.024-4.097-1.799-7.704-5.691-8.393zm4.078 3.14c2.47.306 3.386 2.12 3.386 5.838 0 4.403-1.179 6.186-3.386 5.8z"/><path d="m100.004 124.79 1.401 1.748v12.52l-1.753 1.753c2.161.259 4.205.48 6.13.664l-1.574-2.007V126.95l1.474-1.468c-1.897-.204-3.79-.434-5.678-.69z"/><path d="m113.908 130.36-.528-4.323-1.269.766a1.697 1.697 0 0 0-1.11-.82c-2.071-.475-4.08.09-4.809 1.805-1.043 2.456.413 4.407 2.273 6.13 2.364 2.19 3.47 3.925 2.378 4.76-2.02 1.548-3.718-1.128-5.285-3.885l1.32 6.731 1.27-.766c.374.607 1.557 1.142 2.219 1.095 2.224-.16 4.174-1.262 4.479-4.022.213-1.928-1.068-3.691-2.735-5.39-1.385-1.413-4.045-3.456-1.691-4.324 1.212-.447 2.58.968 3.488 2.244zm1.986-4.04-1.542 4.484c1.635-1.921 2.773-2.32 3.314-1.494v11.095l-1.424 1.853 5.626.232-1.152-1.914v-11.323c1.038-.567 2.165.077 3.38 1.932l-.735-4.578a173.063 173.063 0 0 1-7.467-.287zm9.546.37 1.355 1.049-3.663 13.725-.932 1.033 4.796.084-.987-1.046.887-3.673 3.754-.023.932 3.662-1.104 1.078 5.152-.1-1.172-1.084-3.828-13.68 1.393-1.12c-2.29.038-4.062.05-6.583.095zm3.288 3.59 1.326 5.215-2.59.016zm18.712-4.6-5.134.435 1.526 1.75v6.1l-3.903-6.293.969-1.46-5.76.297 1.866 1.862v12.513l-.903 1.588 4.502-.194-1.105-1.453v-7.108l4.308 6.725-.678 1.687 4.207-.312-1.01-1.497v-12.597zm9.67 4.19-1.73-5.116-1.52 1.227c-3.804-1.756-6.118 2.799-6.154 7.73-.04 5.73 2.817 7.88 5.535 7.524 1.896-.248 3.296-1.803 4.115-4.57l-1.67-1.699s-.23 1.432-.746 2.163c-2.316 3.28-3.838.35-3.741-3.664.086-3.58.365-5.416 2.539-5.564 1.056-.072 1.819.916 2.19 2.093zm1.28-3.7v12.44l-.834 2.133c3.366-.47 4.965-.699 8.265-1.313l1.47-4.879c-1.631 2.414-3.898 3.401-6.195 2.99v-5.495c1.063-.544 2.305-.594 4.06.78l-1.353-4.747c-.54 1.153-1.499 1.867-2.707 2.318l.033-4.076 1.637-.339c1.104-.228 2.115.404 3.676 1.041l-1.555-3.715c-2.5.432-7.823 1.215-7.823 1.215zM119.19 103.21c-3.691-.128-6.683 2.8-6.683 6.539 0 3.74 2.992 6.876 6.683 7.005s6.684-2.799 6.684-6.539-2.993-6.876-6.684-7.004zm.269 2.12c1.316.08 2.195.976 2.156 4.77-.042 4.046-.92 4.521-2.425 4.54-1.505.02-2.507-.793-2.424-4.776s.96-4.519 2.424-4.54c.091-.001.181 0 .269.005zM139 103.16c-1.707.11-3.533.194-5.478.249l1.581 1.493v5.122l-4.043-5.344 1.004-1.211a317.24 317.24 0 0 1-5.966.04l1.932 1.712v10.508l-.996 1.249 4.725-.022-1.145-1.237v-5.97l4.463 5.714-.703 1.407 4.358-.198-1.046-1.273v-10.578zm11.98 3.33-1.884-4.366c-.426.537-.903 1.258-1.627.984-2.385-.902-4.37-.274-5.737 1.242-3.353 3.72-2.182 8.064.257 10.189 2.816 2.454 7.489 1.611 8.82-.214.362-.498.812-.524 1.156-.6-1.272-1.808-1.348-3.7.685-5.736l-6.165.77c1.195.663 2.094 1.468 1.84 2.57-.76 3.302-3.612 2.927-4.538.727-.717-1.704-.725-3.914.231-5.628 1.647-2.954 4.2-2.308 6.962.062zm-32.891-14.12-2.22 4.143-.575.366 3.159.178-.483-.49.49-.931 2.334.083.515.97-.597.463 3.244.088-.402-.548-2.463-4.22.765-.573c-1.492-.03-3.047-.077-4.604-.137zm1.51 1.099.642 1.207-1.254-.044zm13.081-1.579c-1.24.022-2.238.064-3.65.06l1.02.586v2.049l-2.937-2.192.452-.437c-1.386-.013-2.294.006-3.797-.023l1.143.636v4.204l-.64.473 3.227.027-.71-.47v-2.388l3.242 2.345-.495.502 3.046-.057-.655-.436v-4.232zm.29.01.897.605v4.153l-.996.546 2.428-.083c3.867-.176 6.006-.817 5.927-3.052-.066-1.896-2.005-2.369-5.127-2.254zm3.058.937c1.981-.115 2.517.198 2.517 1.415 0 1.442-.746 1.929-2.516 1.995zm-33.866-15.108 1.603 1.642v8.002l-1.946.924c2.87.425 5.836.811 8.42 1.104l.851-3.132c-1.715 1.21-2.88 1.28-4.407.772v-7.466l2.022-1c-1.695-.145-4.951-.606-6.543-.846zM116.449 79.41c-2.888-.1-5.23 2.19-5.23 5.117s2.342 5.38 5.23 5.48c2.888.101 5.23-2.19 5.23-5.116s-2.342-5.38-5.23-5.48zm.21 1.659c1.03.062 1.718.764 1.687 3.732-.032 3.166-.72 3.538-1.897 3.553-1.178.015-1.962-.621-1.897-3.737.065-3.117.752-3.536 1.897-3.553.071 0 .142 0 .21.004zM131.01 79.689l1.247 4.422c-1.304-1.791-2.5-2.52-3.912-2.155-4.04 1.046-2.802 6.38.227 6.577 1.355.087 2.766-.882 4.195-2.211-.45 2.878-2.533 4.044-5.102 4.08-3.215.045-5.089-2.161-5.33-5.441.325-3.442 3.092-5.032 5.16-5.16.302-.018 1.271.063 1.562.174.593.226 1.196.442 1.953-.286z"/><path d="m134.9 79.548 1.38.726-3.663 9.306-.932.743 4.763-.155-.954-.727.83-2.286 3.925-.23.818 2.134-.97.873 5.004-.453-1.158-.676-3.828-8.792 1.027-.852c-2.29.173-6.242.389-6.242.389zm3.313 2.28 1.326 3.36-2.59.178z"/><path d="m144.23 78.88 1.698 1.315v8.002l-.833 1.282c2.871-.301 5.057-.647 7.642-1.009l.758-3.254c-1.715 1.643-3.13 2.043-4.658 1.922v-7.466l2.005-1.58c-1.763.284-5.11.624-6.612.788zm-42.566-2.882a.432.432 0 0 0-.506.343.432.432 0 0 0 .344.506c17.089 3.243 34.53 3.193 52.3.002a.432.432 0 0 0 .35-.504.432.432 0 0 0-.501-.347c-17.674 3.173-35.005 3.222-51.986 0z"/><path d="M89.375 86.033a.432.432 0 0 0-.521.32.432.432 0 0 0 .322.52c25.527 6.073 51.184 6.195 76.959 0a.432.432 0 0 0 .32-.522.432.432 0 0 0-.521-.318c-25.646 6.164-51.156 6.044-76.56 0zm-.013 7.307a.432.432 0 0 0-.52.323.432.432 0 0 0 .32.52c25.528 6.073 51.185 6.195 76.96 0a.432.432 0 0 0 .32-.522.432.432 0 0 0-.521-.32c-25.646 6.164-51.156 6.044-76.56 0zm-26.678 69.52a.432.432 0 0 0-.021.612c1.936 2.081 4.815 3.494 8.564 4.441 36.209 9.15 77.729 9.436 112.86 0 3.727-1 6.619-2.356 8.559-4.441a.432.432 0 0 0-.022-.611.432.432 0 0 0-.611.023c-1.774 1.907-4.505 3.214-8.15 4.193-34.967 9.39-76.367 9.111-112.43-.002-3.653-.923-6.368-2.28-8.145-4.191a.432.432 0 0 0-.611-.023z"/></g><path d="M120.327 44.447c-.207 0-.41.056-.59.16-.466.271-.878.655-1.11 1.293-.232.638-.03 1.629.584 2.17 2.261 1.99 4.545 3.169 6.9 3.428l.02-1.259c.006-.419-.036-.807-.154-1.15-1.555-.273-3.14-1.112-4.887-2.582.427-.366.537-.981.264-1.472a1.182 1.182 0 0 0-1.027-.588zm14.303-.075a1.182 1.182 0 0 0-.921 1.895c.042.056.043.071.074.127-.328.244-.65.471-.967.683a6.988 6.988 0 0 1 1.035 2.187 25.006 25.006 0 0 0 1.62-1.142c.64-.489.87-1.429.742-2.023-.128-.595-.407-.98-.617-1.258a1.183 1.183 0 0 0-.966-.47zm-5.533 4.527c.064.329.098.67.098 1.02v1.402c.496-.11.993-.257 1.49-.44a5.223 5.223 0 0 0-.154-.786c-.182-.637-.463-1.201-.987-1.317-.167-.037-.308.081-.447.12zm-6.681 2.805c-.74.04-1.444.114-2.199.289l.002-1.027c-.004-.415.198-.945.376-1.147.496.373 1.126.712 1.822 1.034z"/><path transform="translate(27.91 -9.39)" d="M105.68 61.141c-.05-3.758-2.245-5.722-3.813-5.975-.858-.138-1.35-.139-2.171.22a3.37 3.37 0 0 1 1.45 2.124c.268-.086.44-.085.744.027 1.535.561 1.616 2.949 1.616 3.551.695-.044 1.48.004 2.174.053z" style="paint-order:stroke fill markers"/><path d="M127.52.003C57.105.003 0 57.111 0 127.523c0 70.415 57.108 127.52 127.52 127.52 70.415 0 127.52-57.108 127.52-127.52S197.934.003 127.52.003zm0 2.3c69.172 0 125.22 56.05 125.22 125.22 0 69.173-56.05 125.22-125.22 125.22-69.172 0-125.22-56.05-125.22-125.22 0-69.171 56.052-125.22 125.22-125.22z"/><path d="m127.52 28.094c-54.899 0-99.43 44.528-99.43 99.428 0 54.899 44.53 99.43 99.43 99.43 54.899 0 99.428-44.53 99.428-99.43 0-54.899-44.528-99.428-99.428-99.428zm0 2.299c53.656 0 97.129 43.473 97.129 97.129s-43.473 97.129-97.129 97.129-97.129-43.473-97.129-97.13c0-53.655 43.473-97.128 97.129-97.128z"/><path d="m74.998 183.57-.454.213c.167.546.284.974.314 1.287.03.312-.015.481-.148.624l-6.356 6.885-.006.006c-.191.24-.42.33-.75.33s-.75-.112-1.214-.303l-.234.445c.49.32 1.387 1.054 3.219 2.754 1.454 1.348 2.785 2.003 3.936 2.15 1.15.149 2.115-.226 2.77-.892.633-.643.895-1.421.852-2.216-.033-.624-.36-1.25-.699-1.866.414.173.821.38 1.3.358.67-.03 1.377-.36 2.07-1.15.615-.701.804-1.588.64-2.454-.165-.866-.67-1.717-1.429-2.418l-1.8-1.662a33.683 33.683 0 0 1-1.136-1.103c-.394-.402-.752-.801-.875-.987zm1.227 3.958.917.846c.498.46.739.89.797 1.247.058.358-.047.662-.314.949-.507.544-.93.661-1.337.6-.407-.062-.826-.34-1.211-.696l-.85-.783zm-3.405 3.688.698.645c1.373 1.267 1.477 2.779.91 3.418-.458.518-.97.653-1.513.576-.544-.078-1.116-.396-1.58-.824l-1.1-1.016zm10.205-.206.67 1.7-5.52 8.902-1.737.08 6.962 4.316 3-1.946-1.806.02-3.76-2.332 2.069-3.338 2.134 1.324.554 1.206 1.057-3.35-1.18.315-1.627-1.008 1.408-2.27 3.201 1.985.72 1.618.563-3.062zm9.791 6.07.61 1.04-4.554 9.686-1.404.237 6.373 2.997 2.32-1.953c-1.093.345-2.223-.248-4.275-1.248l4.022-8.553 1.19-.192zM125.097 214.32q-.388 3.386-4.615 2.88-.436-.052-1.443-.323-1.01-.25-1.535-.29-.327-.04-.64-.013l-.139-3.405.467-.03q.252 1.66 3.215 2.015 2.18.26 2.32-.967.06-.529-.167-.856-.206-.325-.884-.771l-2.237-1.49q-1.929-1.283-1.691-3.356.172-1.503 1.484-2.16 1.337-.677 3.102-.466.392.047 1.099.239.728.194 1.099.239l.726.022.043 3.094-.448.054q-.205-.711-.825-1.086-.62-.374-1.818-.518-1.961-.234-2.08.803-.078.677.99 1.384l1.866 1.253q1.274.838 1.75 1.69.502.831.361 2.059zM167.59 195.04l1.75-.3 6.008 8.133-.399 1.24 3.228-2.383-1.203-.057-3.538-4.79 5.768 3.447-1.598-6.526 3.537 4.789-.3 1.167 3.228-2.384-1.302.016-6.008-8.133.802-1.585-3.989 2.946 1.13.158 1.139 5.001-4.445-2.559.181-1.126zM138.83 205l-1.42 1.209-3.837 5.769.25 4.335 1.394.963-4.897.281 1.276-1.115-.25-4.336-4.04-5.316-1.326-1.05 5.163-.297-1.197 1.195 2.49 3.468 2.558-3.758-1.096-1.064zm-36.802-3.99.76.936-3.042 10.262-1.353.446 6.753 2.001 1.998-2.28c-1.028.506-2.234.09-4.414-.589l2.687-9.061 1.147-.37zM147.94 212.03q.549 3.364-3.656 4.028-.434.069-1.477.083-1.04.034-1.556.138-.325.051-.618.162l-1.062-3.24.441-.155q.694 1.529 3.642 1.063 2.168-.342 1.969-1.561-.086-.526-.394-.78-.286-.256-1.06-.5l-2.558-.825q-2.206-.708-2.542-2.768-.243-1.493.84-2.483 1.102-1.015 2.858-1.293.39-.061 1.122-.07.755-.01 1.123-.069l.705-.176.884 2.966-.416.173q-.392-.628-1.09-.82t-1.89-.003q-1.951.309-1.783 1.339.11.672 1.33 1.062l2.136.697q1.454.46 2.145 1.149.708.664.907 1.884zM157.77 199.5l1.719.34 4.325 9.065-.836 1.443 7.09-3.383-.017-3.43-.92 1.469-3.829 1.827-1.622-3.399 2.173-1.037 1.26.178-2.156-2.588-.356 1.116-1.656.79-1.103-2.311 3.26-1.556 1.679.256-2.18-2.039zM235.67 132.75a1.775 1.775 0 0 1-1.775 1.775 1.775 1.775 0 0 1-1.774-1.775 1.775 1.775 0 0 1 1.774-1.775 1.775 1.775 0 0 1 1.775 1.775z"/><metadata><rdf:RDF><cc:Work rdf:about=""><dc:title>P-241229</dc:title></cc:Work></rdf:RDF></metadata></svg>
