<?xml version="1.0" encoding="UTF-8"?>
<svg width="1e3" height="563.4943848" xmlns="http://www.w3.org/2000/svg">
    <defs>
        <clipPath id="c">
            <path d="m34.015625 44h53.984375v22h-53.984375z"/>
        </clipPath>
        <clipPath id="b">
            <path d="m34.015625 35.015625h3.984375v8.984375h-3.984375z"/>
        </clipPath>
        <clipPath id="a">
            <path d="m56 35.015625h4v8.984375h-4z"/>
        </clipPath>
    </defs>
    <g transform="translate(291.4285714 -80.77247701)">
        <g transform="matrix(18.5131617 0 0 18.5131617 -921.1653374 -567.4775252)">
            <g transform="translate(0 4.023437441e-6)" clip-path="url(#c)">
                <path d="m34.023438 65.453125v-20.582031h53.96875v20.582031h-1.308594v-2.269531h-1.316406v2.269531h-1.316407v-3.722656h-1.316406v3.722656h-1.320312v-5.867187h-1.3125v5.867187h-1.320313v-9.234375h-1.316406v9.234375h-1.316406v-13.566406h-1.316407v13.566406h-1.316406v-9.234375h-1.316406v9.234375h-1.316406v-5.867187h-1.316407v5.867187h-1.316406v-3.722656h-1.316406v3.722656h-1.316406v-2.269531h-1.316407v2.269531h-1.316406v-1.605469h-1.316406v1.605469h-1.316406v-1.605469h-1.316407v1.605469h-1.316406v-2.269531h-1.316406v2.269531h-1.316406v-3.722656h-1.316407v3.722656h-1.316406v-5.867187h-1.316406v5.867187h-1.316406v-9.234375h-1.316407v9.234375h-1.316406v-13.566406h-1.316406v13.566406h-1.316406v-9.234375h-1.316407v9.234375h-1.316406v-5.867187h-1.316406v5.867187h-1.316406v-3.722656h-1.316407v3.722656h-1.316406v-2.269531h-1.316406v2.269531h-1.316406" fill="#004a63"/>
            </g>
            <g transform="translate(0 4.023437441e-6)" clip-path="url(#b)">
                <path d="m34.015625 39.113281c0-2.101562 0-4.097656 1.777344-4.097656 1.097656 0 1.542969 0.933594 1.5 2.636719h-1.058594c0-1.054688-0.121094-1.453125-0.441406-1.453125-0.605469 0-0.6875 0.878906-0.6875 2.914062 0 2.03125 0.082031 2.90625 0.6875 2.90625 0.5 0 0.476562-0.984375 0.492187-1.613281h1.0625c0 2.121094-0.550781 2.800781-1.554687 2.800781-1.777344 0-1.777344-2.019531-1.777344-4.09375" fill="#b82830"/>
            </g>
            <g fill="#b82830">
                <path d="m39.914063 37.14844202h-1.058594v5.988281h1.121094v-5.988281h-0.0625"/>
                <path d="m41.382813 38.76172302c0 1.003906 0.636718 1.460937 1.207031 1.859375 0.425781 0.304687 0.796875 0.566406 0.796875 1.007812 0 0.394532-0.171875 0.625-0.460938 0.625-0.488281 0-0.527343-0.394531-0.527343-0.992187v-0.039063h-1.074219l-0.003906 0.039063c-0.039063 0.742187 0.089843 1.253906 0.390625 1.570312 0.238281 0.253907 0.597656 0.382813 1.0625 0.382813 0.792968 0 1.703125-0.199219 1.703125-1.742188 0-1.058593-0.640625-1.484375-1.210938-1.863281-0.425781-0.285156-0.792969-0.53125-0.792969-0.992187 0-0.378907 0.167969-0.585938 0.472657-0.585938 0.292968 0 0.417968 0.253906 0.417968 0.84375v0.039063h1.050782v-0.035157c0.039062-0.667968-0.082032-1.136718-0.367188-1.433593-0.238281-0.253907-0.582031-0.375-1.054687-0.375-1.070313 0-1.609375 0.570312-1.609375 1.691406"/>
                <path d="m45.636719 40.14062902c0 1.511719 0 3.074219 1.683594 3.074219 1.035156 0 1.476562-0.632813 1.476562-2.113281v-0.042969h-1.0625l-0.003906 0.144531c-0.011719 0.445313-0.023438 1.050781-0.410156 1.050781-0.503907 0-0.589844-0.554687-0.589844-2.113281 0-1.554687 0.085937-2.109375 0.589844-2.109375 0.226562 0 0.363281 0.171875 0.363281 1.03125v0.039063h1.058594v-0.039063c0.027343-0.773437-0.117188-1.304687-0.429688-1.628906-0.234375-0.242188-0.570312-0.363281-0.992187-0.363281-1.683594 0-1.683594 1.492187-1.683594 3.070312"/>
                <path d="m51.070313 40.14062902c0-1.554687 0.089843-2.109375 0.589843-2.109375s0.589844 0.554688 0.589844 2.109375c0 1.558594-0.089844 2.113281-0.589844 2.113281s-0.589843-0.554687-0.589843-2.113281zm-1.089844 0c0 1.511719 0 3.074219 1.679687 3.074219 1.683594 0 1.683594-1.5625 1.683594-3.074219 0-1.578125 0-3.070312-1.683594-3.070312-1.679687 0-1.679687 1.492187-1.679687 3.070312"/>
            </g>
            <g transform="translate(0 4.023437441e-6)" clip-path="url(#a)">
                <path d="m57.953125 43.207031c-1.332031 0-1.582031-1.207031-1.523437-2.578125h1.074218c0 0.753907 0.023438 1.390625 0.617188 1.390625 0.363281 0 0.539062-0.359375 0.539062-0.898437 0-1.425781-2.167968-1.515625-2.167968-3.878906 0-1.238282 0.386718-2.226563 1.699218-2.226563 1.046875 0 1.570313 0.722656 1.496094 2.382813h-1.046875c0-0.59375-0.066406-1.199219-0.5-1.199219-0.351562 0-0.554687 0.296875-0.554687 0.851562 0 1.5 2.167968 1.371094 2.167968 3.859375 0 2.054688-0.976562 2.296875-1.800781 2.296875" fill="#b82830"/>
            </g>
            <g fill="#b82830">
                <path d="m64.324219 37.16797302h-1.042969s-0.652344 2.132812-0.726562 2.371094c-0.070313-0.242188-0.679688-2.371094-0.679688-2.371094h-1.175781s1.253906 3.867187 1.261719 3.882812v2.066407h1.074218v-2.074219c0.003907 0 1.332032-3.820313 1.332032-3.820313l0.019531-0.054687h-0.0625"/>
                <path d="m65.402344 38.76172302c0 1.003906 0.644531 1.460937 1.207031 1.859375 0.425781 0.304687 0.796875 0.566406 0.796875 1.007812 0 0.394532-0.167969 0.625-0.457031 0.625-0.488281 0-0.527344-0.394531-0.527344-0.992187v-0.039063h-1.074219l-0.003906 0.039063c-0.039062 0.742187 0.089844 1.253906 0.386719 1.570312 0.242187 0.253907 0.597656 0.382813 1.066406 0.382813 0.792969 0 1.699219-0.199219 1.699219-1.742188 0-1.058593-0.640625-1.484375-1.207031-1.863281-0.425782-0.285156-0.792969-0.53125-0.792969-0.992187 0-0.378907 0.164062-0.585938 0.472656-0.585938 0.292969 0 0.417969 0.253906 0.417969 0.84375v0.039063h1.050781l0.003906-0.035157c0.035157-0.667968-0.085937-1.136718-0.371093-1.433593-0.234375-0.253907-0.582032-0.375-1.054688-0.375-1.070312 0-1.613281 0.570312-1.613281 1.691406"/>
                <path d="m72.984375 37.16797302h-3.25v1.058594h1.105469v4.890625h1.074219v-4.890625h1.109375v-1.058594h-0.039063"/>
                <path d="m77.152344 37.16797302h-2.636719v5.949219h2.730469v-0.984375h-1.652344v-1.632813h1.476563v-0.984375h-1.476563v-1.363281h1.597656v-0.984375h-0.039062"/>
                <path d="m83.507813 37.16797302h-1.578125s-0.699219 3.519531-0.765625 3.84375c-0.0625-0.328125-0.714844-3.84375-0.714844-3.84375h-1.675781v5.949219h1.050781v-4.195313c0.117187 0.609375 0.804687 4.195313 0.804687 4.195313h1.019532s0.734375-3.628907 0.851562-4.214844v4.214844h1.050781v-5.949219h-0.042968"/>
                <path d="m84.9375 38.76172302c0 1.003906 0.640625 1.460937 1.207031 1.859375 0.425782 0.304687 0.796875 0.566406 0.796875 1.007812 0 0.394532-0.167968 0.625-0.460937 0.625-0.488281 0-0.523438-0.394531-0.523438-0.992187v-0.039063h-1.078125v0.039063c-0.039062 0.742187 0.089844 1.253906 0.386719 1.570312 0.242188 0.253907 0.597656 0.382813 1.0625 0.382813 0.792969 0 1.703125-0.199219 1.703125-1.742188 0-1.058593-0.640625-1.484375-1.207031-1.863281-0.425781-0.285156-0.796875-0.53125-0.796875-0.992187 0-0.378907 0.167969-0.585938 0.472656-0.585938 0.296875 0 0.417969 0.253906 0.417969 0.84375v0.039063h1.054687v-0.035157c0.035157-0.667968-0.085937-1.136718-0.367187-1.433593-0.242188-0.253907-0.585938-0.375-1.058594-0.375-1.070312 0-1.609375 0.570312-1.609375 1.691406"/>
            </g>
        </g>
    </g>
</svg>
