<svg width="2500" height="2500" viewBox="0 0 2500 2500" fill="none" xmlns="http://www.w3.org/2000/svg">
<path fill-rule="evenodd" clip-rule="evenodd" d="M1422.52 1304.47C1368.47 1336.39 1303.24 1355.87 1239.64 1355.87C1044.18 1355.87 884.681 1196.38 884.681 1000.92C884.681 805.448 1044.18 645.946 1239.64 645.946C1303.24 645.946 1368.47 665.245 1422.52 697.151V315.762C1364.19 301.949 1300.4 290.769 1239.64 290.769C848.508 290.769 529.504 609.773 529.504 1000.92C529.504 1391.84 848.508 1710.84 1239.64 1710.84C1300.4 1710.84 1364.19 1699.67 1422.52 1685.86V1304.47ZM1422.52 970.644H1721.2L1987.16 704.868H1422.52V970.644Z" fill="#33348E"/>
<path fill-rule="evenodd" clip-rule="evenodd" d="M1987.16 1296.95L1721.2 1031.19H1422.52V1296.95H1987.16Z" fill="#CC2229"/>
<path fill-rule="evenodd" clip-rule="evenodd" d="M410.428 1900.63C397.627 1900.63 387.264 1905.73 379.339 1916.08C371.415 1926.23 367.55 1939.84 367.55 1956.9C367.55 1973.78 371.415 1987.18 379.339 1997.54C387.264 2007.69 397.627 2012.99 410.428 2012.99C423.423 2012.99 433.799 2007.89 441.724 1997.73C449.441 1987.58 453.306 1973.97 453.306 1956.9C453.306 1939.84 449.441 1926.02 441.724 1915.87C433.799 1905.73 423.423 1900.63 410.428 1900.63ZM2363.66 2016.03C2368.76 2017.04 2374.43 2017.45 2380.73 2017.45C2390.48 2017.45 2401.04 2016.03 2412.01 2013.4C2423.68 2010.32 2435.04 2006.17 2445.95 2001.01V2049.38C2434.79 2053.42 2423.41 2056.27 2411.4 2058.31C2399.63 2060.34 2387.03 2061.35 2374.04 2061.35C2370.56 2061.35 2367.12 2061.14 2363.65 2061.14C2332.57 2059.31 2308 2049.98 2289.71 2032.89C2269.59 2013.79 2259.44 1987.58 2259.44 1953.66C2259.44 1922.99 2268.76 1898.59 2287.45 1880.5C2306.14 1862.41 2331.35 1853.26 2363.04 1853.26H2363.65C2395.36 1853.47 2419.73 1862.81 2437.01 1881.3C2454.49 1899.8 2463.22 1926.43 2463.22 1960.74V1977.21H2324.62C2326.06 1990 2331.54 1999.99 2341.29 2006.88C2347.42 2011.38 2354.95 2014.41 2363.66 2016.03ZM2363.66 1937.41H2403.31C2402.06 1924.01 2397.81 1913.65 2390.69 1906.13C2383.57 1898.6 2374.43 1894.75 2363.66 1894.75H2363.45C2352.48 1894.75 2343.74 1898.4 2336.66 1906.13C2329.75 1913.65 2325.26 1924.01 2323.84 1937.41H2363.66ZM1949.77 2013C1962.58 2013 1973.15 2007.9 1980.87 1997.75C1988.77 1987.59 1992.65 1973.99 1992.65 1956.92C1992.65 1939.85 1988.77 1926.04 1980.87 1915.88C1973.14 1905.73 1962.58 1900.63 1949.77 1900.63C1936.98 1900.63 1926.62 1905.73 1918.69 1916.08C1910.77 1926.23 1906.71 1939.84 1906.71 1956.9C1906.71 1973.78 1910.76 1987.18 1918.69 1997.54C1926.62 2007.71 1936.98 2013 1949.77 2013ZM1949.77 1853.29C1985.33 1853.29 2013.18 1862.64 2033.09 1880.93C2053.2 1899.21 2063.15 1924.83 2063.15 1957.33C2063.15 1989.65 2053.19 2015.03 2033.09 2033.32C2013.18 2051.82 1985.33 2060.96 1949.77 2060.96C1914.23 2060.96 1886.39 2051.82 1866.48 2033.32C1846.36 2015.03 1836.41 1989.65 1836.41 1957.33C1836.41 1924.83 1846.38 1899.23 1866.48 1880.93C1886.39 1862.63 1914.23 1853.29 1949.77 1853.29ZM2244.4 1855.51L2240.95 1913.84C2237.98 1912.79 2234.92 1911.97 2231.81 1911.39C2227.84 1910.79 2223.82 1910.52 2219.8 1910.59C2203.77 1910.59 2191.58 1915.69 2183.45 1926.04C2175.31 1936.39 2171.03 1951.65 2171.03 1971.75V2055.85H2103.37V1858.57H2163.94V1896.15C2170.63 1881.72 2178.96 1870.75 2188.92 1863.83C2198.88 1856.95 2210.48 1853.28 2224.08 1853.28C2227.53 1853.28 2233.83 1854.08 2243.19 1855.3L2244.4 1855.51ZM1687.87 2008.72C1700.66 2008.51 1710.62 2003.85 1718.14 1994.71C1725.46 1985.36 1729.12 1972.17 1729.12 1955.7C1729.12 1939.43 1725.26 1926.65 1717.53 1917.09C1710.01 1907.94 1700.26 1903.26 1687.87 1902.85H1686.04C1674.46 1902.85 1664.92 1907.74 1657.6 1917.7C1650.08 1927.85 1646.43 1940.65 1646.43 1956.5C1646.43 1972.56 1650.08 1985.36 1657.6 1994.7C1664.92 2004.05 1674.88 2008.71 1687.47 2008.71C1687.46 2008.72 1687.66 2008.72 1687.87 2008.72ZM1687.87 1856.35C1692.55 1857.57 1697.22 1859.38 1701.48 1861.42C1712.48 1866.92 1721.81 1875.05 1729.52 1885.82V1768.16H1797.18V2055.88H1736.43V2016.46C1728.91 2030.29 1718.95 2040.86 1706.77 2047.95C1700.9 2051.58 1694.54 2054.32 1687.87 2056.08C1680.44 2058.01 1672.8 2058.97 1665.12 2058.95C1638.91 2058.95 1617.78 2049.4 1601.52 2030.3C1585.26 2011.2 1577.36 1985.79 1577.36 1954.5C1577.36 1923.62 1585.06 1899.03 1600.91 1880.73C1616.76 1862.43 1637.9 1853.3 1664.51 1853.3C1672.4 1853.23 1680.26 1854.26 1687.87 1856.35ZM1431.84 2013C1444.86 2013 1455.22 2007.9 1463.14 1997.75C1470.87 1987.59 1474.73 1973.99 1474.73 1956.92C1474.73 1939.85 1470.87 1926.04 1463.14 1915.88C1455.22 1905.73 1444.86 1900.63 1431.84 1900.63C1419.24 1900.63 1408.88 1905.73 1400.76 1916.08C1392.84 1926.23 1388.98 1939.84 1388.98 1956.9C1388.98 1973.78 1392.84 1987.18 1400.76 1997.54C1408.89 2007.71 1419.25 2013 1431.84 2013ZM1431.84 1853.29C1467.4 1853.29 1495.24 1862.64 1515.35 1880.93C1535.45 1899.21 1545.41 1924.83 1545.41 1957.33C1545.41 1989.65 1535.45 2015.03 1515.35 2033.32C1495.23 2051.82 1467.4 2060.96 1431.84 2060.96C1396.3 2060.96 1368.66 2051.82 1348.75 2033.32C1328.64 2015.03 1318.69 1989.65 1318.69 1957.33C1318.69 1924.83 1328.65 1899.23 1348.75 1880.93C1368.66 1862.63 1396.3 1853.29 1431.84 1853.29ZM410.428 2060.95C374.878 2060.95 347.239 2051.8 327.123 2033.31C307.201 2015.02 297.241 1989.64 297.241 1957.32C297.241 1924.82 307.201 1899.21 327.123 1880.91C347.239 1862.63 374.878 1853.28 410.428 1853.28C445.991 1853.28 473.824 1862.63 493.94 1880.91C513.849 1899.2 524.017 1924.82 524.017 1957.32C524.017 1989.64 513.849 2015.02 493.94 2033.31C473.824 2051.8 445.991 2060.95 410.428 2060.95ZM758.082 1895.16C765.812 1881.73 775.566 1871.58 787.55 1864.46C799.518 1857.3 813.227 1853.57 827.172 1853.69C850.336 1853.69 868.222 1861.21 880.413 1875.86C892.799 1890.68 898.895 1912.21 898.895 1940.45V2055.85H832.256V1954.48C832.256 1939.23 829.611 1927.85 824.526 1920.54C819.442 1913.42 811.725 1909.77 801.155 1909.77C790.182 1909.77 781.441 1914.45 774.943 1923.6C768.64 1932.95 765.397 1945.34 765.397 1961.16V2055.85H698.136V1954.48C698.136 1939.23 695.698 1927.85 690.614 1920.54C685.737 1913.42 677.812 1909.77 667.048 1909.77C656.27 1909.77 647.541 1914.45 641.043 1923.6C634.338 1932.95 631.082 1945.53 631.082 1961.16V2055.85H564.236V1858.57H624.779V1893.94C632.496 1881.12 642.055 1870.97 653.831 1864.04C665.747 1857.15 679.288 1853.57 693.052 1853.68C708.291 1853.68 721.495 1857.35 732.675 1864.44C743.867 1871.58 752.194 1881.73 758.082 1895.16ZM1141.09 1895.16C1148.81 1881.73 1158.56 1871.58 1170.55 1864.46C1182.53 1857.32 1196.23 1853.6 1210.17 1853.69C1233.33 1853.69 1251.01 1861.21 1263.2 1875.86C1275.59 1890.68 1281.7 1912.21 1281.7 1940.45V2055.85H1215.24V1954.48C1215.24 1939.23 1212.61 1927.85 1207.52 1920.54C1202.65 1913.42 1194.72 1909.77 1184.15 1909.77C1173.18 1909.77 1164.65 1914.45 1157.94 1923.6C1151.64 1932.95 1148.39 1945.34 1148.39 1961.16V2055.85H1081.13V1954.48C1081.13 1939.23 1078.69 1927.85 1073.82 1920.54C1068.73 1913.42 1060.81 1909.77 1050.04 1909.77C1039.28 1909.77 1030.54 1914.45 1024.04 1923.6C1017.33 1932.95 1014.08 1945.53 1014.08 1961.16V2055.85H947.233V1858.57H1007.98V1893.94C1015.51 1881.12 1025.05 1870.97 1037.04 1864.04C1048.83 1857.15 1061.83 1853.68 1076.26 1853.68C1091.29 1853.68 1104.5 1857.35 1115.68 1864.44C1126.86 1871.58 1135.19 1881.73 1141.09 1895.16ZM266.373 1797.61L260.277 1853.29C250.587 1847.53 240.206 1843.03 229.383 1839.89C218.653 1836.97 207.587 1835.46 196.466 1835.4C169.852 1835.4 148.711 1843.13 133.069 1858.79C117.22 1874.21 109.296 1894.96 109.296 1921.16C109.296 1947.37 117.428 1968.3 133.471 1983.96C149.528 1999.38 170.863 2007.32 197.685 2007.32C208.048 2007.32 218.812 2005.9 229.785 2003.47C241.166 2000.67 252.254 1996.79 262.897 1991.88L267.164 2051.61C254.363 2055.06 241.769 2057.72 228.968 2059.53C216.167 2061.16 203.365 2062.17 190.357 2062.17C141.993 2062.17 104.419 2049.78 77.3901 2024.98C50.3741 2000.21 36.7559 1965.45 36.7559 1921.15C36.7559 1878.7 50.1666 1845.16 76.7806 1820.37C103.395 1795.37 139.567 1782.98 185.078 1782.98C200.318 1782.98 214.74 1784.2 228.566 1786.62C242.184 1789.09 254.791 1792.75 266.373 1797.61Z" fill="#33348E"/>
</svg>
