<svg width="2500" height="1536" viewBox="0 0 2500 1536" fill="none" xmlns="http://www.w3.org/2000/svg">
<path fill-rule="evenodd" clip-rule="evenodd" d="M2321.69 435.417V577.189H188.464V434.457L2321.69 435.417Z" fill="#CC2131"/>
<path fill-rule="evenodd" clip-rule="evenodd" d="M352.259 1039.83V1146.19H485.406V1130.86H366.629V1100.21H480.62V1083.92H366.629V1056.12H485.406V1039.83H352.259ZM523.719 1039.83V1146.19H538.089V1055.19L604.183 1146.19H613.768L678.902 1055.19V1146.19H694.232L693.273 1039.83H676.036L608.982 1131.82L541.928 1039.83H523.719ZM728.719 1039.83V1146.19H743.077V1039.83H728.719ZM1851.36 1039.83V1053.27H1903.08V1146.19H1918.44V1053.27H1971.11V1039.83H1851.36ZM1418.39 1039.83C1403.06 1040.79 1307.29 1039.83 1307.29 1039.83V1146.17H1418.39C1418.39 1146.17 1461.5 1145.21 1462.46 1091.58C1463.43 1055.19 1438.5 1038.9 1418.39 1039.83ZM1418.39 1130.86H1321.64V1053.27H1418.39C1418.39 1053.27 1446.18 1053.27 1446.18 1091.6C1447.14 1130.86 1418.39 1130.86 1418.39 1130.86ZM2320.76 1075.31C2320.76 1053.27 2314.04 1039.85 2279.57 1039.85H2177.05V1145.23H2192.38V1106.93H2279.58L2302.55 1145.23L2318.84 1146.19L2295.84 1106.93C2295.83 1106.91 2320.76 1102.1 2320.76 1075.31ZM2280.5 1092.53H2192.37V1053.27H2279.57C2292.96 1053.27 2306.36 1057.1 2306.36 1074.35C2306.36 1095.42 2280.5 1092.53 2280.5 1092.53ZM1816.88 1077.2C1816.88 1060.94 1808.27 1054.23 1797.73 1054.23H1711.53C1701 1054.23 1692.35 1062.84 1692.35 1073.39V1112.65C1692.35 1123.18 1700.98 1131.83 1711.53 1131.83H1797.73C1808.26 1131.83 1816.88 1124.15 1816.88 1108.83H1831.24C1831.24 1132.77 1816.88 1146.2 1799.65 1146.2H1709.6C1692.35 1146.2 1677.98 1131.84 1677.98 1113.62V1072.43C1677.98 1054.24 1692.33 1039.85 1709.6 1039.85H1799.65C1816.87 1039.85 1831.24 1053.27 1831.24 1077.21L1816.88 1077.2ZM1506.52 1039.83V1112.63C1506.52 1123.16 1515.15 1131.82 1525.7 1131.82H1611.9C1622.43 1131.82 1631.05 1124.14 1631.05 1108.82V1039.85H1645.41V1108.82C1645.41 1132.76 1631.05 1146.19 1613.79 1146.19H1523.77C1506.52 1146.19 1492.15 1131.83 1492.15 1113.61V1039.83H1506.52ZM1262.27 1127.03L1168.38 1039.83H1149.22V1146.19H1163.6V1056.12L1260.35 1146.19H1277.6V1039.83H1262.27V1127.03ZM916.469 1077.2C916.469 1060.94 907.844 1054.23 897.3 1054.23H811.103C800.559 1054.23 791.934 1062.84 791.934 1074.35V1112.65C791.934 1123.18 800.559 1131.83 811.103 1131.83H897.3C907.831 1131.83 916.469 1124.15 916.469 1109.79H930.827C930.827 1133.73 916.469 1146.2 899.22 1146.2H810.13C805.842 1146.23 801.59 1145.42 797.622 1143.79C793.653 1142.17 790.048 1139.77 787.016 1136.74C783.985 1133.7 781.587 1130.1 779.964 1126.13C778.341 1122.16 777.525 1117.91 777.563 1113.62V1072.43C777.529 1068.14 778.347 1063.89 779.972 1059.92C781.596 1055.95 783.993 1052.35 787.024 1049.32C790.055 1046.28 793.659 1043.89 797.626 1042.26C801.593 1040.63 805.843 1039.81 810.13 1039.85H899.22C916.469 1039.85 930.827 1053.27 930.827 1077.21L916.469 1077.2ZM220.071 1145.21C200.901 1145.21 188.451 1132.75 186.544 1116.48H203.781C204.741 1124.14 208.58 1130.84 220.071 1130.84H296.696C305.321 1130.84 312.026 1123.16 312.026 1114.55C312.026 1105.94 305.321 1099.22 296.696 1099.22H220.071C202.821 1100.18 188.45 1087.72 188.45 1070.47C188.45 1053.24 202.821 1039.82 220.071 1039.82H290.951C310.107 1039.82 322.558 1054.2 321.598 1064.75H304.348C305.308 1057.07 296.683 1054.22 285.192 1054.22L220.058 1055.18C211.433 1055.18 203.768 1058.04 203.768 1070.48C203.768 1078.16 205.687 1083.9 220.058 1083.9H295.723C304.088 1083.98 312.089 1087.33 318.004 1093.24C323.918 1099.16 327.273 1107.16 327.344 1115.53C327.344 1132.75 312.013 1146.17 294.777 1146.17L220.071 1145.21ZM1085.05 1038.9H990.215C972.019 1038.9 957.648 1054.23 957.648 1071.45V1112.65C957.61 1116.93 958.427 1121.19 960.05 1125.16C961.673 1129.12 964.07 1132.73 967.101 1135.76C970.133 1138.8 973.738 1141.2 977.707 1142.82C981.675 1144.44 985.927 1145.26 990.215 1145.23H1085.05C1102.29 1145.23 1116.66 1130.87 1116.66 1112.65V1071.45C1116.66 1054.23 1102.29 1038.9 1085.05 1038.9ZM1102.29 1108.82C1102.29 1121.28 1091.76 1130.86 1079.3 1130.86H995.001C982.563 1130.86 972.019 1121.28 972.019 1108.82V1076.24C972.019 1063.8 982.563 1053.27 995.001 1053.27H1079.3C1091.76 1053.27 1102.29 1063.8 1102.29 1076.24V1108.82ZM2119.6 1039.83H2024.76C2016.4 1039.91 2008.4 1043.26 2002.49 1049.18C1996.57 1055.09 1993.22 1063.09 1993.14 1071.45V1113.61C1993.21 1121.97 1996.57 1129.97 2002.48 1135.89C2008.4 1141.8 2016.4 1145.15 2024.76 1145.23H2119.6C2137.78 1145.23 2152.15 1130.87 2152.15 1113.61V1071.45C2152.15 1054.23 2137.78 1039.83 2119.6 1039.83ZM2137.78 1108.82C2137.78 1121.28 2127.25 1130.86 2114.78 1130.86H2029.55C2026.64 1130.91 2023.75 1130.37 2021.05 1129.28C2018.36 1128.19 2015.91 1126.57 2013.85 1124.51C2011.8 1122.46 2010.17 1120.01 2009.09 1117.31C2008 1114.62 2007.46 1111.73 2007.51 1108.82V1076.24C2007.51 1063.8 2017.08 1053.27 2029.55 1053.27H2114.78C2127.25 1053.27 2137.78 1063.8 2137.78 1076.24V1108.82ZM235.401 750.569V800.386H188.463V630.832H404.942V676.81H236.348V711.284H399.196V751.516L235.401 750.569ZM762.246 800.386H810.13V630.832H762.246V800.386ZM1440.43 631.779L1439.46 800.386H1489.29L1490.23 739.065H1625.29V800.386H1675.12V631.779H1625.29V695.966H1490.23V631.779H1440.43ZM1823.6 630.832V800.386H2041.97V755.355H1870.54V630.832H1823.6ZM625.259 631.779H513.187L414.526 800.373H467.21L498.817 750.556H638.67L668.371 800.373H726.799L625.259 631.779ZM518.933 709.377L540.969 673.944H601.317L620.473 709.377H518.933ZM1053.44 752.488C1055.36 752.488 1051.52 752.488 1053.44 752.488ZM1061.1 753.435C1083.13 749.609 1102.29 732.359 1102.29 709.377V681.596C1102.29 656.694 1077.39 631.792 1051.51 631.792H862.813V800.386H907.832V751.529H1000.75L1044.79 800.386H1105.15L1061.1 753.435ZM1037.15 713.203H907.832V675.837H1038.1C1048.63 675.837 1057.26 684.462 1057.26 695.006C1057.27 705.551 1048.66 715.123 1037.15 713.203ZM1398.28 697.886H1350.41C1347.52 687.354 1336.99 678.716 1324.55 678.716H1223.96C1208.63 678.716 1197.14 690.221 1197.14 704.578V728.533C1197.14 742.891 1208.63 754.395 1223.96 754.395H1324.55C1337.95 754.395 1348.49 744.823 1350.41 731.413H1396.39C1396.39 773.564 1367.64 800.386 1331.24 800.386H1210.55C1174.15 800.386 1144.45 771.645 1144.45 735.252V695.979C1144.45 660.546 1174.15 630.845 1210.55 630.845H1331.24C1367.62 630.832 1398.28 662.439 1398.28 697.886ZM1727.79 800.386H1775.69V631.779H1727.79V800.386ZM2267.1 631.779H2078.4V799.413H2268.06C2268.06 799.413 2320.74 788.882 2320.74 713.203C2320.76 641.364 2274.75 632.739 2267.1 631.779ZM2253.68 755.355H2124.36V675.85H2253.68C2265.18 677.77 2279.57 679.689 2280.5 714.176C2280.5 754.395 2253.68 755.355 2253.68 755.355Z" fill="black"/>
<path fill-rule="evenodd" clip-rule="evenodd" d="M2321.69 851.149V992.922H188.464V850.177L2321.69 851.149Z" fill="#CC2131"/>
<path fill-rule="evenodd" clip-rule="evenodd" d="M2338.94 1065.72C2338.94 1052.3 2349.47 1041.75 2361.91 1041.75C2375.33 1041.75 2384.91 1052.28 2384.91 1065.72C2384.91 1079.12 2375.33 1089.66 2361.91 1089.66C2349.47 1089.66 2338.94 1079.13 2338.94 1065.72ZM2334.16 1065.72C2334.16 1081.98 2346.62 1093.49 2361.92 1093.49C2377.28 1093.49 2389.72 1081.98 2389.72 1065.72C2389.72 1058.35 2386.79 1051.29 2381.58 1046.08C2376.37 1040.87 2369.3 1037.94 2361.94 1037.94C2354.57 1037.94 2347.5 1040.87 2342.29 1046.08C2337.08 1051.29 2334.16 1058.35 2334.16 1065.72ZM2351.38 1081.98H2356.19V1067.63H2361.91L2370.55 1081.98H2376.29L2366.72 1067.63C2371.51 1067.63 2375.33 1064.76 2375.33 1059.02C2375.33 1052.3 2371.51 1049.44 2363.83 1049.44H2351.37L2351.38 1081.98ZM2356.19 1053.27H2362.88C2366.74 1053.27 2370.56 1054.23 2370.56 1059.02C2370.56 1063.8 2365.78 1063.8 2361.92 1063.8H2356.2V1053.27H2356.19Z" fill="black"/>
</svg>
