<svg width="725" height="744" viewBox="0 0 725 744" fill="none" xmlns="http://www.w3.org/2000/svg">
<path d="M277.958 522.773C277.958 524.978 275.422 526.743 272.224 526.743C268.584 527.074 266.048 525.309 266.048 522.773C266.048 520.567 268.584 518.802 271.783 518.802C275.091 518.472 277.958 520.236 277.958 522.773ZM243.661 517.81C242.889 520.016 245.094 522.552 248.403 523.214C251.27 524.317 254.579 523.214 255.24 521.008C255.902 518.802 253.807 516.266 250.498 515.273C247.631 514.501 244.433 515.604 243.661 517.81ZM292.405 515.935C289.207 516.707 287.002 518.802 287.332 521.339C287.663 523.545 290.531 524.978 293.839 524.206C297.037 523.434 299.243 521.339 298.912 519.133C298.581 517.038 295.604 515.604 292.405 515.935ZM364.971 93.333C212.01 93.333 95 209.46 95 362.422C95 484.725 171.977 589.383 281.929 626.218C296.045 628.754 301.007 620.042 301.007 612.873C301.007 606.036 300.677 568.319 300.677 545.16C300.677 545.16 223.479 561.702 207.267 512.296C207.267 512.296 194.695 480.204 176.609 471.932C176.609 471.932 151.354 454.618 178.373 454.949C178.373 454.949 205.834 457.155 220.942 483.402C245.094 525.971 285.568 513.729 301.338 506.451C303.875 488.806 311.043 476.564 318.984 469.286C257.336 462.448 195.136 453.515 195.136 347.424C195.136 317.096 203.518 301.877 221.163 282.467C218.296 275.299 208.922 245.743 224.03 207.586C247.079 200.417 300.125 237.362 300.125 237.362C322.182 231.186 345.892 227.988 369.383 227.988C392.873 227.988 416.583 231.186 438.64 237.362C438.64 237.362 491.686 200.307 514.735 207.586C529.843 245.854 520.469 275.299 517.602 282.467C535.247 301.987 546.055 317.206 546.055 347.424C546.055 453.846 481.099 462.338 419.451 469.286C429.597 477.998 438.199 494.54 438.199 520.457C438.199 557.622 437.868 603.61 437.868 612.653C437.868 619.821 442.941 628.533 456.947 625.997C567.229 589.383 642.001 484.725 642.001 362.422C642.001 209.46 517.933 93.333 364.971 93.333ZM202.194 473.697C200.761 474.8 201.092 477.336 202.966 479.432C204.731 481.196 207.267 481.968 208.701 480.534C210.135 479.432 209.804 476.895 207.929 474.8C206.165 473.035 203.628 472.263 202.194 473.697ZM190.284 464.764C189.512 466.198 190.615 467.962 192.82 469.065C194.585 470.168 196.791 469.837 197.563 468.293C198.335 466.859 197.232 465.095 195.026 463.992C192.82 463.33 191.056 463.661 190.284 464.764ZM226.015 504.025C224.251 505.458 224.913 508.767 227.449 510.862C229.986 513.399 233.184 513.729 234.617 511.965C236.051 510.531 235.389 507.223 233.184 505.127C230.758 502.591 227.449 502.26 226.015 504.025ZM213.443 487.813C211.679 488.916 211.679 491.783 213.443 494.32C215.208 496.856 218.185 497.959 219.619 496.856C221.384 495.423 221.384 492.555 219.619 490.019C218.075 487.482 215.208 486.379 213.443 487.813Z" fill="black"/>
</svg>
