<?xml version="1.0" encoding="UTF-8" standalone="no"?>
<!DOCTYPE svg PUBLIC "-//W3C//DTD SVG 1.1//EN" "http://www.w3.org/Graphics/SVG/1.1/DTD/svg11.dtd">
<svg width="100%" height="100%" viewBox="0 0 2500 834" version="1.1" xmlns="http://www.w3.org/2000/svg" xmlns:xlink="http://www.w3.org/1999/xlink" xml:space="preserve" xmlns:serif="http://www.serif.com/" style="fill-rule:evenodd;clip-rule:evenodd;stroke-linejoin:round;stroke-miterlimit:2;">
    <g id="Layer-1" serif:id="Layer 1" transform="matrix(4.16667,0,0,4.16667,0,-833.333)">
        <g transform="matrix(3.25298,0,0,3.25298,568.221,259.862)">
            <path d="M0,-3.272L1.083,-3.272C1.092,-3.258 1.096,-3.245 1.101,-3.231C1.277,-2.846 1.454,-2.461 1.617,-2.073C1.794,-1.637 1.951,-1.195 2.142,-0.764C2.15,-0.751 2.156,-0.737 2.16,-0.723C2.3,-1.041 2.517,-1.552 2.658,-1.869C2.789,-2.162 2.92,-2.461 3.051,-2.755C3.103,-2.869 3.11,-2.892 3.11,-2.933C3.11,-3.032 3.01,-3.032 2.92,-3.032L2.522,-3.014L2.92,-3.272L4.373,-3.272L4.27,-3.172C4.164,-3.077 4.109,-3.01 4.109,-2.824C4.109,-2.76 4.115,-2.698 4.124,-2.629C4.15,-2.344 4.174,-2.059 4.196,-1.773C4.228,-1.398 4.264,-1.022 4.333,-0.651C4.391,-0.348 4.454,-0.239 4.672,-0.076C4.432,-0.031 4.27,-0.008 4.028,-0.008C3.93,-0.008 3.758,-0.008 3.599,-0.126C3.413,-0.271 3.387,-0.501 3.354,-0.913C3.328,-1.195 3.301,-1.475 3.277,-1.756C3.259,-2.023 3.25,-2.29 3.225,-2.557L3.219,-2.611L3.192,-2.552C3.033,-2.209 2.888,-1.855 2.734,-1.511C2.377,-0.687 2.351,-0.633 2.278,-0.411L2.328,-0.275C2.196,-0.244 1.681,-0.072 1.489,0C1.345,-0.403 0.834,-1.714 0.427,-2.611C0.387,-2.23 0.35,-1.851 0.313,-1.471C0.303,-1.344 0.228,-0.497 0.228,-0.42C0.228,-0.321 0.25,-0.294 0.427,-0.275L0.825,-0.217L0.593,-0.076L-0.249,-0.076L-0.13,-0.217C-0.107,-0.249 -0.086,-0.275 -0.071,-0.316C-0.046,-0.388 -0.031,-0.516 -0.013,-0.696C0.019,-0.973 0.056,-1.244 0.088,-1.52C0.105,-1.692 0.19,-2.534 0.213,-2.729C0.219,-2.774 0.222,-2.824 0.222,-2.869C0.222,-2.986 0.178,-3.045 0.041,-3.045C-0.022,-3.045 -0.313,-3.037 -0.379,-3.037L0,-3.272Z" style="fill:rgb(108,110,112);"/>
        </g>
        <g transform="matrix(3.25298,0,0,3.25298,567.573,259.615)">
            <path d="M0,-3.196L-0.197,-2.735L-0.401,-2.644C-0.389,-2.689 -0.352,-2.857 -0.352,-2.874C-0.352,-2.978 -0.474,-2.983 -0.601,-2.983L-1.23,-2.978C-1.285,-1.213 -1.285,-1.059 -1.285,-0.82C-1.285,-0.693 -1.285,-0.589 -1.276,-0.435C-1.262,-0.24 -1.198,-0.199 -0.989,-0.186L-0.606,-0.145L-0.9,0L-2.408,0L-2.308,-0.145C-2.208,-0.295 -2.193,-0.317 -2.193,-0.417C-2.19,-0.517 -2.193,-0.983 -2.193,-1.087C-2.193,-1.277 -2.193,-1.471 -2.19,-1.661C-2.177,-2.05 -2.153,-2.44 -2.153,-2.825C-2.153,-2.889 -2.159,-2.961 -2.159,-2.978L-2.71,-2.978C-2.986,-2.969 -2.991,-2.961 -3.14,-2.735L-3.38,-2.644L-3.14,-3.196L0,-3.196Z" style="fill:rgb(108,110,112);"/>
        </g>
        <g transform="matrix(3.25298,0,0,3.25298,530.799,312.719)">
            <path d="M0,-10.949C1.1,-11.355 1.68,-11.702 1.68,-12.514C1.68,-14.831 -0.927,-17.496 -4.056,-17.496C-6.374,-17.496 -10.718,-15.7 -10.718,-9.443C-10.718,-8.458 -10.604,-7.416 -10.545,-6.373L0,-10.949ZM5.445,6.315C4.81,6.662 4.171,7.069 3.534,7.358C1.621,8.227 -0.349,8.459 -2.086,8.459C-3.939,8.459 -6.837,8.342 -9.791,6.199C-13.904,3.303 -15.7,-1.679 -15.7,-6.025C-15.7,-15.005 -8.4,-19.408 -2.433,-19.408C-0.349,-19.408 1.796,-18.887 3.534,-17.785C6.431,-15.874 7.184,-13.383 7.588,-12.05L-6.025,-6.547L-10.486,-6.198C-9.038,1.158 -4.056,5.446 1.448,5.446C4.402,5.446 6.547,4.405 8.517,3.418L5.445,6.315Z" style="fill:rgb(239,61,53);"/>
        </g>
        <g transform="matrix(3.25298,0,0,3.25298,475.2,204.353)">
            <path d="M0,40.901L-10.255,40.901C-8.922,39.165 -8.689,38.991 -8.689,37.833L-8.689,28.388C-8.689,23.87 -8.632,17.439 -8.458,11.414C-8.4,8.459 -8.168,4.751 -8.11,2.086L-12.629,2.086L-8.283,0L0,0C-1.795,1.044 -2.375,1.391 -2.605,3.419C-3.069,7.88 -3.128,14.947 -3.128,23.174L-3.128,36.557C-3.128,38.817 -2.723,39.165 -0.81,39.338C0.175,39.454 1.16,39.512 2.145,39.628L0,40.901Z" style="fill:rgb(44,180,87);"/>
        </g>
        <g transform="matrix(3.25298,0,0,3.25298,405.477,340.993)">
            <path d="M0,-10.545C1.331,-11.879 1.447,-13.732 1.447,-14.775C1.447,-18.946 -1.044,-25.435 -5.853,-25.435C-7.359,-25.435 -8.98,-24.682 -9.908,-23.523C-10.894,-22.306 -11.184,-20.742 -11.184,-19.236C-11.184,-15.355 -8.924,-8.924 -3.941,-8.924C-2.493,-8.924 -0.929,-9.619 0,-10.545M-1.682,0.461C-2.146,0.404 -2.436,0.404 -3.014,0.404C-3.534,0.404 -6.664,0.519 -9.098,1.332C-10.372,1.795 -14.08,3.184 -14.08,7.299C-14.08,11.41 -10.082,14.365 -3.883,14.365C1.679,14.365 4.634,11.701 4.634,8.109C4.634,5.154 2.723,3.59 -1.682,0.461M2.433,-25.261C3.764,-24.16 6.545,-21.843 6.545,-17.44C6.545,-13.152 4.111,-11.125 1.679,-9.213C0.927,-8.461 0.057,-7.649 0.057,-6.375C0.057,-5.1 0.927,-4.404 1.563,-3.883L3.648,-2.262C6.198,-0.117 8.515,1.853 8.515,5.85C8.515,11.297 3.242,16.801 -6.723,16.801C-15.123,16.801 -19.179,12.803 -19.179,8.516C-19.179,6.428 -18.136,3.475 -14.716,1.445C-11.125,-0.756 -6.258,-1.045 -3.652,-1.219C-4.463,-2.262 -5.39,-3.361 -5.39,-5.156C-5.39,-6.143 -5.1,-6.723 -4.81,-7.416C-5.448,-7.359 -6.084,-7.301 -6.664,-7.301C-12.805,-7.301 -16.281,-11.879 -16.281,-16.397C-16.281,-19.062 -15.064,-22.017 -12.573,-24.16C-9.271,-26.883 -5.331,-27.346 -2.203,-27.346L9.73,-27.346L6.023,-25.261L2.433,-25.261Z" style="fill:rgb(0,117,191);"/>
        </g>
        <g transform="matrix(3.25298,0,0,3.25298,320.098,264.844)">
            <path d="M0,18.368C1.391,16.513 1.738,14.196 1.738,11.936C1.738,6.838 -0.696,-2.895 -7.88,-2.895C-9.791,-2.895 -11.703,-2.141 -13.093,-0.925C-15.352,1.103 -15.758,3.652 -15.758,6.143C-15.758,11.88 -12.919,21.321 -5.91,21.321C-3.65,21.321 -1.332,20.222 0,18.368M-7.242,23.059C-16.453,23.059 -21.377,15.876 -21.377,9.388C-21.377,1.799 -15.178,-4.691 -6.373,-4.691C2.144,-4.691 7.475,1.972 7.475,8.982C7.475,15.819 2.202,23.059 -7.242,23.059" style="fill:rgb(255,223,27);"/>
        </g>
        <g transform="matrix(3.25298,0,0,3.25298,219.836,264.844)">
            <path d="M0,18.368C1.391,16.513 1.738,14.196 1.738,11.936C1.738,6.838 -0.695,-2.895 -7.878,-2.895C-9.79,-2.895 -11.702,-2.141 -13.093,-0.925C-15.352,1.103 -15.758,3.652 -15.758,6.143C-15.758,11.88 -12.918,21.321 -5.908,21.321C-3.649,21.321 -1.332,20.222 0,18.368M-7.241,23.059C-16.453,23.059 -21.377,15.876 -21.377,9.388C-21.377,1.799 -15.178,-4.691 -6.372,-4.691C2.144,-4.691 7.474,1.972 7.474,8.982C7.474,15.819 2.203,23.059 -7.241,23.059" style="fill:rgb(239,61,53);"/>
        </g>
        <g transform="matrix(3.25298,0,0,3.25298,138.314,220.906)">
            <path d="M0,34.545L-7.767,36.336C-10.917,36.826 -13.742,37.26 -16.729,37.26C-31.72,37.26 -37.422,26.234 -37.422,17.599C-37.422,7.062 -29.329,-2.715 -15.479,-2.715C-12.546,-2.715 -9.722,-2.279 -7.169,-1.574C-3.096,-0.433 -1.195,0.979 0,1.795L-4.508,6.085L-6.408,6.519L-5.051,4.346C-6.897,2.554 -10.266,-0.759 -16.673,-0.759C-25.256,-0.759 -31.72,5.759 -31.72,15.264C-31.72,25.475 -24.332,35.088 -12.493,35.088C-9.016,35.088 -7.224,34.383 -5.595,33.731L-5.595,24.986L-13.796,25.42L-9.451,23.085L2.064,23.085L0.652,24.443C0.272,24.768 0.217,24.877 0.108,25.311C0.054,25.801 0,27.375 0,27.918L0,34.545Z" style="fill:rgb(0,117,191);"/>
        </g>
    </g>
</svg>
