<svg width="2500" height="1664" viewBox="0 0 2500 1664" fill="none" xmlns="http://www.w3.org/2000/svg">
<path d="M2179.45 1072.63V605.925H2253.24V913.928L2409.28 734.689H2498.71L2358.35 888.29L2500 1072.63H2411.88L2297.13 914.214L2253.24 913.928V1072.63H2179.45ZM1955.72 1080.48C1846.04 1080.48 1786.66 1002.67 1786.66 903.329C1786.66 803.325 1846.04 726.181 1955.72 726.181C2066.07 726.181 2124.82 803.325 2124.82 903.329C2124.82 1002.67 2066.07 1080.48 1955.72 1080.48ZM1863.68 903.329C1863.68 980.444 1905.45 1019.03 1955.72 1019.03C2006.66 1019.03 2047.79 980.444 2047.79 903.3C2047.79 826.185 2006.66 786.997 1955.72 786.997C1905.45 786.997 1863.68 826.213 1863.68 903.329ZM1581.32 1072.63V788.286L1643.34 734.689H1775.23V797.424H1655.06V1072.63H1581.29H1581.32ZM1299.24 1081.25C1158.62 1081.25 1074.77 979.155 1074.77 839.935C1074.77 699.397 1161.63 594.81 1301.96 594.81C1411.68 594.81 1491.97 651.014 1510.91 755.601H1426.69C1414.26 696.132 1364.64 662.788 1301.99 662.788C1200.79 662.788 1156.38 750.387 1156.38 839.935C1156.38 929.483 1200.79 1016.39 1301.99 1016.39C1398.62 1016.39 1441.04 946.47 1444.31 888.29H1298.7V820.627H1518.7L1518.33 856.005C1518.33 987.491 1464.76 1081.25 1299.19 1081.25H1299.24ZM368.761 967.553L686.217 732.942C701.771 721.483 724.029 725.952 731.42 743.827C770.465 838.016 753.019 951.254 675.36 1029C597.729 1106.74 489.676 1123.82 390.904 1084.97L283.052 1134.96C437.769 1240.87 625.659 1214.65 743.079 1097.03C836.207 1003.79 865.054 876.688 838.098 762.075L838.327 762.333C799.225 593.951 847.952 526.661 947.755 389.046C950.104 385.78 952.482 382.514 954.831 379.163L823.489 510.648V510.247L368.675 967.668M303.247 1024.59C192.186 918.397 211.351 753.997 306.112 659.207C376.18 589.053 490.994 560.435 591.198 602.516L698.85 552.758C679.456 538.721 654.591 523.625 626.088 513.026C560.915 486.336 489.305 479.514 420.265 493.419C351.224 507.324 287.838 541.334 238.077 591.172C137.272 692.093 105.589 847.268 160.017 979.642C200.694 1078.59 134.035 1148.6 66.8886 1219.24C43.1123 1244.27 19.2215 1269.31 0 1295.84L303.161 1024.67" fill="black"/>
</svg>
