<svg width="1021" height="292" viewBox="0 0 1021 292" fill="none" xmlns="http://www.w3.org/2000/svg">
<path d="M378.074 88.7295H356.852V190.05H378.074V148.974H424.627V190.05H445.165V88.7295H424.627V129.805H378.074V88.7295ZM541.009 146.92C541.009 163.351 532.793 172.251 517.732 172.251C502.671 172.251 494.456 163.351 494.456 146.236V88.7295H473.918V146.92C473.918 175.674 489.664 192.104 517.732 192.104C545.801 192.104 561.547 175.674 561.547 146.236V88.7295H541.009V146.92ZM739.542 88.7295L716.266 158.559L693.674 88.7295H671.767L707.366 190.05H724.481L747.758 123.644L770.349 190.05H788.149L823.063 88.7295H801.841L779.249 158.559L755.973 88.7295H739.542ZM897.685 127.752H860.032V107.214H914.8V88.7295H839.494V190.05H916.853V171.566H860.032V146.236H897.685V127.752ZM941.499 88.7295H962.037V190.05H941.499V88.7295ZM648.491 168.828L657.391 190.05H679.298L634.799 88.7295L634.114 88.0449H616.315L571.816 190.05H593.038L601.938 170.197L602.623 168.828H648.491ZM625.214 114.06L639.591 148.29L640.276 150.343H608.784L609.469 148.29L625.214 114.06Z" fill="white"/>
<path d="M154.211 179.781C154.211 179.781 154.896 179.096 154.211 179.096C122.72 110.637 79.5899 57.9224 79.5899 57.9224C79.5899 57.9224 56.3135 79.8296 57.6827 102.421C58.3673 119.536 71.3747 129.121 71.3747 129.121C91.9127 148.974 141.204 174.304 152.842 179.781H154.211ZM145.996 196.896C145.996 196.211 144.627 196.211 144.627 196.211L62.4749 198.95C71.3747 214.696 86.4359 227.018 102.182 223.595C113.135 220.857 137.781 203.742 145.311 198.265C146.681 196.896 145.996 196.896 145.996 196.896ZM147.365 189.365C148.05 188.681 147.365 187.996 147.365 187.996C111.081 163.351 41.2524 126.382 41.2524 126.382C35.091 146.236 43.3062 161.981 43.3062 161.981C52.2059 181.15 69.3209 186.627 69.3209 186.627C76.8515 190.05 85.0667 190.05 85.0667 190.05H146.681C147.365 190.05 147.365 189.365 147.365 189.365ZM152.842 22.3233C149.419 22.3233 139.835 25.0617 139.835 25.0617C117.927 30.5385 113.135 50.3918 113.135 50.3918C109.028 62.7146 113.135 76.4066 113.135 76.4066C120.666 108.583 156.265 161.981 163.796 172.935L164.48 173.62C165.165 173.62 165.165 172.935 165.165 172.935C177.488 53.1302 152.842 22.3233 152.842 22.3233ZM180.226 172.935C180.911 172.935 181.595 172.25 181.595 172.25C189.81 160.612 224.725 107.898 232.255 75.722C232.255 75.722 236.363 59.9762 232.255 49.7072C232.255 49.7072 226.779 29.8539 204.872 24.3771C204.872 24.3771 198.71 23.0079 191.864 21.6387C191.864 21.6387 167.219 53.1302 179.541 171.566C179.541 172.935 180.226 172.935 180.226 172.935ZM199.395 196.211C199.395 196.211 198.71 196.211 198.71 196.896V198.265C206.925 203.742 230.202 220.857 241.84 223.595C241.84 223.595 263.062 231.126 281.547 198.95L199.395 196.211ZM304.138 125.698C304.138 125.698 234.309 163.351 198.026 187.996C198.026 187.996 197.341 188.681 197.341 189.365C197.341 189.365 197.341 190.05 198.026 190.05H261.009C261.009 190.05 267.17 190.05 275.385 186.627C275.385 186.627 292.5 181.15 302.085 161.297C302.085 160.612 310.3 144.866 304.138 125.698ZM191.18 179.781C191.18 179.781 191.864 180.466 192.549 179.781C204.187 173.62 253.478 148.974 274.016 129.121C274.016 129.121 287.023 118.852 287.708 102.421C289.077 79.145 265.801 57.9224 265.801 57.9224C265.801 57.9224 222.671 109.267 191.18 178.412C191.18 178.412 190.495 179.096 191.18 179.781Z" fill="#CF0A2C"/>
</svg>
