<svg width="2501" height="2500" viewBox="0 0 2501 2500" fill="none" xmlns="http://www.w3.org/2000/svg">
<path fill-rule="evenodd" clip-rule="evenodd" d="M1336.97 1356.64V1337.64L1476.14 1337.69L2204.45 942.876H2202.39L1194.44 1356.48L1172.38 1356.46L1172.6 1353.95L1702.48 941.164H1700.4L939.226 1337.7L1095.64 1337.64L1060.05 1356.64H839.307V1346.17L893.793 1340.33L1657.62 940.568H1598.39L1620.05 926.132L1883.17 926.055L1419.89 1242.47L1419.07 1238.11L2210.81 923.24L2460.71 926.132L2443.36 942.021L2370.83 941.618L1616.03 1337.57L1711.8 1337.62L1676.23 1356.5L1336.97 1356.64Z" fill="#D9AD3C" stroke="#D9AD3C" stroke-width="3.42402" stroke-miterlimit="2.613"/>
<path fill-rule="evenodd" clip-rule="evenodd" d="M840.085 1334.89H843.911C907.995 1334.89 915.089 1291.79 915.089 1246.08V610.085H842.381V586.609H1087.29L1246.1 1121.7H1245.12L1406.8 586.609H1640.25V610.085H1568.49V1334.59H1640.25V1356.62H1336.96V1334.59H1419.26V629.228H1418.78L1195.88 1356.64H1168.61L939.978 616.466H938.059V1236.51C938.059 1322.62 958.149 1337.48 1011.97 1334.89H1025.37L1023.2 1356.64H837.595L840.085 1334.89Z" fill="black" stroke="black" stroke-width="3.39808" stroke-miterlimit="2.613"/>
<path fill-rule="evenodd" clip-rule="evenodd" d="M72.1066 1588.52H40.3047V1580.68H110.069L183.517 1830.67L259.208 1580.68H329.115V1588.52H297.301V1898.94H329.115V1907.4H226.447V1898.94H260.428V1605.71H259.701L171.507 1898.94H168.251L78.6044 1611.13H79.1102V1861.45C77.8781 1891.26 81.1335 1898.95 100.29 1898.95H114.764V1907.41H40.3047V1898.95H49.7078C68.8641 1898.95 72.1195 1891.26 72.1195 1861.45L72.1066 1588.52ZM779.127 1683.07H772.111C772.111 1631.1 736.133 1581.18 691.672 1581.18C627.329 1581.18 619.573 1679.91 619.573 1739.12C619.573 1798.3 629.171 1904.4 693.514 1904.4C739.051 1904.4 772.111 1850.14 772.111 1793.67H779.127V1900.76H772.111C772.111 1891.72 768.492 1878.15 759.828 1878.15C748.986 1878.15 729.829 1913.4 692.593 1913.4C631.518 1913.4 578.368 1831.76 578.368 1739.12C578.368 1646.47 631.506 1572.83 692.593 1572.83C729.466 1572.83 745.367 1605.81 758.739 1605.81C768.855 1605.81 772.111 1597.23 772.111 1586.38H779.127V1683.07ZM1641.45 1588.52H1609.63V1580.68H1803.52L1807.88 1658.12H1800.86C1800.86 1606.15 1773.38 1588.54 1735.08 1588.54H1678.31V1734.04H1705.42C1743 1734.04 1746.63 1705.58 1746.63 1676.2H1752.4V1796.4H1746.63C1746.63 1762.07 1743.01 1741.27 1705.06 1741.27H1678.32V1898.95H1727.84C1783.6 1898.88 1812.47 1893.36 1812.47 1816.54L1820.37 1816.61V1907.46H1609.63V1898.95H1641.45V1588.52ZM2126 1589.74H2093.12V1580.66H2195.76V1589.74H2162.88V1898.93H2195.76V1907.1H2093.12V1898.93H2126V1589.74ZM554.024 1898.93L466.193 1580.82H460.992L383.277 1872.28C377.635 1897.58 372.94 1898.94 361.747 1898.94H350.165V1907.4H424.638V1898.94H405.845C394.276 1898.94 389.931 1893.96 389.931 1887.65C389.931 1879.97 392.836 1869.12 395.352 1860.08L410.176 1804.38H487.528L513.558 1898.94H478.138V1907.4H584.049V1898.94L554.024 1898.93ZM412.329 1795.91L447.75 1658.99H448.476L485.712 1795.91H412.329ZM1040.69 1900.93C1037.07 1902.73 1032.38 1905.44 1025.88 1905.44C1019.72 1905.44 1009.43 1905.18 1006.9 1878.53L1002.54 1811.28C997.123 1751.63 975.075 1740.33 933.506 1735.82V1734.93C959.887 1730.85 1010.86 1726.22 1010.86 1671.1C1010.86 1602.87 965.671 1580.05 924.103 1580.05H813.134V1588.51H849.281V1898.93H813.134V1907.1H923.027L923.637 1898.93H886.763L886.154 1739.44H909.655C950.497 1739.44 957.008 1765.18 959.537 1793.67L962.066 1820.79C967.137 1872.74 968.966 1912.99 1013.06 1912.99C1026.43 1912.99 1035.49 1911.51 1042.71 1908.36L1040.69 1900.93ZM904.221 1730.36H886.141V1588.51H910.719C962.053 1588.51 971.806 1625.11 971.806 1661.26C971.819 1713.68 946.878 1732.22 904.221 1730.36ZM1165.21 1573.6C1104.14 1573.6 1051 1647.24 1051 1739.87C1051 1832.5 1104.14 1913.38 1165.21 1913.38C1226.3 1913.38 1279.45 1832.51 1279.45 1739.87C1279.45 1647.22 1226.3 1573.6 1165.21 1573.6ZM1165.21 1906.15C1100.88 1906.15 1092.2 1799.07 1092.2 1739.88C1092.2 1680.69 1100.88 1580.82 1165.21 1580.82C1229.55 1580.82 1238.22 1680.67 1238.22 1739.88C1238.22 1799.09 1229.55 1906.15 1165.21 1906.15ZM1959.06 1580.66H1845.93V1589.74H1880.25V1898.93H1845.93V1907.1H1959.42C2033.54 1906.15 2082.33 1845.61 2082.33 1747.1C2082.33 1687 2055.22 1588.04 1959.06 1580.66ZM1948.22 1898.93H1917.15V1589.74H1934.85C2023.41 1595.28 2041.11 1669.83 2041.11 1747.1C2041.11 1883.57 1980.75 1898.93 1948.22 1898.93ZM1326.79 1588.48H1295V1580.64H1364.76L1438.2 1830.62L1513.89 1580.64H1583.81V1588.48H1552V1898.9H1583.81V1907.35H1481.17V1898.9H1515.14V1605.66H1514.4L1426.21 1898.9H1422.95L1333.3 1611.08H1333.81V1861.39C1332.59 1891.22 1335.83 1898.92 1354.98 1898.92H1369.45V1907.36H1295V1898.92H1304.4C1323.56 1898.92 1326.8 1891.22 1326.8 1861.39L1326.79 1588.48ZM2421.33 1898.68L2333.51 1580.59H2328.3L2250.59 1872.04C2244.96 1897.33 2240.25 1898.7 2229.06 1898.7H2217.47V1907.15H2291.95V1898.7H2273.15C2261.57 1898.7 2257.24 1893.73 2257.24 1887.41C2257.24 1879.72 2260.13 1868.88 2262.66 1859.84L2277.49 1804.13H2354.82L2380.87 1898.7H2345.46V1907.15H2451.37V1898.7L2421.33 1898.68ZM2279.66 1795.65L2315.07 1658.73H2315.81L2353.02 1795.65H2279.66Z" fill="black" stroke="black" stroke-width="9.83108" stroke-miterlimit="2.613"/>
</svg>
