<svg width="2500" height="2500" viewBox="0 0 2500 2500" fill="none" xmlns="http://www.w3.org/2000/svg">
<path fill-rule="evenodd" clip-rule="evenodd" d="M345.022 1802.91C344.646 1804.56 342.116 1816.52 341.857 1817.62H325.36L328.498 1802.91H345.022ZM336.06 1837.35C335.696 1839.2 319.562 1913.88 319.303 1915.1H305.866C306.281 1913.25 322.389 1838.58 322.649 1837.35H336.06ZM408.197 1835.82C411.375 1835.82 422.166 1836.35 427.924 1843.51C430.337 1846.53 431.556 1850.34 431.556 1854.87C431.556 1857.04 431.284 1859.36 430.739 1861.81C430.739 1861.84 420.558 1909.08 419.287 1915.1H405.513C405.876 1913.25 416.161 1865.65 416.161 1865.65C416.667 1863.43 417.043 1861.12 417.043 1858.98C417.166 1856.24 416.311 1853.55 414.63 1851.38C411.557 1847.71 406.641 1845.75 400.87 1845.75C390.105 1845.75 377.641 1853.26 373.97 1870.08L364.243 1915.1H350.858L365.799 1845.84L367.433 1837.35H380.87L377.874 1852.39L379.923 1849.83C386.719 1840.5 396.239 1835.82 408.197 1835.82ZM484.952 1816.13L480.426 1837.05H498.402C498.091 1838.57 496.612 1845.34 496.366 1846.31H478.429L468.066 1894.55C467.781 1895.83 467.404 1897.39 467.404 1898.99C467.404 1900.47 467.716 1901.98 468.727 1903.29C470.297 1905.19 473.098 1906.19 477.248 1906.19C479.765 1906.19 482.008 1905.85 483.656 1905.53C483.253 1907.31 481.697 1914.45 481.515 1915.37C478.416 1915.89 474.097 1916.23 469.48 1916.23C461.659 1916.23 457.003 1914.89 454.694 1912.05C452.723 1909.63 452.321 1905.78 453.514 1900.29L465.148 1846.32H450.829C451.179 1844.85 452.632 1838.06 452.839 1837.06H467.119C467.119 1837.06 470.608 1821.14 470.789 1820.24L484.952 1816.13ZM522.811 1868.29L522.604 1869.28H566.104L566.208 1868.66C568.244 1860.2 567.609 1853.79 564.301 1849.62C561.526 1846.12 556.961 1844.33 550.657 1844.33C540.424 1844.33 527 1850.62 522.811 1868.29ZM510.607 1908.41C505.159 1901.67 503.901 1891.41 506.845 1877.85C510.788 1859.6 517.844 1848.57 530.36 1841.01C536.715 1837.23 544.419 1835.33 553.264 1835.33C563.938 1835.33 571.616 1838.17 576.039 1843.7C579.554 1848.24 580.734 1854.03 580.734 1859.86C580.734 1866.66 579.152 1873.38 578.011 1878.11H520.101L519.971 1878.77C519.063 1882.56 518.596 1886.1 518.596 1889.28C518.596 1894.65 519.893 1899.01 522.435 1902.2C525.665 1906.28 530.762 1908.35 537.61 1908.35C548.66 1908.35 557 1902.31 560.67 1891.87H574.107C572.745 1895.84 570.592 1901.54 564.172 1907.06C558.984 1911.83 549.685 1917.5 534.769 1917.5C523.55 1917.49 515.418 1914.4 510.607 1908.41ZM632.146 1798.17C631.757 1800.06 607.024 1913.87 606.739 1915.12H593.341C593.73 1913.21 618.385 1799.41 618.645 1798.17H632.146ZM677.022 1798.17C676.607 1800.06 651.964 1913.87 651.666 1915.12H638.255C638.683 1913.21 663.339 1799.41 663.559 1798.17H677.022ZM721.664 1802.91C720.615 1807.82 719.56 1812.72 718.499 1817.62H702.014C702.352 1815.99 704.868 1804.03 705.127 1802.91H721.664ZM712.779 1837.35C712.351 1839.2 696.295 1913.88 696.035 1915.1H682.56C682.936 1913.25 699.044 1838.58 699.33 1837.35H712.779ZM744.348 1874.88C742.804 1882.25 741.961 1892.37 747.058 1898.58C750.029 1902.33 754.801 1904.25 761.17 1904.25C769.353 1904.25 775.67 1901.63 781 1896.01C785.073 1892.04 788.458 1887.84 791.661 1872.96C793.698 1863.5 793.062 1857.17 789.547 1852.5C786.201 1847.96 780.079 1845.23 773.037 1845.23C752.947 1845.22 746.28 1865.96 744.348 1874.88ZM732.986 1904.25C728.564 1897.36 727.669 1887.75 730.289 1875.58C736.488 1846.61 756.915 1836.26 773.919 1836.26C789.521 1836.26 793.646 1843.69 795.89 1847.71L796.927 1849.53L797.433 1847.62C797.433 1847.62 799.547 1838.48 799.781 1837.36H812.802C812.361 1839.06 809.56 1850.82 809.56 1850.82L798.743 1900.37C794.709 1918.86 790.767 1930.32 786.162 1936.45C779.133 1945.81 767.408 1950.35 750.262 1950.35C737.279 1950.35 729.043 1947.99 724.919 1943.18C722.533 1940.43 721.897 1937.01 721.897 1933.65C721.897 1931.11 722.234 1928.64 722.597 1926.32H737.046C736.933 1927.29 736.868 1928.26 736.851 1929.24C736.851 1932.75 737.668 1935.37 739.419 1937.41C742.039 1940.42 746.592 1941.88 753.323 1941.88C774.567 1941.88 780.248 1923.44 785.034 1901.24L783.607 1900.63C779.431 1906.59 770.988 1913.69 754.996 1913.69C744.192 1913.68 736.812 1910.5 732.986 1904.25ZM842.308 1868.29L842.062 1869.28H885.55L885.666 1868.66C887.69 1860.33 887.002 1853.76 883.76 1849.62C881.01 1846.12 876.393 1844.33 870.141 1844.33C859.843 1844.33 846.407 1850.62 842.308 1868.29ZM830.065 1908.46C824.657 1901.69 823.347 1891.43 826.291 1877.84C830.259 1859.55 837.289 1848.55 849.844 1840.99C856.095 1837.28 863.981 1835.31 872.697 1835.31C883.358 1835.31 891.023 1838.15 895.446 1843.72C899.038 1848.23 900.141 1854.03 900.141 1859.85C900.141 1866.65 898.597 1873.37 897.443 1878.1H839.468L839.312 1878.76C838.443 1882.52 837.989 1886.05 837.989 1889.19C837.989 1894.57 839.299 1898.99 841.803 1902.18C845.045 1906.27 850.155 1908.33 857.055 1908.33C868.066 1908.33 876.432 1902.3 880.063 1891.86H893.513C892.164 1895.86 890.076 1901.52 883.643 1907.05C878.377 1911.82 869.013 1917.49 854.124 1917.49C842.97 1917.49 834.851 1914.4 830.065 1908.46ZM941.825 1849.62C944.484 1846.19 952.513 1835.82 969.996 1835.82C973.147 1835.82 984.003 1836.35 989.775 1843.55C992.213 1846.53 993.367 1850.34 993.367 1854.87C993.367 1857.04 993.134 1859.36 992.576 1861.81C992.576 1861.84 982.343 1909.08 981.072 1915.1H967.324C967.7 1913.25 977.959 1865.65 977.959 1865.65C978.465 1863.46 978.828 1861.23 978.828 1859.06C978.828 1856.28 978.231 1853.64 976.403 1851.38C973.381 1847.78 968.375 1845.75 962.668 1845.75C951.877 1845.75 939.413 1853.26 935.691 1870.08L926.041 1915.1H912.605C912.968 1913.21 927.494 1845.84 927.494 1845.84C927.494 1845.84 928.985 1838.46 929.193 1837.35H942.668C942.305 1838.97 939.582 1852.21 939.582 1852.21L941.618 1849.81L941.825 1849.62ZM1012.94 1907.23C1009.68 1902.17 1006.36 1894.23 1010.03 1877.44C1016.73 1846.4 1037.7 1835.31 1055.08 1835.31C1059.89 1835.31 1071.63 1836.21 1076.97 1844.72C1079.6 1848.79 1080.29 1852.69 1080.29 1856.09C1080.29 1858.01 1080.03 1859.7 1079.81 1861.2H1066.21C1066.35 1860.36 1066.46 1859.27 1066.46 1857.94C1066.46 1855 1065.88 1851.36 1063.49 1848.57C1061.16 1845.96 1057.62 1844.61 1052.87 1844.61C1038.72 1844.61 1029.31 1854.78 1024.81 1874.83C1021.95 1888.18 1022.6 1897.48 1026.8 1902.63C1029.46 1905.95 1033.5 1907.58 1038.87 1907.58C1051.25 1907.58 1058.14 1898.77 1060.56 1890.32H1074.12C1069.91 1903.87 1056.87 1917.23 1036.53 1917.23C1031.59 1917.22 1019.37 1916.23 1012.94 1907.23ZM1109.99 1868.29L1109.76 1869.28H1153.36L1153.53 1868.66C1155.45 1860.2 1154.83 1853.76 1151.52 1849.58C1148.72 1846.12 1144.11 1844.33 1137.81 1844.33C1127.58 1844.33 1114.17 1850.62 1109.99 1868.29ZM1097.8 1908.45C1092.38 1901.68 1091.11 1891.42 1094.06 1877.85C1097.97 1859.63 1104.99 1848.62 1117.6 1841.01C1123.84 1837.3 1131.73 1835.33 1140.41 1835.33C1151.17 1835.33 1158.84 1838.17 1163.22 1843.78C1166.79 1848.24 1167.93 1853.99 1167.93 1859.79C1167.93 1866.57 1166.32 1873.34 1165.19 1878.11H1107.27L1107.15 1878.77C1106.24 1882.54 1105.8 1886.06 1105.8 1889.2C1105.8 1894.58 1107.1 1899.01 1109.64 1902.2C1112.82 1906.28 1117.97 1908.35 1124.8 1908.35C1135.83 1908.35 1144.19 1902.31 1147.85 1891.87H1161.29C1159.5 1897.77 1156.07 1903.04 1151.39 1907.06C1146.16 1911.83 1136.83 1917.5 1121.86 1917.5C1110.76 1917.49 1102.64 1914.4 1097.8 1908.45ZM1265.69 1868.29L1265.43 1869.25H1309.05L1309.23 1868.61C1311.18 1860.14 1310.53 1853.73 1307.21 1849.51C1304.4 1846.01 1299.87 1844.21 1293.58 1844.21C1283.35 1844.21 1269.95 1850.53 1265.69 1868.29ZM1253.49 1908.5C1248.05 1901.77 1246.77 1891.46 1249.75 1877.81C1253.67 1859.51 1260.73 1848.48 1273.31 1840.99C1279.52 1837.18 1287.39 1835.14 1296.11 1835.14C1306.85 1835.14 1314.5 1838.01 1318.91 1843.6C1322.5 1848.13 1323.64 1853.92 1323.64 1859.77C1323.64 1866.56 1322.07 1873.37 1320.93 1878.1H1263L1262.87 1878.76C1261.96 1882.59 1261.5 1886.1 1261.5 1889.31C1261.5 1894.65 1262.75 1899.07 1265.28 1902.21C1268.49 1906.27 1273.62 1908.36 1280.56 1908.36C1291.61 1908.36 1299.96 1902.34 1303.53 1891.87H1317.03C1315.64 1895.86 1313.51 1901.59 1307.17 1907.11C1299.54 1913.9 1289.34 1917.51 1277.56 1917.51C1266.43 1917.51 1258.33 1914.47 1253.49 1908.5ZM1422.45 1837.28C1420.88 1839.74 1371.47 1914.4 1371.02 1915.13H1356.83C1351.43 1889.18 1346.02 1863.23 1340.59 1837.28H1355.82C1356.05 1838.59 1368.13 1901.59 1368.13 1901.59L1407.7 1837.28H1422.45ZM1441.62 1868.29L1441.41 1869.25H1484.92L1485.1 1868.61C1487.05 1860.27 1486.37 1853.73 1483.16 1849.57C1480.34 1846.05 1475.69 1844.21 1469.33 1844.21C1459.12 1844.21 1445.73 1850.53 1441.62 1868.29ZM1429.36 1908.46C1423.91 1901.69 1422.61 1891.41 1425.53 1877.81C1428.43 1864.86 1433.46 1850.34 1449.19 1840.99C1455.44 1837.13 1463.15 1835.14 1472.04 1835.14C1482.76 1835.14 1490.41 1838.04 1494.84 1843.66C1498.41 1848.2 1499.53 1854.01 1499.53 1859.8C1499.53 1866.78 1497.9 1873.6 1496.76 1878.1H1438.8L1438.7 1878.76C1437.79 1882.57 1437.31 1886.1 1437.31 1889.31C1437.31 1894.62 1438.61 1899.01 1441.11 1902.17C1444.35 1906.27 1449.47 1908.36 1456.41 1908.36C1467.46 1908.36 1475.79 1902.34 1479.41 1891.87H1492.88C1491.5 1895.86 1489.32 1901.59 1482.98 1907.11C1477.68 1911.85 1468.26 1917.51 1453.47 1917.51C1442.3 1917.51 1434.2 1914.44 1429.36 1908.46ZM1565.39 1836.99C1569.39 1836.45 1572.35 1836.45 1574.84 1836.61C1574.49 1838.15 1572.39 1848.22 1572.08 1849.49C1571.4 1849.28 1570.71 1849.12 1570 1849.02C1570.05 1849.05 1565.65 1848.81 1565.65 1848.81C1545.5 1848.81 1540.08 1862 1537.66 1873.51L1528.72 1915.13H1515.06L1528.41 1852.76C1529.42 1848.28 1530.33 1843.22 1531.09 1837.28H1544.7L1541 1856.04L1543.36 1852.17C1549.08 1840.27 1560.68 1837.6 1565.39 1836.99ZM1671.74 1837.28C1670.09 1839.74 1619.46 1916.08 1619.46 1916.08L1598.89 1950.35H1585.13C1586.54 1948.07 1606.2 1915.71 1606.2 1915.71C1606.2 1915.71 1590.17 1839.2 1589.81 1837.28H1605.22C1605.48 1838.59 1617.12 1901.33 1617.12 1901.33L1657.3 1837.28H1671.74ZM1812.12 1837.28L1767.56 1915.13H1751.32C1751.24 1913.7 1746.33 1847.75 1746.33 1847.75C1746.33 1847.75 1710.56 1914.29 1710.13 1915.13H1693.49L1684.14 1837.28H1699.05L1704.98 1902.48C1704.98 1902.48 1739.71 1838.14 1740.14 1837.28H1758.69L1763.58 1901.95C1763.58 1901.95 1797.95 1838.14 1798.39 1837.28H1812.12ZM1854.38 1798.09C1853.95 1799.93 1842.6 1851.72 1842.6 1851.72L1844.78 1848.66C1851.27 1840.67 1861.9 1835.91 1873.17 1835.91C1882.24 1835.91 1892.73 1839.09 1895.06 1847.93C1895.41 1849.16 1895.73 1850.54 1895.73 1852.68C1895.73 1855.39 1895.25 1859.42 1893.85 1866.08C1893.85 1866.08 1884.39 1909.47 1883.18 1915.14H1869.47L1879.36 1869.09C1880.15 1865.91 1880.6 1862.67 1880.68 1859.4C1880.68 1856.03 1880.02 1852.69 1877.92 1850.11C1875.47 1847.13 1871.54 1845.65 1866.09 1845.65C1853.98 1845.65 1846.76 1853.28 1844.25 1856.52C1840.37 1861.38 1838.8 1869.36 1837.89 1873.64C1837.89 1873.64 1829.28 1913.9 1829 1915.13H1815.29C1815.72 1913.25 1840.37 1799.32 1840.64 1798.09H1854.38ZM1930.61 1868.29L1930.38 1869.25H1973.8L1973.99 1868.63C1976.01 1860.27 1975.33 1853.69 1972.09 1849.53C1969.33 1846.01 1964.72 1844.21 1958.43 1844.21C1948.23 1844.21 1934.83 1850.53 1930.61 1868.29ZM1918.33 1908.46C1912.91 1901.67 1911.64 1891.38 1914.64 1877.81C1918.59 1859.51 1925.66 1848.45 1938.19 1840.99C1944.4 1837.18 1952.25 1835.14 1960.94 1835.14C1971.68 1835.14 1979.41 1838.04 1983.82 1843.64C1987.36 1848.17 1988.52 1853.95 1988.52 1859.8C1988.52 1866.58 1986.96 1873.37 1985.79 1878.1H1927.83L1927.67 1878.76C1926.84 1882.2 1926.41 1885.73 1926.37 1889.27C1926.37 1894.64 1927.62 1899.05 1930.15 1902.22C1933.36 1906.28 1938.51 1908.37 1945.37 1908.37C1956.45 1908.37 1964.75 1902.35 1968.5 1891.89H1981.82C1980.46 1895.87 1978.34 1901.6 1971.94 1907.13C1966.77 1911.86 1957.42 1917.53 1942.38 1917.53C1931.28 1917.51 1923.17 1914.44 1918.33 1908.46ZM2053.23 1836.99C2057.19 1836.45 2060.09 1836.45 2062.72 1836.61C2062.4 1838.15 2060.2 1848.22 2059.88 1849.49C2059.03 1849.31 2057.83 1849.02 2057.83 1849.02C2057.89 1849.05 2053.5 1848.81 2053.5 1848.81C2033.41 1848.81 2027.97 1862 2025.44 1873.51C2025.44 1873.51 2017.56 1910.01 2016.42 1915.13H2002.89C2003.32 1913.25 2016.29 1852.76 2016.29 1852.76C2017.38 1848.13 2018.21 1843.06 2018.98 1837.28H2032.5L2029.05 1855.47L2031.21 1852.17C2036.78 1840.24 2048.46 1837.6 2053.23 1836.99ZM2082.76 1868.29L2082.53 1869.25H2126.03L2126.19 1868.61C2128.18 1860.14 2127.51 1853.69 2124.21 1849.51C2121.43 1846.01 2116.82 1844.21 2110.53 1844.21C2100.27 1844.21 2086.84 1850.53 2082.76 1868.29ZM2070.45 1908.46C2065.03 1901.73 2063.74 1891.41 2066.71 1877.81C2070.74 1859.46 2077.8 1848.42 2090.31 1840.99C2096.64 1837.13 2104.34 1835.14 2113.14 1835.14C2123.82 1835.14 2131.5 1838.01 2135.96 1843.59C2139.53 1848.11 2140.67 1853.95 2140.67 1859.8C2140.67 1866.58 2139.13 1873.39 2138.04 1878.1H2079.95L2079.79 1878.76C2078.98 1882.2 2078.56 1885.71 2078.52 1889.24C2078.52 1894.66 2079.77 1899.08 2082.3 1902.25C2085.51 1906.3 2090.66 1908.37 2097.55 1908.37C2108.57 1908.37 2116.87 1902.35 2120.6 1891.89H2133.99C2132.67 1895.89 2130.49 1901.56 2124.11 1907.13C2119.86 1911.02 2110.4 1917.53 2094.55 1917.53C2083.4 1917.51 2075.29 1914.44 2070.45 1908.46ZM344.697 1720.85L387.524 1575.16H461.244L479.868 1637.45L533.395 1574.91H611.654L570.929 1720.7L511.761 1720.92L533.395 1645.71L464.746 1720.92H435.654L414.475 1640.43L390.649 1720.92L344.697 1720.85ZM865.615 1574.85L1047.31 1575.16L1036.39 1622.23H974.042L948.388 1720.85L890.88 1720.92L914.796 1622.62H853.385L865.615 1574.85ZM1352.93 1575.13V1608.99H1353.03L1345.94 1637.17H1408.26C1408.26 1637.17 1423.38 1634.57 1424.21 1620.71C1424.95 1608.54 1413.6 1609.39 1413.6 1609.39L1352.93 1609.16V1575.15L1446.8 1575.11C1446.8 1575.11 1486.96 1578.16 1483 1612.91C1479.02 1647.64 1442.07 1658.73 1442.07 1658.73C1442.07 1658.73 1439.84 1660.93 1441.59 1662.24C1443.34 1663.53 1457.11 1666.11 1458.87 1679.13C1460.62 1692.14 1454.33 1701.61 1454.33 1705.54C1454.33 1709.44 1454.73 1717.22 1459.64 1720.67H1400.37C1400.37 1720.67 1389.79 1719.06 1390.72 1708.14C1391.58 1697.35 1392.07 1687.83 1392.07 1687.83C1392.07 1687.83 1391.21 1676.51 1375.3 1677.86L1331.96 1677.42L1319.57 1720.83H1265.21L1306.6 1575.11H1352.93V1575.13ZM1764.77 1575.13H1820.42L1793.47 1680.82H1885.08L1874.4 1720.96H1726.76L1764.77 1575.13ZM2062.98 1575.02L2096.37 1720.92H2038.48L2032.32 1695.63L2032.13 1695.12H1961.98L1961.73 1695.36L1944.78 1720.85L1895.79 1720.92L1994.81 1575.02L2013.96 1618.04L1985.26 1660.52L1986.1 1660.86H2023.31L2023.97 1660.78L2013.96 1618.04L1994.81 1575.02H2062.98ZM741.378 1607.43C759.03 1607.43 776.435 1616.16 779.159 1628.86C787.55 1669.42 744.309 1686.8 749.393 1684.24C724.504 1696.56 686.71 1692.59 682.274 1667.04C678.046 1642.45 697.034 1618.25 713 1612.49C723.907 1608.54 732.96 1606.88 741.378 1607.43L741.507 1607.07L741.715 1569.26C730.302 1569.48 717.423 1570.9 707.241 1572.87C663.663 1581.23 608.697 1620.87 618.385 1671.01C626.53 1713.38 684.025 1736.17 748.498 1723.69C808.924 1712.1 848.521 1665.54 840 1624.24C831.829 1584.28 784.528 1569.25 741.728 1569.25V1601.95L741.378 1607.43ZM1163.97 1607.43C1181.61 1607.43 1199.07 1616.16 1201.66 1628.86C1210.18 1669.42 1166.92 1686.8 1172.05 1684.24C1147.14 1696.56 1109.29 1692.59 1104.88 1667.04C1100.63 1642.45 1119.61 1618.25 1135.62 1612.49C1146.51 1608.54 1155.61 1606.88 1163.97 1607.43L1164.11 1607.07L1164.35 1569.26C1152.96 1569.48 1140.03 1570.9 1129.81 1572.87C1086.26 1581.23 1031.19 1620.87 1040.9 1671.01C1049.03 1713.38 1106.67 1736.17 1171.04 1723.69C1231.52 1712.1 1271.14 1665.54 1262.63 1624.24C1254.42 1584.28 1207.11 1569.25 1164.33 1569.25V1601.95L1163.97 1607.43ZM1623.43 1607.06C1641.05 1608.03 1658.33 1616.15 1660.99 1628.86C1669.44 1669.42 1626.15 1686.8 1631.38 1684.24C1606.42 1696.56 1568.63 1692.59 1564.17 1667.04C1559.94 1642.45 1578.86 1618.25 1594.89 1612.49C1608.04 1607.73 1613.19 1606.37 1623.43 1607.06L1623.63 1569.25C1612.26 1569.47 1599.44 1570.88 1589.11 1572.86C1545.61 1581.22 1490.64 1620.86 1500.24 1671C1508.4 1713.37 1565.97 1736.16 1630.36 1723.68C1690.83 1712.09 1730.45 1665.53 1721.87 1624.23C1713.71 1584.27 1666.39 1569.24 1623.63 1569.24V1601.93L1623.43 1607.06ZM2158.17 1822.5V1803.26H2150.85V1800.71H2168.43V1803.26H2161.14V1822.5H2158.17ZM2171.4 1822.5H2174.29V1802.97L2181.2 1822.5H2184.06L2191.23 1802.87V1822.5H2194.15V1800.71H2189.21L2182.9 1818.66L2176.74 1800.71H2171.4V1822.5ZM1221.18 549.646C1466.98 549.646 1660.49 747.642 1660.49 988.828C1660.49 1231.45 1463.77 1428.1 1221.18 1428.1C978.608 1428.1 782.012 1231.44 782.012 988.828C781.999 746.228 978.608 549.646 1221.18 549.646ZM1220.2 1080.93L1097.35 673.286L938.246 1195.19H968.102C968.102 1195.19 988.192 1104.4 1020.79 1050.19C1038.55 1020.77 1065.92 996.687 1102.53 997.388C1128.34 997.855 1150.66 1011.98 1178.54 1050.9C1195.31 1074.34 1221.12 1133.88 1221.12 1133.88C1221.12 1133.88 1246.95 1074.4 1263.79 1050.9C1291.58 1011.98 1313.89 997.842 1339.75 997.388C1376.3 996.687 1403.74 1020.79 1421.45 1050.24C1454.08 1104.41 1474.13 1195.2 1474.13 1195.2H1504.03L1344.89 673.299L1222 1080.94L1221.16 1081.68L1220.2 1080.93Z" fill="black"/>
</svg>
