<?xml version="1.0" encoding="utf-8"?>
<!-- Generator: Adobe Illustrator 25.0.1, SVG Export Plug-In . SVG Version: 6.00 Build 0)  -->
<svg version="1.0" id="katman_1" xmlns="http://www.w3.org/2000/svg" xmlns:xlink="http://www.w3.org/1999/xlink" x="0px" y="0px"
	 viewBox="0 0 560 400" style="enable-background:new 0 0 560 400;" xml:space="preserve">
<style type="text/css">
	.st0{fill:#A2A4A4;}
	.st1{fill:#7FC0C4;}
	.st2{fill:#007C85;}
	.st3{fill-rule:evenodd;clip-rule:evenodd;fill:#FFFFFF;}
	.st4{fill-rule:evenodd;clip-rule:evenodd;fill:url(#SVGID_1_);}
	.st5{fill-rule:evenodd;clip-rule:evenodd;fill:#C3DCDA;}
	.st6{fill:#C3DCDA;}
	.st7{fill:#FFFFFF;}
</style>
<g transform="matrix(6.73670975582 0 0 6.73670975582 -108.049902144 -334.126776116)">
	<g>
		<path class="st0" d="M42.5,79.3c0,4.9-4,8.9-8.9,8.9s-8.9-4-8.9-8.9c0-4.9,4-8.9,8.9-8.9S42.5,74.4,42.5,79.3z"/>
		<path class="st1" d="M42.2,79.3c0,4.7-3.9,8.6-8.6,8.6S25,84,25,79.3c0-4.7,3.9-8.6,8.6-8.6S42.2,74.6,42.2,79.3z"/>
		<path class="st2" d="M41.6,79.3c0,4.4-3.6,8-8,8s-8-3.6-8-8c0-4.4,3.6-8,8-8S41.6,74.9,41.6,79.3z"/>
		<path class="st2" d="M41.6,79.3c0,4.4-3.6,8-8,8s-8-3.6-8-8c0-4.4,3.6-8,8-8S41.6,74.9,41.6,79.3z"/>
	</g>
	<path class="st3" d="M27.9,75l0.7,0.1l0.3,0.1l5.9,6.7l1.8,0.2L35.9,81l-5.5-6.1l-2.4,0L27.9,75z"/>
	
		<linearGradient id="SVGID_1_" gradientUnits="userSpaceOnUse" x1="-28.6579" y1="124.1649" x2="-27.4246" y2="124.1649" gradientTransform="matrix(1.2077 -1.1591 -1.1591 -1.2077 210.7922 195.2156)">
		<stop  offset="0" style="stop-color:#C3DCDA"/>
		<stop  offset="1" style="stop-color:#C3DCDA;stop-opacity:0"/>
	</linearGradient>
	<path class="st4" d="M27.9,75l0.7,0.1l0.3,0.1l5.9,6.7l1.8,0.2L35.9,81l-5.5-6.1l-2.4,0L27.9,75z"/>
	<path d="M40.7,82.9c-1.3,2.6-4,4.4-7.2,4.4c-3.1,0-5.7-1.7-7.1-4.3C33.8,80.8,36.3,82.2,40.7,82.9L40.7,82.9z"/>
	<path class="st3" d="M36.1,82.4h0.5v-7.3h-0.5V82.4z"/>
	<path class="st3" d="M34.7,75c0.9,0,1.3,0.4,1.5,0.9l0.5-0.1c0.2-0.4,0.3-0.7,1.3-0.8v-0.2h-3.4L34.7,75z M26.3,82.6
		c4.9-1.3,10.1-1.1,14.5,0.3L40.7,83c-3.2-0.3-8.5-1.4-13.9,0.4C26.6,83.2,26.4,82.9,26.3,82.6L26.3,82.6z"/>
	<path class="st5" d="M27.9,83.4c0.9,0,1.3-0.4,1.5-0.9l0.5,0.1c0.2,0.4,0.3,0.7,1.3,0.8v0.2h-3.3L27.9,83.4z"/>
	<path class="st6" d="M29.3,75.7l0.5,0.6v6.9h-0.5L29.3,75.7z"/>
	<path class="st3" d="M27.9,83.4c1,0.1,1.3-0.3,1.5-0.9l0.5,0.1c0.2,0.4,0.3,0.7,1.3,0.8v0.2h-3.4L27.9,83.4z"/>
	<path class="st7" d="M29.4,75.8l0.5,0.6v6.8h-0.5V75.8z"/>
</g>
<path d="M196.9,231.5v-23c0-10.6-0.2-19.1-0.6-27.4l0.3-0.1c2.8,7.2,6.6,15.1,10.3,22.1l15.1,28.3h11v-64.3h-9.8v22.4
	c0,9.8,0.2,18.1,0.9,26.7H224c-2.7-7-6.1-14.4-9.9-21.5l-14.9-27.6h-12.1v64.3L196.9,231.5z M276.8,211.6c0.2-1,0.3-2.8,0.3-5
	c0-10.2-4.5-22.6-18-22.6c-13.4,0-20.4,12.1-20.4,25c0,14.2,8,23.5,21.5,23.5c6,0,11-1.2,14.6-3l-1.5-8c-3.3,1.2-6.7,2.1-11.6,2.1
	c-6.8,0-12.6-3.6-12.9-12L276.8,211.6z M248.9,203.4c0.4-4.8,3.2-11.3,9.7-11.3c7,0,8.7,7.1,8.7,11.3H248.9z M284,176.4v8.7h-5.9
	v8.8h5.9v21.8c0,6.1,1,10.4,3.3,13.1c2,2.4,5.1,3.8,9.1,3.8c3.3,0,6.1-0.6,7.6-1.2l-0.2-8.9c-1.2,0.4-2.2,0.5-4.1,0.5
	c-4,0-5.4-2.9-5.4-8.6v-20.5h10v-8.8h-10v-11.9L284,176.4z M307.3,229.2c3.1,1.9,7.6,3.2,12.7,3.2c11.1,0,17-6.1,17-14.6
	c-0.1-6.9-3.5-11.2-11.1-14.1c-5.3-2.2-7.3-3.5-7.3-6.5c0-2.9,2.1-5,5.8-5c3.7,0,7.1,1.5,8.8,2.7l2.1-8.2c-2.5-1.5-6.5-2.8-11.1-2.8
	c-9.7,0-15.8,6.3-15.8,14.5c0,5.5,3.3,10.5,11.5,13.5c5.1,2.1,6.9,3.6,6.9,6.8c0,3-2.1,5.2-6.7,5.2c-3.8,0-8.3-1.8-10.6-3.4
	L307.3,229.2z M372.5,221.4c-2.1,1-4.7,1.8-8.3,1.8c-7.2,0-12.8-5.4-12.8-15c-0.1-8.5,4.7-15.1,12.8-15.1c3.8,0,6.3,0.9,8,1.8
	l1.9-8.9c-2.4-1.1-6.3-2.1-10.2-2.1c-14.7,0-23.2,10.8-23.2,24.7c0,14.4,8.5,23.7,21.5,23.7c5.2,0,9.6-1.2,11.8-2.4L372.5,221.4z
	 M412.7,203.7c0-10.2-3.9-19.6-17.2-19.6c-6.6,0-12,2-15.1,4.1l2.1,7.6c2.8-2,7.1-3.4,11.2-3.4c7.4,0,8.5,5.1,8.5,8.1v0.8
	c-15.4-0.1-24.8,5.9-24.8,17.5c0,7.1,4.7,13.8,13.1,13.8c5.5,0,9.9-2.6,12.3-6.2h0.3l0.8,5.1h9.5c-0.5-2.9-0.7-7-0.7-11.2
	L412.7,203.7z M402.4,215.2c0,0.9,0,1.7-0.3,2.6c-1,3.3-4,6.4-8.3,6.4c-3.3,0-6-2.1-6-6.7c0-7.1,7.1-8.8,14.6-8.7L402.4,215.2z
	 M418.6,250.4h10.5v-24h0.2c2.1,3.7,6.5,6.2,11.7,6.2c9.5,0,19-8.1,19-24.9c0-14.5-8-23.6-17.6-23.6c-6.3,0-11.2,3-14.3,8.2H428
	l-0.5-7.2h-9.3c0.2,4.4,0.3,9.3,0.3,15.4L418.6,250.4z M429.1,204.9c0-1,0.2-2,0.3-3c1.1-5.1,5.1-8.7,9.5-8.7
	c6.8,0,10.4,6.7,10.4,14.9c0,9.2-3.9,15.4-10.6,15.4c-4.5,0-8.2-3.4-9.3-8.2c-0.2-1-0.3-2.1-0.3-3.2L429.1,204.9z M501.7,211.6
	c0.2-1,0.3-2.8,0.3-5c0-10.2-4.5-22.6-18-22.6c-13.4,0-20.4,12.1-20.4,25c0,14.2,8,23.5,21.5,23.5c6,0,11-1.2,14.6-3l-1.5-8
	c-3.3,1.2-6.7,2.1-11.6,2.1c-6.8,0-12.6-3.6-12.9-12L501.7,211.6z M473.7,203.4c0.4-4.8,3.2-11.3,9.7-11.3c7,0,8.7,7.1,8.7,11.3
	H473.7z"/>
</svg>
