<svg width="2501" height="2500" viewBox="0 0 2501 2500" fill="none" xmlns="http://www.w3.org/2000/svg">
<path fill-rule="evenodd" clip-rule="evenodd" d="M1607.53 354.477C1537.77 276.645 1421.52 253.235 1325.09 304.517C1228.8 355.722 1183.21 464.927 1208.47 566.169L1607.53 354.477Z" fill="black"/>
<path d="M2223.88 1219.51L1020.75 1859.23L391.875 676.49L1594.99 36.7695L2223.88 1219.51ZM1154.34 1343.17L828.18 1246.3L809.088 1308.78L1134.34 1403.94C1132.66 1404.85 1035.01 1728.88 1034.88 1729.31L1099.95 1749.19L1198.52 1422.13L1531.58 1519.71L1548.07 1456.44L1217.6 1359.69L1317.17 1038.62L1253.81 1017.82L1154.34 1343.17ZM1366.79 965.884L1397.51 1023.66L1618.43 906.197L1853.35 1348.03L1911.13 1317.3L1676.21 875.472L1897.12 758.018L1866.4 700.237L1366.79 965.884ZM899.345 470.193L1105.36 857.639L484.701 690.653L750.348 1190.26L808.128 1159.55L614.762 795.89L1231.8 956.066L957.112 439.468L899.345 470.193ZM1697.67 370.508C1620.38 225.182 1439.92 170.008 1294.6 247.282C1149.24 324.569 1094.08 505.03 1171.36 650.369C1248.63 795.695 1429.11 850.869 1574.43 773.595C1683.43 715.633 1741.72 599.632 1731.43 483.941L1666.35 489.752C1674.38 580.086 1628.85 670.666 1543.75 715.918C1433.15 774.736 1296.45 735.282 1233.74 628.152L1702.03 379.067C1700.64 376.201 1699.16 373.348 1697.67 370.508Z" fill="black"/>
<path fill-rule="evenodd" clip-rule="evenodd" d="M1034.9 1900.54L2209.16 1276.17L2020.49 1856.04L878.527 2463.24L1034.9 1900.54ZM839.138 2445.51L991.533 1895.83L378.011 741.975L277.119 1388.53L839.138 2445.51ZM1931.8 1966.14C1915.03 1966.14 1900.95 1979.32 1900.95 1996.58C1900.93 2000.63 1901.71 2004.65 1903.25 2008.4C1904.8 2012.15 1907.07 2015.55 1909.94 2018.41C1912.81 2021.27 1916.22 2023.54 1919.98 2025.07C1923.73 2026.6 1927.75 2027.38 1931.8 2027.34C1935.84 2027.37 1939.85 2026.59 1943.59 2025.05C1947.33 2023.51 1950.72 2021.24 1953.58 2018.38C1956.43 2015.52 1958.69 2012.12 1960.22 2008.37C1961.74 2004.63 1962.51 2000.62 1962.48 1996.58C1962.48 1979.3 1948.49 1966.14 1931.8 1966.14ZM1931.8 2022.84C1917.47 2022.84 1906.52 2011.56 1906.52 1996.58C1906.52 1981.94 1917.47 1970.65 1931.8 1970.65C1945.94 1970.65 1956.91 1981.94 1956.91 1996.58C1956.91 2011.56 1945.94 2022.84 1931.8 2022.84Z" fill="black"/>
<path fill-rule="evenodd" clip-rule="evenodd" d="M1936.8 1998.78C1942.11 1998.2 1946.2 1995.51 1946.2 1989.04C1946.2 1982.17 1942.19 1978.82 1933.68 1978.82H1919.86V2014.57H1925.43V1999.18H1931.34L1941.06 2014.57H1947.04L1936.8 1998.78ZM1931.22 1994.66H1925.42V1983.28H1932.79C1936.54 1983.28 1940.64 1984.02 1940.64 1988.76C1940.65 1994.4 1936.13 1994.66 1931.22 1994.66Z" fill="black"/>
</svg>
