<svg width="2501" height="801" viewBox="0 0 2501 801" fill="none" xmlns="http://www.w3.org/2000/svg">
<path d="M2146.65 113.624C2336.3 113.196 2463.74 249.56 2463.74 413.044C2463.74 576.515 2336.6 711.323 2146.33 711.375H354.64C164.386 711.323 37.2695 576.515 37.2695 413.044C37.2696 249.56 164.71 113.196 354.367 113.624H2146.65ZM355.237 187.176C204.619 187.435 112.145 288.12 112.145 412.643C112.145 537.152 204.023 638.627 355.237 638.069H2145.74C2296.94 638.627 2388.87 537.152 2388.87 412.643C2388.87 288.12 2296.38 187.448 2145.74 187.176H355.237Z" fill="#CC2131"/>
<path fill-rule="evenodd" clip-rule="evenodd" d="M278.002 271.298H365.626L486.958 467.505L486.893 271.298H573.855V552.716H487.01L365.068 356.496V552.716H277.963L278.002 271.298ZM1046.82 300.272H1131.52V338.131H1177.34V365.925H1131.52L1131.57 552.716H1046.82L1046.86 365.925H1000.87V338.157H1046.89L1046.82 300.272ZM622.31 365.588H706.938V552.716H622.31V365.588ZM622.129 271.246H706.938V328.78H622.129V271.246ZM2139.19 457.648C2139.19 457.648 2139.14 485.896 2139.14 497.27C2139.14 527.088 2121.54 539.422 2104.53 539.422C2087.61 539.422 2069.88 527.088 2069.88 497.27C2069.88 485.896 2069.93 456.947 2069.93 456.947C2069.93 456.947 2070.01 429.283 2070.01 417.908C2070.01 388.207 2087.66 375.99 2104.53 375.99C2121.41 375.99 2139.14 388.207 2139.14 417.908C2139.14 429.283 2139.14 450.229 2139.19 457.777V457.648ZM2105.2 352.8C2036.92 352.8 1981.58 399.854 1981.58 457.907C1981.58 515.921 2036.94 562.962 2105.2 562.962C2173.55 562.962 2228.89 515.921 2228.89 457.907C2228.89 399.854 2173.55 352.8 2105.2 352.8ZM1870.48 271.298H1953.99V552.664H1870.35L1870.3 541.899C1837.95 562.21 1801.35 562.158 1772.87 548.916C1765.24 545.349 1714.99 521.225 1714.99 456.156C1714.99 406.715 1761.63 352.8 1822.57 358.143C1842.66 359.933 1856.92 367.248 1870.47 374.836L1870.48 271.298ZM1871.09 458.205V424.769C1871.09 395.821 1851.13 388.454 1837.95 388.454C1824.45 388.454 1804.74 395.821 1804.74 424.769C1804.74 434.315 1804.79 458.127 1804.79 458.127C1804.79 458.127 1804.74 481.408 1804.74 491.382C1804.74 520.304 1824.45 527.853 1837.95 527.853C1851.13 527.853 1871.09 520.304 1871.09 491.382V458.205ZM905.025 356.937C936.645 356.068 1000.87 376.781 1000.4 450.89C1000.31 464.016 1000.38 552.677 1000.38 552.677H916.309V429.788C916.309 413.46 900.706 395.315 877.672 395.315C854.599 395.315 837.479 413.46 837.479 429.788L837.569 552.677H753.538L753.473 365.562L837.556 365.497C837.556 365.497 837.466 380.568 837.556 385.159C855.79 367.744 879.822 357.691 905.025 356.937ZM1592.77 356.937C1624.34 356.068 1688.55 376.781 1688.15 450.89C1688.02 464.016 1688.07 552.677 1688.07 552.677H1604V429.788C1604 413.46 1588.43 395.315 1565.37 395.315C1542.31 395.315 1525.14 413.46 1525.14 429.788L1525.27 552.677H1441.26L1441.31 365.562L1525.27 365.497C1525.27 365.497 1525.14 380.568 1525.27 385.159C1543.51 367.732 1567.56 357.678 1592.77 356.937ZM1256.18 430.8C1256.03 414.432 1256.36 403.486 1261.73 394.07C1268.4 382.553 1280.55 377.066 1291.55 377.015H1291.5C1302.57 377.066 1314.65 382.553 1321.26 394.07C1326.63 403.473 1326.94 414.432 1326.81 430.8H1256.18ZM1326.45 487.245C1326.45 487.245 1326.53 488.075 1326.53 498.619C1326.53 532.846 1304.01 540.473 1291.55 540.473C1279.03 540.473 1256.12 532.846 1256.12 498.619C1256.12 488.334 1256.25 459.969 1256.25 459.969C1256.25 459.969 1415.61 460.021 1415.61 459.969C1415.61 401.917 1359.6 353.838 1290.77 353.838C1221.98 353.838 1166.17 400.892 1166.17 458.88C1166.17 516.945 1221.98 564 1290.77 564C1347.86 564 1396.07 531.394 1410.85 487.167L1326.45 487.245ZM2234.78 338.261H2225.02V274.177H2249.47C2264.57 274.177 2272.09 279.767 2272.09 292.387C2272.09 303.839 2264.89 308.832 2255.45 310.039L2273.66 338.261H2262.82L2245.89 310.467H2234.78V338.261ZM2246.37 302.231C2254.61 302.231 2261.9 301.66 2261.9 291.803C2261.9 283.879 2254.7 282.387 2247.99 282.387H2234.76V302.231H2246.37Z" fill="#CC2131"/>
<path fill-rule="evenodd" clip-rule="evenodd" d="M2190.06 306.044C2190.06 274.165 2215.94 250.65 2246.5 250.65C2276.8 250.65 2302.61 274.177 2302.61 306.044C2302.61 338.248 2276.8 361.749 2246.5 361.749C2215.94 361.749 2190.06 338.261 2190.06 306.044ZM2246.5 352.489C2271.65 352.489 2291.44 332.801 2291.44 306.044C2291.44 279.767 2271.66 259.898 2246.5 259.898C2221.09 259.898 2201.26 279.767 2201.26 306.044C2201.26 332.814 2221.09 352.489 2246.5 352.489Z" fill="#CC2131"/>
</svg>
