<?xml version="1.0" encoding="utf-8"?>
<svg version="1.1" id="Layer_1" xmlns="http://www.w3.org/2000/svg" xmlns:xlink="http://www.w3.org/1999/xlink" x="0px" y="0px"
	 width="121.487px" height="53.893px" viewBox="0 0 121.487 53.893" enable-background="new 0 0 121.487 53.893"
	 xml:space="preserve">
<g>
	<g>
		<path fill="#215469" d="M8.777,0.913l0.244,4.389c2.804-4.938,7.923-4.997,9.387-4.997c7.985,0,12.8,5.973,12.8,15.359
			c0,8.717-4.511,16.456-13.41,16.456c-5.547,0-7.802-2.925-8.594-3.961v15.361H0V0.913H8.777z M22.065,16.03
			c0-3.658-0.914-9.936-6.217-9.936c-2.926,0-7.071,2.193-7.071,10.482c0,1.829,0.061,9.632,6.705,9.632
			C19.749,26.209,22.065,22.124,22.065,16.03 M54.55,31.694c-0.306-1.889-0.306-3.291-0.306-4.206
			c-3.414,4.938-7.497,4.938-9.204,4.938c-4.449,0-6.46-1.279-7.68-2.438c-1.829-1.829-2.682-4.328-2.682-6.767
			c0-2.438,0.853-6.948,6.522-9.569c3.779-1.707,9.204-1.707,12.191-1.707c0-2.011-0.062-2.986-0.426-4.084
			c-0.793-2.255-3.17-2.56-4.022-2.56c-1.281,0-2.622,0.549-3.415,1.707c-0.671,1.036-0.671,2.012-0.671,2.743H36.02
			c0.061-1.646,0.244-4.938,3.475-7.254C42.298,0.486,45.894,0,48.821,0c2.56,0,7.924,0.426,10.971,3.962
			c2.074,2.499,2.135,6.155,2.135,7.558l0.061,12.374c0,2.62,0.183,5.241,0.73,7.801H54.55z M43.457,22.186
			c0,2.073,1.401,4.39,4.388,4.39c1.646,0,2.985-0.794,3.841-1.769c1.585-1.95,1.706-4.327,1.706-7.619
			C47.602,16.7,43.457,18.528,43.457,22.186 M68.192,8.472c0-1.463-0.244-5.912-0.427-7.681h8.472l0.185,5.912
			c1.157-2.619,3.169-6.339,10.483-5.973v8.107c-9.144-0.854-9.691,3.84-9.691,7.68v15.177h-9.021V8.472z M107.726,11.823
			c-0.122-1.097-0.487-5.668-3.962-5.668c-4.268,0-4.754,6.461-4.754,9.813c0,1.707,0.184,7.192,2.255,9.447
			c0.853,0.915,1.769,1.037,2.438,1.037c0.975,0,3.779-0.427,4.145-5.914h8.898c-0.121,2.38-0.426,6.097-3.961,9.082
			c-2.194,1.892-4.938,2.866-8.777,2.866c-4.084,0-7.682-0.915-10.484-4.084c-2.682-3.107-3.9-7.192-3.9-12.13
			c0-14.019,10.301-15.969,14.385-15.969c5.729,0,12.495,3.168,12.557,11.519H107.726z M119.122,0.791
			c1.289,0,2.365,1.016,2.365,2.345c0,1.355-1.076,2.368-2.365,2.368s-2.375-1.013-2.375-2.368
			C116.747,1.807,117.833,0.791,119.122,0.791 M119.122,5.16c1.095,0,1.938-0.872,1.938-2.024c0-1.129-0.843-1.998-1.938-1.998
			c-1.104,0-1.947,0.869-1.947,1.998C117.174,4.288,118.017,5.16,119.122,5.16 M118.204,1.77h1.065c0.655,0,0.964,0.259,0.964,0.788
			c0,0.497-0.314,0.705-0.725,0.747l0.787,1.221h-0.461l-0.748-1.187h-0.458v1.187h-0.425V1.77z M118.628,2.989h0.448
			c0.381,0,0.727-0.017,0.727-0.449c0-0.367-0.313-0.428-0.605-0.428h-0.569V2.989z M40.256,51.203l-0.858-2.389H36.39l-0.895,2.404
			c-0.057,0.147-0.09,0.159-0.238,0.159h-0.491c-0.092,0-0.092-0.103-0.057-0.196l2.918-7.548c0.022-0.068,0.079-0.113,0.148-0.113
			h0.411c0.068,0,0.104,0.022,0.137,0.102l2.845,7.571c0.046,0.127,0.023,0.185-0.114,0.185h-0.536
			C40.346,51.378,40.313,51.366,40.256,51.203 M39.19,48.221l-1.255-3.544l-1.328,3.544H39.19z M45.087,51.193
			c-0.071,0.127-0.162,0.185-0.3,0.185h-0.444c-0.172,0-0.193-0.068-0.103-0.229l2.366-3.854l-2.149-3.59
			c-0.046-0.07-0.036-0.184,0.079-0.184h0.538c0.106,0,0.185,0.045,0.231,0.127l1.74,2.928l1.676-2.904
			c0.057-0.095,0.128-0.15,0.244-0.15h0.49c0.127,0,0.148,0.09,0.092,0.184l-2.126,3.498l2.331,3.877
			c0.08,0.14,0.126,0.299-0.08,0.299h-0.49c-0.148,0-0.229-0.058-0.322-0.207l-1.874-3.236L45.087,51.193z M54.706,48.645h-1.008
			h-2.617c0,1.211,0.604,2.218,1.92,2.218c0.492,0,1.086-0.115,1.428-0.262c0.093-0.046,0.175-0.035,0.197,0.079l0.057,0.262
			c0.023,0.104,0.012,0.172-0.104,0.218c-0.459,0.219-1.166,0.321-1.646,0.321c-1.75,0-2.61-1.178-2.61-2.87
			c0-1.591,0.975-2.858,2.576-2.858c1.346,0,2.127,1.028,2.127,2.365v0.217C55.026,48.588,54.991,48.645,54.706,48.645
			 M52.875,46.311c-1.076,0-1.67,0.869-1.772,1.818h3.177c0.012-0.079,0.012-0.148,0.012-0.229
			C54.292,47.03,53.834,46.311,52.875,46.311 M58.641,45.785c0.082,0.011,0.104,0.068,0.094,0.125l-0.059,0.378
			c-0.01,0.068-0.057,0.103-0.113,0.091c-0.115-0.022-0.242-0.045-0.371-0.045c-0.41,0-0.865,0.31-1.162,0.766v4.071
			c0,0.139-0.057,0.207-0.184,0.207h-0.365c-0.13,0-0.186-0.068-0.186-0.207V46.07c0-0.137,0.056-0.205,0.186-0.205h0.354
			c0.125,0,0.182,0.068,0.182,0.205l0.013,0.4c0.228-0.343,0.707-0.719,1.278-0.719C58.391,45.752,58.528,45.762,58.641,45.785
			 M61.696,51.48c-1.715,0-2.47-1.26-2.47-2.87c0-1.591,0.892-2.858,2.538-2.858c1.717,0,2.496,1.212,2.496,2.858
			C64.26,50.21,63.354,51.48,61.696,51.48 M61.764,46.311c-1.357,0-1.783,1.214-1.783,2.277c0,1.119,0.391,2.343,1.727,2.343
			c1.328,0,1.796-1.154,1.796-2.297C63.503,47.502,63.069,46.311,61.764,46.311 M65.569,51.275
			c-0.045,0.068-0.103,0.103-0.217,0.103h-0.513c-0.08,0-0.093-0.079-0.034-0.159l1.887-2.678l-1.658-2.517
			c-0.047-0.068-0.035-0.159,0.078-0.159h0.56c0.114,0,0.185,0.045,0.231,0.124l1.234,1.911l1.294-1.897
			c0.067-0.093,0.146-0.138,0.239-0.138h0.455c0.092,0,0.148,0.068,0.08,0.159l-1.715,2.415l1.84,2.742
			c0.059,0.083,0.08,0.196-0.057,0.196H68.67c-0.115,0-0.172-0.058-0.229-0.137l-1.397-2.164L65.569,51.275z M78.612,50.714
			c0.058,0.126,0.023,0.194-0.113,0.262c-0.674,0.345-1.408,0.505-2.16,0.505c-2.391,0-3.479-1.887-3.479-4.037
			c0-2.082,1.248-4.049,3.534-4.049c0.729,0,1.442,0.148,2.058,0.527c0.127,0.067,0.149,0.137,0.093,0.252l-0.15,0.272
			c-0.056,0.103-0.125,0.114-0.216,0.059c-0.514-0.321-1.1-0.48-1.727-0.48c-0.775,0-1.477,0.342-1.945,0.914
			c-0.559,0.688-0.773,1.591-0.773,2.446c0,1.682,0.739,3.478,2.707,3.478c0.57,0,1.316-0.16,1.854-0.444
			c0.09-0.047,0.17-0.058,0.216,0.056L78.612,50.714z M81.874,51.48c-1.715,0-2.469-1.26-2.469-2.87
			c0-1.591,0.891-2.858,2.537-2.858c1.717,0,2.491,1.212,2.491,2.858C84.433,50.21,83.532,51.48,81.874,51.48 M81.942,46.311
			c-1.361,0-1.783,1.214-1.783,2.277c0,1.119,0.387,2.343,1.727,2.343c1.327,0,1.795-1.154,1.795-2.297
			C83.68,47.502,83.247,46.311,81.942,46.311 M93.308,51.171c0,0.139-0.058,0.207-0.181,0.207h-0.365
			c-0.125,0-0.184-0.068-0.184-0.207v-3.26c0-0.947-0.266-1.59-1.316-1.59c-0.49,0-1.076,0.242-1.51,0.562
			c0.08,0.273,0.113,0.572,0.113,0.927v3.361c0,0.139-0.057,0.207-0.182,0.207h-0.365c-0.125,0-0.183-0.068-0.183-0.207v-3.26
			c0-0.892-0.216-1.59-1.248-1.59c-0.571,0-1.164,0.322-1.612,0.733v4.116c0,0.139-0.059,0.207-0.184,0.207h-0.365
			c-0.126,0-0.182-0.068-0.182-0.207V46.07c0-0.137,0.056-0.205,0.182-0.205h0.354c0.127,0,0.184,0.068,0.184,0.205l0.012,0.389
			c0.493-0.456,1.145-0.707,1.772-0.707c0.586,0,1.19,0.182,1.51,0.695c0.524-0.458,1.237-0.695,1.886-0.695
			c1.34,0,1.864,0.789,1.864,2.058V51.171z M96.877,51.48c-0.581,0-1.213-0.239-1.579-0.709v2.881c0,0.148-0.091,0.184-0.216,0.184
			H94.75c-0.125,0-0.182-0.068-0.182-0.205v-6.497v-1.098c0-0.137,0.057-0.171,0.182-0.171h0.285c0.16,0,0.229,0.045,0.229,0.205
			v0.447c0.389-0.469,1.1-0.766,1.762-0.766c1.34,0,2.32,0.948,2.32,2.836C99.346,50.131,98.502,51.48,96.877,51.48 M96.913,46.321
			c-0.605,0-1.295,0.368-1.614,0.848v2.802c0.263,0.526,0.907,0.938,1.534,0.938c1.141,0,1.762-0.949,1.762-2.32
			C98.594,47.03,97.881,46.321,96.913,46.321 M105.475,51.265c0,0.09-0.035,0.113-0.138,0.113h-0.433c-0.445,0-0.64-0.38-0.64-0.823
			v-0.148c-0.229,0.559-1.008,1.074-1.762,1.074c-1.556,0-2.228-1.35-2.228-2.767c0-1.876,1.084-2.962,2.411-2.962
			c0.548,0,1.191,0.228,1.567,0.719l0.011-0.422c0-0.139,0.079-0.184,0.204-0.184h0.344c0.124,0,0.172,0.068,0.172,0.205v4.016
			c0,0.32,0,0.537,0.047,0.628c0.045,0.103,0.123,0.138,0.237,0.138h0.08c0.091,0,0.126,0.021,0.126,0.124V51.265z M104.254,47.282
			c-0.297-0.616-0.918-0.961-1.521-0.961c-0.986,0-1.705,0.881-1.705,2.347c0,1.45,0.719,2.194,1.532,2.194
			c0.833,0,1.466-0.687,1.694-1.383V47.282z M111.051,51.171c0,0.139-0.057,0.207-0.182,0.207h-0.365
			c-0.125,0-0.184-0.068-0.184-0.207v-3.26c0-0.914-0.217-1.59-1.271-1.59c-0.569,0-1.278,0.334-1.716,0.733v4.116
			c0,0.139-0.059,0.207-0.182,0.207h-0.365c-0.127,0-0.185-0.068-0.185-0.207V46.07c0-0.137,0.058-0.205,0.185-0.205h0.353
			c0.126,0,0.183,0.068,0.183,0.205l0.012,0.389c0.529-0.47,1.26-0.707,1.91-0.707c1.338,0,1.807,0.812,1.807,2.058V51.171z
			 M116.726,46.049l-2.229,6.014c-0.502,1.339-1.025,1.83-2.172,1.83c-0.137,0-0.308-0.023-0.455-0.046
			c-0.069-0.011-0.114-0.046-0.114-0.126v-0.033l0.057-0.366c0.011-0.102,0.046-0.125,0.126-0.125h0.034
			c0.114,0.011,0.296,0.034,0.422,0.034c0.57,0,0.997-0.253,1.248-0.88l0.353-0.87l-2.022-5.456
			c-0.022-0.068-0.011-0.159,0.093-0.159h0.534c0.101,0,0.159,0.058,0.183,0.124l1.613,4.576l1.59-4.576
			c0.035-0.09,0.068-0.124,0.182-0.124h0.445c0.096,0,0.135,0.023,0.135,0.091C116.747,45.979,116.737,46.015,116.726,46.049"/>
	</g>
</g>
</svg>
