<svg width="2500" height="567" viewBox="0 0 2500 567" fill="none" xmlns="http://www.w3.org/2000/svg">
<path d="M2099.75 107.871C2150.87 107.871 2201.76 108.999 2226.87 160.113C2242.71 192.239 2241.56 233.393 2241.56 268.229C2241.56 308.721 2242.47 356.89 2221.45 393.089C2193.41 440.792 2142.97 440.131 2093.19 440.131C1984.19 440.131 1965.62 386.073 1965.62 284.753C1965.62 241.084 1964.27 189.516 1988.47 151.294C2014.49 109.454 2054.97 107.871 2099.75 107.871ZM2107 130.49C2072.85 130.49 2041.42 141.567 2030.09 176.17C2020.13 206.48 2020.13 264.156 2020.13 296.957C2020.13 364.361 2021.96 413.892 2103.14 413.893C2137.97 413.893 2169.63 403.478 2178.91 367.085C2186.16 339.252 2187.07 299.448 2187.07 270.499C2187.08 205.131 2193.19 130.49 2107 130.49Z" fill="black"/>
<path d="M593.626 436.512H544.989L523.731 374.75H368.341L345.955 436.512H299.588L409.961 112.164H485.289L593.626 436.512ZM835.642 391.04V112.164H880.413V436.512H807.588L645.868 153.109V436.512H600.188V112.164H675.504L835.642 391.04ZM965.235 436.512H918.648V112.164H965.235V436.512ZM1030.15 269.137L1193.68 436.512H1137.14L970.891 269.137L1117.23 112.164H1172.65L1030.15 269.137ZM1402.68 223.898L1463.96 112.164H1499.25L1418.52 258.048L1514.17 436.512H1452.89L1381.86 302.846L1309.04 436.512H1270.35L1364.67 269.137L1286.87 112.164H1344.78L1402.68 223.898ZM1722.72 138.401H1579.55V258.048H1719.1V281.809H1579.55V410.962H1722.72V436.512H1524.8V112.164H1722.72V138.401ZM1892.57 112.164C1944.15 112.164 1953.65 153.55 1953.65 196.078C1953.65 253.521 1936.9 276.815 1879.9 281.809L1965.4 436.512H1909.32L1809.59 258.048H1854.35C1899.59 258.048 1900.73 222.537 1900.73 187.479C1900.73 167.13 1892.15 138.401 1867.24 138.401H1793.3V436.512H1744.67V112.164H1892.57ZM2351.96 223.444L2413.04 112.164H2448.32L2367.79 258.048L2463.24 436.512H2402.17L2331.13 302.612L2258.09 436.512H2219.63L2313.74 269.137L2235.92 112.164H2294.05L2351.96 223.444ZM220.421 112.164C283.078 112.164 294.841 163.045 294.841 215.521C294.841 252.393 289.186 277.502 255.712 295.582C276.749 301.911 290.095 318.89 290.095 341.509V436.499H243.494V355.97C243.494 333.117 220.874 316.853 199.396 316.853H82.2275V436.499H36.7559V112.164H220.421ZM383.957 332.936H507.909L445.927 152.201L383.957 332.936ZM82.2285 274.792H211.602C243.04 274.792 247.567 239.955 247.567 215.52C247.567 191.318 243.04 156.274 211.602 156.274H82.2285V274.792Z" fill="black"/>
</svg>
