<svg width="2501" height="695" viewBox="0 0 2501 695" fill="none" xmlns="http://www.w3.org/2000/svg">
<path fill-rule="evenodd" clip-rule="evenodd" d="M374.275 283.182H2246.24C2304.88 283.182 2352.89 331.676 2352.89 390.934V398.768C2352.89 458.04 2304.89 506.534 2246.24 506.534H374.275C315.625 506.534 268.117 458.04 268.117 398.768V390.934C268.117 331.676 315.625 283.182 374.275 283.182Z" fill="#467BBD"/>
<path fill-rule="evenodd" clip-rule="evenodd" d="M1883.18 444.825C1881.74 450.7 1879.3 455.097 1874.94 458.054C1870.58 460.998 1865.24 462.463 1858.46 462.463C1850.22 462.463 1843.44 460.012 1839.08 455.602C1834.24 451.193 1831.8 444.825 1831.8 436.498C1831.8 428.171 1834.24 421.803 1839.08 417.393C1843.44 412.984 1850.22 411.025 1858.46 410.545C1865.73 410.545 1871.56 412.011 1875.43 414.955C1879.31 417.393 1881.74 421.323 1882.71 426.213H1919.06C1917.14 412.011 1910.83 401.726 1899.69 395.851C1889.03 389.975 1874.97 387.031 1857.99 387.031C1838.13 387.031 1823.09 391.441 1811.45 399.275C1800.31 407.601 1794.48 419.845 1794.48 436.498C1794.48 453.151 1800.3 465.9 1810.96 473.721C1822.1 482.061 1837.61 485.965 1857.98 485.965C1877.38 485.965 1892.4 482.528 1902.07 475.187C1911.78 468.326 1918.08 458.041 1920.52 444.825H1883.18ZM1993.23 410.545C2000.98 410.545 2007.28 412.984 2012.12 417.393C2016.48 421.31 2018.91 428.171 2018.91 436.498C2018.91 445.317 2016.47 451.686 2012.12 456.095C2007.28 460.012 2000.98 462.463 1993.23 462.463C1984.96 462.463 1978.69 460.012 1973.82 456.095C1969.46 451.686 1967.04 445.317 1967.04 436.498C1967.04 428.171 1969.48 421.323 1973.82 417.393C1978.69 412.984 1984.96 410.545 1993.23 410.545ZM1929.71 436.498C1929.71 452.658 1935.06 464.902 1946.2 473.241C1956.86 481.568 1972.37 485.978 1993.21 485.978C2013.55 485.978 2029.09 481.568 2040.23 473.241C2050.89 464.915 2056.21 452.671 2056.21 436.498C2056.21 420.325 2050.89 408.094 2040.23 399.768C2029.09 391.441 2013.55 387.031 1993.21 387.031C1972.37 387.031 1956.86 391.441 1946.2 399.768C1935.06 408.094 1929.71 420.338 1929.71 436.498ZM2070.28 482.048H2105.67V431.103C2105.67 426.2 2107.62 422.763 2110.99 419.832C2113.91 416.888 2119.25 415.422 2125.56 415.422C2130.39 415.422 2134.27 416.408 2136.7 418.859C2139.59 421.31 2140.57 424.734 2140.57 429.144V482.048H2175.94V431.103C2176.45 426.2 2177.89 422.763 2181.29 419.832C2184.68 416.888 2189.52 415.422 2195.83 415.422C2200.66 415.422 2204.54 416.408 2207.45 418.859C2209.89 421.31 2211.32 424.734 2211.32 429.144V482.048H2246.72V419.352C2246.72 411.998 2244.8 406.123 2241.88 401.233C2238.62 396.907 2234.26 393.527 2229.26 391.441C2223.67 389.435 2217.77 388.438 2211.83 388.497C2202.61 388.497 2195.35 389.975 2189.51 392.907C2183.23 395.358 2178.37 399.275 2173.53 404.177C2169.65 398.302 2164.79 393.892 2158.99 391.934C2153.65 389.496 2147.85 388.497 2141.53 388.497C2132.79 388.497 2126.04 389.975 2120.2 393.399C2114.38 396.344 2109.06 399.768 2105.18 404.177H2104.7V390.948H2070.28V482.048Z" fill="white"/>
<path d="M362.641 284.168C268.117 284.168 249.22 409.547 366.519 409.547H1683.49C1683.49 409.547 1747.46 404.164 1747.46 470.777" stroke="white" stroke-width="14.3575" stroke-miterlimit="2.613"/>
<path fill-rule="evenodd" clip-rule="evenodd" d="M1722.73 452.658C1722.73 438.456 1734.37 426.705 1748.43 426.705C1762.97 426.705 1774.61 438.456 1774.61 452.658C1774.61 467.352 1762.99 478.623 1748.43 478.623C1745.04 478.623 1741.67 477.95 1738.54 476.642C1735.4 475.334 1732.56 473.417 1730.16 471.002C1727.77 468.588 1725.89 465.723 1724.61 462.574C1723.33 459.426 1722.69 456.055 1722.73 452.658Z" fill="#467BBD" stroke="white" stroke-width="14.3575" stroke-miterlimit="2.613"/>
<path fill-rule="evenodd" clip-rule="evenodd" d="M1375.2 257.722H1782.36V300.328H1375.2V257.722ZM2068.84 251.834H2145.41V303.752H2068.84V251.834Z" fill="white"/>
<path fill-rule="evenodd" clip-rule="evenodd" d="M333.563 344.905H392.212V298.37H433.897C445.038 298.37 448.436 305.231 449.409 316.009C450.382 333.635 450.382 340.016 452.314 344.905H516.774C512.605 339.721 510.073 333.414 509.498 326.787L506.593 293.973C505.62 281.237 498.837 273.403 490.108 270.952V270.459C507.073 265.569 512.883 250.382 512.883 236.167C512.883 219.514 503.674 205.312 492.533 199.436C484.285 195.52 474.116 194.041 457.139 194.041H333.537V344.905H333.563ZM392.212 232.25H433.417C443.106 232.25 450.382 234.688 450.382 246.452C450.382 255.751 445.531 260.161 433.897 260.161H392.212V232.25Z" fill="#467BBD"/>
<path d="M333.563 344.905H392.212V298.37H433.897C445.038 298.37 448.436 305.231 449.409 316.009C450.382 333.635 450.382 340.016 452.314 344.905H516.774C512.605 339.721 510.073 333.414 509.498 326.787L506.593 293.973C505.62 281.237 498.837 273.403 490.108 270.952V270.459C507.073 265.569 512.883 250.382 512.883 236.167C512.883 219.514 503.674 205.312 492.533 199.436C484.285 195.52 474.116 194.041 457.139 194.041H333.537V344.905H333.563ZM392.212 232.25H433.417C443.106 232.25 450.382 234.688 450.382 246.452C450.382 255.751 445.531 260.161 433.897 260.161H392.212V232.25Z" stroke="white" stroke-width="28.7151" stroke-miterlimit="2.613"/>
<path fill-rule="evenodd" clip-rule="evenodd" d="M569.132 272.896C571.558 258.202 582.219 252.326 600.156 252.326C618.093 252.326 630.207 260.16 631.18 272.896H569.132ZM627.781 310.133C621.971 317.473 614.202 320.418 600.636 320.418C577.381 320.418 569.132 307.681 569.132 299.355H683.526C684.498 241.561 647.651 224.908 596.771 224.908C545.385 224.908 515.813 246.944 515.813 287.111C515.813 329.237 546.837 349.314 601.608 349.314C625.849 349.314 643.773 345.397 656.873 338.536C670.439 332.168 679.168 321.883 683.059 310.133H627.781Z" fill="#467BBD"/>
<path d="M569.132 272.896C571.558 258.202 582.219 252.326 600.156 252.326C618.093 252.326 630.207 260.16 631.18 272.896H569.132ZM627.781 310.133C621.971 317.473 614.202 320.418 600.636 320.418C577.381 320.418 569.132 307.681 569.132 299.355H683.526C684.498 241.561 647.651 224.908 596.771 224.908C545.385 224.908 515.813 246.944 515.813 287.111C515.813 329.237 546.837 349.314 601.608 349.314C625.849 349.314 643.773 345.397 656.873 338.536C670.439 332.168 679.168 321.883 683.059 310.133H627.781Z" stroke="white" stroke-width="28.7151" stroke-miterlimit="2.613"/>
<path fill-rule="evenodd" clip-rule="evenodd" d="M752.343 264.57C754.769 253.312 766.402 251.341 778.516 251.341C793.068 251.341 802.757 254.778 802.757 262.611C802.757 268.979 798.879 271.431 788.697 271.924L744.587 273.882C705.808 275.84 691.269 289.07 691.269 310.133C691.269 340.015 713.084 349.314 748.465 349.314C776.091 349.314 794.028 344.425 805.662 333.141C805.662 337.551 806.142 341.48 807.594 344.905H860.913C858.488 340.988 856.062 335.605 856.062 326.786V270.951C856.062 236.659 834.727 224.908 781.901 224.908C754.276 224.908 735.366 226.867 722.279 232.742C709.673 238.617 702.889 248.409 699.984 264.57H752.343ZM803.729 297.396C803.729 316.981 784.34 321.39 766.895 321.39C753.809 321.39 747.505 316.501 747.505 308.161C747.505 300.82 752.356 297.876 761.552 296.903C780.462 295.438 795.001 293.959 803.716 292.001L803.729 297.396Z" fill="#467BBD"/>
<path d="M752.343 264.57C754.769 253.312 766.402 251.341 778.516 251.341C793.068 251.341 802.757 254.778 802.757 262.611C802.757 268.979 798.879 271.431 788.697 271.924L744.587 273.882C705.808 275.84 691.269 289.07 691.269 310.133C691.269 340.015 713.084 349.314 748.465 349.314C776.091 349.314 794.028 344.425 805.662 333.141C805.662 337.551 806.142 341.48 807.594 344.905H860.913C858.488 340.988 856.062 335.605 856.062 326.786V270.951C856.062 236.659 834.727 224.908 781.901 224.908C754.276 224.908 735.366 226.867 722.279 232.742C709.673 238.617 702.889 248.409 699.984 264.57H752.343ZM803.729 297.396C803.729 316.981 784.34 321.39 766.895 321.39C753.809 321.39 747.505 316.501 747.505 308.161C747.505 300.82 752.356 297.876 761.552 296.903C780.462 295.438 795.001 293.959 803.716 292.001L803.729 297.396Z" stroke="white" stroke-width="28.7151" stroke-miterlimit="2.613"/>
<path fill-rule="evenodd" clip-rule="evenodd" d="M876.438 344.904H928.784V188.645H876.438V344.904Z" fill="#467BBD" stroke="white" stroke-width="28.7151" stroke-miterlimit="2.613"/>
<path fill-rule="evenodd" clip-rule="evenodd" d="M949.146 342.453H1005.37V258.202H1005.85L1068.38 342.453H1132.85V192.082H1076.61V275.348H1075.65L1016.03 192.082H949.146V342.453Z" fill="black" stroke="white" stroke-width="28.7151" stroke-miterlimit="2.613"/>
<path fill-rule="evenodd" clip-rule="evenodd" d="M1194.4 270.457C1196.83 256.256 1207.49 250.38 1225.43 250.38C1243.37 250.38 1255.48 258.214 1256.45 270.457H1194.4ZM1253.05 308.161C1247.23 315.022 1239.49 317.953 1225.91 317.953C1202.65 317.953 1194.4 305.216 1194.4 297.383H1308.78C1309.77 239.576 1272.94 222.443 1222.03 222.443C1171.14 222.443 1141.09 244.972 1141.09 284.646C1141.09 326.772 1172.11 347.342 1226.88 347.342C1251.11 347.342 1269.03 343.425 1282.13 336.564C1295.71 329.716 1304.43 319.911 1308.31 308.161H1253.05Z" fill="black"/>
<path d="M1194.4 270.457C1196.83 256.256 1207.49 250.38 1225.43 250.38C1243.37 250.38 1255.48 258.214 1256.45 270.457H1194.4ZM1253.05 308.161C1247.23 315.022 1239.49 317.953 1225.91 317.953C1202.65 317.953 1194.4 305.216 1194.4 297.383H1308.78C1309.77 239.576 1272.94 222.443 1222.03 222.443C1171.14 222.443 1141.09 244.972 1141.09 284.646C1141.09 326.772 1172.11 347.342 1226.88 347.342C1251.11 347.342 1269.03 343.425 1282.13 336.564C1295.71 329.716 1304.43 319.911 1308.31 308.161H1253.05Z" stroke="white" stroke-width="28.7151" stroke-miterlimit="2.613"/>
<path fill-rule="evenodd" clip-rule="evenodd" d="M1305.39 260.16H1329.63V307.681C1329.63 339.029 1341.77 344.904 1373.24 344.904C1389.73 344.904 1402.35 343.931 1411.54 342.453V311.598C1406.23 312.091 1401.84 312.091 1397.48 312.091C1386.34 312.091 1381.99 311.598 1381.99 300.82V260.16H1410.1V227.346H1381.99V190.123H1329.63V227.346H1305.39V260.16ZM1456.65 342.453H1517.21L1539.53 282.208L1561.35 342.453H1621.91L1660.69 227.346H1605.44L1584.6 295.438H1584.12L1561.35 227.346H1517.21L1492.49 295.438H1492.01L1473.11 227.346H1417.86L1456.65 342.453Z" fill="black" stroke="white" stroke-width="28.7151" stroke-miterlimit="2.613"/>
<path fill-rule="evenodd" clip-rule="evenodd" d="M1711.59 284.66C1711.59 266.541 1720.33 256.736 1741.17 256.736C1762.51 256.736 1771.21 266.528 1771.21 284.66C1771.21 303.272 1762.49 313.064 1741.17 313.064C1720.33 313.064 1711.59 303.272 1711.59 284.66ZM1656.82 284.66C1656.82 327.279 1682.5 347.356 1741.17 347.356C1799.81 347.356 1825.5 327.279 1825.5 284.66C1825.5 242.534 1799.82 222.457 1741.17 222.457C1682.51 222.444 1656.82 242.534 1656.82 284.66Z" fill="black"/>
<path d="M1711.59 284.66C1711.59 266.541 1720.33 256.736 1741.17 256.736C1762.51 256.736 1771.21 266.528 1771.21 284.66C1771.21 303.272 1762.49 313.064 1741.17 313.064C1720.33 313.064 1711.59 303.272 1711.59 284.66ZM1656.82 284.66C1656.82 327.279 1682.5 347.356 1741.17 347.356C1799.81 347.356 1825.5 327.279 1825.5 284.66C1825.5 242.534 1799.82 222.457 1741.17 222.457C1682.51 222.444 1656.82 242.534 1656.82 284.66Z" stroke="white" stroke-width="28.7151" stroke-miterlimit="2.613"/>
<path fill-rule="evenodd" clip-rule="evenodd" d="M1840.04 342.453H1892.4V299.355C1892.4 274.375 1912.26 268.5 1930.67 268.5C1939.89 268.5 1947.65 269.978 1956.87 272.416V225.401C1951.26 224.451 1945.58 223.961 1939.89 223.935C1921.96 223.935 1904.5 231.276 1890.93 249.408V227.359H1840.04V342.453ZM1967.51 342.453H2019.87V316.981L2035.88 303.751L2063 342.453H2133.78L2076.58 269.965L2128.44 227.346H2059.14L2019.87 264.57V186.699H1967.51V342.453Z" fill="black" stroke="white" stroke-width="28.7151" stroke-miterlimit="2.613"/>
<path fill-rule="evenodd" clip-rule="evenodd" d="M2220.07 301.806C2225.38 302.792 2227.34 305.723 2227.34 309.147C2227.34 314.542 2223.46 317.966 2209.89 317.966C2204.06 317.966 2198.74 317.474 2194.87 316.008C2191.47 314.05 2189.04 311.105 2188.56 306.696H2127.49C2128.93 335.605 2152.69 347.356 2206.98 347.356C2261.75 347.356 2287.43 335.605 2287.43 306.216C2287.43 286.631 2276.77 273.882 2248.68 271.444L2198.74 267.034C2187.6 265.569 2184.68 262.624 2184.68 259.68C2184.68 255.271 2187.6 251.847 2203.58 251.847C2211.34 251.847 2216.2 252.819 2219.08 254.791C2222 256.256 2222.98 258.708 2222.98 261.639H2281.62C2280.66 229.318 2241.39 222.457 2206.01 222.457C2155.11 222.457 2130.39 234.208 2130.39 261.146C2130.39 281.223 2139.11 293.479 2169.17 296.904L2220.07 301.806Z" fill="black" stroke="white" stroke-width="28.7151" stroke-miterlimit="2.613"/>
<path fill-rule="evenodd" clip-rule="evenodd" d="M333.563 344.904H392.212V298.369H433.897C445.038 298.369 448.436 305.23 449.409 316.008C450.382 333.634 450.382 340.015 452.314 344.904H516.774C512.605 339.72 510.073 333.413 509.498 326.785L506.593 293.972C505.62 281.236 498.837 273.402 490.108 270.951V270.458C507.073 265.568 512.883 250.381 512.883 236.166C512.883 219.513 503.674 205.311 492.533 199.435C484.285 195.518 474.116 194.04 457.139 194.04H333.537V344.904H333.563ZM392.212 232.249H433.417C443.106 232.249 450.382 234.687 450.382 246.451C450.382 255.75 445.531 260.16 433.897 260.16H392.212V232.249ZM569.133 272.896C571.558 258.201 582.219 252.326 600.157 252.326C618.094 252.326 630.207 260.16 631.18 272.896H569.133ZM627.782 310.132C621.972 317.473 614.203 320.417 600.636 320.417C577.382 320.417 569.133 307.681 569.133 299.354H683.526C684.499 241.561 647.652 224.908 596.771 224.908C545.385 224.908 515.814 246.944 515.814 287.111C515.814 329.237 546.838 349.314 601.609 349.314C625.85 349.314 643.774 345.397 656.873 338.536C670.44 332.168 679.168 321.883 683.059 310.132H627.782ZM752.344 264.57C754.769 253.312 766.403 251.34 778.517 251.34C793.069 251.34 802.757 254.777 802.757 262.611C802.757 268.979 798.879 271.431 788.698 271.923L744.588 273.882C705.808 275.84 691.269 289.069 691.269 310.132C691.269 340.015 713.084 349.314 748.466 349.314C776.091 349.314 794.029 344.424 805.662 333.141C805.662 337.55 806.142 341.48 807.595 344.904H860.914C858.488 340.987 856.063 335.605 856.063 326.785V270.951C856.063 236.659 834.728 224.908 781.902 224.908C754.276 224.908 735.366 226.866 722.28 232.742C709.673 238.617 702.89 248.409 699.985 264.57H752.344ZM803.73 297.396C803.73 316.98 784.34 321.39 766.896 321.39C753.809 321.39 747.506 316.5 747.506 308.161C747.506 300.82 752.357 297.876 761.552 296.903C780.462 295.438 795.001 293.959 803.717 292.001L803.73 297.396ZM876.439 344.904H928.784V188.645H876.439V344.904Z" fill="#467BBD"/>
<path fill-rule="evenodd" clip-rule="evenodd" d="M949.146 342.453H1005.37V258.202H1005.85L1068.38 342.453H1132.85V192.082H1076.61V275.348H1075.65L1016.03 192.082H949.146V342.453ZM1194.4 270.458C1196.83 256.256 1207.49 250.381 1225.43 250.381C1243.37 250.381 1255.48 258.215 1256.45 270.458H1194.4ZM1253.05 308.161C1247.23 315.022 1239.49 317.954 1225.91 317.954C1202.65 317.954 1194.4 305.217 1194.4 297.384H1308.79C1309.77 239.577 1272.94 222.444 1222.03 222.444C1171.14 222.444 1141.09 244.973 1141.09 284.647C1141.09 326.773 1172.11 347.343 1226.88 347.343C1251.11 347.343 1269.03 343.426 1282.13 336.565C1295.71 329.717 1304.43 319.912 1308.31 308.161H1253.05Z" fill="black"/>
<path fill-rule="evenodd" clip-rule="evenodd" d="M1305.39 260.16H1329.63V307.681C1329.63 339.029 1341.77 344.904 1373.24 344.904C1389.73 344.904 1402.35 343.932 1411.54 342.453V311.598C1406.23 312.091 1401.84 312.091 1397.48 312.091C1386.34 312.091 1381.99 311.598 1381.99 300.82V260.16H1410.1V227.346H1381.99V190.123H1329.63V227.346H1305.39V260.16ZM1456.65 342.453H1517.21L1539.53 282.209L1561.35 342.453H1621.91L1660.69 227.346H1605.44L1584.6 295.438H1584.12L1561.35 227.346H1517.21L1492.49 295.438H1492.01L1473.11 227.346H1417.86L1456.65 342.453ZM1711.59 284.66C1711.59 266.541 1720.33 256.736 1741.17 256.736C1762.51 256.736 1771.21 266.528 1771.21 284.66C1771.21 303.271 1762.49 313.064 1741.17 313.064C1720.33 313.064 1711.59 303.271 1711.59 284.66ZM1656.82 284.66C1656.82 327.279 1682.5 347.356 1741.17 347.356C1799.81 347.356 1825.5 327.279 1825.5 284.66C1825.5 242.534 1799.82 222.457 1741.17 222.457C1682.51 222.444 1656.82 242.534 1656.82 284.66ZM1840.04 342.453H1892.4V299.355C1892.4 274.375 1912.25 268.5 1930.67 268.5C1939.89 268.5 1947.65 269.978 1956.87 272.416V225.401C1951.26 224.445 1945.58 223.955 1939.89 223.935C1921.96 223.935 1904.5 231.289 1890.93 249.408V227.359H1840.04V342.453ZM1967.51 342.453H2019.87V316.981L2035.88 303.751L2063 342.453H2133.78L2076.58 269.965L2128.43 227.346H2059.14L2019.87 264.57V186.699H1967.51V342.453Z" fill="black"/>
<path fill-rule="evenodd" clip-rule="evenodd" d="M2220.07 301.806C2225.38 302.792 2227.34 305.723 2227.34 309.147C2227.34 314.542 2223.46 317.966 2209.89 317.966C2204.06 317.966 2198.74 317.474 2194.87 316.008C2191.47 314.05 2189.04 311.105 2188.56 306.696H2127.49C2128.93 335.605 2152.69 347.356 2206.98 347.356C2261.75 347.356 2287.43 335.605 2287.43 306.216C2287.43 286.631 2276.77 273.882 2248.68 271.444L2198.74 267.034C2187.6 265.569 2184.68 262.624 2184.68 259.68C2184.68 255.271 2187.6 251.847 2203.58 251.847C2211.34 251.847 2216.2 252.819 2219.08 254.791C2222 256.256 2222.98 258.708 2222.98 261.639H2281.62C2280.66 229.318 2241.39 222.457 2206.01 222.457C2155.11 222.457 2130.39 234.208 2130.39 261.146C2130.39 281.223 2139.11 293.479 2169.17 296.904L2220.07 301.806Z" fill="black"/>
</svg>
