<svg xmlns="http://www.w3.org/2000/svg" viewBox="0 0 253.2291 56.4817" height="56.4817" width="253.2291" xml:space="preserve" id="svg2" version="1.1">
    <g transform="matrix(1.33333 0 0 -1.33333 -1.8896 156.7453)" id="g10">
        <g transform="scale(.1)" id="g12">
            <path id="path16" style="fill:#231f20;fill-opacity:1;fill-rule:evenodd;stroke:none" d="M210.949 1017.51c8.082 48.28 5.547 138.53 5.547 158.08h-22.324c0-38.14-1.395-113.03-36.742-144.66-35.352-31.625-105.1175-35.348-143.2581-35.348v-22.328c19.6875 0 111.3871-2.281 159.5191 6.137 15.364 2.703 31.711 9.816 37.258 38.119"/>
            <path id="path18" style="fill:#231f20;fill-opacity:1;fill-rule:evenodd;stroke:none" d="M240.992 1017.51c-8.082 48.28-5.543 138.53-5.543 158.08h22.324c0-38.14 1.395-113.03 36.743-144.66 35.347-31.625 105.117-35.348 143.257-35.348v-22.328c-19.691 0-111.386-2.281-159.523 6.137-15.363 2.703-31.711 9.816-37.258 38.119"/>
            <path id="path20" style="fill:#231f20;fill-opacity:1;fill-rule:evenodd;stroke:none" d="M210.949 910.051c8.082-48.281 5.547-138.531 5.547-158.074h-22.324c0 38.136-1.395 113.023-36.742 144.652-35.352 31.625-105.1175 35.348-143.2581 35.348v22.328c19.6875 0 111.3871 2.285 159.5191-6.137 15.364-2.699 31.711-9.816 37.258-38.117"/>
            <path id="path22" style="fill:#231f20;fill-opacity:1;fill-rule:evenodd;stroke:none" d="M240.992 910.051c-8.082-48.281-5.543-138.531-5.543-158.074h22.324c0 38.136 1.395 113.023 36.743 144.652 35.347 31.625 105.117 35.348 143.257 35.348v22.328c-19.691 0-111.386 2.285-159.523-6.137-15.363-2.699-31.711-9.816-37.258-38.117"/>
            <path id="path24" style="fill:#231f20;fill-opacity:1;fill-rule:evenodd;stroke:none" d="M1071.11 1074.0135v-220.46h178.6v45.582h-146.05v41.859h146.05v45.579h-146.05v41.86h146.05v45.58h-178.6"/>
            <path id="path26" style="fill:#231f20;fill-opacity:1;fill-rule:evenodd;stroke:none" d="M643.898 1073.9785c-36.687 0-66.433-29.75-66.433-66.44 0-36.689 29.746-66.431 66.433-66.431l125.118-.191c11.625 0 21.047-9.192 21.047-20.817s-9.422-21.046-21.047-21.046H570.879v-45.465l173.484.074c36.692 0 66.434 29.746 66.434 66.437 0 36.692-29.742 66.199-66.434 66.199l-125.113.19c-11.625 0-21.051 9.43-21.051 21.05 0 11.63 9.426 21.05 21.051 21.05l214.879.12v-175.12h32.559v175h142.322c11.62 0 21.05-9.42 21.05-21.05 0-11.62-9.43-21.05-21.05-21.05l-110.694-.11v-45.271h86.043c36.691 0 66.431 29.742 66.431 66.431 0 36.69-29.74 66.44-66.431 66.44H643.898"/>
            <path id="path28" style="fill:#231f20;fill-opacity:1;fill-rule:evenodd;stroke:none" d="M1792.92 986.5735c-20 .47-25.58 2.8-28.83 12.56l-29.3 74.88h-29.77l44.65-113.484c7.44-18.601 30.69-19.535 43.25-19.535v-87.441h32.56v87.441c12.56 0 35.81.934 43.25 19.535l44.66 113.484h-29.77l-29.3-74.88c-3.26-9.76-8.84-12.09-28.84-12.56h-32.56"/>
            <path id="path30" style="fill:#231f20;fill-opacity:1;fill-rule:evenodd;stroke:none" d="M1289.33 1074.0135v-220.46h32.56v175h142.32c11.62 0 21.05-9.42 21.05-21.05 0-11.62-9.43-21.05-21.05-21.05l-106.05-.11v-45.271l36.28-.078 80-87.441h47.91v45.582h-47.44s-37.21 42.011-37.68 41.937h2.33c36.69 0 66.43 29.746 66.43 66.431 0 7.4-1.21 14.51-3.44 21.16l140.26-.11c11.62 0 21.05-9.42 21.05-21.05 0-11.62-9.43-21.05-21.05-21.05l-106.04-.11v-45.271l36.27-.078 80-87.441h47.91v45.582h-47.44s-37.21 42.011-37.67 41.937h2.32c36.69 0 66.43 29.746 66.43 66.431 0 36.69-29.74 66.44-66.43 66.44l-328.83.07"/>
        </g>
    </g>
</svg>

