<?xml version="1.0" encoding="UTF-8" standalone="no"?>
<!DOCTYPE svg PUBLIC "-//W3C//DTD SVG 1.1//EN" "http://www.w3.org/Graphics/SVG/1.1/DTD/svg11.dtd">
<svg width="100%" height="100%" viewBox="0 0 805 167" version="1.1" xmlns="http://www.w3.org/2000/svg" xmlns:xlink="http://www.w3.org/1999/xlink" xml:space="preserve" xmlns:serif="http://www.serif.com/" style="fill-rule:evenodd;clip-rule:evenodd;stroke-linejoin:round;stroke-miterlimit:2;">
    <g transform="matrix(4.16667,0,0,4.16667,0,-318.75)">
        <g transform="matrix(1,0,0,1,0,68.6257)">
            <rect x="0" y="0.244" width="192.756" height="192.756" style="fill:white;"/>
        </g>
        <g transform="matrix(1,0,0,1,0,-1.53175)">
            <path d="M53.875,87.954C52.96,88.046 49.149,88.899 47.869,89.173C46.498,89.538 33.968,99.217 33.145,101.596C32.962,102.418 32.871,103.683 32.871,104.873L32.779,106.793C32.779,108.166 33.16,110.375 33.343,111.564C34.166,111.746 40.127,111.588 41.225,111.769L41.089,114.226C40.018,114.15 32.447,114.168 28.122,114.168C25.927,114.168 18.869,114.41 16.701,114.344L17.111,112.006C18.299,111.914 23.223,112.219 24.306,111.076C24.843,110.51 24.671,109.902 24.671,106.609L24.671,105.055C24.671,104.324 24.671,102.953 24.489,101.672C24.031,100.299 12.995,86.521 10.16,84.326C9.337,84.052 4.178,83.536 2.898,83.262L2.834,81.154C3.473,80.835 9.209,81.233 14.776,81.026C18.434,80.891 26.781,81.026 27.812,81.149L27.547,83.006C26.45,83.281 21.164,83.381 19.793,83.747C23.359,89.051 29,95.881 30.829,98.534C31.835,97.069 40.676,90.987 40.95,88.884C39.578,88.609 35.036,87.954 34.304,87.954L33.869,85.56C35.115,85.365 41.662,85.56 44.917,85.56C47.726,85.56 53.729,85.56 55.436,85.701L53.875,87.954Z" style="fill:rgb(239,61,66);"/>
        </g>
        <g transform="matrix(1,0,0,1,0,-1.53175)">
            <path d="M57.698,94.868L57.641,94.505C56.603,96.926 54.841,100.73 54.495,101.652L60.172,101.65C59.481,99.864 58.217,96.367 57.698,94.868ZM72.774,113.203C72.371,113.144 67.789,113.146 66.117,113.146C65.137,113.146 60.146,113.117 59.281,113.117L59.54,110.974C60.693,110.918 62.838,110.453 63.818,110.336C63.185,108.896 61.093,104.32 60.631,103.457C59.421,103.457 55.067,103.594 53.857,103.822C53.626,104.226 51.974,105.848 51.686,108.037C52.493,108.211 54.041,108.545 54.963,108.66L54.623,110.848C53.643,110.791 49.734,110.906 48.812,110.848C47.947,110.848 43.931,110.857 43.182,110.973L43.895,108.66C44.817,108.545 46.942,107.885 47.749,107.711C48.96,105.982 54.565,95.024 55.027,93.986C54.277,93.813 53.003,93.211 52.196,93.096L52.085,91.513C53.065,91.57 57.937,91.717 58.455,91.691C59.613,91.634 63.916,91.656 64.896,91.598L64.533,93.153C63.668,93.211 62.261,93.632 61.454,93.805C61.857,95.015 63.463,98.918 64.673,101.799C65.596,103.875 67.127,107.941 68.567,110.305C69.547,110.478 71.796,111.139 72.834,111.195L72.891,111.771L72.774,113.203Z" style="fill:rgb(239,61,66);"/>
        </g>
        <g transform="matrix(1,0,0,1,0,-1.53175)">
            <path d="M106.54,107.271C105.745,107.211 101.919,107.217 99.962,107.271C98.394,107.316 94.668,107.129 92.894,107.207L92.757,105.033C93.369,104.973 97.185,104.711 97.918,104.59C98.164,103.428 98.046,101.779 98.046,100.375L97.952,97.817C95.995,97.817 83.06,98.489 82.51,98.549L81.565,98.672C81.565,102.158 81.748,103.26 81.993,104.543C83.033,104.726 86.764,104.973 87.559,105.094L87.51,107.463C86.593,107.402 80.854,107.463 79.081,107.463C76.94,107.463 71.736,107.418 70.513,107.478L70.678,105.033C71.656,104.973 75.356,104.607 76.151,104.484C76.273,102.894 76.335,100.387 76.335,97.756L76.335,94.515C76.335,93.415 76.273,90.234 76.212,89.134C75.417,89.012 71.717,88.764 70.617,88.703L70.422,86.852C71.155,86.913 76.262,86.773 78.953,86.773C81.461,86.773 87.147,86.823 87.819,86.761L87.62,88.703C86.458,88.764 82.604,89.07 81.932,89.192C81.748,90.11 81.565,90.905 81.565,93.841L81.474,95.372C82.575,95.372 96.22,95.318 97.918,95.075L97.918,92.968C97.918,90.277 98.336,87.367 98.031,86.572C97.358,86.389 93.712,85.876 92.55,85.815L92.712,83.862C93.446,83.923 96.882,83.903 99.452,83.964C102.143,83.964 106.053,84.075 106.849,83.952L106.668,85.56C105.873,85.622 102.325,86.518 102.325,86.518C102.325,86.518 102.084,88.194 102.262,90.605C102.408,92.607 102.453,96.543 102.453,96.543C102.555,100.928 102.826,104.471 102.581,104.654C102.286,104.873 105.389,105.062 106.245,105.183L106.58,105.765L106.54,107.271Z" style="fill:rgb(239,61,66);"/>
        </g>
        <g transform="matrix(1,0,0,1,0,-1.53175)">
            <path d="M133.169,97.565C133.39,91.385 128.552,89.739 122.44,90.158C119.243,90.378 112.734,92.069 112.734,97.565C112.734,102.998 117.727,105.939 124.389,105.359C129.543,104.91 132.25,103.012 132.913,100.375L133.169,97.565ZM138.086,97.055C138.376,104.523 131.556,108.23 122.696,108.23C119.01,108.23 114.522,107.527 110.691,105.228C107.701,103.433 107.207,101.107 107.207,98.198C107.207,92.183 113.755,87.197 123.779,87.262C127.595,87.262 131.272,87.842 134.246,90.161C136.898,92.23 137.347,93.258 137.831,95.522L138.086,97.055Z" style="fill:rgb(239,61,66);"/>
        </g>
        <g transform="matrix(1,0,0,1,0,-1.53175)">
            <path d="M180.062,109.637L177.939,109.453L177.917,104.857L180.604,105.193L183.011,105.305L182.343,109.805L180.062,109.637ZM182.795,101.515L178.836,101.133C179.251,99.131 178.889,83.759 178.856,82.118L178.653,78.888C179.756,79.107 179.589,78.993 184.244,79.482C187.077,79.78 187.446,79.907 188.379,79.943L187.162,83.772C186.124,86.835 183.114,100.494 182.795,101.515Z" style="fill:rgb(239,61,66);"/>
        </g>
        <g transform="matrix(1,0,0,1,0,-1.53175)">
            <path d="M169.951,95.011C170.371,88.295 163.901,85.848 156.924,86.326C153.273,86.577 146.451,88.736 146.451,95.011C146.451,101.213 152.16,104.34 159.767,103.676C165.65,103.164 168.1,100.949 169.44,97.95C169.44,97.95 169.823,97.055 169.951,95.011ZM175.228,94.019C175.75,101.014 167.678,106.824 157.563,106.824C153.354,106.824 149.771,106.314 145.621,103.568C142.207,101.308 140.576,99.354 140.149,95.5C139.395,88.676 147.627,82.941 159.07,83.014C163.427,83.014 167.625,83.678 171.02,86.326C174.048,88.687 174.577,90.927 175.13,93.513L175.228,94.019Z" style="fill:rgb(239,61,66);"/>
        </g>
        <g transform="matrix(1,0,0,1,0,-1.53175)">
            <path d="M187.22,107.443L187.63,107.443C187.985,107.443 188.329,107.426 188.329,107.004C188.329,106.642 188.016,106.599 187.744,106.599L187.22,106.599L187.22,107.443ZM186.821,106.273L187.811,106.273C188.432,106.273 188.728,106.521 188.728,107.021C188.728,107.498 188.426,107.697 188.034,107.74L188.788,108.898L188.359,108.898L187.647,107.769L187.22,107.769L187.22,108.898L186.821,108.898L186.821,106.273ZM187.678,109.508C188.703,109.508 189.523,108.674 189.523,107.588C189.523,106.504 188.703,105.672 187.678,105.672C186.646,105.672 185.832,106.504 185.832,107.588C185.832,108.674 186.646,109.508 187.678,109.508ZM187.678,105.346C188.896,105.346 189.921,106.31 189.921,107.588C189.921,108.867 188.896,109.832 187.678,109.832C186.453,109.832 185.434,108.867 185.434,107.588C185.434,106.31 186.453,105.346 187.678,105.346Z" style="fill:rgb(239,61,66);"/>
        </g>
    </g>
</svg>
