<?xml version="1.0" encoding="UTF-8" standalone="no"?>
<!DOCTYPE svg PUBLIC "-//W3C//DTD SVG 1.1//EN" "http://www.w3.org/Graphics/SVG/1.1/DTD/svg11.dtd">
<svg width="100%" height="100%" viewBox="0 0 350 348" version="1.1" xmlns="http://www.w3.org/2000/svg" xmlns:xlink="http://www.w3.org/1999/xlink" xml:space="preserve" xmlns:serif="http://www.serif.com/" style="fill-rule:evenodd;clip-rule:evenodd;stroke-linejoin:round;stroke-miterlimit:2;">
    <g id="g2900" transform="matrix(1,0,0,1,-492.496,-200.613)">
        <g id="layer1">
            <g id="g29001" serif:id="g2900">
                <path id="path2842" d="M494.482,202.609L839.509,202.609L839.509,546.344L494.482,546.344L494.482,202.609ZM696.315,534.764C766.158,522.765 819.646,469.094 830.858,399.761C833.637,382.576 832.704,355.694 828.773,339.721C820.5,306.1 805.163,280.135 779.218,255.827C754.629,232.79 721.103,217.462 686.236,213.318C672.875,211.73 643.699,213.14 631.195,215.977C598.094,223.489 569.68,239.755 546.224,264.62C515.755,296.917 500.548,338.24 502.851,382.481C507.069,463.505 571.352,529.174 653.835,536.72C665.144,537.755 683.946,536.889 696.315,534.764ZM545.806,461.224L545.806,413.445L680.032,290.23L558.56,290.23L558.56,264.513L776.044,264.513L776.044,310.05L653.01,429.281L797.176,429.281L797.176,461.224L545.806,461.224ZM798.774,381.751L798.774,387.876L732.525,387.876L732.525,381.751L798.774,381.751ZM554.413,342.072L528.445,342.072L528.366,335.189L554.413,335.189L554.413,309.521L561.129,309.521L561.129,335.189L588.036,335.189L588.115,342.072L561.129,342.072L561.129,367.895L554.413,367.895L554.413,342.072Z" style="fill:rgb(230,47,14);fill-rule:nonzero;"/>
            </g>
        </g>
    </g>
</svg>
